<svg xmlns="http://www.w3.org/2000/svg" width="960" height="560" viewBox="0 0 960 560" role="img" aria-labelledby="title desc">
  <title id="title">Credibility signal stack</title>
  <desc id="desc">Local premium illustration for Hamzah builder credibility and method.</desc>
  <defs>
    <linearGradient id="bg" x1="0" y1="0" x2="1" y2="1"><stop offset="0" stop-color="#06120f"/><stop offset=".55" stop-color="#11231e"/><stop offset="1" stop-color="#221f17"/></linearGradient>
    <linearGradient id="accent" x1="0" y1="0" x2="1" y2="1"><stop offset="0" stop-color="#73f4c6"/><stop offset="1" stop-color="#d7b56b"/></linearGradient>
    <filter id="shadow" x="-20%" y="-20%" width="140%" height="140%"><feDropShadow dx="0" dy="24" stdDeviation="22" flood-color="#000" flood-opacity=".35"/></filter>
  </defs>
  <rect width="960" height="560" rx="42" fill="url(#bg)"/>
  <circle cx="804" cy="100" r="170" fill="#73f4c6" opacity=".10"/>
  <circle cx="126" cy="460" r="186" fill="#d7b56b" opacity=".10"/>
  <rect x="54" y="50" width="852" height="460" rx="34" fill="#fff" opacity=".045" stroke="#fff" stroke-opacity=".16"/>
  <text x="86" y="100" fill="#f4fff9" font-family="Inter, Arial, sans-serif" font-size="28" font-weight="800">Hamzah</text>
  <text x="86" y="130" fill="#a8b8b1" font-family="Inter, Arial, sans-serif" font-size="15" letter-spacing="2">Credibility signal stack</text>
  
  <g filter="url(#shadow)">
    <rect x="96" y="168" width="340" height="268" rx="30" fill="#0e1d18" stroke="#fff" stroke-opacity=".14"/>
    <text x="126" y="214" fill="#f4fff9" font-family="Inter, Arial, sans-serif" font-size="24" font-weight="800">Credibility signals</text>
    <circle cx="138" cy="264" r="8" fill="#73f4c6"/><text x="162" y="270" fill="#a8b8b1" font-family="Inter, Arial, sans-serif" font-size="16">Original local visuals</text>
    <circle cx="138" cy="312" r="8" fill="#d7b56b"/><text x="162" y="318" fill="#a8b8b1" font-family="Inter, Arial, sans-serif" font-size="16">Static handoff clarity</text>
    <circle cx="138" cy="360" r="8" fill="#73f4c6"/><text x="162" y="366" fill="#a8b8b1" font-family="Inter, Arial, sans-serif" font-size="16">QA reports and launch notes</text>

    <rect x="502" y="150" width="360" height="304" rx="34" fill="#0e1d18" stroke="#fff" stroke-opacity=".14"/>
    <rect x="536" y="190" width="124" height="12" rx="6" fill="url(#accent)"/>
    <rect x="536" y="232" width="262" height="14" rx="7" fill="#fff" opacity=".18"/>
    <rect x="536" y="272" width="218" height="14" rx="7" fill="#fff" opacity=".18"/>
    <rect x="536" y="312" width="176" height="14" rx="7" fill="#fff" opacity=".18"/>
    <rect x="536" y="368" width="132" height="38" rx="19" fill="url(#accent)" opacity=".92"/>
    <text x="562" y="393" fill="#06120f" font-family="Inter, Arial, sans-serif" font-size="15" font-weight="900">Review ready</text>
  </g>
  <path d="M436 306 C464 286 486 274 506 262" stroke="url(#accent)" stroke-width="6" stroke-linecap="round" fill="none" opacity=".8"/>

</svg>