<svg xmlns="http://www.w3.org/2000/svg" width="960" height="560" viewBox="0 0 960 560" role="img" aria-labelledby="title desc">
  <title id="title">Builder method board</title>
  <desc id="desc">Local premium illustration for Hamzah builder credibility and method.</desc>
  <defs>
    <linearGradient id="bg" x1="0" y1="0" x2="1" y2="1"><stop offset="0" stop-color="#06120f"/><stop offset=".55" stop-color="#11231e"/><stop offset="1" stop-color="#221f17"/></linearGradient>
    <linearGradient id="accent" x1="0" y1="0" x2="1" y2="1"><stop offset="0" stop-color="#73f4c6"/><stop offset="1" stop-color="#d7b56b"/></linearGradient>
    <filter id="shadow" x="-20%" y="-20%" width="140%" height="140%"><feDropShadow dx="0" dy="24" stdDeviation="22" flood-color="#000" flood-opacity=".35"/></filter>
  </defs>
  <rect width="960" height="560" rx="42" fill="url(#bg)"/>
  <circle cx="804" cy="100" r="170" fill="#73f4c6" opacity=".10"/>
  <circle cx="126" cy="460" r="186" fill="#d7b56b" opacity=".10"/>
  <rect x="54" y="50" width="852" height="460" rx="34" fill="#fff" opacity=".045" stroke="#fff" stroke-opacity=".16"/>
  <text x="86" y="100" fill="#f4fff9" font-family="Inter, Arial, sans-serif" font-size="28" font-weight="800">Hamzah</text>
  <text x="86" y="130" fill="#a8b8b1" font-family="Inter, Arial, sans-serif" font-size="15" letter-spacing="2">Builder method board</text>
  
  <g filter="url(#shadow)">
    <rect x="92" y="172" width="230" height="260" rx="30" fill="#0e1d18" stroke="#fff" stroke-opacity=".14"/>
    <text x="122" y="220" fill="#f4fff9" font-family="Inter, Arial, sans-serif" font-size="23" font-weight="800">Plan</text>
    <rect x="122" y="254" width="138" height="12" rx="6" fill="url(#accent)"/>
    <rect x="122" y="290" width="162" height="12" rx="6" fill="#fff" opacity=".18"/>
    <rect x="122" y="326" width="112" height="12" rx="6" fill="#fff" opacity=".18"/>
    <text x="122" y="384" fill="#a8b8b1" font-family="Inter, Arial, sans-serif" font-size="14">Sections, scope, goals</text>

    <rect x="364" y="172" width="230" height="260" rx="30" fill="#0e1d18" stroke="#fff" stroke-opacity=".14"/>
    <text x="394" y="220" fill="#f4fff9" font-family="Inter, Arial, sans-serif" font-size="23" font-weight="800">Build</text>
    <rect x="394" y="254" width="138" height="12" rx="6" fill="url(#accent)"/>
    <rect x="394" y="290" width="162" height="12" rx="6" fill="#fff" opacity=".18"/>
    <rect x="394" y="326" width="112" height="12" rx="6" fill="#fff" opacity=".18"/>
    <text x="394" y="384" fill="#a8b8b1" font-family="Inter, Arial, sans-serif" font-size="14">UI, assets, responsive</text>

    <rect x="636" y="172" width="230" height="260" rx="30" fill="#0e1d18" stroke="#fff" stroke-opacity=".14"/>
    <text x="666" y="220" fill="#f4fff9" font-family="Inter, Arial, sans-serif" font-size="23" font-weight="800">Handoff</text>
    <rect x="666" y="254" width="138" height="12" rx="6" fill="url(#accent)"/>
    <rect x="666" y="290" width="162" height="12" rx="6" fill="#fff" opacity=".18"/>
    <rect x="666" y="326" width="112" height="12" rx="6" fill="#fff" opacity=".18"/>
    <text x="666" y="384" fill="#a8b8b1" font-family="Inter, Arial, sans-serif" font-size="14">Build, QA, docs</text>
  </g>
  <path d="M322 300 H364 M594 300 H636" stroke="url(#accent)" stroke-width="8" stroke-linecap="round"/>

</svg>