<svg xmlns="http://www.w3.org/2000/svg" viewBox="0 0 760 520" role="img" aria-labelledby="title desc">
  <title id="title">Accessible flow checks mockup</title>
  <desc id="desc">A visual checklist for keyboard navigation, internal anchors, local assets, mobile readability, and static build checks.</desc>
  <defs><linearGradient id="bg" x1="0" y1="0" x2="1" y2="1"><stop offset="0" stop-color="#171422"/><stop offset="1" stop-color="#071019"/></linearGradient><linearGradient id="a" x1="0" y1="0" x2="1" y2="1"><stop offset="0" stop-color="#F9C784"/><stop offset=".5" stop-color="#A78BFA"/><stop offset="1" stop-color="#67E8F9"/></linearGradient><filter id="sh" x="-20%" y="-20%" width="140%" height="140%"><feDropShadow dx="0" dy="24" stdDeviation="24" flood-color="#000" flood-opacity=".36"/></filter></defs>
  <rect width="760" height="520" rx="38" fill="url(#bg)"/><path d="M82 150c116-70 226-70 330 0s194 64 266-20" fill="none" stroke="#F9C784" stroke-opacity=".12" stroke-width="26" stroke-linecap="round"/>
  <g filter="url(#sh)"><rect x="96" y="78" width="568" height="366" rx="34" fill="#10121C" stroke="#fff" stroke-opacity=".12"/>
    <rect x="134" y="118" width="210" height="22" rx="11" fill="#fff" opacity=".82"/><rect x="134" y="160" width="300" height="12" rx="6" fill="#fff" opacity=".18"/>
    <g font-family="Inter,Arial,sans-serif" font-size="14" font-weight="850"><rect x="134" y="214" width="492" height="46" rx="20" fill="#171A28"/><text x="178" y="242" fill="#F6F7FB">Keyboard-friendly links and buttons</text><circle cx="156" cy="237" r="12" fill="url(#a)"/>
    <rect x="134" y="278" width="492" height="46" rx="20" fill="#171A28"/><text x="178" y="306" fill="#F6F7FB">Internal anchors and local assets resolve</text><circle cx="156" cy="301" r="12" fill="url(#a)" opacity=".85"/>
    <rect x="134" y="342" width="492" height="46" rx="20" fill="#171A28"/><text x="178" y="370" fill="#F6F7FB">Responsive readability and reduced motion</text><circle cx="156" cy="365" r="12" fill="url(#a)" opacity=".72"/></g>
  </g><text x="112" y="484" fill="#DDE7FF" font-family="Inter,Arial" font-size="18" font-weight="900">Access checks · practical and static-friendly</text>
</svg>
