<svg xmlns="http://www.w3.org/2000/svg" width="1100" height="720" viewBox="0 0 1100 720" role="img" aria-label="SaaS analytics dashboard mockup">
  <defs>
    <linearGradient id="bg" x1="0" x2="1" y1="0" y2="1"><stop stop-color="#050816"/><stop offset=".52" stop-color="#07111f"/><stop offset="1" stop-color="#193cff"/></linearGradient>
    <linearGradient id="cyan" x1="0" x2="1"><stop stop-color="#6ee7ff"/><stop offset="1" stop-color="#8b5cf6"/></linearGradient>
    <filter id="shadow" x="-20%" y="-20%" width="140%" height="140%"><feDropShadow dx="0" dy="22" stdDeviation="24" flood-color="#000" flood-opacity=".45"/></filter>
  </defs>
  <rect width="1100" height="720" rx="28" fill="url(#bg)"/>
  <circle cx="946" cy="115" r="180" fill="#6ee7ff" opacity=".12"/>
  <circle cx="165" cy="619" r="220" fill="#8b5cf6" opacity=".13"/>

  <g filter="url(#shadow)">
    <rect x="74" y="86" width="952" height="548" rx="34" fill="#0b1224" stroke="#2743a3"/>
    <rect x="112" y="124" width="876" height="72" rx="22" fill="#111c39"/>
    <text x="144" y="170" fill="#f8fbff" font-family="Arial" font-size="29" font-weight="800">Product analytics screen</text>
    <rect x="112" y="232" width="255" height="330" rx="26" fill="#111c39"/><rect x="408" y="232" width="255" height="330" rx="26" fill="#111c39"/><rect x="704" y="232" width="284" height="330" rx="26" fill="#111c39"/>
    <text x="142" y="288" fill="#6ee7ff" font-family="Arial" font-size="34" font-weight="800">Funnels</text>
    <path d="M145 358 H330 L295 420 H180 Z" fill="#6ee7ff" opacity=".72"/><path d="M175 442 H300 L276 492 H202 Z" fill="#8b5cf6" opacity=".72"/>
    <text x="438" y="288" fill="#a78bfa" font-family="Arial" font-size="34" font-weight="800">Cohorts</text>
    <g fill="#223a72"><rect x="438" y="340" width="48" height="160" rx="12"/><rect x="502" y="310" width="48" height="190" rx="12"/><rect x="566" y="370" width="48" height="130" rx="12"/></g>
    <text x="734" y="288" fill="#34d399" font-family="Arial" font-size="34" font-weight="800">Alerts</text>
    <rect x="734" y="336" width="210" height="56" rx="18" fill="#142a31"/><rect x="734" y="412" width="190" height="56" rx="18" fill="#271f44"/><rect x="734" y="488" width="228" height="56" rx="18" fill="#17243c"/>
  </g>

</svg>
