<svg xmlns="http://www.w3.org/2000/svg" width="760" height="520" viewBox="0 0 760 520" role="img" aria-labelledby="title desc"><title id="title">Mobile app onboarding flow mockup</title><desc id="desc">A three-step onboarding flow with welcome, goals, and first task screens.</desc><defs><linearGradient id="g" x1="0" y1="0" x2="1" y2="1"><stop stop-color="#7c3aed"/><stop offset=".55" stop-color="#06b6d4"/><stop offset="1" stop-color="#a7f3d0"/></linearGradient></defs><rect width="760" height="520" rx="36" fill="#111936"/><g transform="translate(66 62)"><path d="M142 198h160M354 198h160" stroke="#334155" stroke-width="10" stroke-linecap="round"/><g><rect width="170" height="310" rx="36" fill="#050816" stroke="#fff"/><rect x="18" y="24" width="134" height="260" rx="26" fill="#101936"/><circle cx="85" cy="116" r="48" fill="url(#g)"/><text x="42" y="202" fill="#fff" font-family="Arial" font-size="20" font-weight="900">Welcome</text></g><g transform="translate(226)"><rect width="170" height="310" rx="36" fill="#050816" stroke="#fff"/><rect x="18" y="24" width="134" height="260" rx="26" fill="#101936"/><rect x="42" y="88" width="86" height="22" rx="11" fill="#7c3aed"/><rect x="42" y="130" width="86" height="22" rx="11" fill="#06b6d4"/><rect x="42" y="172" width="86" height="22" rx="11" fill="#334155"/><text x="42" y="238" fill="#fff" font-family="Arial" font-size="20" font-weight="900">Goals</text></g><g transform="translate(452)"><rect width="170" height="310" rx="36" fill="#050816" stroke="#fff"/><rect x="18" y="24" width="134" height="260" rx="26" fill="#101936"/><path d="M58 132l22 22 44-58" fill="none" stroke="#a7f3d0" stroke-width="14" stroke-linecap="round" stroke-linejoin="round"/><text x="42" y="238" fill="#fff" font-family="Arial" font-size="20" font-weight="900">Start</text></g></g><text x="60" y="438" fill="#fff" font-family="Arial" font-size="30" font-weight="900">Three-screen onboarding</text></svg>
