<svg xmlns="http://www.w3.org/2000/svg" width="760" height="520" viewBox="0 0 760 520" role="img" aria-labelledby="title desc"><title id="title">Mobile app screenshot gallery mockup</title><desc id="desc">A polished screenshot gallery with analytics, calendar, messages, and profile screens.</desc><defs><linearGradient id="g" x1="0" y1="0" x2="1" y2="1"><stop stop-color="#7c3aed"/><stop offset="1" stop-color="#06b6d4"/></linearGradient></defs><rect width="760" height="520" rx="36" fill="#0f1028"/><g transform="translate(42 44)"><rect width="310" height="200" rx="30" fill="#151e3d" stroke="#fff"/><text x="28" y="54" fill="#fff" font-family="Arial" font-size="24" font-weight="900">Analytics</text><path d="M40 148l50-52 42 24 70-78 58 40" fill="none" stroke="url(#g)" stroke-width="10" stroke-linecap="round"/><rect x="382" width="292" height="200" rx="30" fill="#151e3d" stroke="#fff"/><text x="410" y="54" fill="#fff" font-family="Arial" font-size="24" font-weight="900">Calendar</text><g fill="#334155"><rect x="410" y="86" width="56" height="48" rx="12"/><rect x="480" y="86" width="56" height="48" rx="12"/><rect x="550" y="86" width="56" height="48" rx="12"/></g><rect y="236" width="210" height="200" rx="30" fill="#151e3d" stroke="#fff"/><text x="28" y="294" fill="#fff" font-family="Arial" font-size="24" font-weight="900">Chat</text><rect x="28" y="326" width="126" height="18" rx="9" fill="#06b6d4"/><rect x="56" y="364" width="126" height="18" rx="9" fill="#334155"/><rect x="238" y="236" width="208" height="200" rx="30" fill="url(#g)"/><text x="266" y="344" fill="#06121f" font-family="Arial" font-size="28" font-weight="900">Focus</text><rect x="474" y="236" width="200" height="200" rx="30" fill="#151e3d" stroke="#fff"/><circle cx="574" cy="310" r="42" fill="#a7f3d0"/><text x="520" y="384" fill="#fff" font-family="Arial" font-size="24" font-weight="900">Profile</text></g></svg>
