<svg xmlns="http://www.w3.org/2000/svg" width="760" height="520" viewBox="0 0 760 520" role="img" aria-labelledby="title desc"><title id="title">Mobile app feature card mockups</title><desc id="desc">Six polished feature cards for tracking, planning, reminders, sync, privacy, and insights.</desc><defs><linearGradient id="g" x1="0" y1="0" x2="1" y2="1"><stop stop-color="#7c3aed"/><stop offset="1" stop-color="#06b6d4"/></linearGradient></defs><rect width="760" height="520" rx="36" fill="#0f1028"/><text x="46" y="78" fill="#fff" font-family="Arial" font-size="30" font-weight="900">App Features</text><text x="46" y="108" fill="#b9c7e6" font-family="Arial" font-size="15">Landing-page cards that make the app feel real and useful.</text><g transform="translate(46 150)"><g fill="#151e3d" stroke="#fff" opacity=".98"><rect width="202" height="130" rx="26"/><rect x="232" width="202" height="130" rx="26"/><rect x="464" width="202" height="130" rx="26"/><rect y="158" width="202" height="130" rx="26"/><rect x="232" y="158" width="202" height="130" rx="26"/><rect x="464" y="158" width="202" height="130" rx="26"/></g><g fill="url(#g)"><circle cx="48" cy="48" r="20"/><circle cx="280" cy="48" r="20"/><circle cx="512" cy="48" r="20"/><circle cx="48" cy="206" r="20"/><circle cx="280" cy="206" r="20"/><circle cx="512" cy="206" r="20"/></g><g font-family="Arial" font-weight="900" fill="#fff"><text x="28" y="92">Habit tracking</text><text x="260" y="92">Daily planner</text><text x="492" y="92">Smart nudges</text><text x="28" y="250">Sync devices</text><text x="260" y="250">Private data</text><text x="492" y="250">Insights</text></g></g></svg>
