<svg xmlns="http://www.w3.org/2000/svg" width="920" height="680" viewBox="0 0 920 680" role="img" aria-labelledby="title desc"><title id="title">Mobile app landing page hero screen mockups</title><desc id="desc">Three polished mobile app screens with dashboard, activity, and onboarding previews.</desc><defs><linearGradient id="bg" x1="0" y1="0" x2="1" y2="1"><stop stop-color="#0f1028"/><stop offset=".52" stop-color="#172554"/><stop offset="1" stop-color="#4c1d95"/></linearGradient><linearGradient id="grad" x1="0" y1="0" x2="1" y2="1"><stop stop-color="#7c3aed"/><stop offset=".55" stop-color="#06b6d4"/><stop offset="1" stop-color="#a7f3d0"/></linearGradient></defs><rect width="920" height="680" rx="48" fill="url(#bg)"/><circle cx="740" cy="90" r="190" fill="#06b6d4" opacity=".18"/><circle cx="150" cy="570" r="230" fill="#7c3aed" opacity=".2"/><g transform="translate(112 92)"><rect width="210" height="450" rx="42" fill="#050816" stroke="#fff"/><rect x="18" y="24" width="174" height="402" rx="30" fill="#101936"/><text x="42" y="78" fill="#fff" font-family="Arial" font-size="23" font-weight="900">Flowly</text><rect x="42" y="112" width="126" height="112" rx="28" fill="url(#grad)"/><rect x="42" y="252" width="126" height="14" rx="7" fill="#334155"/><rect x="42" y="286" width="96" height="14" rx="7" fill="#334155"/><rect x="42" y="344" width="126" height="44" rx="22" fill="#06b6d4"/></g><g transform="translate(354 62)"><rect width="240" height="510" rx="48" fill="#050816" stroke="#fff"/><rect x="20" y="28" width="200" height="454" rx="34" fill="#111c3d"/><text x="50" y="88" fill="#fff" font-family="Arial" font-size="26" font-weight="900">Focus</text><circle cx="120" cy="196" r="74" fill="none" stroke="#334155" stroke-width="18"/><path d="M120 122a74 74 0 0 1 70 98" fill="none" stroke="url(#grad)" stroke-width="18" stroke-linecap="round"/><text x="90" y="206" fill="#fff" font-family="Arial" font-size="30" font-weight="900">76%</text><rect x="48" y="318" width="144" height="44" rx="22" fill="#7c3aed"/><rect x="48" y="382" width="144" height="44" rx="22" fill="#1e293b"/></g><g transform="translate(632 120)"><rect width="210" height="450" rx="42" fill="#050816" stroke="#fff"/><rect x="18" y="24" width="174" height="402" rx="30" fill="#101936"/><text x="42" y="78" fill="#fff" font-family="Arial" font-size="23" font-weight="900">Plan</text><g fill="#1e293b"><rect x="42" y="122" width="126" height="54" rx="20"/><rect x="42" y="196" width="126" height="54" rx="20"/><rect x="42" y="270" width="126" height="54" rx="20"/></g><rect x="42" y="360" width="126" height="44" rx="22" fill="url(#grad)"/></g></svg>
