<svg xmlns="http://www.w3.org/2000/svg" width="920" height="680" viewBox="0 0 920 680" role="img" aria-labelledby="title desc"><title id="title">Minimal architecture gallery hero mockup</title><desc id="desc">A minimal architecture studio gallery layout with project photographs, plan lines, and editorial project notes.</desc><defs><linearGradient id="paper" x1="0" y1="0" x2="1" y2="1"><stop stop-color="#f7f1e5"/><stop offset="1" stop-color="#d9c9b1"/></linearGradient><linearGradient id="ink" x1="0" y1="0" x2="1" y2="1"><stop stop-color="#1b1d1b"/><stop offset="1" stop-color="#6f604a"/></linearGradient></defs><rect width="920" height="680" rx="48" fill="url(#paper)"/><g stroke="#1b1d1b" opacity=".13"><path d="M80 90h760M80 250h760M80 410h760M80 570h760"/><path d="M170 40v600M370 40v600M570 40v600M770 40v600"/></g><rect x="70" y="64" width="780" height="552" rx="34" fill="#fbf7ee" stroke="#1b1d1b" opacity=".98"/><g transform="translate(104 98)"><rect width="330" height="420" rx="4" fill="url(#ink)"/><path d="M44 360h246M44 312h168M44 270h202" stroke="#f8f3e8" stroke-width="4" opacity=".55"/><rect x="46" y="58" width="236" height="150" fill="#c9b69d"/><path d="M70 182L164 82l94 100" fill="none" stroke="#1b1d1b" stroke-width="8" opacity=".45"/><text x="38" y="486" fill="#1b1d1b" font-family="Arial" font-size="18" font-weight="900">Quiet House / 2026</text></g><g transform="translate(484 106)"><text x="0" y="34" fill="#1b1d1b" font-family="Georgia" font-size="44" font-weight="700">Atelier Northline</text><text x="0" y="72" fill="#706552" font-family="Arial" font-size="15">Gallery-first architecture studio website</text><rect x="0" y="116" width="286" height="116" fill="#1b1d1b"/><rect x="22" y="138" width="92" height="72" fill="#d8c7ad"/><rect x="136" y="138" width="122" height="72" fill="#a99a84"/><rect x="0" y="266" width="286" height="116" fill="#d8c7ad"/><path d="M42 342h188M42 310h142" stroke="#1b1d1b" stroke-width="5" opacity=".65"/><rect x="0" y="416" width="286" height="68" rx="34" fill="#1b1d1b"/><text x="50" y="459" fill="#fbf7ee" font-family="Arial" font-size="14" font-weight="900">START A PROJECT</text></g></svg>
