<svg xmlns="http://www.w3.org/2000/svg" width="760" height="520" viewBox="0 0 760 520" role="img" aria-labelledby="title desc"><title id="title">Architecture floor plan mockup</title><desc id="desc">A clean architectural floor plan drawing with room zones and measurement grid.</desc><rect width="760" height="520" rx="36" fill="#f5efe4"/><g transform="translate(60 54)"><rect width="640" height="412" fill="#fffaf1" stroke="#1b1d1b"/><g stroke="#1b1d1b" stroke-width="5" fill="none"><path d="M80 70h480v270H80z"/><path d="M80 180h220M300 70v270M420 70v120M420 250v90M300 250h260M560 180v160"/><path d="M118 70q0 42 42 42M300 214q42 0 42-42M420 250q0-42-42-42" stroke-width="3"/></g><g fill="#756852" font-family="Arial" font-size="13" font-weight="900"><text x="112" y="132">STUDIO</text><text x="354" y="132">LIVING</text><text x="118" y="272">COURT</text><text x="456" y="306">SUITE</text></g><g stroke="#c6b397" opacity=".8"><path d="M0 30h640M0 380h640M40 0v412M600 0v412"/></g><text x="0" y="-18" fill="#1b1d1b" font-family="Georgia" font-size="28" font-weight="700">Floor-plan preview</text></g></svg>
