<svg xmlns="http://www.w3.org/2000/svg" width="960" height="640" viewBox="0 0 960 640" role="img" aria-labelledby="title desc">
<title id="title">Static asset pipeline mockup</title><desc id="desc">A local asset pipeline showing SVG artwork, scripts, styles, and build output prepared for static hosting.</desc>
<defs><linearGradient id="bg" x1="0" y1="0" x2="1" y2="1"><stop stop-color="#0b1020"/><stop offset="1" stop-color="#22173a"/></linearGradient><linearGradient id="pink" x1="0" y1="0" x2="1" y2="1"><stop stop-color="#ff8bd1"/><stop offset="1" stop-color="#8db7ff"/></linearGradient><filter id="s" x="-15%" y="-15%" width="130%" height="130%"><feDropShadow dx="0" dy="16" stdDeviation="18" flood-opacity=".32"/></filter></defs>
<rect width="960" height="640" rx="42" fill="url(#bg)"/><path d="M120 140 C260 40 400 200 540 110 S790 90 850 230" fill="none" stroke="#ffffff" stroke-opacity=".08" stroke-width="40" stroke-linecap="round"/>
<g filter="url(#s)"><rect x="88" y="96" width="784" height="448" rx="34" fill="#0f172a" stroke="#fff" stroke-opacity=".12"/></g>
<g transform="translate(132 144)"><rect width="172" height="116" rx="24" fill="#16243a" stroke="#fff" stroke-opacity=".10"/><rect x="28" y="28" width="68" height="16" rx="8" fill="#fff" opacity=".88"/><rect x="28" y="60" width="116" height="12" rx="6" fill="#8aa5bf" opacity=".55"/><path d="M130 28l22 22-22 22-22-22z" fill="url(#pink)" opacity=".9"/></g>
<g transform="translate(394 144)"><rect width="172" height="116" rx="24" fill="#16243a" stroke="#fff" stroke-opacity=".10"/><rect x="28" y="28" width="92" height="16" rx="8" fill="#fff" opacity=".88"/><rect x="28" y="60" width="116" height="12" rx="6" fill="#8aa5bf" opacity=".55"/><circle cx="132" cy="52" r="27" fill="#78f7d4" opacity=".9"/></g>
<g transform="translate(656 144)"><rect width="172" height="116" rx="24" fill="#16243a" stroke="#fff" stroke-opacity=".10"/><rect x="28" y="28" width="82" height="16" rx="8" fill="#fff" opacity=".88"/><rect x="28" y="60" width="116" height="12" rx="6" fill="#8aa5bf" opacity=".55"/><rect x="114" y="28" width="44" height="44" rx="13" fill="#ffd166" opacity=".92"/></g>
<path d="M304 202h90M566 202h90" stroke="#8db7ff" stroke-width="5" stroke-linecap="round" stroke-dasharray="12 12"/>
<g transform="translate(168 336)"><rect width="624" height="128" rx="30" fill="#111d31" stroke="#fff" stroke-opacity=".10"/><rect x="38" y="38" width="114" height="16" rx="8" fill="#fff" opacity=".88"/><rect x="38" y="70" width="230" height="11" rx="5.5" fill="#8aa5bf" opacity=".52"/><rect x="326" y="32" width="98" height="64" rx="18" fill="url(#pink)" opacity=".92"/><rect x="448" y="32" width="98" height="64" rx="18" fill="#78f7d4" opacity=".88"/><rect x="570" y="32" width="24" height="64" rx="12" fill="#ffd166" opacity=".86"/></g>
<text x="480" y="514" text-anchor="middle" fill="#a9bed1" font-family="Inter,Arial" font-size="18">local assets → checked references → static dist output</text>
</svg>