<svg xmlns="http://www.w3.org/2000/svg" width="960" height="640" viewBox="0 0 960 640" role="img" aria-labelledby="title desc"><title id="title">Local business website mockup</title><desc id="desc">A polished local business storefront website preview with service cards and contact actions.</desc><defs><linearGradient id="bg" x1="0" y1="0" x2="1" y2="1"><stop stop-color="#08131d"/><stop offset="1" stop-color="#172d3c"/></linearGradient><linearGradient id="a" x1="0" y1="0" x2="1" y2="1"><stop stop-color="#78f7d4"/><stop offset="1" stop-color="#8db7ff"/></linearGradient><filter id="s"><feDropShadow dx="0" dy="18" stdDeviation="22" flood-opacity=".34"/></filter></defs><rect width="960" height="640" rx="42" fill="url(#bg)"/><rect x="96" y="86" width="768" height="468" rx="40" fill="#0e1b2b" stroke="#fff" stroke-opacity=".12" filter="url(#s)"/><rect x="140" y="130" width="680" height="82" rx="28" fill="#142740"/><rect x="176" y="160" width="190" height="16" rx="8" fill="#fff" opacity=".9"/><rect x="176" y="186" width="280" height="10" rx="5" fill="#9fb3c8" opacity=".54"/><rect x="638" y="154" width="132" height="34" rx="17" fill="url(#a)"/><g transform="translate(140 254)"><rect width="205" height="210" rx="30" fill="#13243a" stroke="#fff" stroke-opacity=".1"/><rect x="28" y="32" width="149" height="84" rx="22" fill="#203b58"/><rect x="28" y="140" width="112" height="14" rx="7" fill="#fff" opacity=".86"/><rect x="28" y="168" width="142" height="10" rx="5" fill="#9fb3c8" opacity=".52"/></g><g transform="translate(378 254)"><rect width="205" height="210" rx="30" fill="#13243a" stroke="#fff" stroke-opacity=".1"/><rect x="28" y="32" width="149" height="84" rx="22" fill="#203b58"/><circle cx="103" cy="74" r="32" fill="#ffd166" opacity=".88"/><rect x="28" y="140" width="118" height="14" rx="7" fill="#fff" opacity=".86"/><rect x="28" y="168" width="142" height="10" rx="5" fill="#9fb3c8" opacity=".52"/></g><g transform="translate(616 254)"><rect width="205" height="210" rx="30" fill="#13243a" stroke="#fff" stroke-opacity=".1"/><rect x="28" y="32" width="149" height="84" rx="22" fill="#203b58"/><path d="M70 84h66M103 51v66" stroke="#78f7d4" stroke-width="12" stroke-linecap="round"/><rect x="28" y="140" width="122" height="14" rx="7" fill="#fff" opacity=".86"/><rect x="28" y="168" width="142" height="10" rx="5" fill="#9fb3c8" opacity=".52"/></g></svg>