<svg xmlns="http://www.w3.org/2000/svg" width="960" height="640" viewBox="0 0 960 640" role="img" aria-labelledby="title desc"><title id="title">Creator portfolio mockup</title><desc id="desc">A premium creator portfolio screen with work cards, case study proof, and strong identity blocks.</desc><defs><linearGradient id="bg" x1="0" y1="0" x2="1" y2="1"><stop stop-color="#130c21"/><stop offset="1" stop-color="#301a38"/></linearGradient><linearGradient id="a" x1="0" y1="0" x2="1" y2="1"><stop stop-color="#ff8bd1"/><stop offset="1" stop-color="#8db7ff"/></linearGradient><filter id="s"><feDropShadow dx="0" dy="18" stdDeviation="22" flood-opacity=".34"/></filter></defs><rect width="960" height="640" rx="42" fill="url(#bg)"/><rect x="106" y="96" width="748" height="448" rx="40" fill="#170f29" stroke="#fff" stroke-opacity=".12" filter="url(#s)"/><circle cx="220" cy="208" r="74" fill="url(#a)" opacity=".95"/><rect x="330" y="158" width="280" height="22" rx="11" fill="#fff" opacity=".9"/><rect x="330" y="198" width="360" height="12" rx="6" fill="#bcaed0" opacity=".55"/><rect x="330" y="226" width="220" height="12" rx="6" fill="#bcaed0" opacity=".38"/><g transform="translate(150 330)"><rect width="180" height="136" rx="28" fill="#211538" stroke="#fff" stroke-opacity=".1"/><rect x="26" y="26" width="128" height="50" rx="18" fill="#362151"/><rect x="26" y="94" width="92" height="12" rx="6" fill="#fff" opacity=".86"/></g><g transform="translate(390 330)"><rect width="180" height="136" rx="28" fill="#211538" stroke="#fff" stroke-opacity=".1"/><rect x="26" y="26" width="128" height="50" rx="18" fill="#362151"/><path d="M62 52h56" stroke="#78f7d4" stroke-width="10" stroke-linecap="round"/><rect x="26" y="94" width="92" height="12" rx="6" fill="#fff" opacity=".86"/></g><g transform="translate(630 330)"><rect width="180" height="136" rx="28" fill="#211538" stroke="#fff" stroke-opacity=".1"/><rect x="26" y="26" width="128" height="50" rx="18" fill="#362151"/><circle cx="90" cy="52" r="26" fill="#ffd166" opacity=".9"/><rect x="26" y="94" width="92" height="12" rx="6" fill="#fff" opacity=".86"/></g></svg>