<svg xmlns="http://www.w3.org/2000/svg" width="960" height="640" viewBox="0 0 960 640" role="img" aria-labelledby="title desc"><title id="title">Product dashboard website mockup</title><desc id="desc">A product dashboard and web app interface preview for SaaS, internal tools, and admin panels.</desc><defs><linearGradient id="bg" x1="0" y1="0" x2="1" y2="1"><stop stop-color="#06111e"/><stop offset="1" stop-color="#172a48"/></linearGradient><linearGradient id="a" x1="0" y1="0" x2="1" y2="1"><stop stop-color="#78f7d4"/><stop offset="1" stop-color="#8db7ff"/></linearGradient><filter id="s"><feDropShadow dx="0" dy="18" stdDeviation="22" flood-opacity=".34"/></filter></defs><rect width="960" height="640" rx="42" fill="url(#bg)"/><rect x="90" y="82" width="780" height="476" rx="38" fill="#0d1729" stroke="#fff" stroke-opacity=".12" filter="url(#s)"/><rect x="122" y="114" width="170" height="412" rx="28" fill="#111f35"/><rect x="154" y="156" width="86" height="14" rx="7" fill="#fff" opacity=".85"/><rect x="154" y="205" width="110" height="12" rx="6" fill="#9fb3c8" opacity=".5"/><rect x="154" y="241" width="90" height="12" rx="6" fill="#9fb3c8" opacity=".35"/><rect x="154" y="277" width="118" height="12" rx="6" fill="#9fb3c8" opacity=".35"/><rect x="326" y="124" width="496" height="70" rx="24" fill="#13243a"/><rect x="358" y="152" width="210" height="16" rx="8" fill="#fff" opacity=".88"/><rect x="650" y="145" width="118" height="30" rx="15" fill="url(#a)"/><g transform="translate(326 226)"><rect width="152" height="118" rx="26" fill="#13243a"/><rect x="28" y="28" width="74" height="14" rx="7" fill="#fff" opacity=".85"/><path d="M30 84c22-28 40-6 62-34 22 20 34 12 52-8" fill="none" stroke="#78f7d4" stroke-width="7" stroke-linecap="round"/></g><g transform="translate(498 226)"><rect width="152" height="118" rx="26" fill="#13243a"/><rect x="28" y="28" width="74" height="14" rx="7" fill="#fff" opacity=".85"/><rect x="30" y="70" width="96" height="16" rx="8" fill="#8db7ff" opacity=".75"/></g><g transform="translate(670 226)"><rect width="152" height="118" rx="26" fill="#13243a"/><rect x="28" y="28" width="74" height="14" rx="7" fill="#fff" opacity=".85"/><circle cx="76" cy="76" r="28" fill="#ffd166" opacity=".9"/></g><rect x="326" y="382" width="496" height="112" rx="28" fill="#13243a"/><rect x="360" y="418" width="380" height="14" rx="7" fill="#9fb3c8" opacity=".5"/><rect x="360" y="454" width="310" height="14" rx="7" fill="#9fb3c8" opacity=".36"/></svg>