<svg xmlns="http://www.w3.org/2000/svg" width="1100" height="900" viewBox="0 0 1100 900" role="img" aria-labelledby="title desc">
<title id="title">Elegant beauty salon hero visual</title><desc id="desc">Salon interior mockup with stylist chair, mirror wall, product shelf, and booking card.</desc>
<defs><linearGradient id="bg" x1="0" y1="0" x2="1" y2="1"><stop stop-color="#fff9f2"/><stop offset=".55" stop-color="#f9d7dc"/><stop offset="1" stop-color="#5c2d39"/></linearGradient><linearGradient id="gold" x1="0" y1="0" x2="1" y2="1"><stop stop-color="#fff4bc"/><stop offset="1" stop-color="#c98b3d"/></linearGradient><filter id="s"><feDropShadow dx="0" dy="26" stdDeviation="24" flood-color="#2c1520" flood-opacity=".28"/></filter></defs>
<rect width="1100" height="900" rx="54" fill="url(#bg)"/>
<g opacity=".5"><circle cx="936" cy="120" r="190" fill="#fff"/><circle cx="150" cy="760" r="250" fill="#fff" opacity=".44"/></g>
<g filter="url(#s)"><rect x="88" y="86" width="924" height="704" rx="48" fill="#fffaf6"/><rect x="132" y="130" width="372" height="498" rx="36" fill="#311621"/><rect x="170" y="178" width="296" height="328" rx="148" fill="#f6dde1"/><rect x="207" y="220" width="222" height="250" rx="125" fill="#fff7f1"/><path d="M176 590h290" stroke="#f4c1ca" stroke-width="24" stroke-linecap="round"/><rect x="236" y="538" width="170" height="120" rx="48" fill="#5c2d39"/><path d="M272 660l-38 86M376 660l38 86" stroke="#2c1520" stroke-width="20" stroke-linecap="round"/><rect x="570" y="132" width="348" height="90" rx="26" fill="#fff0f3"/><text x="604" y="185" font-family="Georgia,serif" font-size="38" font-weight="700" fill="#2c1520">Salon dashboard</text><rect x="570" y="262" width="348" height="112" rx="30" fill="#2c1520"/><text x="604" y="314" font-family="Inter,Arial" font-size="18" font-weight="800" fill="#fff">Today’s bookings</text><rect x="604" y="336" width="78" height="12" rx="6" fill="url(#gold)"/><rect x="708" y="336" width="150" height="12" rx="6" fill="#fff" opacity=".22"/><rect x="570" y="414" width="154" height="188" rx="30" fill="#f8cdd4"/><rect x="764" y="414" width="154" height="188" rx="30" fill="#f2c7a4"/><text x="604" y="472" font-family="Inter,Arial" font-size="18" font-weight="900" fill="#2c1520">Gloss</text><text x="800" y="472" font-family="Inter,Arial" font-size="18" font-weight="900" fill="#2c1520">Facial</text><rect x="570" y="642" width="348" height="72" rx="36" fill="url(#gold)"/><text x="665" y="687" font-family="Inter,Arial" font-size="20" font-weight="900" fill="#2c1520">Book appointment</text></g>
</svg>
