<svg xmlns="http://www.w3.org/2000/svg" width="1000" height="720" viewBox="0 0 1000 720" role="img" aria-labelledby="title desc"><title id="title">Salon booking flow mockup</title><desc id="desc">Mobile appointment booking flow with select service, stylist, time and confirmation screens.</desc><defs><linearGradient id="bg" x1="0" y1="0" x2="1" y2="1"><stop stop-color="#fff4f6"/><stop offset="1" stop-color="#2c1520"/></linearGradient><filter id="s"><feDropShadow dx="0" dy="22" stdDeviation="18" flood-color="#2c1520" flood-opacity=".28"/></filter></defs><rect width="1000" height="720" rx="44" fill="url(#bg)"/><text x="70" y="88" font-family="Georgia,serif" font-size="50" font-weight="700" fill="#2c1520">Booking flow</text><g filter="url(#s)" font-family="Inter,Arial"><g transform="translate(92 140)"><rect width="220" height="460" rx="42" fill="#111"/><rect x="18" y="24" width="184" height="412" rx="30" fill="#fff9f2"/><text x="44" y="82" font-size="18" font-weight="900" fill="#2c1520">Choose service</text><rect x="44" y="122" width="132" height="36" rx="18" fill="#f2ccd3"/><rect x="44" y="180" width="108" height="36" rx="18" fill="#f2ccd3"/><rect x="44" y="238" width="145" height="36" rx="18" fill="#f2ccd3"/></g><g transform="translate(390 140)"><rect width="220" height="460" rx="42" fill="#111"/><rect x="18" y="24" width="184" height="412" rx="30" fill="#fff9f2"/><text x="44" y="82" font-size="18" font-weight="900" fill="#2c1520">Pick time</text><g fill="#f2ccd3"><rect x="44" y="122" width="56" height="42" rx="15"/><rect x="118" y="122" width="56" height="42" rx="15"/><rect x="44" y="188" width="56" height="42" rx="15"/><rect x="118" y="188" width="56" height="42" rx="15"/></g><rect x="44" y="310" width="132" height="44" rx="22" fill="#2c1520"/></g><g transform="translate(688 140)"><rect width="220" height="460" rx="42" fill="#111"/><rect x="18" y="24" width="184" height="412" rx="30" fill="#fff9f2"/><circle cx="110" cy="142" r="58" fill="#f0bbc4"/><path d="M82 144l22 24 42-58" fill="none" stroke="#2c1520" stroke-width="12" stroke-linecap="round" stroke-linejoin="round"/><text x="48" y="246" font-size="20" font-weight="900" fill="#2c1520">Confirmed</text><rect x="48" y="300" width="124" height="40" rx="20" fill="#c98b3d"/></g></g></svg>
