<svg xmlns="http://www.w3.org/2000/svg" width="1000" height="720" viewBox="0 0 1000 720" role="img" aria-labelledby="title desc"><title id="title">Salon stylist cards visual</title><desc id="desc">Three premium stylist profile cards with specialties and progresss.</desc><defs><linearGradient id="bg" x1="0" y1="0" x2="1" y2="1"><stop stop-color="#2c1520"/><stop offset="1" stop-color="#7d394a"/></linearGradient><filter id="s"><feDropShadow dx="0" dy="22" stdDeviation="20" flood-color="#000" flood-opacity=".25"/></filter></defs><rect width="1000" height="720" rx="42" fill="url(#bg)"/><text x="70" y="90" font-family="Georgia,serif" font-size="50" font-weight="700" fill="#fff7ef">Stylist team</text><g filter="url(#s)"><g transform="translate(70 148)"><rect width="260" height="430" rx="34" fill="#fff9f2"/><circle cx="130" cy="130" r="82" fill="#f1c5ce"/><path d="M66 130c8-68 61-112 128-72 50 30 39 100-7 130-50 32-104 10-121-58z" fill="#4e2230"/><text x="40" y="256" font-family="Inter,Arial" font-size="26" font-weight="900" fill="#2c1520">Mira</text><text x="40" y="292" font-family="Inter,Arial" font-size="17" fill="#8a5360">Color specialist</text><rect x="40" y="334" width="178" height="16" rx="8" fill="#c98b3d"/></g><g transform="translate(370 148)"><rect width="260" height="430" rx="34" fill="#fff9f2"/><circle cx="130" cy="130" r="82" fill="#f2c4a2"/><path d="M68 138c2-80 74-126 137-76 45 36 35 111-21 136-52 23-105-1-116-60z" fill="#311621"/><text x="40" y="256" font-family="Inter,Arial" font-size="26" font-weight="900" fill="#2c1520">Ayla</text><text x="40" y="292" font-family="Inter,Arial" font-size="17" fill="#8a5360">Skin rituals</text><rect x="40" y="334" width="196" height="16" rx="8" fill="#c98b3d"/></g><g transform="translate(670 148)"><rect width="260" height="430" rx="34" fill="#fff9f2"/><circle cx="130" cy="130" r="82" fill="#efd7df"/><path d="M64 128c28-70 98-100 146-42 38 45 6 120-56 133-62 14-116-26-90-91z" fill="#693244"/><text x="40" y="256" font-family="Inter,Arial" font-size="26" font-weight="900" fill="#2c1520">Noor</text><text x="40" y="292" font-family="Inter,Arial" font-size="17" fill="#8a5360">Bridal makeup</text><rect x="40" y="334" width="164" height="16" rx="8" fill="#c98b3d"/></g></g></svg>
