<svg xmlns="http://www.w3.org/2000/svg" width="1000" height="720" viewBox="0 0 1000 720" role="img" aria-labelledby="title desc"><title id="title">Beauty before and after gallery mockup</title><desc id="desc">Editorial before and after cards showing styling transformations as abstract visuals.</desc><defs><linearGradient id="a" x1="0" y1="0" x2="1" y2="1"><stop stop-color="#fff7f1"/><stop offset="1" stop-color="#f5c4ce"/></linearGradient><filter id="s"><feDropShadow dx="0" dy="20" stdDeviation="22" flood-color="#2c1520" flood-opacity=".2"/></filter></defs><rect width="1000" height="720" rx="44" fill="url(#a)"/><text x="72" y="88" font-family="Georgia,serif" font-size="48" font-weight="700" fill="#2c1520">Before / after gallery</text><g filter="url(#s)"><g transform="translate(76 142)"><rect width="392" height="460" rx="36" fill="#fff"/><rect x="28" y="34" width="156" height="280" rx="26" fill="#edd1d8"/><rect x="208" y="34" width="156" height="280" rx="26" fill="#9f5668"/><circle cx="106" cy="148" r="58" fill="#ad7b86"/><circle cx="286" cy="148" r="58" fill="#f7ccd4"/><text x="46" y="364" font-family="Inter,Arial" font-size="18" font-weight="900" fill="#2c1520">Soft gloss refresh</text><path d="M46 400h252" stroke="#c98b3d" stroke-width="13" stroke-linecap="round"/></g><g transform="translate(532 142)"><rect width="392" height="460" rx="36" fill="#2c1520"/><rect x="28" y="34" width="156" height="280" rx="26" fill="#5c2d39"/><rect x="208" y="34" width="156" height="280" rx="26" fill="#f1c6cf"/><circle cx="106" cy="148" r="58" fill="#b28890"/><circle cx="286" cy="148" r="58" fill="#fff6ef"/><text x="46" y="364" font-family="Inter,Arial" font-size="18" font-weight="900" fill="#fff6ef">Event makeup look</text><path d="M46 400h252" stroke="#c98b3d" stroke-width="13" stroke-linecap="round"/></g></g></svg>
