<svg xmlns="http://www.w3.org/2000/svg" width="1000" height="720" viewBox="0 0 1000 720" role="img" aria-labelledby="title desc"><title id="title">Beauty salon package cards visual</title><desc id="desc">Three salon package cards for glow refresh, bridal prep and monthly care.</desc><defs><linearGradient id="bg" x1="0" y1="0" x2="1" y2="1"><stop stop-color="#fff7f0"/><stop offset="1" stop-color="#5c2d39"/></linearGradient><filter id="s"><feDropShadow dx="0" dy="24" stdDeviation="20" flood-color="#2c1520" flood-opacity=".22"/></filter></defs><rect width="1000" height="720" rx="44" fill="url(#bg)"/><text x="70" y="90" font-family="Georgia,serif" font-size="48" font-weight="700" fill="#2c1520">Beauty packages</text><g filter="url(#s)" font-family="Inter,Arial"><g transform="translate(80 154)"><rect width="252" height="420" rx="34" fill="#fffaf6"/><text x="32" y="64" font-size="20" font-weight="900" fill="#2c1520">Glow Refresh</text><text x="32" y="120" font-size="38" font-weight="900" fill="#2c1520">₹₹</text><rect x="32" y="170" width="160" height="14" rx="7" fill="#f0bbc4"/><rect x="32" y="212" width="190" height="14" rx="7" fill="#f0bbc4"/><rect x="32" y="318" width="150" height="46" rx="23" fill="#2c1520"/></g><g transform="translate(374 128)"><rect width="252" height="472" rx="34" fill="#2c1520"/><text x="32" y="64" font-size="20" font-weight="900" fill="#fffaf6">Bridal Prep</text><text x="32" y="120" font-size="38" font-weight="900" fill="#fffaf6">₹₹₹</text><rect x="32" y="170" width="170" height="14" rx="7" fill="#c98b3d"/><rect x="32" y="212" width="194" height="14" rx="7" fill="#c98b3d"/><rect x="32" y="254" width="136" height="14" rx="7" fill="#c98b3d"/><rect x="32" y="366" width="150" height="46" rx="23" fill="#fffaf6"/></g><g transform="translate(668 154)"><rect width="252" height="420" rx="34" fill="#fffaf6"/><text x="32" y="64" font-size="20" font-weight="900" fill="#2c1520">Monthly Care</text><text x="32" y="120" font-size="38" font-weight="900" fill="#2c1520">Plan</text><rect x="32" y="170" width="188" height="14" rx="7" fill="#f0bbc4"/><rect x="32" y="212" width="154" height="14" rx="7" fill="#f0bbc4"/><rect x="32" y="318" width="150" height="46" rx="23" fill="#2c1520"/></g></g></svg>
