<svg xmlns="http://www.w3.org/2000/svg" width="1000" height="720" viewBox="0 0 1000 720" role="img" aria-labelledby="title desc"><title id="title">Salon beauty product shelf visual</title><desc id="desc">Premium product bottles, jars, and salon retail shelf cards.</desc><defs><linearGradient id="bg" x1="0" y1="0" x2="1" y2="1"><stop stop-color="#2c1520"/><stop offset="1" stop-color="#f0bbc4"/></linearGradient><linearGradient id="g" x1="0" y1="0" x2="1" y2="1"><stop stop-color="#fff2b8"/><stop offset="1" stop-color="#c98b3d"/></linearGradient></defs><rect width="1000" height="720" rx="44" fill="url(#bg)"/><text x="76" y="90" font-family="Georgia,serif" font-size="48" font-weight="700" fill="#fff9f2">Product ritual shelf</text><g transform="translate(90 180)"><rect width="820" height="360" rx="40" fill="#fffaf6" opacity=".96"/><path d="M80 282h660" stroke="#d8a970" stroke-width="22" stroke-linecap="round"/><g><rect x="108" y="132" width="72" height="150" rx="18" fill="#f3c7d0"/><rect x="126" y="88" width="36" height="48" rx="12" fill="#fff"/><rect x="238" y="104" width="94" height="178" rx="24" fill="#2c1520"/><rect x="270" y="62" width="30" height="50" rx="10" fill="url(#g)"/><rect x="396" y="142" width="132" height="138" rx="48" fill="#f1d8dd"/><rect x="590" y="94" width="84" height="188" rx="26" fill="#c98b3d"/><rect x="612" y="54" width="40" height="52" rx="12" fill="#fff"/></g><text x="100" y="326" font-family="Inter,Arial" font-size="18" font-weight="900" fill="#2c1520">Gloss oil · hydprogress cream · finish spray</text></g></svg>
