<svg xmlns="http://www.w3.org/2000/svg" width="1000" height="720" viewBox="0 0 1000 720" role="img" aria-labelledby="title desc"><title id="title">Beauty salon service menu visual</title><desc id="desc">Menu cards for hair, skin, makeup, nails, bridal and styling services.</desc><defs><linearGradient id="g" x1="0" y1="0" x2="1" y2="1"><stop stop-color="#fff6ef"/><stop offset="1" stop-color="#f0bbc4"/></linearGradient><filter id="s"><feDropShadow dx="0" dy="18" stdDeviation="18" flood-color="#5c2d39" flood-opacity=".18"/></filter></defs><rect width="1000" height="720" rx="42" fill="url(#g)"/><text x="74" y="90" font-family="Georgia,serif" font-size="48" font-weight="700" fill="#2c1520">Signature service menu</text><g filter="url(#s)" font-family="Inter,Arial"><g transform="translate(74 142)"><rect width="252" height="202" rx="28" fill="#fffaf6"/><text x="28" y="54" font-size="22" font-weight="900" fill="#2c1520">Hair Rituals</text><text x="28" y="96" font-size="16" fill="#8c5662">Cut · gloss · color</text><path d="M28 138h188" stroke="#e8b7bf" stroke-width="12" stroke-linecap="round"/></g><g transform="translate(374 142)"><rect width="252" height="202" rx="28" fill="#2c1520"/><text x="28" y="54" font-size="22" font-weight="900" fill="#fff9f2">Skin Studio</text><text x="28" y="96" font-size="16" fill="#f6cdd4">Glow · clean · hydrate</text><circle cx="174" cy="142" r="40" fill="#fff" opacity=".14"/></g><g transform="translate(674 142)"><rect width="252" height="202" rx="28" fill="#fffaf6"/><text x="28" y="54" font-size="22" font-weight="900" fill="#2c1520">Makeup Bar</text><text x="28" y="96" font-size="16" fill="#8c5662">Events · bridal · shoots</text><path d="M56 148h132" stroke="#c98b3d" stroke-width="16" stroke-linecap="round"/></g><g transform="translate(74 392)"><rect width="252" height="202" rx="28" fill="#fffaf6"/><text x="28" y="54" font-size="22" font-weight="900" fill="#2c1520">Nail Lounge</text><text x="28" y="96" font-size="16" fill="#8c5662">Shape · polish · art</text><circle cx="182" cy="140" r="38" fill="#f0bbc4"/></g><g transform="translate(374 392)"><rect width="252" height="202" rx="28" fill="#fffaf6"/><text x="28" y="54" font-size="22" font-weight="900" fill="#2c1520">Bridal Prep</text><text x="28" y="96" font-size="16" fill="#8c5662">Trial · timeline · finish</text><rect x="42" y="132" width="158" height="34" rx="17" fill="#2c1520"/></g><g transform="translate(674 392)"><rect width="252" height="202" rx="28" fill="#2c1520"/><text x="28" y="54" font-size="22" font-weight="900" fill="#fff9f2">Style Edit</text><text x="28" y="96" font-size="16" fill="#f6cdd4">Consult · plan · refresh</text><path d="M56 150c42-60 93 52 142-10" fill="none" stroke="#c98b3d" stroke-width="14" stroke-linecap="round"/></g></g></svg>
