<svg xmlns="http://www.w3.org/2000/svg" width="960" height="640" viewBox="0 0 960 640" role="img" aria-labelledby="title desc"><title id="title">Brief email outline</title><desc id="desc">A premium email outline showing a clean project brief with project type, goals, pages, references, timeline, and content notes.</desc><defs><linearGradient id="bg" x1="0" y1="0" x2="1" y2="1"><stop stop-color="#0a1220"/><stop offset="1" stop-color="#1c2844"/></linearGradient><linearGradient id="a" x1="0" y1="0" x2="1" y2="1"><stop stop-color="#78f7d4"/><stop offset="1" stop-color="#8db7ff"/></linearGradient></defs><rect width="960" height="640" rx="44" fill="url(#bg)"/><rect x="106" y="86" width="748" height="468" rx="42" fill="#101b2d" stroke="#fff" stroke-opacity=".12"/><rect x="152" y="132" width="656" height="70" rx="28" fill="#14243a"/><circle cx="190" cy="167" r="12" fill="#78f7d4"/><rect x="218" y="158" width="214" height="14" rx="7" fill="#fff" opacity=".86"/><rect x="660" y="150" width="100" height="34" rx="17" fill="url(#a)"/><rect x="152" y="244" width="656" height="236" rx="34" fill="#14243a" stroke="#fff" stroke-opacity=".08"/><g fill="url(#a)"><rect x="192" y="286" width="74" height="10" rx="5"/><rect x="192" y="332" width="74" height="10" rx="5"/><rect x="192" y="378" width="74" height="10" rx="5"/><rect x="192" y="424" width="74" height="10" rx="5"/></g><g fill="#fff" opacity=".82"><rect x="300" y="286" width="260" height="10" rx="5"/><rect x="300" y="332" width="330" height="10" rx="5"/><rect x="300" y="378" width="220" height="10" rx="5"/><rect x="300" y="424" width="300" height="10" rx="5"/></g><g fill="#9fb3c8" opacity=".42"><rect x="300" y="304" width="390" height="8" rx="4"/><rect x="300" y="350" width="356" height="8" rx="4"/><rect x="300" y="396" width="314" height="8" rx="4"/><rect x="300" y="442" width="344" height="8" rx="4"/></g></svg>
