<svg xmlns="http://www.w3.org/2000/svg" viewBox="0 0 760 520" role="img" aria-labelledby="title desc">
  <title id="title">Project brief intake kit mockup</title>
  <desc id="desc">A premium project brief board showing goals, pages, references, content, and deadline inputs.</desc>
  <defs><linearGradient id="bg" x1="0" y1="0" x2="1" y2="1"><stop offset="0" stop-color="#0E1726"/><stop offset="1" stop-color="#070A10"/></linearGradient><linearGradient id="a" x1="0" y1="0" x2="1" y2="1"><stop offset="0" stop-color="#67E8F9"/><stop offset=".55" stop-color="#A78BFA"/><stop offset="1" stop-color="#F9C784"/></linearGradient><filter id="sh" x="-20%" y="-20%" width="140%" height="140%"><feDropShadow dx="0" dy="24" stdDeviation="24" flood-color="#000" flood-opacity=".36"/></filter></defs>
  <rect width="760" height="520" rx="38" fill="url(#bg)"/><circle cx="620" cy="92" r="92" fill="#67E8F9" opacity=".1"/><circle cx="126" cy="420" r="110" fill="#A78BFA" opacity=".1"/>
  <g filter="url(#sh)"><rect x="86" y="70" width="588" height="378" rx="34" fill="#0D1320" stroke="#fff" stroke-opacity=".12"/>
    <rect x="124" y="108" width="210" height="24" rx="12" fill="#fff" opacity=".86"/><rect x="124" y="150" width="360" height="12" rx="6" fill="#fff" opacity=".18"/>
    <g font-family="Inter,Arial,sans-serif" font-size="14" font-weight="800"><rect x="124" y="206" width="218" height="58" rx="20" fill="#141B2B"/><text x="150" y="241" fill="#F6F7FB">Goal + audience</text><circle cx="312" cy="235" r="13" fill="url(#a)"/>
    <rect x="382" y="206" width="218" height="58" rx="20" fill="#141B2B"/><text x="408" y="241" fill="#F6F7FB">Pages needed</text><circle cx="570" cy="235" r="13" fill="url(#a)" opacity=".8"/>
    <rect x="124" y="292" width="218" height="58" rx="20" fill="#141B2B"/><text x="150" y="327" fill="#F6F7FB">Reference links</text><circle cx="312" cy="321" r="13" fill="url(#a)" opacity=".75"/>
    <rect x="382" y="292" width="218" height="58" rx="20" fill="#141B2B"/><text x="408" y="327" fill="#F6F7FB">Content notes</text><circle cx="570" cy="321" r="13" fill="url(#a)" opacity=".65"/>
    <rect x="124" y="378" width="476" height="38" rx="19" fill="url(#a)" opacity=".88"/><text x="283" y="402" fill="#07111A">Clear brief before build</text></g>
  </g>
</svg>
