<svg xmlns="http://www.w3.org/2000/svg" width="960" height="640" viewBox="0 0 960 640" role="img" aria-labelledby="title desc"><title id="title">Brief quality checklist</title><desc id="desc">A premium intake checklist showing website type, goal, references, sections, content readiness, deadline, and must-have features.</desc><defs><linearGradient id="bg" x1="0" y1="0" x2="1" y2="1"><stop stop-color="#07111f"/><stop offset="1" stop-color="#1b2544"/></linearGradient><linearGradient id="a" x1="0" y1="0" x2="1" y2="1"><stop stop-color="#78f7d4"/><stop offset="1" stop-color="#8db7ff"/></linearGradient><filter id="s"><feDropShadow dx="0" dy="18" stdDeviation="24" flood-opacity=".3"/></filter></defs><rect width="960" height="640" rx="44" fill="url(#bg)"/><rect x="92" y="72" width="776" height="496" rx="42" fill="#0d1729" stroke="#fff" stroke-opacity=".12" filter="url(#s)"/><rect x="136" y="118" width="688" height="70" rx="28" fill="#13243a"/><rect x="174" y="146" width="248" height="14" rx="7" fill="#fff" opacity=".86"/><rect x="668" y="136" width="108" height="32" rx="16" fill="url(#a)"/><g transform="translate(150 232)"><g><circle cx="22" cy="22" r="22" fill="url(#a)"/><path d="M12 22l7 8 15-19" fill="none" stroke="#07100d" stroke-width="5" stroke-linecap="round" stroke-linejoin="round"/><rect x="64" y="10" width="176" height="13" rx="7" fill="#fff" opacity=".86"/><rect x="64" y="36" width="320" height="10" rx="5" fill="#9fb3c8" opacity=".45"/></g><g transform="translate(0 74)"><circle cx="22" cy="22" r="22" fill="url(#a)"/><path d="M12 22l7 8 15-19" fill="none" stroke="#07100d" stroke-width="5" stroke-linecap="round" stroke-linejoin="round"/><rect x="64" y="10" width="204" height="13" rx="7" fill="#fff" opacity=".86"/><rect x="64" y="36" width="286" height="10" rx="5" fill="#9fb3c8" opacity=".45"/></g><g transform="translate(0 148)"><circle cx="22" cy="22" r="22" fill="url(#a)"/><path d="M12 22l7 8 15-19" fill="none" stroke="#07100d" stroke-width="5" stroke-linecap="round" stroke-linejoin="round"/><rect x="64" y="10" width="188" height="13" rx="7" fill="#fff" opacity=".86"/><rect x="64" y="36" width="306" height="10" rx="5" fill="#9fb3c8" opacity=".45"/></g></g><rect x="600" y="238" width="186" height="226" rx="34" fill="#13243a" stroke="#fff" stroke-opacity=".08"/><rect x="634" y="276" width="118" height="14" rx="7" fill="#fff" opacity=".84"/><rect x="634" y="322" width="86" height="12" rx="6" fill="#9fb3c8" opacity=".46"/><rect x="634" y="356" width="112" height="12" rx="6" fill="#9fb3c8" opacity=".36"/><rect x="634" y="408" width="92" height="34" rx="17" fill="url(#a)"/></svg>
