<svg xmlns="http://www.w3.org/2000/svg" width="960" height="560" viewBox="0 0 960 560" role="img" aria-labelledby="title desc">
  <title id="title">Business fit decision lane</title>
  <desc id="desc">Local premium illustration for Hamzah business fit and customer website planning.</desc>
  <defs>
    <linearGradient id="bg" x1="0" y1="0" x2="1" y2="1"><stop offset="0" stop-color="#06120f"/><stop offset=".55" stop-color="#10221d"/><stop offset="1" stop-color="#231f17"/></linearGradient>
    <linearGradient id="accent" x1="0" y1="0" x2="1" y2="1"><stop offset="0" stop-color="#73f4c6"/><stop offset="1" stop-color="#d7b56b"/></linearGradient>
    <filter id="shadow" x="-20%" y="-20%" width="140%" height="140%"><feDropShadow dx="0" dy="24" stdDeviation="22" flood-color="#000" flood-opacity=".35"/></filter>
  </defs>
  <rect width="960" height="560" rx="42" fill="url(#bg)"/>
  <circle cx="800" cy="96" r="170" fill="#73f4c6" opacity=".10"/>
  <circle cx="120" cy="460" r="184" fill="#d7b56b" opacity=".10"/>
  <rect x="54" y="50" width="852" height="460" rx="34" fill="#fff" opacity=".045" stroke="#fff" stroke-opacity=".16"/>
  <text x="86" y="100" fill="#f4fff9" font-family="Inter, Arial, sans-serif" font-size="28" font-weight="800">Hamzah</text>
  <text x="86" y="130" fill="#a8b8b1" font-family="Inter, Arial, sans-serif" font-size="15" letter-spacing="2">Business fit decision lane</text>
  
  <g filter="url(#shadow)">
    <rect x="88" y="176" width="174" height="246" rx="28" fill="#0e1d18" stroke="#fff" stroke-opacity=".14"/>
    <text x="118" y="224" fill="#f4fff9" font-family="Inter, Arial, sans-serif" font-size="22" font-weight="800">Need</text>
    <rect x="118" y="260" width="84" height="12" rx="6" fill="url(#accent)"/>
    <rect x="118" y="296" width="112" height="12" rx="6" fill="#fff" opacity=".18"/>
    <text x="118" y="364" fill="#a8b8b1" font-family="Inter, Arial, sans-serif" font-size="14">What must the site do?</text>

    <rect x="288" y="176" width="174" height="246" rx="28" fill="#0e1d18" stroke="#fff" stroke-opacity=".14"/>
    <text x="318" y="224" fill="#f4fff9" font-family="Inter, Arial, sans-serif" font-size="22" font-weight="800">Audience</text>
    <rect x="318" y="260" width="84" height="12" rx="6" fill="url(#accent)"/>
    <rect x="318" y="296" width="112" height="12" rx="6" fill="#fff" opacity=".18"/>
    <text x="318" y="364" fill="#a8b8b1" font-family="Inter, Arial, sans-serif" font-size="14">Who must trust it?</text>

    <rect x="488" y="176" width="174" height="246" rx="28" fill="#0e1d18" stroke="#fff" stroke-opacity=".14"/>
    <text x="518" y="224" fill="#f4fff9" font-family="Inter, Arial, sans-serif" font-size="22" font-weight="800">Sections</text>
    <rect x="518" y="260" width="84" height="12" rx="6" fill="url(#accent)"/>
    <rect x="518" y="296" width="112" height="12" rx="6" fill="#fff" opacity=".18"/>
    <text x="518" y="364" fill="#a8b8b1" font-family="Inter, Arial, sans-serif" font-size="14">What proof is needed?</text>

    <rect x="688" y="176" width="174" height="246" rx="28" fill="#0e1d18" stroke="#fff" stroke-opacity=".14"/>
    <text x="718" y="224" fill="#f4fff9" font-family="Inter, Arial, sans-serif" font-size="22" font-weight="800">Contact</text>
    <rect x="718" y="260" width="84" height="12" rx="6" fill="url(#accent)"/>
    <rect x="718" y="296" width="112" height="12" rx="6" fill="#fff" opacity=".18"/>
    <text x="718" y="364" fill="#a8b8b1" font-family="Inter, Arial, sans-serif" font-size="14">How should leads start?</text>
  </g>
  <path d="M262 300 H288 M462 300 H488 M662 300 H688" stroke="url(#accent)" stroke-width="7" stroke-linecap="round"/>

</svg>