<svg xmlns="http://www.w3.org/2000/svg" width="960" height="560" viewBox="0 0 960 560" role="img" aria-labelledby="title desc">
  <title id="title">Business outcome map</title>
  <desc id="desc">Local premium illustration for Hamzah business fit and customer website planning.</desc>
  <defs>
    <linearGradient id="bg" x1="0" y1="0" x2="1" y2="1"><stop offset="0" stop-color="#06120f"/><stop offset=".55" stop-color="#10221d"/><stop offset="1" stop-color="#231f17"/></linearGradient>
    <linearGradient id="accent" x1="0" y1="0" x2="1" y2="1"><stop offset="0" stop-color="#73f4c6"/><stop offset="1" stop-color="#d7b56b"/></linearGradient>
    <filter id="shadow" x="-20%" y="-20%" width="140%" height="140%"><feDropShadow dx="0" dy="24" stdDeviation="22" flood-color="#000" flood-opacity=".35"/></filter>
  </defs>
  <rect width="960" height="560" rx="42" fill="url(#bg)"/>
  <circle cx="800" cy="96" r="170" fill="#73f4c6" opacity=".10"/>
  <circle cx="120" cy="460" r="184" fill="#d7b56b" opacity=".10"/>
  <rect x="54" y="50" width="852" height="460" rx="34" fill="#fff" opacity=".045" stroke="#fff" stroke-opacity=".16"/>
  <text x="86" y="100" fill="#f4fff9" font-family="Inter, Arial, sans-serif" font-size="28" font-weight="800">Hamzah</text>
  <text x="86" y="130" fill="#a8b8b1" font-family="Inter, Arial, sans-serif" font-size="15" letter-spacing="2">Business outcome map</text>
  
  <g filter="url(#shadow)">
    <rect x="92" y="174" width="776" height="272" rx="32" fill="#0e1d18" stroke="#fff" stroke-opacity=".14"/>
    <text x="128" y="226" fill="#f4fff9" font-family="Inter, Arial, sans-serif" font-size="25" font-weight="800">Business website outcome map</text>
    <rect x="128" y="266" width="164" height="72" rx="22" fill="#fff" opacity=".07"/>
    <text x="154" y="310" fill="#f4fff9" font-family="Inter, Arial, sans-serif" font-size="18" font-weight="800">Trust</text>
    <rect x="318" y="266" width="164" height="72" rx="22" fill="#fff" opacity=".07"/>
    <text x="344" y="310" fill="#f4fff9" font-family="Inter, Arial, sans-serif" font-size="18" font-weight="800">Service clarity</text>
    <rect x="508" y="266" width="164" height="72" rx="22" fill="#fff" opacity=".07"/>
    <text x="534" y="310" fill="#f4fff9" font-family="Inter, Arial, sans-serif" font-size="18" font-weight="800">Offer fit</text>
    <rect x="698" y="266" width="126" height="72" rx="22" fill="url(#accent)" opacity=".9"/>
    <text x="728" y="310" fill="#06120f" font-family="Inter, Arial, sans-serif" font-size="18" font-weight="900">Contact</text>
    <path d="M292 302 H318 M482 302 H508 M672 302 H698" stroke="url(#accent)" stroke-width="7" stroke-linecap="round"/>
    <text x="128" y="388" fill="#a8b8b1" font-family="Inter, Arial, sans-serif" font-size="15">Homepage sections should guide visitors from first impression to a clear project enquiry.</text>
  </g>

</svg>