<svg xmlns="http://www.w3.org/2000/svg" viewBox="0 0 820 700" role="img" aria-label="Mobile order ahead app screen for cafe website">
  <defs><linearGradient id="phone" x1="0" x2="1" y1="0" y2="1"><stop stop-color="#1a130e"/><stop offset="1" stop-color="#4c2f1f"/></linearGradient><linearGradient id="cta" x1="0" x2="1"><stop stop-color="#b8f3d2"/><stop offset="1" stop-color="#f5c783"/></linearGradient></defs>
  <rect width="820" height="700" fill="#fff0cf"/>
  <rect x="258" y="40" width="304" height="620" rx="54" fill="url(#phone)" stroke="#160d08" stroke-width="12"/>
  <rect x="294" y="98" width="232" height="88" rx="28" fill="#b8f3d2"/>
  <text x="320" y="135" fill="#153126" font-size="21" font-family="Arial" font-weight="900">Order ahead</text>
  <text x="320" y="166" fill="#153126" font-size="15" font-family="Arial">Ready in 12 minutes</text>
  <g transform="translate(294 222)">
    <rect x="0" y="0" width="232" height="84" rx="24" fill="#fff1cf"/><circle cx="42" cy="42" r="24" fill="#6f4228"/><text x="82" y="38" fill="#2c1a10" font-size="18" font-family="Arial" font-weight="800">Oat latte</text><text x="82" y="62" fill="#805a3a" font-size="13" font-family="Arial">extra shot</text>
    <rect x="0" y="104" width="232" height="84" rx="24" fill="#fff1cf"/><circle cx="42" cy="146" r="24" fill="#e5a053"/><text x="82" y="142" fill="#2c1a10" font-size="18" font-family="Arial" font-weight="800">Croissant</text><text x="82" y="166" fill="#805a3a" font-size="13" font-family="Arial">pistachio</text>
    <rect x="0" y="222" width="232" height="62" rx="31" fill="url(#cta)"/><text x="54" y="261" fill="#153126" font-size="18" font-family="Arial" font-weight="900">Checkout ₹420</text>
  </g>
  <circle cx="170" cy="182" r="78" fill="#b8f3d2" opacity=".6"/><circle cx="656" cy="518" r="96" fill="#f5c783" opacity=".42"/>
</svg>
