<svg xmlns="http://www.w3.org/2000/svg" width="960" height="640" viewBox="0 0 960 640" role="img" aria-labelledby="title desc"><title id="title">Dashboard capability shell mockup</title><desc id="desc">A premium dashboard shell showing sidebar navigation, metric cards, charts, and responsive app interface components.</desc><defs><linearGradient id="bg" x1="0" y1="0" x2="1" y2="1"><stop stop-color="#07111f"/><stop offset="1" stop-color="#1b2544"/></linearGradient><linearGradient id="a" x1="0" y1="0" x2="1" y2="1"><stop stop-color="#78f7d4"/><stop offset="1" stop-color="#8db7ff"/></linearGradient><filter id="s"><feDropShadow dx="0" dy="18" stdDeviation="22" flood-opacity=".34"/></filter></defs><rect width="960" height="640" rx="42" fill="url(#bg)"/><rect x="82" y="80" width="796" height="480" rx="40" fill="#0d1729" stroke="#fff" stroke-opacity=".12" filter="url(#s)"/><rect x="118" y="116" width="180" height="408" rx="30" fill="#111f35"/><rect x="150" y="158" width="92" height="14" rx="7" fill="#fff" opacity=".88"/><rect x="150" y="206" width="118" height="12" rx="6" fill="#9fb3c8" opacity=".52"/><rect x="150" y="242" width="92" height="12" rx="6" fill="#9fb3c8" opacity=".36"/><rect x="330" y="116" width="500" height="72" rx="24" fill="#13243a"/><rect x="362" y="144" width="220" height="16" rx="8" fill="#fff" opacity=".88"/><rect x="666" y="138" width="118" height="30" rx="15" fill="url(#a)"/><g><rect x="330" y="226" width="150" height="118" rx="26" fill="#13243a"/><rect x="508" y="226" width="150" height="118" rx="26" fill="#13243a"/><rect x="686" y="226" width="144" height="118" rx="26" fill="#13243a"/><path d="M360 304c22-30 44-10 70-42 22 24 34 10 50-8" fill="none" stroke="#78f7d4" stroke-width="7" stroke-linecap="round"/><circle cx="583" cy="286" r="35" fill="#ffd166" opacity=".9"/><rect x="724" y="272" width="62" height="24" rx="12" fill="#8db7ff" opacity=".85"/></g><rect x="330" y="384" width="500" height="116" rx="28" fill="#13243a"/><rect x="362" y="422" width="400" height="14" rx="7" fill="#9fb3c8" opacity=".52"/><rect x="362" y="460" width="320" height="14" rx="7" fill="#9fb3c8" opacity=".36"/></svg>