<svg xmlns="http://www.w3.org/2000/svg" width="960" height="560" viewBox="0 0 960 560" role="img" aria-labelledby="title desc">
  <title id="title">Capability route planner</title>
  <desc id="desc">Premium local illustration for Hamzah website type planning.</desc>
  <defs>
    <linearGradient id="bg" x1="0" y1="0" x2="1" y2="1">
      <stop offset="0" stop-color="#06120f"/>
      <stop offset="0.55" stop-color="#10211c"/>
      <stop offset="1" stop-color="#1d2b22"/>
    </linearGradient>
    <linearGradient id="accent" x1="0" y1="0" x2="1" y2="1">
      <stop offset="0" stop-color="#76f7c6"/>
      <stop offset="1" stop-color="#d6b56d"/>
    </linearGradient>
    <filter id="shadow" x="-20%" y="-20%" width="140%" height="140%">
      <feDropShadow dx="0" dy="24" stdDeviation="24" flood-color="#000000" flood-opacity="0.35"/>
    </filter>
  </defs>
  <rect width="960" height="560" rx="42" fill="url(#bg)"/>
  <circle cx="820" cy="90" r="170" fill="#76f7c6" opacity=".12"/>
  <circle cx="120" cy="480" r="190" fill="#d6b56d" opacity=".10"/>
  <rect x="56" y="54" width="848" height="452" rx="34" fill="#ffffff" opacity=".045" stroke="#ffffff" stroke-opacity=".16"/>
  <text x="86" y="102" fill="#f2fff9" font-family="Inter, Arial, sans-serif" font-size="28" font-weight="800">Hamzah</text>
  <text x="86" y="132" fill="#a8b8b1" font-family="Inter, Arial, sans-serif" font-size="15" letter-spacing="2">Capability route planner</text>
  
  <g filter="url(#shadow)">
    <rect x="96" y="172" width="216" height="258" rx="30" fill="#0f1d18" stroke="#ffffff" stroke-opacity=".14"/>
    <text x="126" y="218" fill="#f2fff9" font-family="Inter, Arial, sans-serif" font-size="22" font-weight="800">Project goal</text>
    <rect x="126" y="250" width="124" height="12" rx="6" fill="#76f7c6" opacity=".9"/>
    <rect x="126" y="282" width="154" height="12" rx="6" fill="#ffffff" opacity=".18"/>
    <rect x="126" y="314" width="92" height="12" rx="6" fill="#ffffff" opacity=".18"/>
    <text x="126" y="372" fill="#a8b8b1" font-family="Inter, Arial, sans-serif" font-size="14">Business, creator, store, dashboard</text>

    <rect x="374" y="172" width="216" height="258" rx="30" fill="#0f1d18" stroke="#ffffff" stroke-opacity=".14"/>
    <text x="404" y="218" fill="#f2fff9" font-family="Inter, Arial, sans-serif" font-size="22" font-weight="800">Page system</text>
    <rect x="404" y="250" width="134" height="12" rx="6" fill="#d6b56d" opacity=".9"/>
    <rect x="404" y="282" width="116" height="12" rx="6" fill="#ffffff" opacity=".18"/>
    <rect x="404" y="314" width="148" height="12" rx="6" fill="#ffffff" opacity=".18"/>
    <text x="404" y="372" fill="#a8b8b1" font-family="Inter, Arial, sans-serif" font-size="14">Sections, proof, CTAs, forms</text>

    <rect x="652" y="172" width="216" height="258" rx="30" fill="#0f1d18" stroke="#ffffff" stroke-opacity=".14"/>
    <text x="682" y="218" fill="#f2fff9" font-family="Inter, Arial, sans-serif" font-size="22" font-weight="800">Launch route</text>
    <rect x="682" y="250" width="128" height="12" rx="6" fill="#76f7c6" opacity=".9"/>
    <rect x="682" y="282" width="156" height="12" rx="6" fill="#ffffff" opacity=".18"/>
    <rect x="682" y="314" width="98" height="12" rx="6" fill="#ffffff" opacity=".18"/>
    <text x="682" y="372" fill="#a8b8b1" font-family="Inter, Arial, sans-serif" font-size="14">Static files, QA, Appwrite notes</text>
  </g>
  <path d="M316 301 H366" stroke="url(#accent)" stroke-width="7" stroke-linecap="round"/>
  <path d="M590 301 H642" stroke="url(#accent)" stroke-width="7" stroke-linecap="round"/>
  <circle cx="341" cy="301" r="8" fill="#76f7c6"/>
  <circle cx="616" cy="301" r="8" fill="#d6b56d"/>

</svg>