<svg xmlns="http://www.w3.org/2000/svg" width="960" height="640" viewBox="0 0 960 640" role="img" aria-labelledby="title desc"><title id="title">Launch stack capability mockup</title><desc id="desc">A launch stack mockup with metadata, QA, responsive testing, build output, and package reports.</desc><defs><linearGradient id="bg" x1="0" y1="0" x2="1" y2="1"><stop stop-color="#08131d"/><stop offset="1" stop-color="#173326"/></linearGradient><linearGradient id="a" x1="0" y1="0" x2="1" y2="1"><stop stop-color="#7df7aa"/><stop offset="1" stop-color="#8db7ff"/></linearGradient><filter id="s"><feDropShadow dx="0" dy="18" stdDeviation="22" flood-opacity=".34"/></filter></defs><rect width="960" height="640" rx="42" fill="url(#bg)"/><rect x="136" y="84" width="688" height="472" rx="40" fill="#0e2023" stroke="#fff" stroke-opacity=".12" filter="url(#s)"/><rect x="184" y="132" width="592" height="76" rx="28" fill="#142d32"/><rect x="224" y="162" width="250" height="18" rx="9" fill="#fff" opacity=".9"/><rect x="224" y="190" width="330" height="10" rx="5" fill="#9fb3c8" opacity=".52"/><g font-family="Inter,Arial" fill="#fff"><g transform="translate(184 260)"><rect width="592" height="58" rx="22" fill="#132a2f"/><circle cx="34" cy="29" r="15" fill="url(#a)"/><text x="66" y="36" font-size="17" font-weight="850">Metadata and social preview</text></g><g transform="translate(184 336)"><rect width="592" height="58" rx="22" fill="#132a2f"/><circle cx="34" cy="29" r="15" fill="#ffd166"/><text x="66" y="36" font-size="17" font-weight="850">Responsive and local asset checks</text></g><g transform="translate(184 412)"><rect width="592" height="58" rx="22" fill="#132a2f"/><circle cx="34" cy="29" r="15" fill="#8db7ff"/><text x="66" y="36" font-size="17" font-weight="850">Build output and handoff reports</text></g></g></svg>