<svg xmlns="http://www.w3.org/2000/svg" width="960" height="640" viewBox="0 0 960 640" role="img" aria-labelledby="title desc"><title id="title">Case study structure mockup</title><desc id="desc">A premium case study structure with challenge, design decision, build details, and handoff sections.</desc><defs><linearGradient id="bg" x1="0" y1="0" x2="1" y2="1"><stop stop-color="#07111f"/><stop offset="1" stop-color="#1b2544"/></linearGradient><linearGradient id="a" x1="0" y1="0" x2="1" y2="1"><stop stop-color="#78f7d4"/><stop offset="1" stop-color="#8db7ff"/></linearGradient><filter id="s"><feDropShadow dx="0" dy="18" stdDeviation="22" flood-opacity=".34"/></filter></defs><rect width="960" height="640" rx="42" fill="url(#bg)"/><rect x="96" y="84" width="768" height="472" rx="42" fill="#0d1729" stroke="#fff" stroke-opacity=".12" filter="url(#s)"/><rect x="142" y="130" width="676" height="86" rx="28" fill="#14243a"/><rect x="178" y="160" width="260" height="18" rx="9" fill="#fff" opacity=".9"/><rect x="178" y="190" width="360" height="10" rx="5" fill="#9fb3c8" opacity=".52"/><rect x="670" y="158" width="108" height="34" rx="17" fill="url(#a)"/><g font-family="Inter,Arial" fill="#fff"><g transform="translate(142 260)"><rect width="308" height="94" rx="26" fill="#13243a" stroke="#fff" stroke-opacity=".1"/><text x="34" y="42" font-size="18" font-weight="850">01 · Challenge</text><text x="34" y="68" font-size="14" fill="#9fb3c8">What the site needs to solve</text></g><g transform="translate(510 260)"><rect width="308" height="94" rx="26" fill="#13243a" stroke="#fff" stroke-opacity=".1"/><text x="34" y="42" font-size="18" font-weight="850">02 · Direction</text><text x="34" y="68" font-size="14" fill="#9fb3c8">Layout, tone, sections, CTAs</text></g><g transform="translate(142 390)"><rect width="308" height="94" rx="26" fill="#13243a" stroke="#fff" stroke-opacity=".1"/><text x="34" y="42" font-size="18" font-weight="850">03 · Build</text><text x="34" y="68" font-size="14" fill="#9fb3c8">Static pages, assets, UI states</text></g><g transform="translate(510 390)"><rect width="308" height="94" rx="26" fill="#13243a" stroke="#fff" stroke-opacity=".1"/><text x="34" y="42" font-size="18" font-weight="850">04 · Handoff</text><text x="34" y="68" font-size="14" fill="#9fb3c8">README, checks, Appwrite notes</text></g></g><path d="M450 307h60M450 437h60" stroke="#8db7ff" stroke-width="5" stroke-linecap="round" stroke-dasharray="10 10"/></svg>