<svg xmlns="http://www.w3.org/2000/svg" width="1080" height="700" viewBox="0 0 1080 700" role="img" aria-label="Modern healthcare clinic mockup">
  <defs>
    <linearGradient id="bg" x1="0" x2="1" y1="0" y2="1"><stop stop-color="#eaf8f7"/><stop offset=".55" stop-color="#f8fffd"/><stop offset="1" stop-color="#d9efff"/></linearGradient>
    <linearGradient id="teal" x1="0" x2="1"><stop stop-color="#5eead4"/><stop offset="1" stop-color="#0284c7"/></linearGradient>
    <filter id="shadow" x="-20%" y="-20%" width="140%" height="140%"><feDropShadow dx="0" dy="22" stdDeviation="24" flood-color="#0f2f43" flood-opacity=".18"/></filter>
  </defs>
  <rect width="1080" height="700" rx="30" fill="url(#bg)"/>
  <circle cx="907" cy="98" r="180" fill="#5eead4" opacity=".16"/>
  <circle cx="162" cy="602" r="220" fill="#bae6fd" opacity=".38"/>

  <g filter="url(#shadow)">
    <rect x="94" y="86" width="892" height="528" rx="42" fill="#fff"/>
    <text x="142" y="156" fill="#0f2f43" font-family="Georgia,serif" font-size="46" font-weight="700">Doctor and care team</text>
    <g>
      <rect x="142" y="218" width="230" height="300" rx="32" fill="#eaf8f7"/><circle cx="257" cy="306" r="54" fill="#0284c7"/><path d="M190 410 C205 360 310 360 325 410" fill="#5eead4"/><text x="178" y="476" fill="#0f2f43" font-family="Arial" font-size="23" font-weight="800">Lead doctor</text>
      <rect x="424" y="218" width="230" height="300" rx="32" fill="#e0f2fe"/><circle cx="539" cy="306" r="54" fill="#0f2f43"/><path d="M472 410 C487 360 592 360 607 410" fill="#5eead4"/><text x="458" y="476" fill="#0f2f43" font-family="Arial" font-size="23" font-weight="800">Nursing support</text>
      <rect x="706" y="218" width="230" height="300" rx="32" fill="#eaf8f7"/><circle cx="821" cy="306" r="54" fill="#0284c7"/><path d="M754 410 C769 360 874 360 889 410" fill="#0f2f43"/><text x="742" y="476" fill="#0f2f43" font-family="Arial" font-size="23" font-weight="800">Front desk</text>
    </g>
  </g>

</svg>
