<svg xmlns="http://www.w3.org/2000/svg" width="1220" height="780" viewBox="0 0 1220 780" role="img" aria-label="Modern healthcare clinic mockup">
  <defs>
    <linearGradient id="bg" x1="0" x2="1" y1="0" y2="1"><stop stop-color="#eaf8f7"/><stop offset=".55" stop-color="#f8fffd"/><stop offset="1" stop-color="#d9efff"/></linearGradient>
    <linearGradient id="teal" x1="0" x2="1"><stop stop-color="#5eead4"/><stop offset="1" stop-color="#0284c7"/></linearGradient>
    <filter id="shadow" x="-20%" y="-20%" width="140%" height="140%"><feDropShadow dx="0" dy="22" stdDeviation="24" flood-color="#0f2f43" flood-opacity=".18"/></filter>
  </defs>
  <rect width="1220" height="780" rx="30" fill="url(#bg)"/>
  <circle cx="1024" cy="109" r="180" fill="#5eead4" opacity=".16"/>
  <circle cx="183" cy="670" r="220" fill="#bae6fd" opacity=".38"/>

  <g filter="url(#shadow)">
    <rect x="88" y="82" width="1044" height="618" rx="44" fill="#ffffff"/>
    <rect x="132" y="126" width="405" height="500" rx="36" fill="#eaf8f7"/>
    <text x="174" y="190" fill="#0f2f43" font-family="Georgia,serif" font-size="44" font-weight="700">Book a visit</text>
    <rect x="174" y="236" width="310" height="62" rx="20" fill="#fff"/><text x="204" y="276" fill="#527080" font-family="Arial" font-size="22">Select service</text>
    <rect x="174" y="322" width="310" height="62" rx="20" fill="#fff"/><text x="204" y="362" fill="#527080" font-family="Arial" font-size="22">Choose time</text>
    <rect x="174" y="408" width="310" height="62" rx="20" fill="#fff"/><text x="204" y="448" fill="#527080" font-family="Arial" font-size="22">Contact details</text>
    <rect x="174" y="508" width="220" height="58" rx="20" fill="url(#teal)"/><text x="214" y="546" fill="#fff" font-family="Arial" font-size="21" font-weight="800">Request slot</text>
    <rect x="582" y="126" width="500" height="226" rx="34" fill="#0f2f43"/>
    <text x="628" y="206" fill="#eaf8f7" font-family="Georgia,serif" font-size="48" font-weight="700">Calm clinic website</text><text x="628" y="258" fill="#a7d8df" font-family="Arial" font-size="24">Appointment CTA · services · team · trust</text>
    <rect x="582" y="388" width="222" height="238" rx="34" fill="#eaf8f7"/><rect x="838" y="388" width="244" height="238" rx="34" fill="#d9efff"/>
    <path d="M675 448 V560 M615 504 H735" stroke="#0284c7" stroke-width="24" stroke-linecap="round"/>
    <circle cx="960" cy="490" r="50" fill="#5eead4"/><path d="M920 552 C935 512 985 512 1000 552" fill="#0f2f43" opacity=".85"/>
  </g>

</svg>
