<svg xmlns="http://www.w3.org/2000/svg" width="1100" height="720" viewBox="0 0 1100 720" role="img" aria-label="Modern healthcare clinic mockup">
  <defs>
    <linearGradient id="bg" x1="0" x2="1" y1="0" y2="1"><stop stop-color="#eaf8f7"/><stop offset=".55" stop-color="#f8fffd"/><stop offset="1" stop-color="#d9efff"/></linearGradient>
    <linearGradient id="teal" x1="0" x2="1"><stop stop-color="#5eead4"/><stop offset="1" stop-color="#0284c7"/></linearGradient>
    <filter id="shadow" x="-20%" y="-20%" width="140%" height="140%"><feDropShadow dx="0" dy="22" stdDeviation="24" flood-color="#0f2f43" flood-opacity=".18"/></filter>
  </defs>
  <rect width="1100" height="720" rx="30" fill="url(#bg)"/>
  <circle cx="924" cy="100" r="180" fill="#5eead4" opacity=".16"/>
  <circle cx="165" cy="619" r="220" fill="#bae6fd" opacity=".38"/>

  <g filter="url(#shadow)">
    <rect x="90" y="84" width="920" height="552" rx="42" fill="#fff"/>
    <text x="138" y="156" fill="#0f2f43" font-family="Georgia,serif" font-size="46" font-weight="700">Clinic services</text>
    <g>
      <rect x="138" y="220" width="240" height="250" rx="30" fill="#eaf8f7"/><path d="M258 276 V378 M207 327 H309" stroke="#0284c7" stroke-width="18" stroke-linecap="round"/><text x="174" y="540" fill="#0f2f43" font-family="Arial" font-size="24" font-weight="800">General visits</text>
      <rect x="430" y="220" width="240" height="250" rx="30" fill="#e0f2fe"/><circle cx="550" cy="320" r="54" fill="#5eead4"/><path d="M510 388 C528 350 572 350 590 388" fill="#0f2f43"/><text x="462" y="540" fill="#0f2f43" font-family="Arial" font-size="24" font-weight="800">Care guidance</text>
      <rect x="722" y="220" width="240" height="250" rx="30" fill="#eaf8f7"/><rect x="800" y="270" width="86" height="120" rx="18" fill="#0f2f43"/><path d="M820 330 H866" stroke="#5eead4" stroke-width="12" stroke-linecap="round"/><text x="762" y="540" fill="#0f2f43" font-family="Arial" font-size="24" font-weight="800">Reports review</text>
    </g>
  </g>

</svg>
