<svg xmlns="http://www.w3.org/2000/svg" width="1100" height="900" viewBox="0 0 1100 900" role="img" aria-labelledby="title desc"><title id="title">Craft coffee roastery hero mockup</title><desc id="desc">A roastery tabletop with coffee bag, cup, tasting cards, and order dashboard.</desc><defs><linearGradient id="bg" x1="0" y1="0" x2="1" y2="1"><stop stop-color="#2a160d"/><stop offset=".58" stop-color="#754422"/><stop offset="1" stop-color="#f4dfbd"/></linearGradient><linearGradient id="bag" x1="0" y1="0" x2="1" y2="1"><stop stop-color="#f5b36b"/><stop offset="1" stop-color="#9c5528"/></linearGradient><filter id="s"><feDropShadow dx="0" dy="28" stdDeviation="24" flood-color="#160a05" flood-opacity=".35"/></filter></defs><rect width="1100" height="900" rx="54" fill="url(#bg)"/><g opacity=".2"><circle cx="900" cy="130" r="220" fill="#fff"/><path d="M100 720c220-120 440-120 660 0" stroke="#fff" stroke-width="3" fill="none"/></g><g filter="url(#s)"><rect x="96" y="106" width="908" height="660" rx="48" fill="#fff7e8"/><rect x="148" y="186" width="318" height="472" rx="34" fill="#2a160d"/><path d="M216 244h172l34 362H184z" fill="url(#bag)"/><path d="M246 298h112l16 154H230z" fill="#fff7e8"/><text x="255" y="370" font-family="Georgia,serif" font-size="40" font-weight="700" fill="#2a160d">Ember</text><text x="272" y="415" font-family="Inter,Arial" font-size="18" font-weight="900" fill="#754422">roasted today</text><ellipse cx="314" cy="614" rx="76" ry="26" fill="#000" opacity=".2"/><rect x="548" y="168" width="330" height="108" rx="30" fill="#f1dfc2"/><text x="584" y="224" font-family="Inter,Arial" font-size="24" font-weight="900" fill="#2a160d">Roast dashboard</text><rect x="584" y="244" width="116" height="14" rx="7" fill="#9c5528"/><rect x="548" y="322" width="144" height="178" rx="28" fill="#2a160d"/><text x="586" y="380" font-family="Inter,Arial" font-size="17" font-weight="900" fill="#fff7e8">Light</text><rect x="726" y="322" width="144" height="178" rx="28" fill="#754422"/><text x="763" y="380" font-family="Inter,Arial" font-size="17" font-weight="900" fill="#fff7e8">Dark</text><rect x="548" y="542" width="322" height="74" rx="37" fill="#2a160d"/><text x="640" y="587" font-family="Inter,Arial" font-size="18" font-weight="900" fill="#fff7e8">Order fresh roast</text></g></svg>
