<svg xmlns="http://www.w3.org/2000/svg" width="1000" height="720" viewBox="0 0 1000 720" role="img" aria-labelledby="title desc"><title id="title">Coffee roastery gallery visual</title><desc id="desc">Gallery layout showing coffee beans, bags, cups and roastery equipment as abstract panels.</desc><defs><linearGradient id="bg" x1="0" y1="0" x2="1" y2="1"><stop stop-color="#2a160d"/><stop offset="1" stop-color="#754422"/></linearGradient><filter id="s"><feDropShadow dx="0" dy="20" stdDeviation="22" flood-color="#160a05" flood-opacity=".32"/></filter></defs><rect width="1000" height="720" rx="44" fill="url(#bg)"/><text x="70" y="90" font-family="Georgia,serif" font-size="50" font-weight="700" fill="#fff7e8">Roastery gallery</text><g filter="url(#s)"><rect x="72" y="150" width="410" height="210" rx="34" fill="#fff7e8"/><ellipse cx="210" cy="255" rx="70" ry="44" fill="#754422"/><ellipse cx="338" cy="255" rx="70" ry="44" fill="#9c5528"/><rect x="520" y="150" width="406" height="210" rx="34" fill="#e7c18a"/><path d="M640 208h126l24 118H616z" fill="#2a160d"/><rect x="72" y="398" width="260" height="190" rx="34" fill="#e7c18a"/><circle cx="202" cy="492" r="62" fill="#fff7e8"/><rect x="370" y="398" width="260" height="190" rx="34" fill="#fff7e8"/><circle cx="500" cy="492" r="72" fill="#2a160d"/><rect x="668" y="398" width="258" height="190" rx="34" fill="#f4dfbd"/><path d="M740 500c38-52 78 50 126-20" fill="none" stroke="#754422" stroke-width="18" stroke-linecap="round"/></g></svg>
