<svg xmlns="http://www.w3.org/2000/svg" width="720" height="420" viewBox="0 0 720 420" role="img" aria-labelledby="title desc"><title id="title">Command section finder mockup</title><desc id="desc">A premium command menu mockup showing searchable homepage sections grouped by intent.</desc><defs><linearGradient id="bg" x1="0" y1="0" x2="1" y2="1"><stop stop-color="#07111f"/><stop offset="1" stop-color="#1b2544"/></linearGradient><linearGradient id="a" x1="0" y1="0" x2="1" y2="1"><stop stop-color="#78f7d4"/><stop offset="1" stop-color="#8db7ff"/></linearGradient></defs><rect width="720" height="420" rx="36" fill="url(#bg)"/><rect x="72" y="58" width="576" height="304" rx="34" fill="#101b2d" stroke="#fff" stroke-opacity=".12"/><rect x="112" y="96" width="496" height="52" rx="22" fill="#14243a" stroke="#fff" stroke-opacity=".1"/><circle cx="142" cy="122" r="10" fill="none" stroke="#78f7d4" stroke-width="4"/><path d="M150 130l14 14" stroke="#78f7d4" stroke-width="4" stroke-linecap="round"/><rect x="184" y="115" width="208" height="14" rx="7" fill="#fff" opacity=".84"/><rect x="112" y="180" width="146" height="118" rx="24" fill="#14243a" stroke="#fff" stroke-opacity=".08"/><rect x="288" y="180" width="146" height="118" rx="24" fill="#14243a" stroke="#fff" stroke-opacity=".08"/><rect x="464" y="180" width="146" height="118" rx="24" fill="#14243a" stroke="#fff" stroke-opacity=".08"/><g fill="url(#a)"><rect x="136" y="204" width="54" height="10" rx="5"/><rect x="312" y="204" width="54" height="10" rx="5"/><rect x="488" y="204" width="54" height="10" rx="5"/></g><g fill="#fff" opacity=".82"><rect x="136" y="236" width="84" height="10" rx="5"/><rect x="136" y="260" width="68" height="10" rx="5"/><rect x="312" y="236" width="84" height="10" rx="5"/><rect x="312" y="260" width="74" height="10" rx="5"/><rect x="488" y="236" width="82" height="10" rx="5"/><rect x="488" y="260" width="62" height="10" rx="5"/></g></svg>
