<svg xmlns="http://www.w3.org/2000/svg" width="960" height="560" viewBox="0 0 960 560" role="img" aria-labelledby="title desc">
  <title id="title">Commercial flow rail</title>
  <desc id="desc">Local premium illustration for Hamzah commercial homepage presentation.</desc>
  <defs>
    <linearGradient id="bg" x1="0" y1="0" x2="1" y2="1"><stop offset="0" stop-color="#06120f"/><stop offset=".55" stop-color="#10221d"/><stop offset="1" stop-color="#221f17"/></linearGradient>
    <linearGradient id="accent" x1="0" y1="0" x2="1" y2="1"><stop offset="0" stop-color="#73f4c6"/><stop offset="1" stop-color="#d7b56b"/></linearGradient>
    <filter id="shadow" x="-20%" y="-20%" width="140%" height="140%"><feDropShadow dx="0" dy="24" stdDeviation="22" flood-color="#000" flood-opacity=".35"/></filter>
  </defs>
  <rect width="960" height="560" rx="42" fill="url(#bg)"/>
  <circle cx="816" cy="92" r="168" fill="#73f4c6" opacity=".10"/>
  <circle cx="130" cy="456" r="190" fill="#d7b56b" opacity=".10"/>
  <rect x="54" y="50" width="852" height="460" rx="34" fill="#fff" opacity=".045" stroke="#fff" stroke-opacity=".16"/>
  <text x="86" y="100" fill="#f4fff9" font-family="Inter, Arial, sans-serif" font-size="28" font-weight="800">Hamzah</text>
  <text x="86" y="130" fill="#a8b8b1" font-family="Inter, Arial, sans-serif" font-size="15" letter-spacing="2">Commercial flow rail</text>
  
  <g filter="url(#shadow)">
    <rect x="106" y="172" width="184" height="240" rx="28" fill="#0e1d18" stroke="#fff" stroke-opacity=".14"/>
    <text x="136" y="220" fill="#f4fff9" font-family="Inter, Arial, sans-serif" font-size="22" font-weight="800">Trust</text>
    <rect x="136" y="258" width="92" height="12" rx="6" fill="url(#accent)"/>
    <rect x="136" y="298" width="118" height="12" rx="6" fill="#fff" opacity=".18"/>
    <rect x="136" y="336" width="88" height="12" rx="6" fill="#fff" opacity=".18"/>
    <rect x="310" y="172" width="184" height="240" rx="28" fill="#0e1d18" stroke="#fff" stroke-opacity=".14"/>
    <text x="340" y="220" fill="#f4fff9" font-family="Inter, Arial, sans-serif" font-size="22" font-weight="800">Offer</text>
    <rect x="340" y="258" width="92" height="12" rx="6" fill="url(#accent)"/>
    <rect x="340" y="298" width="118" height="12" rx="6" fill="#fff" opacity=".18"/>
    <rect x="340" y="336" width="88" height="12" rx="6" fill="#fff" opacity=".18"/>
    <rect x="514" y="172" width="184" height="240" rx="28" fill="#0e1d18" stroke="#fff" stroke-opacity=".14"/>
    <text x="544" y="220" fill="#f4fff9" font-family="Inter, Arial, sans-serif" font-size="22" font-weight="800">Proof</text>
    <rect x="544" y="258" width="92" height="12" rx="6" fill="url(#accent)"/>
    <rect x="544" y="298" width="118" height="12" rx="6" fill="#fff" opacity=".18"/>
    <rect x="544" y="336" width="88" height="12" rx="6" fill="#fff" opacity=".18"/>
    <rect x="718" y="172" width="136" height="240" rx="28" fill="#0e1d18" stroke="#fff" stroke-opacity=".14"/>
    <text x="748" y="220" fill="#f4fff9" font-family="Inter, Arial, sans-serif" font-size="22" font-weight="800">CTA</text>
    <rect x="748" y="258" width="64" height="12" rx="6" fill="url(#accent)"/>
    <rect x="748" y="298" width="78" height="12" rx="6" fill="#fff" opacity=".18"/>
    <rect x="748" y="346" width="72" height="34" rx="17" fill="url(#accent)" opacity=".9"/>
  </g>
  <path d="M290 292 H310 M494 292 H514 M698 292 H718" stroke="url(#accent)" stroke-width="7" stroke-linecap="round"/>

</svg>