<svg xmlns="http://www.w3.org/2000/svg" width="720" height="420" viewBox="0 0 720 420" role="img" aria-labelledby="title desc"><title id="title">Keyboard command flow mockup</title><desc id="desc">Keyboard shortcut flow showing command key, search input, arrow navigation, and section jump.</desc><defs><linearGradient id="bg" x1="0" y1="0" x2="1" y2="1"><stop stop-color="#0a1220"/><stop offset="1" stop-color="#1c2844"/></linearGradient><linearGradient id="a" x1="0" y1="0" x2="1" y2="1"><stop stop-color="#78f7d4"/><stop offset="1" stop-color="#8db7ff"/></linearGradient></defs><rect width="720" height="420" rx="36" fill="url(#bg)"/><g transform="translate(74 110)"><rect width="118" height="74" rx="24" fill="#101b2d" stroke="#fff" stroke-opacity=".12"/><text x="59" y="49" text-anchor="middle" font-family="Arial, sans-serif" font-size="25" font-weight="800" fill="#fff">⌘K</text></g><path d="M206 148h92" stroke="#78f7d4" stroke-width="6" stroke-linecap="round"/><g transform="translate(314 88)"><rect width="228" height="120" rx="30" fill="#101b2d" stroke="#fff" stroke-opacity=".12"/><rect x="28" y="28" width="172" height="34" rx="17" fill="#14243a"/><rect x="50" y="40" width="94" height="10" rx="5" fill="#fff" opacity=".82"/><rect x="28" y="78" width="128" height="12" rx="6" fill="url(#a)" opacity=".9"/></g><path d="M542 148h78" stroke="#78f7d4" stroke-width="6" stroke-linecap="round"/><g transform="translate(456 252)"><rect width="170" height="74" rx="24" fill="#101b2d" stroke="#fff" stroke-opacity=".12"/><rect x="28" y="24" width="114" height="12" rx="6" fill="#fff" opacity=".82"/><rect x="28" y="46" width="82" height="8" rx="4" fill="#9fb3c8" opacity=".45"/></g><path d="M414 288H288c-50 0-72-28-72-72" fill="none" stroke="#8db7ff" stroke-width="6" stroke-linecap="round"/><circle cx="414" cy="288" r="10" fill="#8db7ff"/><circle cx="216" cy="216" r="10" fill="#78f7d4"/></svg>
