<svg xmlns="http://www.w3.org/2000/svg" width="960" height="560" viewBox="0 0 960 560" role="img" aria-labelledby="title desc">
  <title id="title">Commercial homepage stage</title>
  <desc id="desc">Local premium illustration for Hamzah commercial homepage presentation.</desc>
  <defs>
    <linearGradient id="bg" x1="0" y1="0" x2="1" y2="1"><stop offset="0" stop-color="#06120f"/><stop offset=".55" stop-color="#10221d"/><stop offset="1" stop-color="#221f17"/></linearGradient>
    <linearGradient id="accent" x1="0" y1="0" x2="1" y2="1"><stop offset="0" stop-color="#73f4c6"/><stop offset="1" stop-color="#d7b56b"/></linearGradient>
    <filter id="shadow" x="-20%" y="-20%" width="140%" height="140%"><feDropShadow dx="0" dy="24" stdDeviation="22" flood-color="#000" flood-opacity=".35"/></filter>
  </defs>
  <rect width="960" height="560" rx="42" fill="url(#bg)"/>
  <circle cx="816" cy="92" r="168" fill="#73f4c6" opacity=".10"/>
  <circle cx="130" cy="456" r="190" fill="#d7b56b" opacity=".10"/>
  <rect x="54" y="50" width="852" height="460" rx="34" fill="#fff" opacity=".045" stroke="#fff" stroke-opacity=".16"/>
  <text x="86" y="100" fill="#f4fff9" font-family="Inter, Arial, sans-serif" font-size="28" font-weight="800">Hamzah</text>
  <text x="86" y="130" fill="#a8b8b1" font-family="Inter, Arial, sans-serif" font-size="15" letter-spacing="2">Commercial homepage stage</text>
  
  <g filter="url(#shadow)">
    <rect x="90" y="166" width="780" height="306" rx="34" fill="#0e1d18" stroke="#fff" stroke-opacity=".14"/>
    <rect x="128" y="204" width="246" height="34" rx="17" fill="url(#accent)" opacity=".92"/>
    <rect x="128" y="264" width="390" height="18" rx="9" fill="#fff" opacity=".22"/>
    <rect x="128" y="304" width="318" height="14" rx="7" fill="#fff" opacity=".16"/>
    <rect x="128" y="338" width="362" height="14" rx="7" fill="#fff" opacity=".16"/>
    <rect x="128" y="394" width="144" height="42" rx="21" fill="#73f4c6" opacity=".9"/>
    <text x="160" y="421" fill="#06120f" font-family="Inter, Arial, sans-serif" font-size="15" font-weight="900">Contact</text>
    <rect x="588" y="206" width="236" height="206" rx="26" fill="#fff" opacity=".07"/>
    <rect x="616" y="236" width="82" height="82" rx="24" fill="#73f4c6" opacity=".18"/>
    <rect x="716" y="236" width="82" height="82" rx="24" fill="#d7b56b" opacity=".18"/>
    <rect x="616" y="338" width="182" height="16" rx="8" fill="#fff" opacity=".18"/>
    <rect x="616" y="374" width="136" height="16" rx="8" fill="#fff" opacity=".14"/>
  </g>

</svg>