<svg xmlns="http://www.w3.org/2000/svg" width="960" height="560" viewBox="0 0 960 560" role="img" aria-labelledby="title desc">
  <title id="title">Component quality board</title>
  <desc id="desc">Local premium illustration for Hamzah reusable UI component quality.</desc>
  <defs>
    <linearGradient id="bg" x1="0" y1="0" x2="1" y2="1"><stop offset="0" stop-color="#06120f"/><stop offset=".55" stop-color="#10221d"/><stop offset="1" stop-color="#231f17"/></linearGradient>
    <linearGradient id="accent" x1="0" y1="0" x2="1" y2="1"><stop offset="0" stop-color="#73f4c6"/><stop offset="1" stop-color="#d7b56b"/></linearGradient>
    <filter id="shadow" x="-20%" y="-20%" width="140%" height="140%"><feDropShadow dx="0" dy="24" stdDeviation="22" flood-color="#000" flood-opacity=".35"/></filter>
  </defs>
  <rect width="960" height="560" rx="42" fill="url(#bg)"/>
  <circle cx="810" cy="100" r="168" fill="#73f4c6" opacity=".10"/>
  <circle cx="122" cy="454" r="186" fill="#d7b56b" opacity=".10"/>
  <rect x="54" y="50" width="852" height="460" rx="34" fill="#fff" opacity=".045" stroke="#fff" stroke-opacity=".16"/>
  <text x="86" y="100" fill="#f4fff9" font-family="Inter, Arial, sans-serif" font-size="28" font-weight="800">Hamzah</text>
  <text x="86" y="130" fill="#a8b8b1" font-family="Inter, Arial, sans-serif" font-size="15" letter-spacing="2">Component quality board</text>
  
  <g filter="url(#shadow)">
    <rect x="92" y="170" width="776" height="288" rx="32" fill="#0e1d18" stroke="#fff" stroke-opacity=".14"/>
    <rect x="130" y="216" width="120" height="42" rx="21" fill="url(#accent)" opacity=".92"/>
    <rect x="284" y="216" width="186" height="42" rx="21" fill="#fff" opacity=".08" stroke="#fff" stroke-opacity=".14"/>
    <rect x="506" y="216" width="134" height="42" rx="21" fill="#fff" opacity=".08" stroke="#fff" stroke-opacity=".14"/>
    <rect x="676" y="216" width="116" height="42" rx="21" fill="#fff" opacity=".08" stroke="#fff" stroke-opacity=".14"/>
    <rect x="130" y="304" width="192" height="110" rx="24" fill="#fff" opacity=".07"/>
    <rect x="352" y="304" width="192" height="110" rx="24" fill="#fff" opacity=".07"/>
    <rect x="574" y="304" width="192" height="110" rx="24" fill="#fff" opacity=".07"/>
    <text x="160" y="344" fill="#f4fff9" font-family="Inter, Arial, sans-serif" font-size="20" font-weight="800">Cards</text>
    <text x="382" y="344" fill="#f4fff9" font-family="Inter, Arial, sans-serif" font-size="20" font-weight="800">Forms</text>
    <text x="604" y="344" fill="#f4fff9" font-family="Inter, Arial, sans-serif" font-size="20" font-weight="800">CTAs</text>
    <rect x="160" y="372" width="90" height="10" rx="5" fill="#fff" opacity=".18"/>
    <rect x="382" y="372" width="90" height="10" rx="5" fill="#fff" opacity=".18"/>
    <rect x="604" y="372" width="90" height="10" rx="5" fill="#fff" opacity=".18"/>
  </g>

</svg>