<svg xmlns="http://www.w3.org/2000/svg" width="960" height="560" viewBox="0 0 960 560" role="img" aria-labelledby="title desc">
  <title id="title">Component handoff grid</title>
  <desc id="desc">Local premium illustration for Hamzah reusable UI component quality.</desc>
  <defs>
    <linearGradient id="bg" x1="0" y1="0" x2="1" y2="1"><stop offset="0" stop-color="#06120f"/><stop offset=".55" stop-color="#10221d"/><stop offset="1" stop-color="#231f17"/></linearGradient>
    <linearGradient id="accent" x1="0" y1="0" x2="1" y2="1"><stop offset="0" stop-color="#73f4c6"/><stop offset="1" stop-color="#d7b56b"/></linearGradient>
    <filter id="shadow" x="-20%" y="-20%" width="140%" height="140%"><feDropShadow dx="0" dy="24" stdDeviation="22" flood-color="#000" flood-opacity=".35"/></filter>
  </defs>
  <rect width="960" height="560" rx="42" fill="url(#bg)"/>
  <circle cx="810" cy="100" r="168" fill="#73f4c6" opacity=".10"/>
  <circle cx="122" cy="454" r="186" fill="#d7b56b" opacity=".10"/>
  <rect x="54" y="50" width="852" height="460" rx="34" fill="#fff" opacity=".045" stroke="#fff" stroke-opacity=".16"/>
  <text x="86" y="100" fill="#f4fff9" font-family="Inter, Arial, sans-serif" font-size="28" font-weight="800">Hamzah</text>
  <text x="86" y="130" fill="#a8b8b1" font-family="Inter, Arial, sans-serif" font-size="15" letter-spacing="2">Component handoff grid</text>
  
  <g filter="url(#shadow)">
    <rect x="104" y="168" width="226" height="258" rx="30" fill="#0e1d18" stroke="#fff" stroke-opacity=".14"/>
    <text x="134" y="216" fill="#f4fff9" font-family="Inter, Arial, sans-serif" font-size="22" font-weight="800">Reusable</text>
    <circle cx="144" cy="264" r="7" fill="#73f4c6"/><text x="164" y="270" fill="#a8b8b1" font-family="Inter, Arial, sans-serif" font-size="15">Shared spacing</text>
    <circle cx="144" cy="306" r="7" fill="#d7b56b"/><text x="164" y="312" fill="#a8b8b1" font-family="Inter, Arial, sans-serif" font-size="15">Consistent states</text>
    <circle cx="144" cy="348" r="7" fill="#73f4c6"/><text x="164" y="354" fill="#a8b8b1" font-family="Inter, Arial, sans-serif" font-size="15">Clear labels</text>

    <rect x="366" y="168" width="226" height="258" rx="30" fill="#0e1d18" stroke="#fff" stroke-opacity=".14"/>
    <text x="396" y="216" fill="#f4fff9" font-family="Inter, Arial, sans-serif" font-size="22" font-weight="800">Responsive</text>
    <rect x="396" y="254" width="132" height="12" rx="6" fill="url(#accent)"/>
    <rect x="396" y="296" width="154" height="12" rx="6" fill="#fff" opacity=".18"/>
    <rect x="396" y="338" width="98" height="12" rx="6" fill="#fff" opacity=".18"/>

    <rect x="628" y="168" width="226" height="258" rx="30" fill="#0e1d18" stroke="#fff" stroke-opacity=".14"/>
    <text x="658" y="216" fill="#f4fff9" font-family="Inter, Arial, sans-serif" font-size="22" font-weight="800">Handoff</text>
    <rect x="658" y="254" width="132" height="12" rx="6" fill="url(#accent)"/>
    <rect x="658" y="296" width="154" height="12" rx="6" fill="#fff" opacity=".18"/>
    <rect x="658" y="338" width="98" height="12" rx="6" fill="#fff" opacity=".18"/>
  </g>
  <path d="M330 296 H366 M592 296 H628" stroke="url(#accent)" stroke-width="7" stroke-linecap="round"/>

</svg>