<svg xmlns="http://www.w3.org/2000/svg" viewBox="0 0 760 520" role="img" aria-labelledby="title desc">
  <title id="title">Component library mockup</title>
  <desc id="desc">A component library preview showing cards, forms, pricing modules, and dashboard widgets.</desc>
  <defs><linearGradient id="bg" x1="0" y1="0" x2="1" y2="1"><stop offset="0" stop-color="#1A1420"/><stop offset="1" stop-color="#081018"/></linearGradient><linearGradient id="a" x1="0" y1="0" x2="1" y2="1"><stop offset="0" stop-color="#F9C784"/><stop offset=".5" stop-color="#A78BFA"/><stop offset="1" stop-color="#67E8F9"/></linearGradient><filter id="sh" x="-20%" y="-20%" width="140%" height="140%"><feDropShadow dx="0" dy="24" stdDeviation="24" flood-color="#000" flood-opacity=".36"/></filter></defs>
  <rect width="760" height="520" rx="38" fill="url(#bg)"/><path d="M84 146c120-74 236-70 348 6s196 62 248-20" fill="none" stroke="#F9C784" stroke-opacity=".12" stroke-width="26" stroke-linecap="round"/>
  <g filter="url(#sh)"><rect x="88" y="78" width="584" height="364" rx="34" fill="#10121C" stroke="#fff" stroke-opacity=".12"/>
    <rect x="126" y="118" width="176" height="22" rx="11" fill="#fff" opacity=".82"/><rect x="126" y="162" width="244" height="12" rx="6" fill="#fff" opacity=".18"/>
    <rect x="126" y="216" width="150" height="166" rx="24" fill="#171A28"/><rect x="304" y="216" width="150" height="166" rx="24" fill="#171A28"/><rect x="482" y="216" width="126" height="166" rx="24" fill="#171A28"/>
    <rect x="148" y="246" width="86" height="14" rx="7" fill="#fff" opacity=".62"/><rect x="148" y="282" width="98" height="38" rx="19" fill="url(#a)"/><rect x="326" y="246" width="80" height="14" rx="7" fill="#fff" opacity=".62"/><rect x="326" y="282" width="104" height="14" rx="7" fill="#fff" opacity=".18"/><rect x="326" y="316" width="104" height="38" rx="19" fill="#22263A"/><path d="M510 336h18l18-42 20 18 24-50" fill="none" stroke="url(#a)" stroke-width="7" stroke-linecap="round" stroke-linejoin="round"/>
  </g><text x="106" y="484" fill="#FAD7A0" font-family="Inter,Arial" font-size="18" font-weight="900">Component library · cards, forms, pricing, widgets</text>
</svg>
