<svg xmlns="http://www.w3.org/2000/svg" width="1000" height="720" viewBox="0 0 1000 720" role="img" aria-labelledby="title desc"><title id="title">Construction service card visuals</title><desc id="desc">Service cards for new builds, renovations, commercial fit-outs, structural work and project management.</desc><defs><linearGradient id="bg" x1="0" y1="0" x2="1" y2="1"><stop stop-color="#111827"/><stop offset="1" stop-color="#374151"/></linearGradient><filter id="s"><feDropShadow dx="0" dy="22" stdDeviation="20" flood-color="#000" flood-opacity=".32"/></filter></defs><rect width="1000" height="720" rx="44" fill="url(#bg)"/><text x="70" y="90" font-family="Georgia,serif" font-size="50" font-weight="700" fill="#fff">Construction services</text><g filter="url(#s)" font-family="Inter,Arial"><g transform="translate(74 150)"><rect width="252" height="190" rx="30" fill="#1f2937"/><text x="30" y="58" font-size="22" font-weight="900" fill="#fff">New builds</text><path d="M36 130h170" stroke="#f59e0b" stroke-width="14" stroke-linecap="round"/></g><g transform="translate(374 150)"><rect width="252" height="190" rx="30" fill="#f59e0b"/><text x="30" y="58" font-size="22" font-weight="900" fill="#111827">Renovations</text><path d="M36 130h170" stroke="#111827" stroke-width="14" stroke-linecap="round" opacity=".7"/></g><g transform="translate(674 150)"><rect width="252" height="190" rx="30" fill="#1f2937"/><text x="30" y="58" font-size="22" font-weight="900" fill="#fff">Fit-outs</text><path d="M36 130h170" stroke="#f59e0b" stroke-width="14" stroke-linecap="round"/></g><g transform="translate(224 390)"><rect width="252" height="190" rx="30" fill="#1f2937"/><text x="30" y="58" font-size="22" font-weight="900" fill="#fff">Structural</text><path d="M36 130h170" stroke="#f59e0b" stroke-width="14" stroke-linecap="round"/></g><g transform="translate(524 390)"><rect width="252" height="190" rx="30" fill="#f59e0b"/><text x="30" y="58" font-size="22" font-weight="900" fill="#111827">Management</text><path d="M36 130h170" stroke="#111827" stroke-width="14" stroke-linecap="round" opacity=".7"/></g></g></svg>
