<svg xmlns="http://www.w3.org/2000/svg" width="1000" height="720" viewBox="0 0 1000 720" role="img" aria-labelledby="title desc"><title id="title">Construction project gallery mockup</title><desc id="desc">Industrial project gallery cards showing residential, commercial and renovation project previews.</desc><defs><linearGradient id="bg" x1="0" y1="0" x2="1" y2="1"><stop stop-color="#e5e7eb"/><stop offset="1" stop-color="#f59e0b"/></linearGradient><filter id="s"><feDropShadow dx="0" dy="20" stdDeviation="20" flood-color="#111827" flood-opacity=".2"/></filter></defs><rect width="1000" height="720" rx="44" fill="url(#bg)"/><text x="70" y="90" font-family="Georgia,serif" font-size="50" font-weight="700" fill="#111827">Project gallery</text><g filter="url(#s)"><rect x="70" y="142" width="410" height="230" rx="34" fill="#111827"/><path d="M126 326h282V212l-140-72-142 72z" fill="#9ca3af"/><rect x="520" y="142" width="410" height="230" rx="34" fill="#263241"/><rect x="590" y="198" width="250" height="128" rx="14" fill="#9ca3af"/><path d="M618 198v128M670 198v128M722 198v128M774 198v128M826 198v128" stroke="#111827" stroke-width="8"/><rect x="70" y="410" width="260" height="180" rx="34" fill="#263241"/><rect x="370" y="410" width="260" height="180" rx="34" fill="#111827"/><rect x="670" y="410" width="260" height="180" rx="34" fill="#263241"/><path d="M114 526h164M414 526h164M714 526h164" stroke="#f59e0b" stroke-width="16" stroke-linecap="round"/></g></svg>
