<svg xmlns="http://www.w3.org/2000/svg" width="1100" height="900" viewBox="0 0 1100 900" role="img" aria-labelledby="title desc"><title id="title">Construction contractor hero blueprint visual</title><desc id="desc">Industrial hero mockup with crane, blueprint grid, building frame and estimate dashboard.</desc><defs><linearGradient id="bg" x1="0" y1="0" x2="1" y2="1"><stop stop-color="#111827"/><stop offset=".58" stop-color="#263241"/><stop offset="1" stop-color="#f59e0b"/></linearGradient><linearGradient id="y" x1="0" y1="0" x2="1" y2="1"><stop stop-color="#fde68a"/><stop offset="1" stop-color="#f59e0b"/></linearGradient><filter id="s"><feDropShadow dx="0" dy="30" stdDeviation="24" flood-color="#000" flood-opacity=".36"/></filter></defs><rect width="1100" height="900" rx="54" fill="url(#bg)"/><g opacity=".16" stroke="#fff" stroke-width="2"><path d="M110 140h850M110 220h850M110 300h850M110 380h850M110 460h850M110 540h850"/><path d="M180 100v560M300 100v560M420 100v560M540 100v560M660 100v560M780 100v560"/></g><g filter="url(#s)"><rect x="90" y="120" width="920" height="640" rx="48" fill="#111827"/><path d="M180 620h380v46H180z" fill="url(#y)"/><path d="M260 330h190v290H260z" fill="#374151"/><path d="M226 330h260" stroke="#f59e0b" stroke-width="20" stroke-linecap="round"/><path d="M330 176h86v154h-86z" fill="#9ca3af"/><path d="M230 176h420" stroke="#f59e0b" stroke-width="18" stroke-linecap="round"/><path d="M416 176l150 118" stroke="#f59e0b" stroke-width="12"/><rect x="632" y="176" width="268" height="174" rx="30" fill="#1f2937"/><text x="666" y="232" font-family="Inter,Arial" font-size="24" font-weight="900" fill="#fff">Estimate board</text><rect x="666" y="268" width="116" height="14" rx="7" fill="#f59e0b"/><rect x="666" y="304" width="170" height="14" rx="7" fill="#fff" opacity=".24"/><rect x="632" y="398" width="128" height="160" rx="28" fill="#263241"/><rect x="790" y="398" width="128" height="160" rx="28" fill="url(#y)"/></g></svg>
