<svg xmlns="http://www.w3.org/2000/svg" width="960" height="640" viewBox="0 0 960 640" role="img" aria-labelledby="title desc"><title id="title">Contact fallback map</title><desc id="desc">A static contact fallback map showing local validation, Gmail draft, mail app fallback, copy email, and manual message path.</desc><defs><linearGradient id="bg" x1="0" y1="0" x2="1" y2="1"><stop stop-color="#0a1220"/><stop offset="1" stop-color="#1c2844"/></linearGradient><linearGradient id="a" x1="0" y1="0" x2="1" y2="1"><stop stop-color="#78f7d4"/><stop offset="1" stop-color="#8db7ff"/></linearGradient></defs><rect width="960" height="640" rx="44" fill="url(#bg)"/><rect x="90" y="84" width="780" height="472" rx="42" fill="#101b2d" stroke="#fff" stroke-opacity=".12"/><rect x="138" y="128" width="684" height="66" rx="28" fill="#14243a"/><rect x="176" y="154" width="230" height="14" rx="7" fill="#fff" opacity=".86"/><g fill="#14243a" stroke="#fff" stroke-opacity=".08"><rect x="138" y="248" width="172" height="108" rx="28"/><rect x="394" y="248" width="172" height="108" rx="28"/><rect x="650" y="248" width="172" height="108" rx="28"/><rect x="266" y="410" width="172" height="108" rx="28"/><rect x="522" y="410" width="172" height="108" rx="28"/></g><path d="M310 302h84M566 302h84M480 356v54" stroke="#78f7d4" stroke-width="7" stroke-linecap="round"/><path d="M480 356c-64 34-96 50-128 54M480 356c64 34 96 50 128 54" fill="none" stroke="#8db7ff" stroke-width="7" stroke-linecap="round"/><g fill="url(#a)"><rect x="174" y="282" width="70" height="10" rx="5"/><rect x="430" y="282" width="70" height="10" rx="5"/><rect x="686" y="282" width="70" height="10" rx="5"/><rect x="302" y="444" width="70" height="10" rx="5"/><rect x="558" y="444" width="70" height="10" rx="5"/></g><g fill="#fff" opacity=".82"><rect x="174" y="314" width="94" height="10" rx="5"/><rect x="430" y="314" width="94" height="10" rx="5"/><rect x="686" y="314" width="94" height="10" rx="5"/><rect x="302" y="476" width="94" height="10" rx="5"/><rect x="558" y="476" width="94" height="10" rx="5"/></g></svg>
