<svg xmlns="http://www.w3.org/2000/svg" width="960" height="640" viewBox="0 0 960 640" role="img" aria-labelledby="title desc"><title id="title">Contact message template mockup</title><desc id="desc">A message draft template showing project type, goal, references, sections, deadline, and launch notes.</desc><defs><linearGradient id="bg" x1="0" y1="0" x2="1" y2="1"><stop stop-color="#130c21"/><stop offset="1" stop-color="#2a1c3a"/></linearGradient><linearGradient id="a" x1="0" y1="0" x2="1" y2="1"><stop stop-color="#ff8bd1"/><stop offset="1" stop-color="#8db7ff"/></linearGradient><filter id="s"><feDropShadow dx="0" dy="18" stdDeviation="22" flood-opacity=".34"/></filter></defs><rect width="960" height="640" rx="42" fill="url(#bg)"/><rect x="154" y="78" width="652" height="484" rx="40" fill="#170f29" stroke="#fff" stroke-opacity=".12" filter="url(#s)"/><rect x="202" y="124" width="556" height="64" rx="24" fill="#24183d"/><rect x="238" y="148" width="220" height="16" rx="8" fill="#fff" opacity=".9"/><rect x="638" y="144" width="76" height="24" rx="12" fill="url(#a)"/><g fill="#fff" font-family="Inter,Arial"><rect x="202" y="232" width="556" height="48" rx="18" fill="#24183d"/><text x="232" y="263" font-size="16" font-weight="800">Project type</text><rect x="202" y="306" width="556" height="48" rx="18" fill="#24183d"/><text x="232" y="337" font-size="16" font-weight="800">Goal and audience</text><rect x="202" y="380" width="556" height="48" rx="18" fill="#24183d"/><text x="232" y="411" font-size="16" font-weight="800">Reference links</text><rect x="202" y="454" width="556" height="48" rx="18" fill="#24183d"/><text x="232" y="485" font-size="16" font-weight="800">Sections, deadline, notes</text></g></svg>