<svg xmlns="http://www.w3.org/2000/svg" width="960" height="640" viewBox="0 0 960 640" role="img" aria-labelledby="title desc"><title id="title">Contact routing board</title><desc id="desc">A premium contact routing board showing Gmail, mail app, copy email, and project brief paths for a static website.</desc><defs><linearGradient id="bg" x1="0" y1="0" x2="1" y2="1"><stop stop-color="#07111f"/><stop offset="1" stop-color="#1b2544"/></linearGradient><linearGradient id="a" x1="0" y1="0" x2="1" y2="1"><stop stop-color="#78f7d4"/><stop offset="1" stop-color="#8db7ff"/></linearGradient><filter id="s"><feDropShadow dx="0" dy="18" stdDeviation="24" flood-opacity=".3"/></filter></defs><rect width="960" height="640" rx="44" fill="url(#bg)"/><rect x="76" y="82" width="808" height="476" rx="42" fill="#0d1729" stroke="#fff" stroke-opacity=".12" filter="url(#s)"/><rect x="122" y="128" width="716" height="70" rx="28" fill="#13243a"/><rect x="160" y="156" width="236" height="14" rx="7" fill="#fff" opacity=".86"/><rect x="680" y="144" width="112" height="34" rx="17" fill="url(#a)"/><g fill="#13243a" stroke="#fff" stroke-opacity=".08"><rect x="130" y="248" width="190" height="180" rx="34"/><rect x="386" y="248" width="190" height="180" rx="34"/><rect x="642" y="248" width="190" height="180" rx="34"/></g><path d="M320 338h66M576 338h66" stroke="#78f7d4" stroke-width="8" stroke-linecap="round"/><g fill="url(#a)"><circle cx="225" cy="316" r="34"/><circle cx="481" cy="316" r="34"/><circle cx="737" cy="316" r="34"/></g><g fill="#07100d" font-family="Arial, sans-serif" font-size="24" font-weight="800" text-anchor="middle"><text x="225" y="325">G</text><text x="481" y="325">@</text><text x="737" y="325">✓</text></g><g fill="#fff" opacity=".82"><rect x="174" y="374" width="102" height="12" rx="6"/><rect x="430" y="374" width="102" height="12" rx="6"/><rect x="686" y="374" width="102" height="12" rx="6"/></g><rect x="226" y="466" width="508" height="52" rx="24" fill="#13243a"/><path d="M266 492h428" stroke="url(#a)" stroke-width="8" stroke-linecap="round"/></svg>
