<svg xmlns="http://www.w3.org/2000/svg" width="960" height="640" viewBox="0 0 960 640" role="img" aria-labelledby="title desc">
<title id="title">Content priority stack mockup</title><desc id="desc">A layered content stack for homepage messaging, proof, service explanation, package clarity, and contact.</desc>
<defs><linearGradient id="bg" x1="0" y1="0" x2="1" y2="1"><stop stop-color="#08131d"/><stop offset="1" stop-color="#183322"/></linearGradient><linearGradient id="a" x1="0" y1="0" x2="1" y2="1"><stop stop-color="#7df7aa"/><stop offset="1" stop-color="#8db7ff"/></linearGradient><filter id="s"><feDropShadow dx="0" dy="16" stdDeviation="18" flood-opacity=".35"/></filter></defs>
<rect width="960" height="640" rx="42" fill="url(#bg)"/><g filter="url(#s)" font-family="Inter,Arial">
<rect x="190" y="110" width="580" height="78" rx="26" fill="#102434" stroke="#fff" stroke-opacity=".12"/><text x="232" y="158" fill="#fff" font-size="22" font-weight="850">01 · First impression</text><circle cx="704" cy="149" r="22" fill="url(#a)"/>
<rect x="160" y="206" width="640" height="78" rx="26" fill="#112b34" stroke="#fff" stroke-opacity=".12"/><text x="202" y="254" fill="#fff" font-size="22" font-weight="850">02 · Trust and proof</text><circle cx="734" cy="245" r="22" fill="#ffd166"/>
<rect x="130" y="302" width="700" height="78" rx="26" fill="#143038" stroke="#fff" stroke-opacity=".12"/><text x="172" y="350" fill="#fff" font-size="22" font-weight="850">03 · Service explanation</text><circle cx="764" cy="341" r="22" fill="#78f7d4"/>
<rect x="160" y="398" width="640" height="78" rx="26" fill="#112b34" stroke="#fff" stroke-opacity=".12"/><text x="202" y="446" fill="#fff" font-size="22" font-weight="850">04 · Scope and questions</text><circle cx="734" cy="437" r="22" fill="#ff8bd1"/>
<rect x="190" y="494" width="580" height="78" rx="26" fill="#102434" stroke="#fff" stroke-opacity=".12"/><text x="232" y="542" fill="#fff" font-size="22" font-weight="850">05 · Contact action</text><circle cx="704" cy="533" r="22" fill="#8db7ff"/>
</g><path d="M480 188v18M480 284v18M480 380v18M480 476v18" stroke="#9fb3c8" stroke-width="5" stroke-linecap="round" stroke-dasharray="8 10"/>
</svg>