<svg xmlns="http://www.w3.org/2000/svg" width="960" height="640" viewBox="0 0 960 640" role="img" aria-labelledby="title desc"><title id="title">Contact intake assistant mockup</title><desc id="desc">A premium contact intake assistant with quick brief options for website type, scope, references, and deadline.</desc><defs><linearGradient id="bg" x1="0" y1="0" x2="1" y2="1"><stop stop-color="#07111f"/><stop offset="1" stop-color="#1b2544"/></linearGradient><linearGradient id="a" x1="0" y1="0" x2="1" y2="1"><stop stop-color="#78f7d4"/><stop offset="1" stop-color="#8db7ff"/></linearGradient><filter id="s"><feDropShadow dx="0" dy="18" stdDeviation="22" flood-opacity=".34"/></filter></defs><rect width="960" height="640" rx="42" fill="url(#bg)"/><rect x="110" y="86" width="740" height="468" rx="42" fill="#0d1729" stroke="#fff" stroke-opacity=".12" filter="url(#s)"/><rect x="158" y="132" width="644" height="78" rx="28" fill="#14243a"/><rect x="198" y="160" width="260" height="18" rx="9" fill="#fff" opacity=".9"/><rect x="198" y="190" width="340" height="10" rx="5" fill="#9fb3c8" opacity=".52"/><rect x="642" y="154" width="116" height="34" rx="17" fill="url(#a)"/><g font-family="Inter,Arial" fill="#fff"><g transform="translate(158 256)"><rect width="190" height="108" rx="28" fill="#13243a"/><circle cx="44" cy="44" r="18" fill="url(#a)"/><text x="78" y="50" font-size="17" font-weight="850">Business</text><text x="32" y="82" font-size="14" fill="#9fb3c8">Services + contact</text></g><g transform="translate(386 256)"><rect width="190" height="108" rx="28" fill="#13243a"/><circle cx="44" cy="44" r="18" fill="#ff8bd1"/><text x="78" y="50" font-size="17" font-weight="850">Portfolio</text><text x="32" y="82" font-size="14" fill="#9fb3c8">Work + identity</text></g><g transform="translate(614 256)"><rect width="190" height="108" rx="28" fill="#13243a"/><circle cx="44" cy="44" r="18" fill="#ffd166"/><text x="78" y="50" font-size="17" font-weight="850">Dashboard</text><text x="32" y="82" font-size="14" fill="#9fb3c8">UI + modules</text></g></g><rect x="158" y="424" width="644" height="76" rx="28" fill="#101f35"/><text x="198" y="468" fill="#fff" font-family="Inter,Arial" font-size="18" font-weight="850">Quick template adds a cleaner first message.</text></svg>