<svg xmlns="http://www.w3.org/2000/svg" width="960" height="640" viewBox="0 0 960 640" role="img" aria-labelledby="title desc">
<title id="title">CTA routing board mockup</title><desc id="desc">A board showing different call-to-action routes for packages, work proof, FAQ, brief, and contact.</desc>
<defs><linearGradient id="bg" x1="0" y1="0" x2="1" y2="1"><stop stop-color="#0b1020"/><stop offset="1" stop-color="#2a1734"/></linearGradient><linearGradient id="g" x1="0" y1="0" x2="1" y2="1"><stop stop-color="#ff8bd1"/><stop offset="1" stop-color="#8db7ff"/></linearGradient><filter id="s"><feDropShadow dx="0" dy="18" stdDeviation="20" flood-opacity=".35"/></filter></defs>
<rect width="960" height="640" rx="42" fill="url(#bg)"/><rect x="106" y="82" width="748" height="476" rx="38" fill="#101629" stroke="#fff" stroke-opacity=".12" filter="url(#s)"/>
<text x="154" y="146" fill="#fff" font-family="Inter,Arial" font-size="30" font-weight="850">CTA routing board</text><text x="154" y="178" fill="#aebbd0" font-family="Inter,Arial" font-size="17">Each button has a job. No dead-end sections.</text>
<g transform="translate(154 236)" font-family="Inter,Arial"><rect width="216" height="220" rx="30" fill="#18243c" stroke="#fff" stroke-opacity=".10"/><rect x="32" y="34" width="108" height="14" rx="7" fill="#fff" opacity=".88"/><rect x="32" y="68" width="152" height="10" rx="5" fill="#9baac2" opacity=".52"/><rect x="32" y="98" width="132" height="36" rx="18" fill="url(#g)"/><text x="98" y="122" text-anchor="middle" fill="#101629" font-size="14" font-weight="900">View work</text><path d="M110 164c32 0 50 18 70 42" fill="none" stroke="#8db7ff" stroke-width="5" stroke-linecap="round"/></g>
<g transform="translate(380 236)" font-family="Inter,Arial"><rect width="216" height="220" rx="30" fill="#18243c" stroke="#fff" stroke-opacity=".10"/><rect x="32" y="34" width="118" height="14" rx="7" fill="#fff" opacity=".88"/><rect x="32" y="68" width="142" height="10" rx="5" fill="#9baac2" opacity=".52"/><rect x="32" y="98" width="132" height="36" rx="18" fill="#78f7d4"/><text x="98" y="122" text-anchor="middle" fill="#101629" font-size="14" font-weight="900">Packages</text><path d="M108 164c-18 24-18 46 2 66" fill="none" stroke="#78f7d4" stroke-width="5" stroke-linecap="round"/></g>
<g transform="translate(606 236)" font-family="Inter,Arial"><rect width="216" height="220" rx="30" fill="#18243c" stroke="#fff" stroke-opacity=".10"/><rect x="32" y="34" width="100" height="14" rx="7" fill="#fff" opacity=".88"/><rect x="32" y="68" width="152" height="10" rx="5" fill="#9baac2" opacity=".52"/><rect x="32" y="98" width="132" height="36" rx="18" fill="#ffd166"/><text x="98" y="122" text-anchor="middle" fill="#101629" font-size="14" font-weight="900">Contact</text><path d="M34 166c-28 10-44 32-48 66" fill="none" stroke="#ffd166" stroke-width="5" stroke-linecap="round"/></g>
<rect x="286" y="496" width="388" height="40" rx="20" fill="#fff" opacity=".08"/><text x="480" y="522" text-anchor="middle" fill="#c8d6e7" font-family="Inter,Arial" font-size="15">clear routing · fewer confused visitors · stronger brief quality</text>
</svg>