<svg xmlns="http://www.w3.org/2000/svg" width="1000" height="720" viewBox="0 0 1000 720" role="img" aria-labelledby="title desc"><title id="title">Car detailing before and after gallery</title><desc id="desc">Before and after panels showing dull paint and glossy corrected paint in abstract car visuals.</desc><defs><linearGradient id="bg" x1="0" y1="0" x2="1" y2="1"><stop stop-color="#07111f"/><stop offset="1" stop-color="#0e2033"/></linearGradient><linearGradient id="shine" x1="0" y1="0" x2="1" y2="0"><stop stop-color="#b5bdc8"/><stop offset="1" stop-color="#e8fbff"/></linearGradient><filter id="s"><feDropShadow dx="0" dy="20" stdDeviation="22" flood-color="#000" flood-opacity=".32"/></filter></defs><rect width="1000" height="720" rx="44" fill="url(#bg)"/><text x="70" y="90" font-family="Georgia,serif" font-size="50" font-weight="700" fill="#fff">Before / after</text><g filter="url(#s)"><g transform="translate(76 150)"><rect width="392" height="430" rx="34" fill="#10253c"/><text x="38" y="64" font-family="Inter,Arial" font-size="22" font-weight="900" fill="#fff">Before</text><path d="M60 250c38-76 98-112 176-112h60c58 0 100 34 132 112h-368z" fill="#556070"/><circle cx="142" cy="290" r="38" fill="#07111f"/><circle cx="314" cy="290" r="38" fill="#07111f"/><path d="M78 352h230" stroke="#fff" stroke-width="14" stroke-linecap="round" opacity=".16"/></g><g transform="translate(532 150)"><rect width="392" height="430" rx="34" fill="#e8fbff"/><text x="38" y="64" font-family="Inter,Arial" font-size="22" font-weight="900" fill="#07111f">After</text><path d="M60 250c38-76 98-112 176-112h60c58 0 100 34 132 112h-368z" fill="url(#shine)"/><circle cx="142" cy="290" r="38" fill="#07111f"/><circle cx="314" cy="290" r="38" fill="#07111f"/><path d="M98 184l210-58" stroke="#fff" stroke-width="14" stroke-linecap="round"/><path d="M78 352h230" stroke="#0ea5e9" stroke-width="14" stroke-linecap="round"/></g></g></svg>
