<svg xmlns="http://www.w3.org/2000/svg" width="1000" height="720" viewBox="0 0 1000 720" role="img" aria-labelledby="title desc"><title id="title">Ceramic coating section mockup</title><desc id="desc">Ceramic coating shield, water bead visuals and protection layer mockups.</desc><defs><linearGradient id="bg" x1="0" y1="0" x2="1" y2="1"><stop stop-color="#07111f"/><stop offset="1" stop-color="#104a68"/></linearGradient><linearGradient id="drop" x1="0" y1="0" x2="1" y2="1"><stop stop-color="#e8fbff"/><stop offset="1" stop-color="#22d3ee"/></linearGradient></defs><rect width="1000" height="720" rx="44" fill="url(#bg)"/><text x="72" y="90" font-family="Georgia,serif" font-size="48" font-weight="700" fill="#fff">Ceramic coating</text><g transform="translate(120 160)"><path d="M360 0l260 96v182c0 160-104 254-260 326-156-72-260-166-260-326V96z" fill="#e8fbff" opacity=".96"/><path d="M360 70l178 66v132c0 108-70 174-178 226-108-52-178-118-178-226V136z" fill="#07111f"/><path d="M262 290l68 68 138-168" fill="none" stroke="#22d3ee" stroke-width="34" stroke-linecap="round" stroke-linejoin="round"/><g fill="url(#drop)"><ellipse cx="92" cy="92" rx="24" ry="38"/><ellipse cx="678" cy="156" rx="22" ry="34"/><ellipse cx="744" cy="350" rx="26" ry="42"/><ellipse cx="76" cy="390" rx="20" ry="30"/></g></g></svg>
