<svg xmlns="http://www.w3.org/2000/svg" width="1000" height="720" viewBox="0 0 1000 720" role="img" aria-labelledby="title desc"><title id="title">Car detailing service package cards</title><desc id="desc">Package cards for wash, interior reset, paint correction, ceramic coating, and maintenance detailing.</desc><defs><linearGradient id="bg" x1="0" y1="0" x2="1" y2="1"><stop stop-color="#07111f"/><stop offset="1" stop-color="#153758"/></linearGradient><filter id="s"><feDropShadow dx="0" dy="20" stdDeviation="20" flood-color="#000" flood-opacity=".32"/></filter></defs><rect width="1000" height="720" rx="44" fill="url(#bg)"/><text x="70" y="90" font-family="Georgia,serif" font-size="48" font-weight="700" fill="#fff">Detailing packages</text><g filter="url(#s)" font-family="Inter,Arial"><g transform="translate(70 150)"><rect width="260" height="390" rx="34" fill="#10253c"/><text x="34" y="66" font-size="23" font-weight="900" fill="#fff">Gloss Wash</text><text x="34" y="112" font-size="16" fill="#a9dff2">Foam · wheels · trim</text><path d="M34 170h176" stroke="#7dd3fc" stroke-width="14" stroke-linecap="round"/><path d="M34 216h132" stroke="#fff" stroke-width="12" stroke-linecap="round" opacity=".24"/></g><g transform="translate(370 124)"><rect width="260" height="444" rx="34" fill="#e8fbff"/><text x="34" y="66" font-size="23" font-weight="900" fill="#07111f">Ceramic Shield</text><text x="34" y="112" font-size="16" fill="#2c637a">Decon · prep · coat</text><path d="M34 170h196" stroke="#0ea5e9" stroke-width="14" stroke-linecap="round"/><path d="M34 216h152" stroke="#07111f" stroke-width="12" stroke-linecap="round" opacity=".2"/><rect x="34" y="318" width="150" height="48" rx="24" fill="#07111f"/></g><g transform="translate(670 150)"><rect width="260" height="390" rx="34" fill="#10253c"/><text x="34" y="66" font-size="23" font-weight="900" fill="#fff">Interior Reset</text><text x="34" y="112" font-size="16" fill="#a9dff2">Vacuum · steam · fabric</text><path d="M34 170h158" stroke="#7dd3fc" stroke-width="14" stroke-linecap="round"/><path d="M34 216h190" stroke="#fff" stroke-width="12" stroke-linecap="round" opacity=".24"/></g></g></svg>
