<svg xmlns="http://www.w3.org/2000/svg" width="1100" height="900" viewBox="0 0 1100 900" role="img" aria-labelledby="title desc"><title id="title">Glossy car detailing hero mockup</title><desc id="desc">A polished vehicle in a dark detailing studio with light streaks and booking dashboard.</desc><defs><linearGradient id="bg" x1="0" y1="0" x2="1" y2="1"><stop stop-color="#050b12"/><stop offset=".55" stop-color="#0e2033"/><stop offset="1" stop-color="#7dd3fc"/></linearGradient><linearGradient id="car" x1="0" y1="0" x2="1" y2="0"><stop stop-color="#eafaff"/><stop offset=".55" stop-color="#88d8ef"/><stop offset="1" stop-color="#ffffff"/></linearGradient><filter id="s"><feDropShadow dx="0" dy="30" stdDeviation="24" flood-color="#000" flood-opacity=".35"/></filter></defs><rect width="1100" height="900" rx="54" fill="url(#bg)"/><g opacity=".45"><path d="M90 196h900M136 298h850M190 398h760" stroke="#7dd3fc" stroke-width="2"/><circle cx="920" cy="160" r="190" fill="#7dd3fc" opacity=".16"/></g><g filter="url(#s)"><rect x="90" y="110" width="920" height="650" rx="48" fill="#07111f"/><path d="M162 480c65-126 158-182 292-182h244c116 0 207 62 267 182l42 10c36 9 61 41 61 78v38H96v-34c0-42 28-78 66-92z" fill="url(#car)"/><path d="M264 456c50-78 118-112 230-112h206c88 0 158 38 206 112H264z" fill="#0b1220"/><circle cx="308" cy="624" r="78" fill="#050b12"/><circle cx="308" cy="624" r="38" fill="#22d3ee"/><circle cx="812" cy="624" r="78" fill="#050b12"/><circle cx="812" cy="624" r="38" fill="#22d3ee"/><rect x="690" y="150" width="260" height="160" rx="30" fill="#10253c"/><text x="724" y="204" font-family="Inter,Arial" font-size="22" font-weight="900" fill="#fff">Today’s slots</text><rect x="724" y="236" width="86" height="14" rx="7" fill="#7dd3fc"/><rect x="828" y="236" width="74" height="14" rx="7" fill="#fff" opacity=".22"/><rect x="724" y="270" width="150" height="14" rx="7" fill="#fff" opacity=".22"/></g></svg>
