<svg xmlns="http://www.w3.org/2000/svg" viewBox="0 0 1200 760" role="img" aria-label="Warm editorial fine dining magazine spread with table setting">
  <defs>
    <linearGradient id="paper" x1="0" x2="1" y1="0" y2="1"><stop stop-color="#fff1d1"/><stop offset=".54" stop-color="#d99a5d"/><stop offset="1" stop-color="#30140d"/></linearGradient>
    <linearGradient id="ink" x1="0" x2="1"><stop stop-color="#2a1510"/><stop offset="1" stop-color="#68311f"/></linearGradient>
    <radialGradient id="glow" cx="62%" cy="35%" r="48%"><stop stop-color="#ffd27c" stop-opacity=".64"/><stop offset="1" stop-color="#ffd27c" stop-opacity="0"/></radialGradient>
  </defs>
  <rect width="1200" height="760" fill="#170b08"/>
  <rect x="70" y="62" width="1060" height="636" rx="46" fill="url(#paper)"/>
  <circle cx="760" cy="214" r="280" fill="url(#glow)"/>
  <rect x="128" y="118" width="420" height="520" rx="20" fill="#fff7df" stroke="#6b341f" stroke-width="5"/>
  <text x="166" y="180" fill="#2a1510" font-size="24" font-family="Arial" letter-spacing="6">THE SAFFRON ROOM</text>
  <text x="166" y="258" fill="#2a1510" font-size="76" font-family="Georgia,serif">Dinner as
a story.</text>
  <path d="M166 372h312M166 404h258M166 436h295" stroke="#6b341f" stroke-width="5" stroke-linecap="round" opacity=".45"/>
  <rect x="166" y="490" width="170" height="54" rx="27" fill="#2a1510"/><text x="198" y="525" fill="#fff1d1" font-size="18" font-family="Arial" font-weight="800">Reserve</text>
  <g transform="translate(642 168)">
    <ellipse cx="250" cy="282" rx="260" ry="88" fill="#170b08" opacity=".35"/>
    <circle cx="250" cy="205" r="142" fill="#fff7df" stroke="#6b341f" stroke-width="10"/>
    <circle cx="250" cy="205" r="78" fill="#c76234"/><circle cx="292" cy="164" r="22" fill="#ffd27c"/><circle cx="218" cy="232" r="18" fill="#f2b66c"/>
    <path d="M68 368h365" stroke="#2a1510" stroke-width="16" stroke-linecap="round"/>
    <path d="M105 385v86M398 385v86" stroke="#2a1510" stroke-width="9" stroke-linecap="round"/>
  </g>
  <g fill="#2a1510" opacity=".9"><circle cx="636" cy="122" r="6"/><circle cx="672" cy="122" r="6"/><circle cx="708" cy="122" r="6"/></g>
</svg>
