<svg xmlns="http://www.w3.org/2000/svg" viewBox="0 0 1080 760" role="img" aria-label="Fine dining plate gallery mockups">
  <rect width="1080" height="760" fill="#160b08"/>
  <g transform="translate(80 78)">
    <rect x="0" y="0" width="420" height="275" rx="36" fill="#f5d9a5"/><circle cx="138" cy="138" r="84" fill="#fff7df"/><circle cx="138" cy="138" r="38" fill="#b84f2e"/><path d="M100 112c62 5 96 25 116 73" stroke="#61301d" stroke-width="12" fill="none" stroke-linecap="round"/><text x="246" y="128" fill="#2a1510" font-size="30" font-family="Georgia,serif">Saffron lobster</text><text x="246" y="164" fill="#6d3a24" font-size="17" font-family="Arial">signature course</text>
    <rect x="500" y="0" width="420" height="275" rx="36" fill="#30140d" stroke="#d99a5d"/><circle cx="638" cy="138" r="84" fill="#fff7df"/><rect x="598" y="113" width="88" height="52" rx="18" fill="#67301f"/><circle cx="672" cy="112" r="15" fill="#ffd27c"/><text x="746" y="128" fill="#ffdca3" font-size="30" font-family="Georgia,serif">Charred lamb</text><text x="746" y="164" fill="#e8bf84" font-size="17" font-family="Arial">smoke and date</text>
    <rect x="0" y="345" width="420" height="275" rx="36" fill="#30140d" stroke="#d99a5d"/><circle cx="138" cy="482" r="84" fill="#fff7df"/><circle cx="138" cy="482" r="44" fill="#e6ad61"/><circle cx="164" cy="462" r="13" fill="#ae4c2d"/><text x="246" y="472" fill="#ffdca3" font-size="30" font-family="Georgia,serif">Citrus custard</text><text x="246" y="508" fill="#e8bf84" font-size="17" font-family="Arial">final chapter</text>
    <rect x="500" y="345" width="420" height="275" rx="36" fill="#f5d9a5"/><circle cx="638" cy="482" r="84" fill="#fff7df"/><path d="M594 480c60-46 108-32 128 24" stroke="#8e4a2a" stroke-width="22" fill="none" stroke-linecap="round"/><text x="746" y="472" fill="#2a1510" font-size="30" font-family="Georgia,serif">Sea herb course</text><text x="746" y="508" fill="#6d3a24" font-size="17" font-family="Arial">green oil · crisp</text>
  </g>
</svg>
