<svg xmlns="http://www.w3.org/2000/svg" width="1100" height="720" viewBox="0 0 1100 720" role="img" aria-label="Online education academy mockup">
  <defs>
    <linearGradient id="bg" x1="0" x2="1" y1="0" y2="1"><stop stop-color="#071527"/><stop offset=".55" stop-color="#12304a"/><stop offset="1" stop-color="#e9d8a6"/></linearGradient>
    <linearGradient id="gold" x1="0" x2="1"><stop stop-color="#fff0b8"/><stop offset="1" stop-color="#c79a38"/></linearGradient>
    <linearGradient id="green" x1="0" x2="1"><stop stop-color="#86efac"/><stop offset="1" stop-color="#0f766e"/></linearGradient>
    <filter id="shadow" x="-20%" y="-20%" width="140%" height="140%"><feDropShadow dx="0" dy="22" stdDeviation="24" flood-color="#000" flood-opacity=".34"/></filter>
  </defs>
  <rect width="1100" height="720" rx="30" fill="url(#bg)"/>
  <circle cx="924" cy="108" r="180" fill="#fff0b8" opacity=".13"/>
  <circle cx="132" cy="619" r="220" fill="#86efac" opacity=".13"/>

  <g filter="url(#shadow)">
    <rect x="92" y="86" width="916" height="548" rx="40" fill="#f9f1dc"/>
    <circle cx="292" cy="270" r="118" fill="#071527"/><circle cx="292" cy="235" r="46" fill="#c79a38"/><path d="M190 372 C218 306 366 306 394 372" fill="#c79a38" opacity=".86"/>
    <text x="474" y="188" fill="#071527" font-family="Georgia,serif" font-size="48" font-weight="700">Instructor-led academy</text>
    <text x="474" y="246" fill="#526172" font-family="Arial" font-size="25">Mentor feedback, project feedback, and structured learning support.</text>
    <rect x="474" y="310" width="165" height="92" rx="22" fill="#071527"/><rect x="666" y="310" width="165" height="92" rx="22" fill="#071527"/><rect x="858" y="310" width="110" height="92" rx="22" fill="#071527"/>
    <text x="517" y="365" fill="#fff0b8" font-family="Arial" font-size="35" font-weight="900">14</text><text x="497" y="392" fill="#f9f1dc" font-family="Arial" font-size="17">cohorts</text>
    <text x="706" y="365" fill="#86efac" font-family="Arial" font-size="35" font-weight="900">92%</text><text x="690" y="392" fill="#f9f1dc" font-family="Arial" font-size="17">completion</text>
    <text x="892" y="365" fill="#fff0b8" font-family="Arial" font-size="35" font-weight="900">4.9</text><text x="890" y="392" fill="#f9f1dc" font-family="Arial" font-size="17">progress</text>
    <rect x="474" y="464" width="330" height="56" rx="18" fill="url(#gold)"/><text x="512" y="501" fill="#071527" font-family="Arial" font-size="21" font-weight="900">Meet the lead instructor</text>
  </g>

</svg>
