<svg xmlns="http://www.w3.org/2000/svg" width="1120" height="720" viewBox="0 0 1120 720" role="img" aria-label="Online education academy mockup">
  <defs>
    <linearGradient id="bg" x1="0" x2="1" y1="0" y2="1"><stop stop-color="#071527"/><stop offset=".55" stop-color="#12304a"/><stop offset="1" stop-color="#e9d8a6"/></linearGradient>
    <linearGradient id="gold" x1="0" x2="1"><stop stop-color="#fff0b8"/><stop offset="1" stop-color="#c79a38"/></linearGradient>
    <linearGradient id="green" x1="0" x2="1"><stop stop-color="#86efac"/><stop offset="1" stop-color="#0f766e"/></linearGradient>
    <filter id="shadow" x="-20%" y="-20%" width="140%" height="140%"><feDropShadow dx="0" dy="22" stdDeviation="24" flood-color="#000" flood-opacity=".34"/></filter>
  </defs>
  <rect width="1120" height="720" rx="30" fill="url(#bg)"/>
  <circle cx="940" cy="108" r="180" fill="#fff0b8" opacity=".13"/>
  <circle cx="134" cy="619" r="220" fill="#86efac" opacity=".13"/>

  <g filter="url(#shadow)">
    <rect x="88" y="84" width="944" height="552" rx="40" fill="#f9f1dc"/>
    <text x="138" y="154" fill="#071527" font-family="Georgia,serif" font-size="46" font-weight="700">Curriculum preview</text>
    <g font-family="Arial">
      <rect x="138" y="210" width="846" height="70" rx="22" fill="#071527"/><text x="170" y="255" fill="#fff0b8" font-size="24" font-weight="800">Module 01</text><text x="340" y="255" fill="#f9f1dc" font-size="24" font-weight="800">Web foundations and layout thinking</text>
      <rect x="138" y="308" width="846" height="70" rx="22" fill="#12304a"/><text x="170" y="353" fill="#86efac" font-size="24" font-weight="800">Module 02</text><text x="340" y="353" fill="#f9f1dc" font-size="24" font-weight="800">Components, state, and interaction design</text>
      <rect x="138" y="406" width="846" height="70" rx="22" fill="#071527"/><text x="170" y="451" fill="#fff0b8" font-size="24" font-weight="800">Module 03</text><text x="340" y="451" fill="#f9f1dc" font-size="24" font-weight="800">Portfolio projects and feedback sprint</text>
      <rect x="138" y="504" width="846" height="70" rx="22" fill="#12304a"/><text x="170" y="549" fill="#86efac" font-size="24" font-weight="800">Module 04</text><text x="340" y="549" fill="#f9f1dc" font-size="24" font-weight="800">Launch, certificate, and interview prep</text>
    </g>
  </g>

</svg>
