<svg xmlns="http://www.w3.org/2000/svg" width="1080" height="700" viewBox="0 0 1080 700" role="img" aria-label="Online education academy mockup">
  <defs>
    <linearGradient id="bg" x1="0" x2="1" y1="0" y2="1"><stop stop-color="#071527"/><stop offset=".55" stop-color="#12304a"/><stop offset="1" stop-color="#e9d8a6"/></linearGradient>
    <linearGradient id="gold" x1="0" x2="1"><stop stop-color="#fff0b8"/><stop offset="1" stop-color="#c79a38"/></linearGradient>
    <linearGradient id="green" x1="0" x2="1"><stop stop-color="#86efac"/><stop offset="1" stop-color="#0f766e"/></linearGradient>
    <filter id="shadow" x="-20%" y="-20%" width="140%" height="140%"><feDropShadow dx="0" dy="22" stdDeviation="24" flood-color="#000" flood-opacity=".34"/></filter>
  </defs>
  <rect width="1080" height="700" rx="30" fill="url(#bg)"/>
  <circle cx="907" cy="105" r="180" fill="#fff0b8" opacity=".13"/>
  <circle cx="129" cy="602" r="220" fill="#86efac" opacity=".13"/>

  <g filter="url(#shadow)">
    <rect x="94" y="88" width="892" height="524" rx="38" fill="#f9f1dc"/>
    <text x="142" y="158" fill="#071527" font-family="Georgia,serif" font-size="46" font-weight="700">Learning outcomes</text>
    <g>
      <rect x="142" y="224" width="220" height="250" rx="30" fill="#071527"/><text x="178" y="300" fill="#fff0b8" font-family="Arial" font-size="42" font-weight="900">01</text><text x="174" y="352" fill="#f9f1dc" font-family="Georgia,serif" font-size="28" font-weight="700">Build UI</text><text x="174" y="400" fill="#b8c6d3" font-family="Arial" font-size="20">Modern responsive interfaces</text>
      <rect x="430" y="224" width="220" height="250" rx="30" fill="#12304a"/><text x="466" y="300" fill="#86efac" font-family="Arial" font-size="42" font-weight="900">02</text><text x="462" y="352" fill="#f9f1dc" font-family="Georgia,serif" font-size="28" font-weight="700">Ship projects</text><text x="462" y="400" fill="#b8c6d3" font-family="Arial" font-size="20">Portfolio-ready case studies</text>
      <rect x="718" y="224" width="220" height="250" rx="30" fill="#071527"/><text x="754" y="300" fill="#fff0b8" font-family="Arial" font-size="42" font-weight="900">03</text><text x="750" y="352" fill="#f9f1dc" font-family="Georgia,serif" font-size="28" font-weight="700">Get proof</text><text x="750" y="400" fill="#b8c6d3" font-family="Arial" font-size="20">Certificate and feedback</text>
    </g>
  </g>

</svg>
