<svg xmlns="http://www.w3.org/2000/svg" width="1080" height="700" viewBox="0 0 1080 700" role="img" aria-label="Online education academy mockup">
  <defs>
    <linearGradient id="bg" x1="0" x2="1" y1="0" y2="1"><stop stop-color="#071527"/><stop offset=".55" stop-color="#12304a"/><stop offset="1" stop-color="#e9d8a6"/></linearGradient>
    <linearGradient id="gold" x1="0" x2="1"><stop stop-color="#fff0b8"/><stop offset="1" stop-color="#c79a38"/></linearGradient>
    <linearGradient id="green" x1="0" x2="1"><stop stop-color="#86efac"/><stop offset="1" stop-color="#0f766e"/></linearGradient>
    <filter id="shadow" x="-20%" y="-20%" width="140%" height="140%"><feDropShadow dx="0" dy="22" stdDeviation="24" flood-color="#000" flood-opacity=".34"/></filter>
  </defs>
  <rect width="1080" height="700" rx="30" fill="url(#bg)"/>
  <circle cx="907" cy="105" r="180" fill="#fff0b8" opacity=".13"/>
  <circle cx="129" cy="602" r="220" fill="#86efac" opacity=".13"/>

  <g filter="url(#shadow)">
    <rect x="96" y="88" width="888" height="524" rx="38" fill="#f9f1dc"/>
    <text x="144" y="158" fill="#071527" font-family="Georgia,serif" font-size="46" font-weight="700">Student proof</text>
    <g font-family="Arial">
      <rect x="144" y="216" width="240" height="220" rx="30" fill="#071527"/><text x="184" y="294" fill="#fff0b8" font-size="46" font-weight="900">1,200+</text><text x="184" y="348" fill="#f9f1dc" font-size="22">lessons completed</text>
      <rect x="420" y="216" width="240" height="220" rx="30" fill="#12304a"/><text x="460" y="294" fill="#86efac" font-size="46" font-weight="900">92%</text><text x="460" y="348" fill="#f9f1dc" font-size="22">completion rate</text>
      <rect x="696" y="216" width="240" height="220" rx="30" fill="#071527"/><text x="736" y="294" fill="#fff0b8" font-size="46" font-weight="900">Progress</text><text x="736" y="348" fill="#f9f1dc" font-size="22">student progress</text>
      <rect x="144" y="480" width="792" height="68" rx="22" fill="#fffdf4"/><text x="184" y="523" fill="#071527" font-size="24" font-weight="800">“The projects made the lessons feel real, not just theory.”</text>
    </g>
  </g>

</svg>
