<svg xmlns="http://www.w3.org/2000/svg" width="1240" height="780" viewBox="0 0 1240 780" role="img" aria-label="Online education academy mockup">
  <defs>
    <linearGradient id="bg" x1="0" x2="1" y1="0" y2="1"><stop stop-color="#071527"/><stop offset=".55" stop-color="#12304a"/><stop offset="1" stop-color="#e9d8a6"/></linearGradient>
    <linearGradient id="gold" x1="0" x2="1"><stop stop-color="#fff0b8"/><stop offset="1" stop-color="#c79a38"/></linearGradient>
    <linearGradient id="green" x1="0" x2="1"><stop stop-color="#86efac"/><stop offset="1" stop-color="#0f766e"/></linearGradient>
    <filter id="shadow" x="-20%" y="-20%" width="140%" height="140%"><feDropShadow dx="0" dy="22" stdDeviation="24" flood-color="#000" flood-opacity=".34"/></filter>
  </defs>
  <rect width="1240" height="780" rx="30" fill="url(#bg)"/>
  <circle cx="1041" cy="117" r="180" fill="#fff0b8" opacity=".13"/>
  <circle cx="148" cy="670" r="220" fill="#86efac" opacity=".13"/>

  <g filter="url(#shadow)">
    <rect x="86" y="78" width="1068" height="624" rx="42" fill="#f9f1dc"/>
    <rect x="130" y="122" width="300" height="500" rx="34" fill="#071527"/>
    <text x="170" y="190" fill="#fff0b8" font-family="Georgia,serif" font-size="44" font-weight="700">Course Path</text>
    <rect x="170" y="245" width="210" height="58" rx="18" fill="#12304a"/><rect x="170" y="325" width="210" height="58" rx="18" fill="#12304a"/><rect x="170" y="405" width="210" height="58" rx="18" fill="#12304a"/>
    <text x="195" y="282" fill="#f9f1dc" font-family="Arial" font-size="20" font-weight="800">Foundations</text><text x="195" y="362" fill="#f9f1dc" font-family="Arial" font-size="20" font-weight="800">Projects</text><text x="195" y="442" fill="#f9f1dc" font-family="Arial" font-size="20" font-weight="800">Portfolio</text>
    <rect x="472" y="122" width="286" height="232" rx="32" fill="#fff"/><rect x="792" y="122" width="286" height="232" rx="32" fill="#fff"/><rect x="472" y="390" width="606" height="232" rx="32" fill="#fff"/>
    <text x="515" y="190" fill="#071527" font-family="Georgia,serif" font-size="35" font-weight="700">Frontend Mastery</text><text x="515" y="238" fill="#526172" font-family="Arial" font-size="22">8 modules · 24 lessons</text><rect x="515" y="282" width="155" height="46" rx="16" fill="url(#green)"/>
    <text x="836" y="190" fill="#071527" font-family="Georgia,serif" font-size="35" font-weight="700">Live Cohort</text><text x="836" y="238" fill="#526172" font-family="Arial" font-size="22">Mentor feedback</text><rect x="836" y="282" width="155" height="46" rx="16" fill="url(#gold)"/>
    <text x="515" y="458" fill="#071527" font-family="Georgia,serif" font-size="46" font-weight="700">Build job-ready projects</text><text x="515" y="508" fill="#526172" font-family="Arial" font-size="24">Structured lessons, assignments, instructor feedback, certificates, and portfolio outcomes.</text>
  </g>

</svg>
