<svg xmlns="http://www.w3.org/2000/svg" width="1400" height="980" viewBox="0 0 1400 980" role="img" aria-label="Event Packages">
  <defs>
    <linearGradient id="bg" x1="0" y1="0" x2="1" y2="1"><stop stop-color="#31103b"/><stop offset="1" stop-color="#831843"/></linearGradient>
    <linearGradient id="gold" x1="0" y1="0" x2="1" y2="1"><stop stop-color="#fde68a"/><stop offset="1" stop-color="#ec4899"/></linearGradient>
    <filter id="shadow" x="-20%" y="-20%" width="140%" height="140%"><feDropShadow dx="0" dy="24" stdDeviation="28" flood-color="#000" flood-opacity=".36"/></filter>
  </defs>
  <rect width="1400" height="980" rx="60" fill="url(#bg)"/>
  <circle cx="1080" cy="130" r="250" fill="#ec4899" opacity=".18"/>
  <circle cx="210" cy="820" r="280" fill="#fef3c7" opacity=".12"/>
  <path d="M110 190 C300 80 420 270 610 140 C760 35 910 85 1090 185 C1190 240 1270 238 1330 210" fill="none" stroke="#fff" stroke-opacity=".18" stroke-width="4"/>
  <text x="90" y="132" fill="#fff" font-family="Georgia,serif" font-size="78" font-weight="700">Event Packages</text>
  <text x="95" y="190" fill="#fde68a" font-family="Arial,sans-serif" font-size="28" font-weight="800" letter-spacing="4">PLANNING TIERS</text>

  <g filter="url(#shadow)">
    <rect x="110" y="260" width="1180" height="570" rx="46" fill="#fff" opacity=".10" stroke="#fff" stroke-opacity=".16"/>
    <g font-family="Arial,sans-serif">
      <rect x="165" y="335" width="320" height="395" rx="34" fill="#fff" opacity=".13"/><text x="200" y="400" fill="#fde68a" font-size="25" font-weight="900">Signature</text><text x="200" y="452" fill="#fff" font-size="50" font-weight="900">Social</text><text x="200" y="526" fill="#fce7f3" font-size="26">Birthdays, showers, dinners</text><text x="200" y="610" fill="#fff" font-size="24">Moodboard · vendors · run sheet</text>
      <rect x="540" y="305" width="320" height="455" rx="34" fill="url(#gold)" opacity=".95"/><text x="575" y="380" fill="#3b0764" font-size="25" font-weight="900">Most booked</text><text x="575" y="440" fill="#111827" font-size="50" font-weight="900">Wedding</text><text x="575" y="514" fill="#3b0764" font-size="26">Ceremony, reception, details</text><text x="575" y="604" fill="#111827" font-size="24">Timeline · styling · crew</text>
      <rect x="915" y="335" width="320" height="395" rx="34" fill="#fff" opacity=".13"/><text x="950" y="400" fill="#fde68a" font-size="25" font-weight="900">Corporate</text><text x="950" y="452" fill="#fff" font-size="50" font-weight="900">Launch</text><text x="950" y="526" fill="#fce7f3" font-size="26">Brand events and activations</text><text x="950" y="610" fill="#fff" font-size="24">Stage · agenda · guest flow</text>
    </g>
  </g>
</svg>
