<svg xmlns="http://www.w3.org/2000/svg" width="1400" height="980" viewBox="0 0 1400 980" role="img" aria-label="Venue Gallery">
  <defs>
    <linearGradient id="bg" x1="0" y1="0" x2="1" y2="1"><stop stop-color="#190029"/><stop offset="1" stop-color="#4a044e"/></linearGradient>
    <linearGradient id="gold" x1="0" y1="0" x2="1" y2="1"><stop stop-color="#fde68a"/><stop offset="1" stop-color="#c084fc"/></linearGradient>
    <filter id="shadow" x="-20%" y="-20%" width="140%" height="140%"><feDropShadow dx="0" dy="24" stdDeviation="28" flood-color="#000" flood-opacity=".36"/></filter>
  </defs>
  <rect width="1400" height="980" rx="60" fill="url(#bg)"/>
  <circle cx="1080" cy="130" r="250" fill="#c084fc" opacity=".18"/>
  <circle cx="210" cy="820" r="280" fill="#fef3c7" opacity=".12"/>
  <path d="M110 190 C300 80 420 270 610 140 C760 35 910 85 1090 185 C1190 240 1270 238 1330 210" fill="none" stroke="#fff" stroke-opacity=".18" stroke-width="4"/>
  <text x="90" y="132" fill="#fff" font-family="Georgia,serif" font-size="78" font-weight="700">Venue Gallery</text>
  <text x="95" y="190" fill="#fde68a" font-family="Arial,sans-serif" font-size="28" font-weight="800" letter-spacing="4">STAGE AND TABLESCAPE CARDS</text>

  <g filter="url(#shadow)">
    <rect x="95" y="270" width="370" height="500" rx="36" fill="#fff" opacity=".12"/><rect x="515" y="220" width="370" height="560" rx="36" fill="#fff" opacity=".16"/><rect x="935" y="300" width="370" height="470" rx="36" fill="#fff" opacity=".12"/>
    <rect x="135" y="330" width="290" height="210" rx="24" fill="url(#gold)" opacity=".86"/><rect x="555" y="285" width="290" height="250" rx="24" fill="#fdf2f8" opacity=".95"/><rect x="975" y="360" width="290" height="190" rx="24" fill="#fde68a" opacity=".9"/>
    <g font-family="Arial" fill="#fff" font-weight="900"><text x="145" y="610" font-size="35">Ballroom</text><text x="565" y="605" font-size="35">Garden</text><text x="985" y="620" font-size="35">Stage</text></g>
    <path d="M160 492 C220 420 320 420 400 500" fill="none" stroke="#fff" stroke-width="8" stroke-opacity=".6"/><path d="M575 478 C650 380 760 385 832 482" fill="none" stroke="#be185d" stroke-width="8" stroke-opacity=".6"/><path d="M1000 504 C1065 430 1175 430 1240 510" fill="none" stroke="#fff" stroke-width="8" stroke-opacity=".6"/>
  </g>
</svg>
