<svg xmlns="http://www.w3.org/2000/svg" width="1400" height="980" viewBox="0 0 1400 980" role="img" aria-label="Asteria Events">
  <defs>
    <linearGradient id="bg" x1="0" y1="0" x2="1" y2="1"><stop stop-color="#1e1b4b"/><stop offset="1" stop-color="#7c2d12"/></linearGradient>
    <linearGradient id="gold" x1="0" y1="0" x2="1" y2="1"><stop stop-color="#fde68a"/><stop offset="1" stop-color="#f97316"/></linearGradient>
    <filter id="shadow" x="-20%" y="-20%" width="140%" height="140%"><feDropShadow dx="0" dy="24" stdDeviation="28" flood-color="#000" flood-opacity=".36"/></filter>
  </defs>
  <rect width="1400" height="980" rx="60" fill="url(#bg)"/>
  <circle cx="1080" cy="130" r="250" fill="#f97316" opacity=".18"/>
  <circle cx="210" cy="820" r="280" fill="#fef3c7" opacity=".12"/>
  <path d="M110 190 C300 80 420 270 610 140 C760 35 910 85 1090 185 C1190 240 1270 238 1330 210" fill="none" stroke="#fff" stroke-opacity=".18" stroke-width="4"/>
  <text x="90" y="132" fill="#fff" font-family="Georgia,serif" font-size="78" font-weight="700">Asteria Events</text>
  <text x="95" y="190" fill="#fde68a" font-family="Arial,sans-serif" font-size="28" font-weight="800" letter-spacing="4">CELEBRATION COMMAND CENTER</text>

  <g filter="url(#shadow)">
    <rect x="120" y="270" width="1160" height="560" rx="46" fill="#111827" opacity=".72" stroke="#fff" stroke-opacity=".16"/>
    <rect x="174" y="326" width="1052" height="314" rx="30" fill="#2e1065"/>
    <path d="M210 610 C360 420 470 518 588 390 C720 250 890 386 1030 284 C1120 220 1180 266 1220 316 L1220 640 L210 640 Z" fill="url(#gold)" opacity=".85"/>
    <rect x="238" y="688" width="250" height="68" rx="22" fill="#fff" opacity=".12"/><rect x="528" y="688" width="250" height="68" rx="22" fill="#fff" opacity=".12"/><rect x="818" y="688" width="250" height="68" rx="22" fill="#fff" opacity=".12"/>
    <text x="260" y="732" fill="#fff" font-family="Arial" font-size="25" font-weight="800">Weddings</text><text x="553" y="732" fill="#fff" font-family="Arial" font-size="25" font-weight="800">Corporate</text><text x="845" y="732" fill="#fff" font-family="Arial" font-size="25" font-weight="800">Launches</text>
    <circle cx="312" cy="430" r="48" fill="#fff" opacity=".18"/><circle cx="1052" cy="430" r="48" fill="#fff" opacity=".18"/><rect x="590" y="360" width="220" height="160" rx="24" fill="#111827" opacity=".42" stroke="#fff" stroke-opacity=".22"/>
  </g>
</svg>
