<svg xmlns="http://www.w3.org/2000/svg" width="960" height="640" viewBox="0 0 960 640" role="img" aria-labelledby="title desc"><title id="title">FAQ scope safety visual</title><desc id="desc">A scope safety board showing clear inputs, static fallback, optional backend, launch checks, and documented handoff.</desc><defs><linearGradient id="bg" x1="0" y1="0" x2="1" y2="1"><stop stop-color="#0a1220"/><stop offset="1" stop-color="#1c2844"/></linearGradient><linearGradient id="a" x1="0" y1="0" x2="1" y2="1"><stop stop-color="#78f7d4"/><stop offset="1" stop-color="#8db7ff"/></linearGradient></defs><rect width="960" height="640" rx="44" fill="url(#bg)"/><rect x="86" y="86" width="788" height="468" rx="42" fill="#101b2d" stroke="#fff" stroke-opacity=".12"/><rect x="130" y="136" width="250" height="322" rx="34" fill="#14243a"/><rect x="426" y="136" width="404" height="92" rx="30" fill="#14243a"/><rect x="426" y="260" width="404" height="92" rx="30" fill="#14243a"/><rect x="426" y="384" width="404" height="92" rx="30" fill="#14243a"/><rect x="166" y="178" width="132" height="16" rx="8" fill="#fff" opacity=".84"/><rect x="166" y="222" width="172" height="12" rx="6" fill="#9fb3c8" opacity=".45"/><rect x="166" y="260" width="148" height="12" rx="6" fill="#9fb3c8" opacity=".35"/><rect x="166" y="328" width="116" height="42" rx="21" fill="url(#a)"/><path d="M380 296h46M380 182h46M380 430h46" stroke="#78f7d4" stroke-width="7" stroke-linecap="round"/><g fill="url(#a)"><rect x="466" y="166" width="82" height="12" rx="6"/><rect x="466" y="290" width="82" height="12" rx="6"/><rect x="466" y="414" width="82" height="12" rx="6"/></g><g fill="#fff" opacity=".82"><rect x="466" y="194" width="222" height="10" rx="5"/><rect x="466" y="318" width="202" height="10" rx="5"/><rect x="466" y="442" width="232" height="10" rx="5"/></g><path d="M730 164l18 18 34-42" fill="none" stroke="#78f7d4" stroke-width="7" stroke-linecap="round" stroke-linejoin="round"/><path d="M730 288l18 18 34-42" fill="none" stroke="#8db7ff" stroke-width="7" stroke-linecap="round" stroke-linejoin="round"/><path d="M730 412l18 18 34-42" fill="none" stroke="#78f7d4" stroke-width="7" stroke-linecap="round" stroke-linejoin="round"/></svg>
