<svg xmlns="http://www.w3.org/2000/svg" viewBox="0 0 760 520" role="img" aria-labelledby="title desc">
  <title id="title">Client decision flow mockup</title>
  <desc id="desc">A visual decision flow showing references, scope, build, QA, and launch handoff.</desc>
  <defs><linearGradient id="bg" x1="0" y1="0" x2="1" y2="1"><stop offset="0" stop-color="#1C1412"/><stop offset="1" stop-color="#090B10"/></linearGradient><linearGradient id="a" x1="0" y1="0" x2="1" y2="1"><stop offset="0" stop-color="#F9C784"/><stop offset="1" stop-color="#67E8F9"/></linearGradient><filter id="sh" x="-20%" y="-20%" width="140%" height="140%"><feDropShadow dx="0" dy="24" stdDeviation="24" flood-color="#000" flood-opacity=".36"/></filter></defs>
  <rect width="760" height="520" rx="38" fill="url(#bg)"/><path d="M80 140c110-68 216-70 318-6s198 68 286-10" fill="none" stroke="#F9C784" stroke-opacity=".12" stroke-width="24" stroke-linecap="round"/>
  <g filter="url(#sh)"><rect x="104" y="84" width="552" height="350" rx="34" fill="#111019" stroke="#fff" stroke-opacity=".12"/><g font-family="Inter,Arial,sans-serif"><text x="142" y="134" fill="#fff" font-size="22" font-weight="900">Project answer path</text><text x="142" y="164" fill="#A8B0C9" font-size="13">A simple path from first question to launch handoff.</text></g>
    <g stroke="url(#a)" stroke-width="4" stroke-linecap="round" opacity=".65"><path d="M198 248h84"/><path d="M334 248h84"/><path d="M470 248h84"/></g>
    <g font-family="Inter,Arial,sans-serif"><g><circle cx="168" cy="248" r="42" fill="#1B1722" stroke="#F9C784" stroke-opacity=".42"/><text x="151" y="254" fill="#F9C784" font-size="18" font-weight="900">01</text><text x="132" y="316" fill="#F6F7FB" font-size="13" font-weight="800">References</text></g><g><circle cx="304" cy="248" r="42" fill="#1B1722" stroke="#67E8F9" stroke-opacity=".42"/><text x="287" y="254" fill="#67E8F9" font-size="18" font-weight="900">02</text><text x="277" y="316" fill="#F6F7FB" font-size="13" font-weight="800">Scope</text></g><g><circle cx="440" cy="248" r="42" fill="#1B1722" stroke="#A78BFA" stroke-opacity=".42"/><text x="423" y="254" fill="#A78BFA" font-size="18" font-weight="900">03</text><text x="415" y="316" fill="#F6F7FB" font-size="13" font-weight="800">Build</text></g><g><circle cx="576" cy="248" r="42" fill="#1B1722" stroke="#F9C784" stroke-opacity=".42"/><text x="559" y="254" fill="#F9C784" font-size="18" font-weight="900">04</text><text x="552" y="316" fill="#F6F7FB" font-size="13" font-weight="800">Launch</text></g></g>
    <rect x="142" y="354" width="476" height="42" rx="21" fill="url(#a)" opacity=".88"/><text x="278" y="381" fill="#07111A" font-family="Inter,Arial,sans-serif" font-size="14" font-weight="900">Questions answered before the handoff</text>
  </g>
</svg>
