<svg xmlns="http://www.w3.org/2000/svg" width="960" height="640" viewBox="0 0 960 640" role="img" aria-labelledby="title desc"><title id="title">FAQ objection matrix</title><desc id="desc">A premium objection handling matrix showing scope, static hosting, content readiness, handoff, and future backend needs.</desc><defs><linearGradient id="bg" x1="0" y1="0" x2="1" y2="1"><stop stop-color="#07111f"/><stop offset="1" stop-color="#1b2544"/></linearGradient><linearGradient id="a" x1="0" y1="0" x2="1" y2="1"><stop stop-color="#78f7d4"/><stop offset="1" stop-color="#8db7ff"/></linearGradient><filter id="s"><feDropShadow dx="0" dy="18" stdDeviation="24" flood-opacity=".3"/></filter></defs><rect width="960" height="640" rx="44" fill="url(#bg)"/><rect x="74" y="82" width="812" height="476" rx="42" fill="#0d1729" stroke="#fff" stroke-opacity=".12" filter="url(#s)"/><rect x="118" y="124" width="724" height="64" rx="26" fill="#13243a"/><rect x="154" y="150" width="244" height="14" rx="7" fill="#fff" opacity=".86"/><rect x="674" y="140" width="126" height="32" rx="16" fill="url(#a)"/><g fill="#13243a" stroke="#fff" stroke-opacity=".08"><rect x="118" y="232" width="216" height="118" rx="28"/><rect x="372" y="232" width="216" height="118" rx="28"/><rect x="626" y="232" width="216" height="118" rx="28"/><rect x="118" y="384" width="216" height="118" rx="28"/><rect x="372" y="384" width="216" height="118" rx="28"/><rect x="626" y="384" width="216" height="118" rx="28"/></g><g fill="url(#a)"><rect x="154" y="262" width="82" height="12" rx="6"/><rect x="408" y="262" width="82" height="12" rx="6"/><rect x="662" y="262" width="82" height="12" rx="6"/><rect x="154" y="414" width="82" height="12" rx="6"/><rect x="408" y="414" width="82" height="12" rx="6"/><rect x="662" y="414" width="82" height="12" rx="6"/></g><g fill="#fff" opacity=".82"><rect x="154" y="302" width="122" height="10" rx="5"/><rect x="154" y="326" width="94" height="10" rx="5"/><rect x="408" y="302" width="128" height="10" rx="5"/><rect x="408" y="326" width="100" height="10" rx="5"/><rect x="662" y="302" width="118" height="10" rx="5"/><rect x="662" y="326" width="88" height="10" rx="5"/><rect x="154" y="454" width="134" height="10" rx="5"/><rect x="154" y="478" width="96" height="10" rx="5"/><rect x="408" y="454" width="126" height="10" rx="5"/><rect x="408" y="478" width="92" height="10" rx="5"/><rect x="662" y="454" width="118" height="10" rx="5"/><rect x="662" y="478" width="86" height="10" rx="5"/></g></svg>
