<svg xmlns="http://www.w3.org/2000/svg" width="1120" height="720" viewBox="0 0 1120 720" role="img" aria-label="Fashion ecommerce product mockup">
  <defs>
    <linearGradient id="bg" x1="0" x2="1" y1="0" y2="1"><stop stop-color="#24151b"/><stop offset=".55" stop-color="#3a2029"/><stop offset="1" stop-color="#f7dccb"/></linearGradient>
    <linearGradient id="rose" x1="0" x2="1"><stop stop-color="#fff1e7"/><stop offset="1" stop-color="#d98a68"/></linearGradient>
    <filter id="shadow" x="-20%" y="-20%" width="140%" height="140%"><feDropShadow dx="0" dy="22" stdDeviation="24" flood-color="#000" flood-opacity=".34"/></filter>
  </defs>
  <rect width="1120" height="720" rx="30" fill="url(#bg)"/>
  <circle cx="985" cy="108" r="170" fill="#fff1e7" opacity=".16"/>
  <circle cx="134" cy="633" r="230" fill="#e0a086" opacity=".18"/>

  <g filter="url(#shadow)">
    <rect x="80" y="82" width="960" height="556" rx="40" fill="#fff7f0"/>
    <rect x="122" y="128" width="300" height="420" rx="34" fill="#2a1820"/><rect x="456" y="128" width="220" height="420" rx="34" fill="#e8a98d"/><rect x="710" y="128" width="288" height="420" rx="34" fill="#3a2029"/>
    <path d="M215 220 C240 178 310 178 335 220 L362 505 H188 Z" fill="#e8a98d" opacity=".9"/>
    <path d="M520 206 H612 L630 505 H500 Z" fill="#2a1820" opacity=".9"/>
    <path d="M805 208 Q854 256 910 208 L945 505 H770 Z" fill="#fff1e7" opacity=".9"/>
    <text x="126" y="606" fill="#2a1820" font-family="Georgia,serif" font-size="42" font-weight="700">Lookbook: desk to dinner edit</text>
  </g>

</svg>
