<svg xmlns="http://www.w3.org/2000/svg" width="1200" height="780" viewBox="0 0 1200 780" role="img" aria-label="Fashion ecommerce product mockup">
  <defs>
    <linearGradient id="bg" x1="0" x2="1" y1="0" y2="1"><stop stop-color="#24151b"/><stop offset=".55" stop-color="#3a2029"/><stop offset="1" stop-color="#f7dccb"/></linearGradient>
    <linearGradient id="rose" x1="0" x2="1"><stop stop-color="#fff1e7"/><stop offset="1" stop-color="#d98a68"/></linearGradient>
    <filter id="shadow" x="-20%" y="-20%" width="140%" height="140%"><feDropShadow dx="0" dy="22" stdDeviation="24" flood-color="#000" flood-opacity=".34"/></filter>
  </defs>
  <rect width="1200" height="780" rx="30" fill="url(#bg)"/>
  <circle cx="1056" cy="117" r="170" fill="#fff1e7" opacity=".16"/>
  <circle cx="144" cy="686" r="230" fill="#e0a086" opacity=".18"/>

  <g filter="url(#shadow)">
    <rect x="86" y="78" width="1028" height="624" rx="42" fill="#fff7f0"/>
    <rect x="128" y="120" width="330" height="500" rx="34" fill="#2a1820"/>
    <path d="M230 225 C250 175 340 175 358 225 L382 575 H205 Z" fill="#e9a98e"/>
    <path d="M248 246 C275 285 318 285 342 246" fill="none" stroke="#fff5ed" stroke-width="10" stroke-linecap="round"/>
    <rect x="494" y="120" width="250" height="230" rx="30" fill="#f3d0bf"/>
    <path d="M600 170 L665 245 L645 318 H548 L528 245 Z" fill="#39202a"/>
    <rect x="770" y="120" width="300" height="230" rx="30" fill="#2a1820"/>
    <path d="M875 168 Q920 225 970 168 V315 H875 Z" fill="#fff1e7"/>
    <rect x="494" y="390" width="576" height="230" rx="30" fill="#2a1820"/>
    <text x="540" y="458" fill="#fff1e7" font-family="Georgia,serif" font-size="48" font-weight="700">New season drop</text>
    <text x="540" y="508" fill="#e0a086" font-family="Arial" font-size="25">Capsule dresses · linen layers · premium essentials</text>
    <rect x="540" y="548" width="180" height="52" rx="18" fill="url(#rose)"/>
    <text x="574" y="581" fill="#2a1820" font-family="Arial" font-size="19" font-weight="800">Shop edit</text>
  </g>

</svg>
