<svg xmlns="http://www.w3.org/2000/svg" width="1080" height="700" viewBox="0 0 1080 700" role="img" aria-label="Fashion ecommerce product mockup">
  <defs>
    <linearGradient id="bg" x1="0" x2="1" y1="0" y2="1"><stop stop-color="#24151b"/><stop offset=".55" stop-color="#3a2029"/><stop offset="1" stop-color="#f7dccb"/></linearGradient>
    <linearGradient id="rose" x1="0" x2="1"><stop stop-color="#fff1e7"/><stop offset="1" stop-color="#d98a68"/></linearGradient>
    <filter id="shadow" x="-20%" y="-20%" width="140%" height="140%"><feDropShadow dx="0" dy="22" stdDeviation="24" flood-color="#000" flood-opacity=".34"/></filter>
  </defs>
  <rect width="1080" height="700" rx="30" fill="url(#bg)"/>
  <circle cx="950" cy="105" r="170" fill="#fff1e7" opacity=".16"/>
  <circle cx="129" cy="616" r="230" fill="#e0a086" opacity=".18"/>

  <g filter="url(#shadow)">
    <rect x="80" y="84" width="920" height="532" rx="38" fill="#fff7f0"/>
    <text x="124" y="154" fill="#2a1820" font-family="Georgia,serif" font-size="44" font-weight="700">Shop by category</text>
    <rect x="124" y="210" width="250" height="310" rx="30" fill="#2a1820"/><rect x="414" y="210" width="250" height="310" rx="30" fill="#f3d0bf"/><rect x="704" y="210" width="250" height="310" rx="30" fill="#3a2029"/>
    <path d="M224 286 C244 254 302 254 322 286 L345 468 H205 Z" fill="#f3d0bf"/>
    <path d="M500 286 H585 L610 468 H475 Z" fill="#2a1820"/>
    <path d="M805 285 Q830 250 860 285 L905 468 H770 Z" fill="#fff1e7"/>
    <g font-family="Arial" font-size="23" font-weight="800"><text x="184" y="570" fill="#2a1820">Dresses</text><text x="485" y="570" fill="#2a1820">Workwear</text><text x="775" y="570" fill="#2a1820">Accessories</text></g>
  </g>

</svg>
