<svg xmlns="http://www.w3.org/2000/svg" viewBox="0 0 1200 760" role="img" aria-labelledby="title desc">
<title id="title">Launch-ready handoff</title><desc id="desc">Static build, QA reports, Appwrite-ready output visual for Hamzah homepage.</desc>
<defs><linearGradient id="g" x1="0" x2="1" y1="0" y2="1"><stop offset="0" stop-color="#071016"/><stop offset=".60" stop-color="#22C55E"/><stop offset="1" stop-color="#38BDF8"/></linearGradient><radialGradient id="r" cx="74%" cy="18%" r="68%"><stop offset="0" stop-color="#fff" stop-opacity=".34"/><stop offset="1" stop-color="#fff" stop-opacity="0"/></radialGradient><filter id="shadow" x="-20%" y="-20%" width="140%" height="150%"><feDropShadow dx="0" dy="30" stdDeviation="32" flood-color="#000" flood-opacity=".35"/></filter></defs>
<rect width="1200" height="760" rx="56" fill="url(#g)"/><rect width="1200" height="760" rx="56" fill="url(#r)"/>
<g opacity=".18" stroke="#fff"><path d="M92 160h1016M92 292h1016M92 424h1016M92 556h1016"/><path d="M220 90v580M420 90v580M620 90v580M820 90v580M1020 90v580"/></g>
<g filter="url(#shadow)"><rect x="96" y="98" width="1008" height="518" rx="42" fill="#071016" opacity=".84" stroke="#fff" stroke-opacity=".20"/><rect x="140" y="138" width="920" height="72" rx="26" fill="#fff" opacity=".11"/><circle cx="176" cy="174" r="10" fill="#F87171"/><circle cx="208" cy="174" r="10" fill="#FBBF24"/><circle cx="240" cy="174" r="10" fill="#34D399"/>
<rect x="150" y="260" width="390" height="68" rx="24" fill="#fff" opacity=".92"/><rect x="150" y="356" width="448" height="24" rx="12" fill="#fff" opacity=".28"/><rect x="150" y="398" width="340" height="24" rx="12" fill="#fff" opacity=".22"/><rect x="150" y="466" width="166" height="54" rx="27" fill="#38BDF8"/><rect x="338" y="466" width="166" height="54" rx="27" fill="#fff" opacity=".12" stroke="#fff" stroke-opacity=".25"/>
<g transform="translate(680 256)"><rect width="330" height="250" rx="30" fill="#fff" opacity=".12" stroke="#fff" stroke-opacity=".24"/><path d="M48 178h236" stroke="#fff" stroke-opacity=".24" stroke-width="12" stroke-linecap="round"/><path d="M48 132h168" stroke="#22C55E" stroke-width="14" stroke-linecap="round"/><path d="M48 86h236" stroke="#fff" stroke-opacity=".36" stroke-width="12" stroke-linecap="round"/><circle cx="270" cy="132" r="22" fill="#38BDF8"/></g></g>
<text x="96" y="686" fill="#fff" font-family="Inter,Arial,sans-serif" font-size="44" font-weight="900">Launch-ready handoff</text><text x="96" y="724" fill="#fff" opacity=".72" font-family="Inter,Arial,sans-serif" font-size="22">Static build, QA reports, Appwrite-ready output</text>
</svg>