<svg xmlns="http://www.w3.org/2000/svg" width="920" height="680" viewBox="0 0 920 680" role="img" aria-labelledby="title desc"><title id="title">Financial advisory planning dashboard hero mockup</title><desc id="desc">A trust-focused advisory dashboard with plan cards, risk profile, goal timeline, and calculator panel.</desc><defs><linearGradient id="bg" x1="0" y1="0" x2="1" y2="1"><stop stop-color="#06151f"/><stop offset=".55" stop-color="#0b2a2d"/><stop offset="1" stop-color="#263518"/></linearGradient><linearGradient id="mint" x1="0" y1="0" x2="1" y2="1"><stop stop-color="#34d399"/><stop offset="1" stop-color="#f4d35e"/></linearGradient></defs><rect width="920" height="680" rx="48" fill="url(#bg)"/><circle cx="740" cy="94" r="200" fill="#34d399" opacity=".15"/><circle cx="128" cy="560" r="230" fill="#f4d35e" opacity=".12"/><g transform="translate(72 88)"><rect width="506" height="430" rx="34" fill="#0a1f28" stroke="#fff" opacity=".98"/><rect x="32" y="32" width="442" height="80" rx="24" fill="#102f38" stroke="#fff" opacity=".95"/><text x="58" y="68" fill="#fff" font-family="Arial" font-size="24" font-weight="900">ClarityLedger Advisory</text><text x="58" y="94" fill="#bdd7d6" font-family="Arial" font-size="14">Goal planning dashboard preview</text><g transform="translate(32 144)"><rect width="206" height="134" rx="24" fill="url(#mint)"/><text x="24" y="42" fill="#07151a" font-family="Arial" font-size="15" font-weight="900">GOALS</text><text x="24" y="82" fill="#07151a" font-family="Arial" font-size="34" font-weight="900">3</text><text x="24" y="110" fill="#07151a" font-family="Arial" font-size="13">tracked plans</text></g><g transform="translate(268 144)"><rect width="206" height="134" rx="24" fill="#153440" stroke="#fff" opacity=".97"/><text x="24" y="42" fill="#fff" font-family="Arial" font-size="15" font-weight="900">READINESS</text><rect x="24" y="70" width="150" height="12" rx="6" fill="#244a55"/><rect x="24" y="70" width="104" height="12" rx="6" fill="#34d399"/><rect x="24" y="102" width="118" height="12" rx="6" fill="#244a55"/></g><g transform="translate(32 310)"><rect width="442" height="82" rx="24" fill="#102f38" stroke="#fff" opacity=".94"/><circle cx="52" cy="41" r="25" fill="url(#mint)"/><path d="M40 50l18-26 26 36" fill="none" stroke="#06151f" stroke-width="7" stroke-linecap="round" stroke-linejoin="round"/><text x="92" y="37" fill="#fff" font-family="Arial" font-size="17" font-weight="900">Schedule a planning call</text><text x="92" y="61" fill="#bdd7d6" font-family="Arial" font-size="13">Static consultation flow for advisory websites</text></g></g><g transform="translate(640 122)"><rect width="220" height="430" rx="34" fill="#07141b" stroke="#ffffff"/><rect x="24" y="30" width="172" height="370" rx="24" fill="#102b35"/><text x="46" y="78" fill="#fff" font-family="Arial" font-size="21" font-weight="900">Calculator</text><g fill="#193d49"><rect x="46" y="116" width="128" height="38" rx="16"/><rect x="46" y="174" width="128" height="38" rx="16"/><rect x="46" y="232" width="128" height="38" rx="16"/></g><rect x="46" y="314" width="128" height="46" rx="23" fill="url(#mint)"/></g></svg>
