<svg xmlns="http://www.w3.org/2000/svg" width="960" height="640" viewBox="0 0 960 640" role="img" aria-labelledby="title desc"><title id="title">Project fit checker console mockup</title><desc id="desc">A premium project fit checker console with options for business sites, portfolios, stores, and dashboard interfaces.</desc><defs><linearGradient id="bg" x1="0" y1="0" x2="1" y2="1"><stop stop-color="#07111f"/><stop offset="1" stop-color="#1b2544"/></linearGradient><linearGradient id="a" x1="0" y1="0" x2="1" y2="1"><stop stop-color="#78f7d4"/><stop offset="1" stop-color="#8db7ff"/></linearGradient><filter id="s"><feDropShadow dx="0" dy="18" stdDeviation="22" flood-opacity=".34"/></filter></defs><rect width="960" height="640" rx="42" fill="url(#bg)"/><rect x="88" y="78" width="784" height="484" rx="40" fill="#0d1729" stroke="#fff" stroke-opacity=".12" filter="url(#s)"/><rect x="128" y="118" width="704" height="74" rx="26" fill="#14243a"/><circle cx="164" cy="155" r="10" fill="#78f7d4"/><circle cx="196" cy="155" r="10" fill="#ffd166"/><circle cx="228" cy="155" r="10" fill="#ff8bd1"/><rect x="274" y="144" width="260" height="16" rx="8" fill="#fff" opacity=".88"/><g font-family="Inter,Arial"><g transform="translate(128 240)"><rect width="200" height="224" rx="30" fill="#13243a" stroke="#fff" stroke-opacity=".10"/><rect x="30" y="34" width="126" height="16" rx="8" fill="#fff" opacity=".86"/><rect x="30" y="70" width="138" height="10" rx="5" fill="#9fb3c8" opacity=".52"/><rect x="30" y="104" width="120" height="34" rx="17" fill="url(#a)"/><text x="90" y="127" text-anchor="middle" fill="#07111f" font-size="14" font-weight="900">Business</text></g><g transform="translate(380 240)"><rect width="200" height="224" rx="30" fill="#13243a" stroke="#fff" stroke-opacity=".10"/><rect x="30" y="34" width="126" height="16" rx="8" fill="#fff" opacity=".86"/><rect x="30" y="70" width="138" height="10" rx="5" fill="#9fb3c8" opacity=".52"/><rect x="30" y="104" width="120" height="34" rx="17" fill="#ff8bd1"/><text x="90" y="127" text-anchor="middle" fill="#07111f" font-size="14" font-weight="900">Portfolio</text></g><g transform="translate(632 240)"><rect width="200" height="224" rx="30" fill="#13243a" stroke="#fff" stroke-opacity=".10"/><rect x="30" y="34" width="126" height="16" rx="8" fill="#fff" opacity=".86"/><rect x="30" y="70" width="138" height="10" rx="5" fill="#9fb3c8" opacity=".52"/><rect x="30" y="104" width="120" height="34" rx="17" fill="#ffd166"/><text x="90" y="127" text-anchor="middle" fill="#07111f" font-size="14" font-weight="900">Dashboard</text></g></g><path d="M328 352h52M580 352h52" stroke="#8db7ff" stroke-width="5" stroke-linecap="round" stroke-dasharray="10 10"/><rect x="244" y="494" width="472" height="38" rx="19" fill="#fff" opacity=".08"/><text x="480" y="519" text-anchor="middle" fill="#c8d8ea" font-family="Inter,Arial" font-size="15">choose direction → understand scope → send a cleaner brief</text></svg>