<svg xmlns="http://www.w3.org/2000/svg" width="960" height="640" viewBox="0 0 960 640" role="img" aria-labelledby="title desc"><title id="title">Project fit output card mockup</title><desc id="desc">A recommendation output card showing recommended website direction, sections, and next action.</desc><defs><linearGradient id="bg" x1="0" y1="0" x2="1" y2="1"><stop stop-color="#08131d"/><stop offset="1" stop-color="#173326"/></linearGradient><linearGradient id="a" x1="0" y1="0" x2="1" y2="1"><stop stop-color="#7df7aa"/><stop offset="1" stop-color="#8db7ff"/></linearGradient><filter id="s"><feDropShadow dx="0" dy="18" stdDeviation="22" flood-opacity=".34"/></filter></defs><rect width="960" height="640" rx="42" fill="url(#bg)"/><rect x="132" y="88" width="696" height="464" rx="42" fill="#0f2024" stroke="#fff" stroke-opacity=".12" filter="url(#s)"/><rect x="180" y="136" width="600" height="88" rx="30" fill="#142c32"/><rect x="220" y="166" width="230" height="18" rx="9" fill="#fff" opacity=".9"/><rect x="220" y="196" width="330" height="10" rx="5" fill="#9fb3c8" opacity=".52"/><rect x="626" y="164" width="110" height="34" rx="17" fill="url(#a)"/><g font-family="Inter,Arial" fill="#fff"><g transform="translate(180 268)"><rect width="600" height="62" rx="22" fill="#132a2f"/><text x="34" y="40" font-size="18" font-weight="800">Recommended direction</text><text x="430" y="40" font-size="16" fill="#7df7aa" font-weight="850">Business build</text></g><g transform="translate(180 350)"><rect width="600" height="62" rx="22" fill="#132a2f"/><text x="34" y="40" font-size="18" font-weight="800">Core sections</text><text x="430" y="40" font-size="16" fill="#7df7aa" font-weight="850">Hero · Services · FAQ</text></g><g transform="translate(180 432)"><rect width="600" height="62" rx="22" fill="#132a2f"/><text x="34" y="40" font-size="18" font-weight="800">Next action</text><text x="430" y="40" font-size="16" fill="#7df7aa" font-weight="850">Send brief</text></g></g></svg>