<svg xmlns="http://www.w3.org/2000/svg" width="920" height="680" viewBox="0 0 920 680" role="img" aria-labelledby="title desc">
<title id="title">Fitness studio app booking hero mockup</title><desc id="desc">A bold fitness studio dashboard with class cards, app booking panel, workout rings, and motion lines.</desc>
<defs>
  <linearGradient id="bg" x1="0" y1="0" x2="1" y2="1"><stop stop-color="#0a0b0f"/><stop offset=".45" stop-color="#111827"/><stop offset="1" stop-color="#281207"/></linearGradient>
  <linearGradient id="hot" x1="0" y1="0" x2="1" y2="1"><stop stop-color="#ff4d00"/><stop offset=".55" stop-color="#ffb703"/><stop offset="1" stop-color="#e8ff3d"/></linearGradient>
  <filter id="glow"><feGaussianBlur stdDeviation="14" result="b"/><feMerge><feMergeNode in="b"/><feMergeNode in="SourceGraphic"/></feMerge></filter>
</defs>
<rect width="920" height="680" rx="46" fill="url(#bg)"/>
<circle cx="712" cy="86" r="170" fill="#ff4d00" opacity=".16"/>
<circle cx="132" cy="560" r="220" fill="#e8ff3d" opacity=".1"/>
<g stroke="#fff" opacity=".08"><path d="M0 152h920M0 304h920M0 456h920"/><path d="M180 0v680M360 0v680M540 0v680M720 0v680"/></g>
<g transform="translate(74 92)">
  <rect width="480" height="410" rx="34" fill="#10151f" stroke="#ffffff" opacity=".98"/>
  <rect x="28" y="26" width="424" height="72" rx="22" fill="#171f2c" stroke="#ffffff" opacity=".96"/>
  <text x="54" y="58" fill="#fff" font-size="24" font-family="Arial" font-weight="800">PulseForge Studio</text>
  <text x="54" y="82" fill="#b9c0cc" font-size="14" font-family="Arial">Today’s class capacity and booking flow</text>
  <g transform="translate(28 124)">
    <rect width="190" height="132" rx="26" fill="#ff4d00" opacity=".96"/>
    <text x="24" y="40" fill="#160600" font-size="15" font-family="Arial" font-weight="800">HIIT Ignite</text>
    <text x="24" y="72" fill="#160600" font-size="34" font-family="Arial" font-weight="900">18:30</text>
    <text x="24" y="104" fill="#160600" font-size="13" font-family="Arial">8 spots left</text>
  </g>
  <g transform="translate(242 124)">
    <rect width="210" height="132" rx="26" fill="#1f2937" stroke="#ffffff" opacity=".97"/>
    <text x="22" y="40" fill="#fff" font-size="15" font-family="Arial" font-weight="800">Strength Lab</text>
    <rect x="22" y="62" width="152" height="12" rx="6" fill="#2d3748"/><rect x="22" y="62" width="112" height="12" rx="6" fill="url(#hot)"/>
    <text x="22" y="104" fill="#cbd5e1" font-size="13" font-family="Arial">Progressive coaching</text>
  </g>
  <g transform="translate(28 284)">
    <rect width="424" height="86" rx="24" fill="#171f2c" stroke="#ffffff" opacity=".95"/>
    <circle cx="49" cy="43" r="24" fill="url(#hot)"/>
    <text x="90" y="38" fill="#fff" font-size="16" font-family="Arial" font-weight="800">Book trial class</text>
    <text x="90" y="62" fill="#b9c0cc" font-size="13" font-family="Arial">3-tap mobile booking path</text>
    <rect x="315" y="24" width="82" height="38" rx="19" fill="#e8ff3d"/>
    <text x="337" y="48" fill="#101010" font-size="13" font-family="Arial" font-weight="900">JOIN</text>
  </g>
</g>
<g transform="translate(618 120)">
  <rect width="220" height="450" rx="38" fill="#080b10" stroke="#ffffff"/>
  <rect x="18" y="22" width="184" height="406" rx="28" fill="#111827"/>
  <text x="42" y="70" fill="#fff" font-size="22" font-family="Arial" font-weight="900">Book Class</text>
  <circle cx="110" cy="170" r="72" fill="none" stroke="#2b3445" stroke-width="18"/>
  <path d="M110 98a72 72 0 0 1 68 96" fill="none" stroke="url(#hot)" stroke-width="18" stroke-linecap="round" filter="url(#glow)"/>
  <text x="86" y="178" fill="#fff" font-size="28" font-family="Arial" font-weight="900">74%</text>
  <g fill="#1f2937"><rect x="36" y="274" width="148" height="38" rx="19"/><rect x="36" y="326" width="148" height="38" rx="19"/></g>
  <rect x="36" y="378" width="148" height="42" rx="21" fill="url(#hot)"/>
</g>
<path d="M676 84c62 10 96 35 118 74" fill="none" stroke="#e8ff3d" stroke-width="5" stroke-linecap="round" opacity=".7"/>
<path d="M574 594c-58-8-91-35-118-72" fill="none" stroke="#ff4d00" stroke-width="5" stroke-linecap="round" opacity=".75"/>
</svg>
