<svg xmlns="http://www.w3.org/2000/svg" width="760" height="520" viewBox="0 0 760 520" role="img" aria-labelledby="title desc">
<title id="title">Workout gallery mockup</title><desc id="desc">A visual workout gallery with cycling, strength, mobility, and HIIT panels.</desc>
<defs><linearGradient id="g" x1="0" y1="0" x2="1" y2="1"><stop stop-color="#ff4d00"/><stop offset="1" stop-color="#e8ff3d"/></linearGradient></defs>
<rect width="760" height="520" rx="36" fill="#0e1219"/>
<g transform="translate(42 42)">
  <rect width="312" height="208" rx="30" fill="url(#g)"/><text x="28" y="160" fill="#141414" font-size="34" font-family="Arial" font-weight="900">HIIT</text><path d="M76 90h92m-46-46v92" stroke="#151515" stroke-width="18" stroke-linecap="round" opacity=".55"/>
  <rect x="382" width="292" height="208" rx="30" fill="#192232" stroke="#ffffff" opacity=".96"/><text x="410" y="160" fill="#fff" font-size="34" font-family="Arial" font-weight="900">Strength</text><path d="M452 86h156" stroke="#ff4d00" stroke-width="18" stroke-linecap="round"/>
  <rect y="236" width="210" height="200" rx="30" fill="#192232" stroke="#ffffff" opacity=".96"/><text x="28" y="360" fill="#fff" font-size="28" font-family="Arial" font-weight="900">Mobility</text><circle cx="105" cy="94" r="42" fill="#1ee6a8" opacity=".9"/>
  <rect x="238" y="236" width="208" height="200" rx="30" fill="#192232" stroke="#ffffff" opacity=".96"/><text x="266" y="360" fill="#fff" font-size="28" font-family="Arial" font-weight="900">Cycle</text><circle cx="312" cy="90" r="42" fill="none" stroke="#e8ff3d" stroke-width="15"/><circle cx="382" cy="90" r="42" fill="none" stroke="#e8ff3d" stroke-width="15"/>
  <rect x="474" y="236" width="200" height="200" rx="30" fill="#ff4d00" opacity=".95"/><text x="502" y="360" fill="#160600" font-size="28" font-family="Arial" font-weight="900">Boxing</text><path d="M548 86c20-36 63-30 68 11 4 34-23 56-58 52-31-4-46-32-28-63" fill="none" stroke="#160600" stroke-width="12" stroke-linecap="round"/>
</g>
</svg>
