<svg xmlns="http://www.w3.org/2000/svg" width="760" height="520" viewBox="0 0 760 520" role="img" aria-labelledby="title desc">
<title id="title">Fitness class schedule preview</title><desc id="desc">A weekly class schedule board with intensity labels and booking statuses.</desc>
<defs><linearGradient id="a" x1="0" y1="0" x2="1" y2="1"><stop stop-color="#ff4d00"/><stop offset="1" stop-color="#e8ff3d"/></linearGradient></defs>
<rect width="760" height="520" rx="36" fill="#0b0e14"/>
<rect x="34" y="34" width="692" height="452" rx="30" fill="#111827" stroke="#ffffff" opacity=".98"/>
<text x="62" y="86" fill="#fff" font-family="Arial" font-size="28" font-weight="900">Weekly Class Board</text>
<text x="62" y="114" fill="#aab2c0" font-family="Arial" font-size="15">Capacity-aware schedule preview for the studio website.</text>
<g transform="translate(62 150)">
  <g fill="#182233"><rect width="636" height="48" rx="16"/><rect y="72" width="636" height="48" rx="16"/><rect y="144" width="636" height="48" rx="16"/><rect y="216" width="636" height="48" rx="16"/></g>
  <g font-family="Arial" font-weight="800" font-size="16" fill="#fff">
    <text x="24" y="31">06:30</text><text x="132" y="31">Strength Foundations</text><text x="426" y="31">Coach Amara</text>
    <text x="24" y="103">12:15</text><text x="132" y="103">Core + Mobility</text><text x="426" y="103">Coach Ilyas</text>
    <text x="24" y="175">18:30</text><text x="132" y="175">HIIT Ignite</text><text x="426" y="175">Coach Rhea</text>
    <text x="24" y="247">20:00</text><text x="132" y="247">Strength Lab</text><text x="426" y="247">Coach Zayn</text>
  </g>
  <g font-family="Arial" font-size="12" font-weight="900">
    <rect x="548" y="12" width="64" height="24" rx="12" fill="url(#a)"/><text x="566" y="29" fill="#111">OPEN</text>
    <rect x="548" y="84" width="64" height="24" rx="12" fill="#1ee6a8"/><text x="562" y="101" fill="#06110d">LIGHT</text>
    <rect x="548" y="156" width="64" height="24" rx="12" fill="#ff4d00"/><text x="564" y="173" fill="#170600">HOT</text>
    <rect x="548" y="228" width="64" height="24" rx="12" fill="#273142"/><text x="558" y="245" fill="#cbd5e1">WAIT</text>
  </g>
</g>
</svg>
