<svg xmlns="http://www.w3.org/2000/svg" width="960" height="640" viewBox="0 0 960 640" role="img" aria-labelledby="title desc"><title id="title">Footer directory map mockup</title><desc id="desc">A premium footer directory map grouping build, proof, launch, and contact links.</desc><defs><linearGradient id="bg" x1="0" y1="0" x2="1" y2="1"><stop stop-color="#07111f"/><stop offset="1" stop-color="#1b2544"/></linearGradient><linearGradient id="a" x1="0" y1="0" x2="1" y2="1"><stop stop-color="#78f7d4"/><stop offset="1" stop-color="#8db7ff"/></linearGradient><filter id="s"><feDropShadow dx="0" dy="18" stdDeviation="22" flood-opacity=".34"/></filter></defs><rect width="960" height="640" rx="42" fill="url(#bg)"/><rect x="96" y="88" width="768" height="464" rx="42" fill="#0d1729" stroke="#fff" stroke-opacity=".12" filter="url(#s)"/><rect x="140" y="132" width="680" height="72" rx="26" fill="#14243a"/><circle cx="176" cy="168" r="18" fill="url(#a)"/><rect x="224" y="158" width="220" height="16" rx="8" fill="#fff" opacity=".9"/><rect x="224" y="184" width="310" height="10" rx="5" fill="#9fb3c8" opacity=".52"/><g font-family="Inter,Arial" fill="#fff"><g transform="translate(140 258)"><rect width="190" height="180" rx="30" fill="#13243a" stroke="#fff" stroke-opacity=".1"/><text x="34" y="48" font-size="18" font-weight="850">Build</text><rect x="34" y="78" width="120" height="10" rx="5" fill="#9fb3c8" opacity=".55"/><rect x="34" y="104" width="96" height="10" rx="5" fill="#9fb3c8" opacity=".38"/><rect x="34" y="130" width="112" height="10" rx="5" fill="#9fb3c8" opacity=".38"/></g><g transform="translate(386 258)"><rect width="190" height="180" rx="30" fill="#13243a" stroke="#fff" stroke-opacity=".1"/><text x="34" y="48" font-size="18" font-weight="850">Proof</text><rect x="34" y="78" width="120" height="10" rx="5" fill="#9fb3c8" opacity=".55"/><rect x="34" y="104" width="96" height="10" rx="5" fill="#9fb3c8" opacity=".38"/><rect x="34" y="130" width="112" height="10" rx="5" fill="#9fb3c8" opacity=".38"/></g><g transform="translate(632 258)"><rect width="190" height="180" rx="30" fill="#13243a" stroke="#fff" stroke-opacity=".1"/><text x="34" y="48" font-size="18" font-weight="850">Launch</text><rect x="34" y="78" width="120" height="10" rx="5" fill="#9fb3c8" opacity=".55"/><rect x="34" y="104" width="96" height="10" rx="5" fill="#9fb3c8" opacity=".38"/><rect x="34" y="130" width="112" height="10" rx="5" fill="#9fb3c8" opacity=".38"/></g></g><path d="M330 348h56M576 348h56" stroke="#8db7ff" stroke-width="5" stroke-linecap="round" stroke-dasharray="10 10"/><rect x="290" y="480" width="380" height="38" rx="19" fill="url(#a)"/><text x="480" y="504" text-anchor="middle" fill="#07111f" font-family="Inter,Arial" font-size="16" font-weight="900">final section map</text></svg>