<svg xmlns="http://www.w3.org/2000/svg" width="960" height="640" viewBox="0 0 960 640" role="img" aria-labelledby="title desc"><title id="title">Handoff quality card mockup</title><desc id="desc">A premium handoff quality card showing files, reports, launch notes, and future edits.</desc><defs><linearGradient id="bg" x1="0" y1="0" x2="1" y2="1"><stop stop-color="#08131d"/><stop offset="1" stop-color="#173326"/></linearGradient><linearGradient id="a" x1="0" y1="0" x2="1" y2="1"><stop stop-color="#7df7aa"/><stop offset="1" stop-color="#8db7ff"/></linearGradient><filter id="s"><feDropShadow dx="0" dy="18" stdDeviation="22" flood-opacity=".34"/></filter></defs><rect width="960" height="640" rx="42" fill="url(#bg)"/><rect x="138" y="86" width="684" height="468" rx="40" fill="#0e2023" stroke="#fff" stroke-opacity=".12" filter="url(#s)"/><rect x="186" y="134" width="588" height="74" rx="26" fill="#142d32"/><rect x="222" y="162" width="240" height="18" rx="9" fill="#fff" opacity=".9"/><rect x="222" y="190" width="330" height="10" rx="5" fill="#9fb3c8" opacity=".52"/><g font-family="Inter,Arial" fill="#fff"><g transform="translate(186 252)"><rect width="588" height="58" rx="22" fill="#132a2f"/><circle cx="34" cy="29" r="15" fill="url(#a)"/><text x="66" y="36" font-size="17" font-weight="800">Source files and local assets</text></g><g transform="translate(186 328)"><rect width="588" height="58" rx="22" fill="#132a2f"/><circle cx="34" cy="29" r="15" fill="#ffd166"/><text x="66" y="36" font-size="17" font-weight="800">Build output and Appwrite notes</text></g><g transform="translate(186 404)"><rect width="588" height="58" rx="22" fill="#132a2f"/><circle cx="34" cy="29" r="15" fill="#8db7ff"/><text x="66" y="36" font-size="17" font-weight="800">QA report and error analysis</text></g><g transform="translate(186 480)"><rect width="588" height="58" rx="22" fill="#132a2f"/><circle cx="34" cy="29" r="15" fill="#ff8bd1"/><text x="66" y="36" font-size="17" font-weight="800">Future edit notes</text></g></g></svg>