<svg xmlns="http://www.w3.org/2000/svg" viewBox="0 0 760 520" role="img" aria-labelledby="title desc">
  <title id="title">Website handoff vault mockup</title>
  <desc id="desc">A premium handoff vault showing build output, documentation, QA reports, Appwrite notes, and local launch files.</desc>
  <defs><linearGradient id="bg" x1="0" y1="0" x2="1" y2="1"><stop offset="0" stop-color="#1A1420"/><stop offset="1" stop-color="#081018"/></linearGradient><linearGradient id="a" x1="0" y1="0" x2="1" y2="1"><stop offset="0" stop-color="#F9C784"/><stop offset=".5" stop-color="#A78BFA"/><stop offset="1" stop-color="#67E8F9"/></linearGradient><filter id="sh" x="-20%" y="-20%" width="140%" height="140%"><feDropShadow dx="0" dy="24" stdDeviation="24" flood-color="#000" flood-opacity=".36"/></filter></defs>
  <rect width="760" height="520" rx="38" fill="url(#bg)"/><path d="M90 148c116-70 222-72 320-6s190 68 260-10" fill="none" stroke="#F9C784" stroke-opacity=".12" stroke-width="25" stroke-linecap="round"/>
  <g filter="url(#sh)"><rect x="94" y="76" width="572" height="366" rx="34" fill="#10121C" stroke="#fff" stroke-opacity=".12"/>
    <rect x="132" y="116" width="496" height="66" rx="24" fill="#171A28"/><circle cx="166" cy="149" r="17" fill="url(#a)"/><rect x="198" y="138" width="154" height="16" rx="8" fill="#fff" opacity=".78"/><rect x="470" y="132" width="116" height="34" rx="17" fill="url(#a)" opacity=".9"/>
    <g><rect x="132" y="224" width="136" height="88" rx="22" fill="#171A28"/><rect x="312" y="224" width="136" height="88" rx="22" fill="#171A28"/><rect x="492" y="224" width="136" height="88" rx="22" fill="#171A28"/><rect x="132" y="342" width="496" height="50" rx="22" fill="#171A28"/></g>
    <g font-family="Inter,Arial,sans-serif" font-size="13" font-weight="900" fill="#F6F7FB"><text x="158" y="270">dist/</text><text x="334" y="270">README</text><text x="514" y="270">QA</text><text x="260" y="373">Appwrite-ready static package</text></g>
    <g fill="url(#a)" opacity=".82"><circle cx="220" cy="270" r="14"/><circle cx="414" cy="270" r="14"/><circle cx="572" cy="270" r="14"/></g>
  </g>
</svg>
