<svg xmlns="http://www.w3.org/2000/svg" width="960" height="640" viewBox="0 0 960 640" role="img" aria-labelledby="title desc"><title id="title">Hero proof console for Hamzah portfolio</title><desc id="desc">A premium launch console showing local visuals, static build, QA documents, and Appwrite-ready handoff checks.</desc><defs><linearGradient id="bg" x1="0" y1="0" x2="1" y2="1"><stop stop-color="#07111f"/><stop offset="1" stop-color="#1b2544"/></linearGradient><linearGradient id="accent" x1="0" y1="0" x2="1" y2="1"><stop stop-color="#78f7d4"/><stop offset="1" stop-color="#8db7ff"/></linearGradient><filter id="shadow"><feDropShadow dx="0" dy="18" stdDeviation="22" flood-opacity=".32"/></filter></defs><rect width="960" height="640" rx="44" fill="url(#bg)"/><rect x="74" y="72" width="812" height="496" rx="42" fill="#0d1729" stroke="#fff" stroke-opacity=".12" filter="url(#shadow)"/><rect x="116" y="112" width="728" height="76" rx="28" fill="#13243a"/><circle cx="154" cy="150" r="12" fill="#78f7d4"/><rect x="184" y="137" width="206" height="16" rx="8" fill="#fff" opacity=".86"/><rect x="184" y="162" width="132" height="10" rx="5" fill="#9fb3c8" opacity=".44"/><rect x="670" y="132" width="128" height="34" rx="17" fill="url(#accent)"/><g fill="#13243a" stroke="#fff" stroke-opacity=".08"><rect x="116" y="230" width="212" height="132" rx="28"/><rect x="374" y="230" width="212" height="132" rx="28"/><rect x="632" y="230" width="212" height="132" rx="28"/></g><g fill="none" stroke-linecap="round" stroke-width="8"><path d="M158 314l38 34 82-92" stroke="#78f7d4"/><path d="M416 314l38 34 82-92" stroke="#8db7ff"/><path d="M674 314l38 34 82-92" stroke="#ffd166"/></g><g fill="#fff" opacity=".86"><rect x="152" y="252" width="126" height="14" rx="7"/><rect x="410" y="252" width="126" height="14" rx="7"/><rect x="668" y="252" width="126" height="14" rx="7"/></g><g fill="#9fb3c8" opacity=".44"><rect x="152" y="280" width="96" height="10" rx="5"/><rect x="410" y="280" width="112" height="10" rx="5"/><rect x="668" y="280" width="102" height="10" rx="5"/></g><rect x="116" y="406" width="728" height="104" rx="30" fill="#13243a" stroke="#fff" stroke-opacity=".08"/><path d="M156 468c64-54 118 26 180-28 72-62 124 30 206-34 70-54 122 18 180-12" fill="none" stroke="url(#accent)" stroke-width="9" stroke-linecap="round"/><circle cx="156" cy="468" r="10" fill="#78f7d4"/><circle cx="336" cy="440" r="10" fill="#8db7ff"/><circle cx="542" cy="406" r="10" fill="#78f7d4"/><circle cx="722" cy="394" r="10" fill="#8db7ff"/></svg>
