<svg xmlns="http://www.w3.org/2000/svg" width="720" height="420" viewBox="0 0 720 420" role="img" aria-labelledby="title desc"><title id="title">Above-fold trust ledger</title><desc id="desc">A compact quality ledger showing original visuals, local assets, build output, and handoff documentation.</desc><defs><linearGradient id="bg" x1="0" y1="0" x2="1" y2="1"><stop stop-color="#0a1220"/><stop offset="1" stop-color="#1a2742"/></linearGradient><linearGradient id="a" x1="0" y1="0" x2="1" y2="1"><stop stop-color="#78f7d4"/><stop offset="1" stop-color="#8db7ff"/></linearGradient></defs><rect width="720" height="420" rx="36" fill="url(#bg)"/><rect x="48" y="48" width="624" height="324" rx="30" fill="#101b2d" stroke="#fff" stroke-opacity=".12"/><rect x="88" y="86" width="260" height="20" rx="10" fill="#fff" opacity=".88"/><rect x="88" y="122" width="172" height="12" rx="6" fill="#9fb3c8" opacity=".45"/><g transform="translate(88 164)"><g><circle cx="16" cy="16" r="16" fill="url(#a)"/><path d="M9 16l5 5 10-12" fill="none" stroke="#07100d" stroke-width="4" stroke-linecap="round" stroke-linejoin="round"/><rect x="50" y="5" width="290" height="13" rx="7" fill="#fff" opacity=".82"/><rect x="50" y="28" width="210" height="10" rx="5" fill="#9fb3c8" opacity=".4"/></g><g transform="translate(0 72)"><circle cx="16" cy="16" r="16" fill="url(#a)"/><path d="M9 16l5 5 10-12" fill="none" stroke="#07100d" stroke-width="4" stroke-linecap="round" stroke-linejoin="round"/><rect x="50" y="5" width="250" height="13" rx="7" fill="#fff" opacity=".82"/><rect x="50" y="28" width="184" height="10" rx="5" fill="#9fb3c8" opacity=".4"/></g><g transform="translate(0 144)"><circle cx="16" cy="16" r="16" fill="url(#a)"/><path d="M9 16l5 5 10-12" fill="none" stroke="#07100d" stroke-width="4" stroke-linecap="round" stroke-linejoin="round"/><rect x="50" y="5" width="276" height="13" rx="7" fill="#fff" opacity=".82"/><rect x="50" y="28" width="222" height="10" rx="5" fill="#9fb3c8" opacity=".4"/></g></g><rect x="460" y="96" width="150" height="204" rx="28" fill="#14243a" stroke="#fff" stroke-opacity=".1"/><rect x="494" y="126" width="82" height="82" rx="24" fill="url(#a)"/><text x="535" y="178" text-anchor="middle" font-family="Arial, sans-serif" font-size="34" font-weight="800" fill="#07100d">H</text><rect x="488" y="236" width="94" height="12" rx="6" fill="#fff" opacity=".74"/><rect x="505" y="264" width="60" height="10" rx="5" fill="#9fb3c8" opacity=".48"/></svg>
