<svg xmlns="http://www.w3.org/2000/svg" viewBox="0 0 1280 820" role="img" aria-labelledby="title desc">
  <title id="title">Launch board</title>
  <desc id="desc">Build, test, package, deploy workflow visual for the Hamzah portfolio homepage.</desc>
  <defs>
    <linearGradient id="bg" x1="0" x2="1" y1="0" y2="1"><stop offset="0" stop-color="#180A24"/><stop offset=".58" stop-color="#D946EF" stop-opacity=".78"/><stop offset="1" stop-color="#38BDF8"/></linearGradient>
    <radialGradient id="glow" cx="70%" cy="20%" r="60%"><stop offset="0" stop-color="#fff" stop-opacity=".34"/><stop offset="1" stop-color="#fff" stop-opacity="0"/></radialGradient>
    <filter id="shadow" x="-20%" y="-20%" width="140%" height="150%"><feDropShadow dx="0" dy="32" stdDeviation="34" flood-color="#000" flood-opacity=".36"/></filter>
  </defs>
  <rect width="1280" height="820" rx="64" fill="url(#bg)"/>
  <rect width="1280" height="820" rx="64" fill="url(#glow)"/>
  <g opacity=".26" stroke="#fff" stroke-width="1">
    <path d="M80 160H1200M80 260H1200M80 360H1200M80 460H1200M80 560H1200M80 660H1200"/>
    <path d="M180 80V740M340 80V740M500 80V740M660 80V740M820 80V740M980 80V740M1140 80V740"/>
  </g>
  <g filter="url(#shadow)">
    <rect x="110" y="102" width="1060" height="578" rx="42" fill="#071016" opacity=".82" stroke="#fff" stroke-opacity=".18"/>
    <rect x="146" y="140" width="988" height="76" rx="26" fill="#fff" opacity=".11"/>
    <circle cx="184" cy="178" r="10" fill="#FB7185"/><circle cx="218" cy="178" r="10" fill="#FBBF24"/><circle cx="252" cy="178" r="10" fill="#34D399"/>
    <rect x="910" y="162" width="170" height="32" rx="16" fill="#fff" opacity=".20"/>
    <rect x="156" y="258" width="390" height="72" rx="24" fill="#fff" opacity=".92"/>
    <rect x="156" y="356" width="488" height="24" rx="12" fill="#fff" opacity=".28"/>
    <rect x="156" y="400" width="420" height="24" rx="12" fill="#fff" opacity=".22"/>
    <rect x="156" y="466" width="180" height="58" rx="29" fill="#D946EF"/>
    <rect x="356" y="466" width="180" height="58" rx="29" fill="#fff" opacity=".12" stroke="#fff" stroke-opacity=".25"/>
    <g transform="translate(704 262)">
      <rect width="346" height="292" rx="30" fill="#fff" opacity=".11" stroke="#fff" stroke-opacity=".22"/>
      <path d="M38 214 C92 128 142 176 180 112 C214 55 262 75 306 42" fill="none" stroke="#D946EF" stroke-width="14" stroke-linecap="round"/>
      <circle cx="38" cy="214" r="16" fill="#fff"/><circle cx="180" cy="112" r="16" fill="#fff"/><circle cx="306" cy="42" r="16" fill="#fff"/>
      <rect x="36" y="236" width="110" height="28" rx="14" fill="#fff" opacity=".26"/>
      <rect x="166" y="236" width="142" height="28" rx="14" fill="#fff" opacity=".18"/>
    </g>
    <g transform="translate(156 584)">
      <rect width="894" height="60" rx="24" fill="#fff" opacity=".09"/>
      <rect x="24" y="18" width="132" height="24" rx="12" fill="#38BDF8" opacity=".8"/>
      <rect x="188" y="18" width="132" height="24" rx="12" fill="#fff" opacity=".22"/>
      <rect x="352" y="18" width="132" height="24" rx="12" fill="#fff" opacity=".18"/>
      <rect x="516" y="18" width="132" height="24" rx="12" fill="#fff" opacity=".15"/>
    </g>
  </g>
  <text x="112" y="748" fill="#fff" font-family="Inter, Arial, sans-serif" font-size="46" font-weight="900">Launch board</text>
  <text x="112" y="786" fill="#fff" opacity=".72" font-family="Inter, Arial, sans-serif" font-size="23">Build, test, package, deploy workflow</text>
</svg>