<svg xmlns="http://www.w3.org/2000/svg" width="1600" height="1000" viewBox="0 0 1600 1000" role="img" aria-labelledby="title desc">
  <title id="title">High quality Hamzah website interface artwork</title>
  <desc id="desc">A polished vector dashboard showing a short premium homepage, plans, project inquiry, plan selection, and clean contact flow.</desc>
  <defs>
    <linearGradient id="bg" x1="0" y1="0" x2="1" y2="1"><stop stop-color="#050712"/><stop offset="0.42" stop-color="#0b1020"/><stop offset="1" stop-color="#123a52"/></linearGradient>
    <linearGradient id="glass" x1="0" y1="0" x2="1" y2="1"><stop stop-color="#ffffff" stop-opacity="0.18"/><stop offset="1" stop-color="#ffffff" stop-opacity="0.04"/></linearGradient>
    <linearGradient id="accent" x1="0" y1="0" x2="1" y2="1"><stop stop-color="#72f6d1"/><stop offset="0.55" stop-color="#6aa8ff"/><stop offset="1" stop-color="#c084fc"/></linearGradient>
    <linearGradient id="gold" x1="0" y1="0" x2="1" y2="1"><stop stop-color="#ffe7a3"/><stop offset="1" stop-color="#ffb86b"/></linearGradient>
    <filter id="shadow" x="-20%" y="-20%" width="140%" height="150%"><feDropShadow dx="0" dy="34" stdDeviation="32" flood-color="#000" flood-opacity="0.42"/></filter>
    <filter id="soft" x="-30%" y="-30%" width="160%" height="160%"><feGaussianBlur stdDeviation="34"/></filter>
  </defs>
  <rect width="1600" height="1000" rx="56" fill="url(#bg)"/>
  <circle cx="1310" cy="150" r="270" fill="#72f6d1" opacity="0.12" filter="url(#soft)"/>
  <circle cx="260" cy="850" r="320" fill="#8b5cf6" opacity="0.13" filter="url(#soft)"/>
  <g opacity="0.36" stroke="#ffffff" stroke-opacity="0.18"><path d="M120 150h1360M120 310h1360M120 470h1360M120 630h1360M120 790h1360"/><path d="M210 90v820M420 90v820M630 90v820M840 90v820M1050 90v820M1260 90v820M1470 90v820"/></g>
  <g filter="url(#shadow)">
    <rect x="155" y="105" width="1290" height="790" rx="46" fill="#07101f" stroke="#ffffff" stroke-opacity="0.18"/>
    <rect x="155" y="105" width="1290" height="76" rx="46" fill="url(#glass)"/>
    <circle cx="218" cy="143" r="13" fill="#ff6b6b"/><circle cx="260" cy="143" r="13" fill="#ffd166"/><circle cx="302" cy="143" r="13" fill="#72f6d1"/>
    <rect x="1150" y="128" width="210" height="28" rx="14" fill="#ffffff" opacity="0.12"/>
    <text x="360" y="153" fill="#eaf7ff" font-family="Inter,Arial,sans-serif" font-size="24" font-weight="800">hamzah.build / short premium website</text>

    <g transform="translate(210 235)">
      <rect width="520" height="580" rx="34" fill="url(#glass)" stroke="#ffffff" stroke-opacity="0.15"/>
      <text x="40" y="70" fill="#72f6d1" font-family="Inter,Arial,sans-serif" font-size="20" font-weight="900" letter-spacing="3">SHORT HOMEPAGE</text>
      <text x="40" y="132" fill="#ffffff" font-family="Georgia,serif" font-size="58" font-weight="700">Clean website.</text>
      <text x="40" y="196" fill="#ffffff" font-family="Georgia,serif" font-size="58" font-weight="700">Clear next step.</text>
      <rect x="40" y="240" width="360" height="16" rx="8" fill="#b7c7d9" opacity="0.46"/><rect x="40" y="272" width="430" height="16" rx="8" fill="#b7c7d9" opacity="0.34"/><rect x="40" y="304" width="310" height="16" rx="8" fill="#b7c7d9" opacity="0.28"/>
      <rect x="40" y="370" width="176" height="56" rx="28" fill="url(#accent)"/><text x="76" y="407" fill="#06101b" font-family="Inter,Arial,sans-serif" font-size="18" font-weight="900">Choose Plan</text>
      <rect x="238" y="370" width="150" height="56" rx="28" fill="#ffffff" fill-opacity="0.08" stroke="#ffffff" stroke-opacity="0.18"/><text x="280" y="407" fill="#eaf7ff" font-family="Inter,Arial,sans-serif" font-size="18" font-weight="800">About</text>
      <g transform="translate(40 480)"><rect width="110" height="68" rx="18" fill="#ffffff" fill-opacity="0.08"/><text x="20" y="31" fill="#fff" font-family="Inter,Arial" font-size="17" font-weight="900">Plans</text><text x="20" y="53" fill="#9fb2c8" font-family="Inter,Arial" font-size="14">real price</text></g>
      <g transform="translate(172 480)"><rect width="110" height="68" rx="18" fill="#ffffff" fill-opacity="0.08"/><text x="20" y="31" fill="#fff" font-family="Inter,Arial" font-size="17" font-weight="900">Proof</text><text x="20" y="53" fill="#9fb2c8" font-family="Inter,Arial" font-size="14">screenshot</text></g>
      <g transform="translate(304 480)"><rect width="136" height="68" rx="18" fill="#ffffff" fill-opacity="0.08"/><text x="20" y="31" fill="#fff" font-family="Inter,Arial" font-size="17" font-weight="900">Admin</text><text x="20" y="53" fill="#9fb2c8" font-family="Inter,Arial" font-size="14">approval</text></g>
    </g>

    <g transform="translate(800 240)">
      <rect width="560" height="230" rx="34" fill="#ffffff" fill-opacity="0.08" stroke="#ffffff" stroke-opacity="0.16"/>
      <text x="34" y="56" fill="#ffe7a3" font-family="Inter,Arial" font-size="18" font-weight="900" letter-spacing="3">PLAN CARDS</text>
      <g transform="translate(34 86)"><rect width="230" height="110" rx="24" fill="#081629" stroke="#72f6d1" stroke-opacity="0.42"/><text x="24" y="38" fill="#fff" font-family="Inter,Arial" font-size="22" font-weight="900">Basic</text><text x="24" y="76" fill="#72f6d1" font-family="Inter,Arial" font-size="30" font-weight="900">₹9,999</text></g>
      <g transform="translate(294 86)"><rect width="230" height="110" rx="24" fill="#081629" stroke="#ffe7a3" stroke-opacity="0.52"/><text x="24" y="38" fill="#fff" font-family="Inter,Arial" font-size="22" font-weight="900">Complete</text><text x="24" y="76" fill="#ffe7a3" font-family="Inter,Arial" font-size="30" font-weight="900">₹16,999</text></g>
    </g>

    <g transform="translate(800 510)">
      <rect width="560" height="305" rx="34" fill="#ffffff" fill-opacity="0.08" stroke="#ffffff" stroke-opacity="0.16"/>
      <text x="34" y="58" fill="#72f6d1" font-family="Inter,Arial" font-size="18" font-weight="900" letter-spacing="3">APPROVAL FLOW</text>
      <g fill="none" stroke="url(#accent)" stroke-width="8" stroke-linecap="round" stroke-linejoin="round"><path d="M86 150h110M238 150h110M390 150h80"/><path d="M188 132l24 18-24 18M340 132l24 18-24 18M460 132l24 18-24 18"/></g>
      <g transform="translate(38 106)"><rect width="120" height="96" rx="24" fill="#07101f"/><text x="28" y="42" fill="#fff" font-family="Inter,Arial" font-size="18" font-weight="900">Paid</text><text x="28" y="70" fill="#9fb2c8" font-family="Inter,Arial" font-size="14">proof</text></g>
      <g transform="translate(196 106)"><rect width="120" height="96" rx="24" fill="#07101f"/><text x="24" y="42" fill="#fff" font-family="Inter,Arial" font-size="18" font-weight="900">Admin</text><text x="24" y="70" fill="#9fb2c8" font-family="Inter,Arial" font-size="14">approve</text></g>
      <g transform="translate(354 106)"><rect width="120" height="96" rx="24" fill="#07101f"/><text x="32" y="42" fill="#fff" font-family="Inter,Arial" font-size="18" font-weight="900">Chat</text><text x="32" y="70" fill="#9fb2c8" font-family="Inter,Arial" font-size="14">unlocks</text></g>
      <rect x="54" y="240" width="452" height="20" rx="10" fill="#ffffff" opacity="0.08"/><rect x="54" y="240" width="322" height="20" rx="10" fill="url(#accent)" opacity="0.88"/>
    </g>
  </g>
</svg>
