<svg xmlns="http://www.w3.org/2000/svg" width="960" height="640" viewBox="0 0 960 640" role="img" aria-labelledby="title desc"><title id="title">Launch quality board</title><desc id="desc">A launch quality board showing homepage, assets, metadata, responsive layout, contact paths, and documentation checks.</desc><defs><linearGradient id="bg" x1="0" y1="0" x2="1" y2="1"><stop stop-color="#0a1220"/><stop offset="1" stop-color="#1c2844"/></linearGradient><linearGradient id="a" x1="0" y1="0" x2="1" y2="1"><stop stop-color="#78f7d4"/><stop offset="1" stop-color="#8db7ff"/></linearGradient></defs><rect width="960" height="640" rx="44" fill="url(#bg)"/><rect x="84" y="82" width="792" height="476" rx="42" fill="#101b2d" stroke="#fff" stroke-opacity=".12"/><rect x="128" y="130" width="704" height="64" rx="26" fill="#14243a"/><rect x="164" y="156" width="220" height="14" rx="7" fill="#fff" opacity=".86"/><g fill="#14243a" stroke="#fff" stroke-opacity=".08"><rect x="128" y="244" width="210" height="104" rx="28"/><rect x="376" y="244" width="210" height="104" rx="28"/><rect x="624" y="244" width="208" height="104" rx="28"/><rect x="128" y="386" width="210" height="104" rx="28"/><rect x="376" y="386" width="210" height="104" rx="28"/><rect x="624" y="386" width="208" height="104" rx="28"/></g><g fill="url(#a)"><circle cx="168" cy="278" r="14"/><circle cx="416" cy="278" r="14"/><circle cx="664" cy="278" r="14"/><circle cx="168" cy="420" r="14"/><circle cx="416" cy="420" r="14"/><circle cx="664" cy="420" r="14"/></g><g fill="#fff" opacity=".82"><rect x="198" y="268" width="92" height="12" rx="6"/><rect x="446" y="268" width="92" height="12" rx="6"/><rect x="694" y="268" width="92" height="12" rx="6"/><rect x="198" y="410" width="92" height="12" rx="6"/><rect x="446" y="410" width="92" height="12" rx="6"/><rect x="694" y="410" width="92" height="12" rx="6"/></g><g fill="#9fb3c8" opacity=".45"><rect x="198" y="300" width="104" height="10" rx="5"/><rect x="446" y="300" width="104" height="10" rx="5"/><rect x="694" y="300" width="104" height="10" rx="5"/><rect x="198" y="442" width="104" height="10" rx="5"/><rect x="446" y="442" width="104" height="10" rx="5"/><rect x="694" y="442" width="104" height="10" rx="5"/></g></svg>
