<svg xmlns="http://www.w3.org/2000/svg" width="960" height="640" viewBox="0 0 960 640" role="img" aria-labelledby="title desc">
<title id="title">Launch readiness checklist mockup</title><desc id="desc">A polished checklist board for responsive, asset, metadata, Appwrite, and ZIP integrity checks.</desc>
<defs><linearGradient id="bg" x1="0" y1="0" x2="1" y2="1"><stop stop-color="#08131d"/><stop offset="1" stop-color="#122a20"/></linearGradient><linearGradient id="ok" x1="0" y1="0" x2="1" y2="1"><stop stop-color="#7df7aa"/><stop offset="1" stop-color="#78f7d4"/></linearGradient><filter id="shadow" x="-20%" y="-20%" width="140%" height="140%"><feDropShadow dx="0" dy="18" stdDeviation="24" flood-color="#000" flood-opacity=".34"/></filter></defs>
<rect width="960" height="640" rx="42" fill="url(#bg)"/><circle cx="178" cy="124" r="132" fill="#7df7aa" opacity=".08"/><circle cx="792" cy="520" r="170" fill="#78f7d4" opacity=".08"/>
<rect x="150" y="82" width="660" height="476" rx="38" fill="#0d1d25" stroke="#fff" stroke-opacity=".12" filter="url(#shadow)"/>
<rect x="196" y="126" width="568" height="72" rx="24" fill="#132a35" stroke="#fff" stroke-opacity=".09"/><rect x="228" y="151" width="220" height="18" rx="9" fill="#f8fbff" opacity=".88"/><rect x="228" y="179" width="154" height="10" rx="5" fill="#9bb3c3" opacity=".55"/><rect x="664" y="148" width="62" height="28" rx="14" fill="url(#ok)"/>
<g font-family="Inter,Arial" font-size="17" fill="#dff8ef">
<g transform="translate(196 238)"><rect width="568" height="58" rx="20" fill="#102832"/><circle cx="34" cy="29" r="15" fill="url(#ok)"/><path d="M27 29l5 6 11-14" fill="none" stroke="#08131d" stroke-width="4" stroke-linecap="round"/><text x="66" y="36">Responsive layout checked</text></g>
<g transform="translate(196 314)"><rect width="568" height="58" rx="20" fill="#102832"/><circle cx="34" cy="29" r="15" fill="url(#ok)"/><path d="M27 29l5 6 11-14" fill="none" stroke="#08131d" stroke-width="4" stroke-linecap="round"/><text x="66" y="36">Local assets and anchors resolve</text></g>
<g transform="translate(196 390)"><rect width="568" height="58" rx="20" fill="#102832"/><circle cx="34" cy="29" r="15" fill="url(#ok)"/><path d="M27 29l5 6 11-14" fill="none" stroke="#08131d" stroke-width="4" stroke-linecap="round"/><text x="66" y="36">Metadata and Appwrite output ready</text></g>
<g transform="translate(196 466)"><rect width="568" height="58" rx="20" fill="#102832"/><circle cx="34" cy="29" r="15" fill="url(#ok)"/><path d="M27 29l5 6 11-14" fill="none" stroke="#08131d" stroke-width="4" stroke-linecap="round"/><text x="66" y="36">Reports and ZIP integrity included</text></g>
</g>
</svg>