<svg xmlns="http://www.w3.org/2000/svg" width="960" height="640" viewBox="0 0 960 640" role="img" aria-labelledby="title desc"><title id="title">Launch handoff vault</title><desc id="desc">A premium handoff vault showing source files, local assets, build output, reports, Appwrite notes, and final ZIP package.</desc><defs><linearGradient id="bg" x1="0" y1="0" x2="1" y2="1"><stop stop-color="#07111f"/><stop offset="1" stop-color="#1b2544"/></linearGradient><linearGradient id="a" x1="0" y1="0" x2="1" y2="1"><stop stop-color="#78f7d4"/><stop offset="1" stop-color="#8db7ff"/></linearGradient><filter id="s"><feDropShadow dx="0" dy="18" stdDeviation="24" flood-opacity=".3"/></filter></defs><rect width="960" height="640" rx="44" fill="url(#bg)"/><rect x="82" y="84" width="796" height="472" rx="42" fill="#0d1729" stroke="#fff" stroke-opacity=".12" filter="url(#s)"/><rect x="128" y="132" width="704" height="70" rx="28" fill="#13243a"/><rect x="166" y="160" width="230" height="14" rx="7" fill="#fff" opacity=".86"/><rect x="682" y="148" width="104" height="32" rx="16" fill="url(#a)"/><rect x="154" y="252" width="652" height="238" rx="38" fill="#14243a" stroke="#fff" stroke-opacity=".1"/><path d="M264 252v-44c0-50 42-88 98-88h236c56 0 98 38 98 88v44" fill="none" stroke="#78f7d4" stroke-width="14" stroke-linecap="round"/><g fill="#0d1729" stroke="#fff" stroke-opacity=".08"><rect x="190" y="294" width="132" height="82" rx="24"/><rect x="352" y="294" width="132" height="82" rx="24"/><rect x="514" y="294" width="132" height="82" rx="24"/><rect x="676" y="294" width="96" height="82" rx="24"/></g><g fill="url(#a)"><rect x="218" y="322" width="54" height="10" rx="5"/><rect x="380" y="322" width="54" height="10" rx="5"/><rect x="542" y="322" width="54" height="10" rx="5"/><rect x="704" y="322" width="34" height="10" rx="5"/></g><g fill="#fff" opacity=".82"><rect x="218" y="350" width="72" height="8" rx="4"/><rect x="380" y="350" width="72" height="8" rx="4"/><rect x="542" y="350" width="72" height="8" rx="4"/><rect x="704" y="350" width="42" height="8" rx="4"/></g><circle cx="480" cy="426" r="34" fill="url(#a)"/><path d="M466 426l10 10 20-26" fill="none" stroke="#07100d" stroke-width="7" stroke-linecap="round" stroke-linejoin="round"/></svg>
