<svg xmlns="http://www.w3.org/2000/svg" width="760" height="520" viewBox="0 0 760 520" role="img" aria-labelledby="title desc"><title id="title">Law firm trust structure dashboard</title><desc id="desc">Trust structure dashboard with response workflow, document handling, and consultation clarity cards.</desc><defs><linearGradient id="g" x1="0" y1="0" x2="1" y2="1"><stop stop-color="#c49a45"/><stop offset="1" stop-color="#f4d58d"/></linearGradient></defs><rect width="760" height="520" rx="36" fill="#07111f"/><text x="50" y="80" fill="#fff" font-family="Arial" font-size="30" font-weight="900">Trust System</text><text x="50" y="110" fill="#b9c3d1" font-family="Arial" font-size="15">Proof focused on process, responsiveness, and clarity — no outcome guarantees.</text><g transform="translate(50 158)"><rect width="300" height="250" rx="30" fill="#111f32" stroke="#ffffff"/><text x="28" y="58" fill="#fff" font-family="Arial" font-size="22" font-weight="900">Client intake clarity</text><text x="28" y="88" fill="#b9c3d1" font-family="Arial" font-size="14">Structured questions and document checklist</text><rect x="28" y="132" width="244" height="14" rx="7" fill="#314156"/><rect x="28" y="132" width="190" height="14" rx="7" fill="url(#g)"/><text x="28" y="200" fill="#f4d58d" font-family="Arial" font-size="44" font-weight="900">4</text><text x="88" y="195" fill="#fff" font-family="Arial" font-size="16">step consultation path</text></g><g transform="translate(382 158)"><rect width="328" height="250" rx="30" fill="#111f32" stroke="#ffffff"/><g transform="translate(28 34)"><circle cx="38" cy="38" r="38" fill="url(#g)"/><text x="94" y="32" fill="#fff" font-family="Arial" font-size="20" font-weight="900">Professional proof</text><text x="94" y="58" fill="#cbd5e1" font-family="Arial" font-size="13">Consultation expectations and next steps</text></g><g fill="#26374f"><rect x="28" y="136" width="272" height="18" rx="9"/><rect x="28" y="174" width="216" height="18" rx="9"/><rect x="28" y="212" width="248" height="18" rx="9"/></g></g></svg>
