<svg xmlns="http://www.w3.org/2000/svg" width="760" height="520" viewBox="0 0 760 520" role="img" aria-labelledby="title desc"><title id="title">Practice area card mockups</title><desc id="desc">Six professional legal practice area cards for business, contracts, property, employment, disputes, and advisory work.</desc><defs><linearGradient id="g" x1="0" y1="0" x2="1" y2="1"><stop stop-color="#c49a45"/><stop offset="1" stop-color="#f4d58d"/></linearGradient></defs><rect width="760" height="520" rx="36" fill="#07111f"/><text x="46" y="78" fill="#fff" font-family="Arial" font-size="30" font-weight="900">Practice Areas</text><text x="46" y="108" fill="#b9c3d1" font-family="Arial" font-size="15">Clear service paths for consultation-led enquiries.</text><g transform="translate(46 150)"><g fill="#101d2f" stroke="#fff" opacity=".98"><rect width="202" height="130" rx="24"/><rect x="232" width="202" height="130" rx="24"/><rect x="464" width="202" height="130" rx="24"/><rect y="158" width="202" height="130" rx="24"/><rect x="232" y="158" width="202" height="130" rx="24"/><rect x="464" y="158" width="202" height="130" rx="24"/></g><g font-family="Arial" font-weight="900"><text x="24" y="54" fill="#fff" font-size="19">Business</text><text x="256" y="54" fill="#fff" font-size="19">Contracts</text><text x="488" y="54" fill="#fff" font-size="19">Property</text><text x="24" y="212" fill="#fff" font-size="19">Employment</text><text x="256" y="212" fill="#fff" font-size="19">Disputes</text><text x="488" y="212" fill="#fff" font-size="19">Advisory</text></g><g fill="url(#g)"><circle cx="162" cy="82" r="20"/><circle cx="394" cy="82" r="20"/><circle cx="626" cy="82" r="20"/><circle cx="162" cy="240" r="20"/><circle cx="394" cy="240" r="20"/><circle cx="626" cy="240" r="20"/></g></g></svg>
