<svg xmlns="http://www.w3.org/2000/svg" width="760" height="520" viewBox="0 0 760 520" role="img" aria-labelledby="title desc"><title id="title">Legal enquiry plan mockups</title><desc id="desc">Three legal enquiry plan cards for consultation, document review, and ongoing advisory.</desc><defs><linearGradient id="g" x1="0" y1="0" x2="1" y2="1"><stop stop-color="#c49a45"/><stop offset="1" stop-color="#f4d58d"/></linearGradient></defs><rect width="760" height="520" rx="36" fill="#0a1524"/><text x="48" y="82" fill="#fff" font-family="Arial" font-size="30" font-weight="900">Enquiry Plans</text><text x="48" y="112" fill="#b9c3d1" font-family="Arial" font-size="15">Static plan cards for website presentation and consultation routing.</text><g transform="translate(48 160)"><g><rect width="196" height="276" rx="28" fill="#111f32" stroke="#ffffff"/><text x="26" y="50" fill="#f4d58d" font-family="Arial" font-size="13" font-weight="900">INTRO</text><text x="26" y="96" fill="#fff" font-family="Arial" font-size="27" font-weight="900">Consult</text><rect x="26" y="130" width="132" height="10" rx="5" fill="#314156"/><rect x="26" y="158" width="112" height="10" rx="5" fill="#314156"/><rect x="26" y="214" width="132" height="36" rx="18" fill="#c49a45"/></g><g transform="translate(222)"><rect width="196" height="276" rx="28" fill="url(#g)"/><text x="26" y="50" fill="#111827" font-family="Arial" font-size="13" font-weight="900">POPULAR</text><text x="26" y="96" fill="#111827" font-family="Arial" font-size="27" font-weight="900">Quality</text><rect x="26" y="130" width="132" height="10" rx="5" fill="#111827" opacity=".38"/><rect x="26" y="158" width="112" height="10" rx="5" fill="#111827" opacity=".38"/><rect x="26" y="214" width="132" height="36" rx="18" fill="#0a1524"/></g><g transform="translate(444)"><rect width="196" height="276" rx="28" fill="#111f32" stroke="#ffffff"/><text x="26" y="50" fill="#7dd3fc" font-family="Arial" font-size="13" font-weight="900">ONGOING</text><text x="26" y="96" fill="#fff" font-family="Arial" font-size="27" font-weight="900">Advisory</text><rect x="26" y="130" width="132" height="10" rx="5" fill="#314156"/><rect x="26" y="158" width="112" height="10" rx="5" fill="#314156"/><rect x="26" y="214" width="132" height="36" rx="18" fill="#7dd3fc"/></g></g></svg>
