<svg xmlns="http://www.w3.org/2000/svg" width="760" height="520" viewBox="0 0 760 520" role="img" aria-labelledby="title desc"><title id="title">Case-type card mockups</title><desc id="desc">Structured case-type cards with document checklists and consultation steps.</desc><defs><linearGradient id="g" x1="0" y1="0" x2="1" y2="1"><stop stop-color="#c49a45"/><stop offset="1" stop-color="#f4d58d"/></linearGradient></defs><rect width="760" height="520" rx="36" fill="#0a1524"/><circle cx="642" cy="86" r="132" fill="#c49a45" opacity=".12"/><text x="48" y="82" fill="#fff" font-family="Arial" font-size="30" font-weight="900">Matter-Type Cards</text><text x="48" y="112" fill="#b9c3d1" font-family="Arial" font-size="15">Useful for explaining what clients can ask about without giving legal advice.</text><g transform="translate(48 156)"><g><rect width="206" height="250" rx="28" fill="#111f32" stroke="#ffffff"/><text x="28" y="54" fill="#f4d58d" font-family="Arial" font-size="13" font-weight="900">QUALITY</text><text x="28" y="92" fill="#fff" font-family="Arial" font-size="24" font-weight="900">Contract</text><rect x="28" y="132" width="140" height="10" rx="5" fill="#33445b"/><rect x="28" y="158" width="110" height="10" rx="5" fill="#33445b"/><rect x="28" y="206" width="126" height="34" rx="17" fill="url(#g)"/></g><g transform="translate(232)"><rect width="206" height="250" rx="28" fill="#111f32" stroke="#ffffff"/><text x="28" y="54" fill="#f4d58d" font-family="Arial" font-size="13" font-weight="900">GUIDE</text><text x="28" y="92" fill="#fff" font-family="Arial" font-size="24" font-weight="900">Business</text><rect x="28" y="132" width="140" height="10" rx="5" fill="#33445b"/><rect x="28" y="158" width="110" height="10" rx="5" fill="#33445b"/><rect x="28" y="206" width="126" height="34" rx="17" fill="#7dd3fc"/></g><g transform="translate(464)"><rect width="206" height="250" rx="28" fill="#111f32" stroke="#ffffff"/><text x="28" y="54" fill="#f4d58d" font-family="Arial" font-size="13" font-weight="900">PLAN</text><text x="28" y="92" fill="#fff" font-family="Arial" font-size="24" font-weight="900">Dispute</text><rect x="28" y="132" width="140" height="10" rx="5" fill="#33445b"/><rect x="28" y="158" width="110" height="10" rx="5" fill="#33445b"/><rect x="28" y="206" width="126" height="34" rx="17" fill="#c49a45"/></g></g></svg>
