<svg xmlns="http://www.w3.org/2000/svg" viewBox="0 0 760 520" role="img" aria-labelledby="title desc">
  <title id="title">Mobile polish preview</title>
  <desc id="desc">A responsive mobile website preview with polished cards, buttons, and contact actions.</desc>
  <defs>
    <linearGradient id="bg" x1="0" y1="0" x2="1" y2="1"><stop offset="0" stop-color="#0b1018"/><stop offset="1" stop-color="#111827"/></linearGradient>
    <linearGradient id="phone" x1="0" y1="0" x2="1" y2="1"><stop offset="0" stop-color="#20263a"/><stop offset="1" stop-color="#0c0f17"/></linearGradient>
    <linearGradient id="cta" x1="0" y1="0" x2="1" y2="1"><stop offset="0" stop-color="#67E8F9"/><stop offset="1" stop-color="#C084FC"/></linearGradient>
    <filter id="shadow" x="-20%" y="-20%" width="140%" height="140%"><feDropShadow dx="0" dy="22" stdDeviation="24" flood-color="#000" flood-opacity=".38"/></filter>
  </defs>
  <rect width="760" height="520" rx="38" fill="url(#bg)"/>
  <path d="M84 86c93 44 174 35 246-26M492 472c-56-88-35-168 64-238" fill="none" stroke="#fff" stroke-opacity=".07" stroke-width="22" stroke-linecap="round"/>
  <g filter="url(#shadow)">
    <rect x="242" y="42" width="276" height="436" rx="44" fill="url(#phone)" stroke="#fff" stroke-opacity=".16"/>
    <rect x="265" y="72" width="230" height="376" rx="30" fill="#090d14"/>
    <rect x="300" y="90" width="160" height="11" rx="6" fill="#fff" opacity=".12"/>
    <rect x="284" y="126" width="192" height="68" rx="22" fill="#121827"/>
    <text x="304" y="153" fill="#F6F7FB" font-family="Inter,Arial,sans-serif" font-size="18" font-weight="900">Premium site</text>
    <text x="304" y="174" fill="#9AA6C7" font-family="Inter,Arial,sans-serif" font-size="11">Clear services. Fast contact.</text>
    <rect x="304" y="210" width="152" height="38" rx="19" fill="url(#cta)"/>
    <text x="337" y="234" fill="#081018" font-family="Inter,Arial,sans-serif" font-size="12" font-weight="900">Start project</text>
    <g>
      <rect x="284" y="270" width="82" height="78" rx="18" fill="#111827" stroke="#67E8F9" stroke-opacity=".18"/>
      <rect x="394" y="270" width="82" height="78" rx="18" fill="#111827" stroke="#C084FC" stroke-opacity=".18"/>
      <rect x="284" y="366" width="192" height="48" rx="18" fill="#111827" stroke="#fff" stroke-opacity=".08"/>
      <circle cx="315" cy="306" r="17" fill="#67E8F9" opacity=".75"/>
      <circle cx="425" cy="306" r="17" fill="#C084FC" opacity=".75"/>
      <rect x="306" y="381" width="90" height="8" rx="4" fill="#fff" opacity=".7"/>
      <rect x="306" y="397" width="132" height="8" rx="4" fill="#fff" opacity=".16"/>
    </g>
  </g>
  <g font-family="Inter,Arial,sans-serif" font-size="15" fill="#DDE3F7">
    <rect x="82" y="142" width="154" height="54" rx="19" fill="#141B2B" stroke="#fff" stroke-opacity=".09"/>
    <text x="108" y="176" font-weight="800">Tap-friendly CTA</text>
    <rect x="524" y="166" width="152" height="54" rx="19" fill="#141B2B" stroke="#fff" stroke-opacity=".09"/>
    <text x="548" y="200" font-weight="800">Readable mobile</text>
    <rect x="96" y="328" width="150" height="54" rx="19" fill="#141B2B" stroke="#fff" stroke-opacity=".09"/>
    <text x="123" y="362" font-weight="800">Clear sections</text>
    <rect x="512" y="334" width="166" height="54" rx="19" fill="#141B2B" stroke="#fff" stroke-opacity=".09"/>
    <text x="538" y="368" font-weight="800">Fast handoff</text>
  </g>
</svg>
