<svg xmlns="http://www.w3.org/2000/svg" width="720" height="420" viewBox="0 0 720 420" role="img" aria-labelledby="title desc"><title id="title">Mobile tap zones preview</title><desc id="desc">A mobile website preview showing large tap targets, sticky quick actions, and readable stacked sections.</desc><defs><linearGradient id="bg" x1="0" y1="0" x2="1" y2="1"><stop stop-color="#0a1220"/><stop offset="1" stop-color="#1c2844"/></linearGradient><linearGradient id="a" x1="0" y1="0" x2="1" y2="1"><stop stop-color="#78f7d4"/><stop offset="1" stop-color="#8db7ff"/></linearGradient></defs><rect width="720" height="420" rx="36" fill="url(#bg)"/><rect x="224" y="34" width="272" height="352" rx="46" fill="#101b2d" stroke="#fff" stroke-opacity=".14"/><rect x="252" y="70" width="216" height="54" rx="22" fill="#14243a"/><rect x="278" y="88" width="96" height="12" rx="6" fill="#fff" opacity=".82"/><rect x="390" y="84" width="48" height="20" rx="10" fill="url(#a)"/><rect x="252" y="148" width="216" height="70" rx="24" fill="#14243a" stroke="#fff" stroke-opacity=".1"/><rect x="280" y="170" width="132" height="12" rx="6" fill="#fff" opacity=".78"/><rect x="280" y="194" width="94" height="9" rx="5" fill="#9fb3c8" opacity=".45"/><rect x="252" y="238" width="216" height="46" rx="20" fill="url(#a)"/><rect x="252" y="300" width="216" height="46" rx="20" fill="#14243a" stroke="#fff" stroke-opacity=".1"/><g fill="#07100d" opacity=".9"><rect x="308" y="256" width="104" height="8" rx="4"/></g><g fill="#fff" opacity=".8"><rect x="310" y="318" width="100" height="8" rx="4"/></g><circle cx="236" cy="261" r="24" fill="none" stroke="#78f7d4" stroke-width="5"/><circle cx="484" cy="323" r="24" fill="none" stroke="#8db7ff" stroke-width="5"/><path d="M134 260h78M508 324h78" stroke="#78f7d4" stroke-width="5" stroke-linecap="round"/><rect x="72" y="238" width="92" height="44" rx="18" fill="#101b2d" stroke="#fff" stroke-opacity=".1"/><rect x="556" y="302" width="92" height="44" rx="18" fill="#101b2d" stroke="#fff" stroke-opacity=".1"/><g fill="#fff" opacity=".78"><rect x="94" y="255" width="48" height="8" rx="4"/><rect x="578" y="319" width="48" height="8" rx="4"/></g></svg>
