<svg xmlns="http://www.w3.org/2000/svg" width="720" height="420" viewBox="0 0 720 420" role="img" aria-labelledby="title desc"><title id="title">Mobile hero route mockup</title><desc id="desc">A phone-first routing board showing quick paths from homepage hero to packages, fit check, brief, and contact.</desc><defs><linearGradient id="bg" x1="0" y1="0" x2="1" y2="1"><stop stop-color="#07111f"/><stop offset="1" stop-color="#1a2742"/></linearGradient><linearGradient id="a" x1="0" y1="0" x2="1" y2="1"><stop stop-color="#78f7d4"/><stop offset="1" stop-color="#8db7ff"/></linearGradient></defs><rect width="720" height="420" rx="36" fill="url(#bg)"/><rect x="78" y="46" width="220" height="328" rx="38" fill="#101b2d" stroke="#fff" stroke-opacity=".14"/><rect x="112" y="86" width="152" height="18" rx="9" fill="#fff" opacity=".86"/><rect x="112" y="124" width="118" height="10" rx="5" fill="#9fb3c8" opacity=".46"/><rect x="112" y="162" width="152" height="44" rx="18" fill="url(#a)"/><rect x="112" y="226" width="152" height="44" rx="18" fill="#14243a" stroke="#fff" stroke-opacity=".1"/><rect x="112" y="290" width="152" height="44" rx="18" fill="#14243a" stroke="#fff" stroke-opacity=".1"/><g fill="#fff" opacity=".82"><rect x="140" y="178" width="96" height="8" rx="4"/><rect x="140" y="242" width="90" height="8" rx="4"/><rect x="140" y="306" width="84" height="8" rx="4"/></g><rect x="360" y="74" width="276" height="78" rx="26" fill="#101b2d" stroke="#fff" stroke-opacity=".12"/><rect x="360" y="172" width="276" height="78" rx="26" fill="#101b2d" stroke="#fff" stroke-opacity=".12"/><rect x="360" y="270" width="276" height="78" rx="26" fill="#101b2d" stroke="#fff" stroke-opacity=".12"/><path d="M300 184c58 0 34-70 60-70M300 248h60M300 312c58 0 34-4 60-4" fill="none" stroke="#78f7d4" stroke-width="6" stroke-linecap="round"/><g fill="#fff" opacity=".86"><rect x="396" y="96" width="142" height="14" rx="7"/><rect x="396" y="194" width="154" height="14" rx="7"/><rect x="396" y="292" width="118" height="14" rx="7"/></g><g fill="#9fb3c8" opacity=".45"><rect x="396" y="122" width="202" height="10" rx="5"/><rect x="396" y="220" width="176" height="10" rx="5"/><rect x="396" y="318" width="190" height="10" rx="5"/></g></svg>
