<svg xmlns="http://www.w3.org/2000/svg" width="960" height="640" viewBox="0 0 960 640" role="img" aria-labelledby="title desc"><title id="title">Navigation priority map mockup</title><desc id="desc">A premium navigation priority map showing key header links and the command menu for deeper sections.</desc><defs><linearGradient id="bg" x1="0" y1="0" x2="1" y2="1"><stop stop-color="#07111f"/><stop offset="1" stop-color="#1b2544"/></linearGradient><linearGradient id="a" x1="0" y1="0" x2="1" y2="1"><stop stop-color="#78f7d4"/><stop offset="1" stop-color="#8db7ff"/></linearGradient><filter id="s"><feDropShadow dx="0" dy="18" stdDeviation="22" flood-opacity=".34"/></filter></defs><rect width="960" height="640" rx="42" fill="url(#bg)"/><rect x="88" y="96" width="784" height="448" rx="40" fill="#0d1729" stroke="#fff" stroke-opacity=".12" filter="url(#s)"/><rect x="132" y="142" width="696" height="72" rx="28" fill="#14243a"/><circle cx="174" cy="178" r="18" fill="url(#a)"/><rect x="224" y="166" width="72" height="14" rx="7" fill="#fff" opacity=".88"/><rect x="322" y="166" width="66" height="14" rx="7" fill="#fff" opacity=".72"/><rect x="414" y="166" width="82" height="14" rx="7" fill="#fff" opacity=".72"/><rect x="522" y="166" width="80" height="14" rx="7" fill="#fff" opacity=".72"/><rect x="628" y="158" width="146" height="30" rx="15" fill="url(#a)"/><text x="480" y="280" text-anchor="middle" fill="#fff" font-family="Inter,Arial" font-size="32" font-weight="850">Primary header stays focused</text><text x="480" y="316" text-anchor="middle" fill="#9fb3c8" font-family="Inter,Arial" font-size="18">Full navigation moves into Quick Menu and mobile panel.</text><g font-family="Inter,Arial" fill="#fff"><rect x="214" y="376" width="154" height="60" rx="22" fill="#13243a"/><text x="291" y="413" text-anchor="middle" font-size="16" font-weight="800">Work</text><rect x="404" y="376" width="154" height="60" rx="22" fill="#13243a"/><text x="481" y="413" text-anchor="middle" font-size="16" font-weight="800">Packages</text><rect x="594" y="376" width="154" height="60" rx="22" fill="#13243a"/><text x="671" y="413" text-anchor="middle" font-size="16" font-weight="800">Contact</text></g></svg>