<svg xmlns="http://www.w3.org/2000/svg" viewBox="0 0 720 500" role="img" aria-labelledby="title desc">
  <title id="title">Product UI package mockup</title><desc id="desc">A product interface package preview with dashboard panels, app screens, and feature modules.</desc>
  <defs><linearGradient id="bg" x1="0" y1="0" x2="1" y2="1"><stop offset="0" stop-color="#120F2D"/><stop offset="1" stop-color="#07111A"/></linearGradient><linearGradient id="a" x1="0" y1="0" x2="1" y2="1"><stop offset="0" stop-color="#C084FC"/><stop offset="1" stop-color="#22D3EE"/></linearGradient><filter id="s" x="-20%" y="-20%" width="140%" height="140%"><feDropShadow dx="0" dy="20" stdDeviation="22" flood-color="#000" flood-opacity=".38"/></filter></defs>
  <rect width="720" height="500" rx="36" fill="url(#bg)"/><circle cx="600" cy="95" r="92" fill="#C084FC" opacity=".13"/><circle cx="145" cy="392" r="110" fill="#22D3EE" opacity=".1"/>
  <g filter="url(#s)"><rect x="72" y="72" width="576" height="350" rx="32" fill="#0D1220" stroke="#fff" stroke-opacity=".12"/><rect x="104" y="104" width="112" height="286" rx="24" fill="#111A2A"/><rect x="244" y="104" width="372" height="74" rx="24" fill="#111A2A"/><rect x="244" y="206" width="176" height="184" rx="24" fill="#111A2A"/><rect x="444" y="206" width="172" height="184" rx="24" fill="#111A2A"/><rect x="126" y="130" width="64" height="12" rx="6" fill="#fff" opacity=".72"/><rect x="126" y="168" width="54" height="9" rx="5" fill="#fff" opacity=".22"/><rect x="126" y="196" width="72" height="9" rx="5" fill="#fff" opacity=".16"/><rect x="126" y="224" width="48" height="9" rx="5" fill="#fff" opacity=".16"/><rect x="274" y="132" width="162" height="18" rx="9" fill="#fff" opacity=".8"/><rect x="274" y="226" width="78" height="78" rx="22" fill="url(#a)" opacity=".8"/><rect x="472" y="238" width="112" height="18" rx="9" fill="#fff" opacity=".65"/><path d="M472 325h24l26-38 28 20 38-58" fill="none" stroke="url(#a)" stroke-width="8" stroke-linecap="round" stroke-linejoin="round"/></g><text x="92" y="462" fill="#D8B4FE" font-family="Inter,Arial" font-size="18" font-weight="800">Product UI · dashboards, tools, app screens</text>
</svg>
