<svg xmlns="http://www.w3.org/2000/svg" viewBox="0 0 720 500" role="img" aria-labelledby="title desc">
  <title id="title">Business website package mockup</title><desc id="desc">A multi-section business website package preview with service cards, proof panels, and conversion flow.</desc>
  <defs><linearGradient id="bg" x1="0" y1="0" x2="1" y2="1"><stop offset="0" stop-color="#21170F"/><stop offset="1" stop-color="#0B0C12"/></linearGradient><linearGradient id="a" x1="0" y1="0" x2="1" y2="1"><stop offset="0" stop-color="#F9C784"/><stop offset="1" stop-color="#FB7185"/></linearGradient><filter id="s" x="-20%" y="-20%" width="140%" height="140%"><feDropShadow dx="0" dy="20" stdDeviation="22" flood-color="#000" flood-opacity=".36"/></filter></defs>
  <rect width="720" height="500" rx="36" fill="url(#bg)"/><path d="M70 120c130-70 262-70 396 0s205 66 246-10" fill="none" stroke="#F9C784" stroke-opacity=".14" stroke-width="26" stroke-linecap="round"/>
  <g filter="url(#s)"><rect x="74" y="78" width="572" height="344" rx="30" fill="#121016" stroke="#fff" stroke-opacity=".12"/><rect x="108" y="112" width="182" height="24" rx="12" fill="#fff" opacity=".88"/><rect x="108" y="154" width="298" height="12" rx="6" fill="#fff" opacity=".22"/><rect x="108" y="176" width="232" height="12" rx="6" fill="#fff" opacity=".14"/><rect x="464" y="114" width="130" height="48" rx="24" fill="url(#a)"/><rect x="108" y="226" width="140" height="108" rx="22" fill="#1E1820"/><rect x="288" y="226" width="140" height="108" rx="22" fill="#1E1820"/><rect x="468" y="226" width="126" height="108" rx="22" fill="#1E1820"/><circle cx="146" cy="260" r="18" fill="url(#a)" opacity=".86"/><circle cx="326" cy="260" r="18" fill="url(#a)" opacity=".86"/><circle cx="506" cy="260" r="18" fill="url(#a)" opacity=".86"/><rect x="108" y="366" width="486" height="28" rx="14" fill="#fff" opacity=".1"/><rect x="108" y="366" width="278" height="28" rx="14" fill="url(#a)" opacity=".72"/></g><text x="92" y="462" fill="#FAD7A0" font-family="Inter,Arial" font-size="18" font-weight="800">Business website · services, proof, conversion</text>
</svg>
