<svg xmlns="http://www.w3.org/2000/svg" width="960" height="640" viewBox="0 0 960 640" role="img" aria-labelledby="title desc"><title id="title">Package decision matrix</title><desc id="desc">A premium comparison matrix showing starter, business, and product UI package directions mapped to goals, outputs, and project fit.</desc><defs><linearGradient id="bg" x1="0" y1="0" x2="1" y2="1"><stop stop-color="#07111f"/><stop offset="1" stop-color="#1b2544"/></linearGradient><linearGradient id="a" x1="0" y1="0" x2="1" y2="1"><stop stop-color="#78f7d4"/><stop offset="1" stop-color="#8db7ff"/></linearGradient><filter id="s"><feDropShadow dx="0" dy="18" stdDeviation="24" flood-opacity=".3"/></filter></defs><rect width="960" height="640" rx="44" fill="url(#bg)"/><rect x="70" y="78" width="820" height="484" rx="40" fill="#0d1729" stroke="#fff" stroke-opacity=".12" filter="url(#s)"/><rect x="112" y="118" width="736" height="68" rx="26" fill="#13243a"/><rect x="146" y="146" width="230" height="14" rx="7" fill="#fff" opacity=".86"/><rect x="680" y="136" width="122" height="32" rx="16" fill="url(#a)"/><g fill="#13243a" stroke="#fff" stroke-opacity=".08"><rect x="112" y="230" width="218" height="236" rx="30"/><rect x="370" y="230" width="218" height="236" rx="30"/><rect x="630" y="230" width="218" height="236" rx="30"/></g><g fill="url(#a)"><rect x="148" y="264" width="90" height="12" rx="6"/><rect x="406" y="264" width="100" height="12" rx="6"/><rect x="666" y="264" width="104" height="12" rx="6"/></g><g fill="#fff" opacity=".82"><rect x="148" y="306" width="124" height="12" rx="6"/><rect x="148" y="344" width="146" height="12" rx="6"/><rect x="148" y="382" width="110" height="12" rx="6"/><rect x="406" y="306" width="126" height="12" rx="6"/><rect x="406" y="344" width="146" height="12" rx="6"/><rect x="406" y="382" width="132" height="12" rx="6"/><rect x="666" y="306" width="120" height="12" rx="6"/><rect x="666" y="344" width="146" height="12" rx="6"/><rect x="666" y="382" width="122" height="12" rx="6"/></g><g fill="#9fb3c8" opacity=".48"><rect x="148" y="424" width="86" height="10" rx="5"/><rect x="406" y="424" width="102" height="10" rx="5"/><rect x="666" y="424" width="90" height="10" rx="5"/></g><path d="M218 510h524" stroke="#78f7d4" stroke-width="6" stroke-linecap="round" opacity=".75"/><circle cx="218" cy="510" r="12" fill="#78f7d4"/><circle cx="480" cy="510" r="12" fill="#8db7ff"/><circle cx="742" cy="510" r="12" fill="#78f7d4"/></svg>
