<svg xmlns="http://www.w3.org/2000/svg" width="960" height="640" viewBox="0 0 960 640" role="img" aria-labelledby="title desc"><title id="title">Package brief routing visual</title><desc id="desc">A visual routing board showing how a project brief turns into recommended scope, pages, visuals, checks, and handoff.</desc><defs><linearGradient id="bg" x1="0" y1="0" x2="1" y2="1"><stop stop-color="#0a1220"/><stop offset="1" stop-color="#1c2844"/></linearGradient><linearGradient id="a" x1="0" y1="0" x2="1" y2="1"><stop stop-color="#78f7d4"/><stop offset="1" stop-color="#8db7ff"/></linearGradient></defs><rect width="960" height="640" rx="44" fill="url(#bg)"/><rect x="82" y="84" width="796" height="472" rx="42" fill="#101b2d" stroke="#fff" stroke-opacity=".12"/><rect x="124" y="142" width="190" height="120" rx="30" fill="#14243a"/><rect x="386" y="142" width="190" height="120" rx="30" fill="#14243a"/><rect x="648" y="142" width="190" height="120" rx="30" fill="#14243a"/><rect x="124" y="366" width="714" height="104" rx="32" fill="#14243a"/><path d="M314 202h72M576 202h72M482 262v104" stroke="#78f7d4" stroke-width="7" stroke-linecap="round"/><g fill="url(#a)"><rect x="158" y="174" width="82" height="12" rx="6"/><rect x="420" y="174" width="82" height="12" rx="6"/><rect x="682" y="174" width="82" height="12" rx="6"/></g><g fill="#fff" opacity=".82"><rect x="158" y="210" width="118" height="10" rx="5"/><rect x="158" y="234" width="88" height="10" rx="5"/><rect x="420" y="210" width="118" height="10" rx="5"/><rect x="420" y="234" width="96" height="10" rx="5"/><rect x="682" y="210" width="118" height="10" rx="5"/><rect x="682" y="234" width="90" height="10" rx="5"/><rect x="166" y="402" width="144" height="12" rx="6"/><rect x="356" y="402" width="144" height="12" rx="6"/><rect x="546" y="402" width="144" height="12" rx="6"/><rect x="166" y="434" width="116" height="10" rx="5"/><rect x="356" y="434" width="104" height="10" rx="5"/><rect x="546" y="434" width="112" height="10" rx="5"/></g><rect x="708" y="394" width="84" height="36" rx="18" fill="url(#a)"/></svg>
