<svg xmlns="http://www.w3.org/2000/svg" viewBox="0 0 720 500" role="img" aria-labelledby="title desc">
  <title id="title">Starter website package mockup</title><desc id="desc">A compact landing page package preview with hero, services, and contact sections.</desc>
  <defs><linearGradient id="bg" x1="0" y1="0" x2="1" y2="1"><stop offset="0" stop-color="#111827"/><stop offset="1" stop-color="#07111f"/></linearGradient><linearGradient id="a" x1="0" y1="0" x2="1" y2="1"><stop offset="0" stop-color="#67E8F9"/><stop offset="1" stop-color="#A7F3D0"/></linearGradient><filter id="s" x="-20%" y="-20%" width="140%" height="140%"><feDropShadow dx="0" dy="20" stdDeviation="22" flood-color="#000" flood-opacity=".34"/></filter></defs>
  <rect width="720" height="500" rx="36" fill="url(#bg)"/><circle cx="580" cy="88" r="90" fill="#67E8F9" opacity=".1"/><circle cx="100" cy="410" r="110" fill="#A7F3D0" opacity=".08"/>
  <g filter="url(#s)"><rect x="88" y="78" width="544" height="344" rx="28" fill="#0D1321" stroke="#fff" stroke-opacity=".12"/><rect x="120" y="112" width="120" height="18" rx="9" fill="url(#a)"/><rect x="120" y="154" width="250" height="20" rx="10" fill="#fff" opacity=".8"/><rect x="120" y="188" width="320" height="10" rx="5" fill="#fff" opacity=".22"/><rect x="120" y="208" width="260" height="10" rx="5" fill="#fff" opacity=".13"/><rect x="120" y="254" width="112" height="44" rx="22" fill="url(#a)"/><rect x="252" y="254" width="112" height="44" rx="22" fill="#121A2B" stroke="#fff" stroke-opacity=".14"/><rect x="460" y="132" width="126" height="168" rx="24" fill="#152032"/><rect x="482" y="162" width="82" height="62" rx="18" fill="url(#a)" opacity=".75"/><rect x="482" y="244" width="82" height="10" rx="5" fill="#fff" opacity=".55"/><rect x="482" y="264" width="54" height="10" rx="5" fill="#fff" opacity=".2"/><rect x="120" y="334" width="132" height="50" rx="18" fill="#121A2B"/><rect x="294" y="334" width="132" height="50" rx="18" fill="#121A2B"/><rect x="468" y="334" width="118" height="50" rx="18" fill="#121A2B"/></g><text x="106" y="462" fill="#C7D2FE" font-family="Inter,Arial" font-size="18" font-weight="800">Starter presence · focused one-page site</text>
</svg>
