<svg xmlns="http://www.w3.org/2000/svg" width="960" height="640" viewBox="0 0 960 640" role="img" aria-labelledby="title desc">
<title id="title">Performance dashboard mockup</title><desc id="desc">A premium website performance dashboard with checks for assets, layout, metadata, and build output.</desc>
<defs><linearGradient id="bg" x1="0" y1="0" x2="1" y2="1"><stop stop-color="#07111f"/><stop offset="1" stop-color="#142a3e"/></linearGradient><linearGradient id="card" x1="0" y1="0" x2="1" y2="1"><stop stop-color="#12243a"/><stop offset="1" stop-color="#0b1728"/></linearGradient><linearGradient id="accent" x1="0" y1="0" x2="1" y2="1"><stop stop-color="#78f7d4"/><stop offset="1" stop-color="#8db7ff"/></linearGradient><filter id="shadow" x="-20%" y="-20%" width="140%" height="140%"><feDropShadow dx="0" dy="18" stdDeviation="22" flood-color="#000" flood-opacity=".35"/></filter></defs>
<rect width="960" height="640" rx="42" fill="url(#bg)"/><circle cx="800" cy="90" r="190" fill="#2ed3ff" opacity=".10"/><circle cx="120" cy="560" r="210" fill="#78f7d4" opacity=".08"/>
<rect x="72" y="70" width="816" height="500" rx="34" fill="#091421" stroke="#ffffff" stroke-opacity=".12" filter="url(#shadow)"/>
<rect x="104" y="104" width="752" height="72" rx="24" fill="url(#card)" stroke="#ffffff" stroke-opacity=".10"/>
<circle cx="142" cy="140" r="10" fill="#78f7d4"/><circle cx="174" cy="140" r="10" fill="#ffd166"/><circle cx="206" cy="140" r="10" fill="#ff6b8a"/>
<rect x="255" y="126" width="300" height="14" rx="7" fill="#eaf7ff" opacity=".86"/><rect x="255" y="149" width="202" height="9" rx="4.5" fill="#86a8c2" opacity=".55"/>
<g transform="translate(104 214)"><rect width="220" height="300" rx="28" fill="url(#card)" stroke="#ffffff" stroke-opacity=".10"/><path d="M54 210 A70 70 0 1 1 166 210" fill="none" stroke="#1e3855" stroke-width="22" stroke-linecap="round"/><path d="M54 210 A70 70 0 0 1 154 147" fill="none" stroke="url(#accent)" stroke-width="22" stroke-linecap="round"/><text x="110" y="190" text-anchor="middle" fill="#f8fbff" font-family="Inter,Arial" font-size="46" font-weight="800">94</text><text x="110" y="232" text-anchor="middle" fill="#9fb6c9" font-family="Inter,Arial" font-size="18">static score</text><rect x="34" y="48" width="152" height="16" rx="8" fill="#f8fbff" opacity=".88"/><rect x="34" y="78" width="118" height="10" rx="5" fill="#9fb6c9" opacity=".55"/></g>
<g transform="translate(356 214)"><rect width="500" height="72" rx="22" fill="#12243a" stroke="#ffffff" stroke-opacity=".10"/><rect x="26" y="24" width="26" height="26" rx="13" fill="#78f7d4"/><path d="M34 37l6 6 13-16" fill="none" stroke="#07111f" stroke-width="4" stroke-linecap="round"/><rect x="72" y="22" width="190" height="14" rx="7" fill="#f8fbff" opacity=".86"/><rect x="72" y="45" width="328" height="9" rx="4.5" fill="#9fb6c9" opacity=".50"/></g>
<g transform="translate(356 318)"><rect width="500" height="72" rx="22" fill="#12243a" stroke="#ffffff" stroke-opacity=".10"/><rect x="26" y="24" width="26" height="26" rx="13" fill="#8db7ff"/><path d="M34 37l6 6 13-16" fill="none" stroke="#07111f" stroke-width="4" stroke-linecap="round"/><rect x="72" y="22" width="150" height="14" rx="7" fill="#f8fbff" opacity=".86"/><rect x="72" y="45" width="360" height="9" rx="4.5" fill="#9fb6c9" opacity=".50"/></g>
<g transform="translate(356 422)"><rect width="500" height="92" rx="22" fill="#12243a" stroke="#ffffff" stroke-opacity=".10"/><rect x="26" y="34" width="26" height="26" rx="13" fill="#ffd166"/><path d="M34 47l6 6 13-16" fill="none" stroke="#07111f" stroke-width="4" stroke-linecap="round"/><rect x="72" y="28" width="230" height="14" rx="7" fill="#f8fbff" opacity=".86"/><rect x="72" y="54" width="386" height="9" rx="4.5" fill="#9fb6c9" opacity=".50"/><rect x="72" y="70" width="270" height="9" rx="4.5" fill="#9fb6c9" opacity=".32"/></g>
</svg>