<svg xmlns="http://www.w3.org/2000/svg" width="960" height="640" viewBox="0 0 960 640" role="img" aria-labelledby="title desc"><title id="title">Static performance quality scoreboard</title><desc id="desc">A practical quality scoreboard showing static build, local assets, metadata, responsive checks, and Appwrite readiness without fake scores.</desc><defs><linearGradient id="bg" x1="0" y1="0" x2="1" y2="1"><stop stop-color="#07111f"/><stop offset="1" stop-color="#1b2544"/></linearGradient><linearGradient id="a" x1="0" y1="0" x2="1" y2="1"><stop stop-color="#78f7d4"/><stop offset="1" stop-color="#8db7ff"/></linearGradient><filter id="s"><feDropShadow dx="0" dy="18" stdDeviation="24" flood-opacity=".3"/></filter></defs><rect width="960" height="640" rx="44" fill="url(#bg)"/><rect x="74" y="76" width="812" height="488" rx="42" fill="#0d1729" stroke="#fff" stroke-opacity=".12" filter="url(#s)"/><rect x="118" y="116" width="724" height="72" rx="28" fill="#13243a"/><rect x="156" y="146" width="232" height="14" rx="7" fill="#fff" opacity=".86"/><rect x="668" y="134" width="128" height="34" rx="17" fill="url(#a)"/><g fill="#13243a" stroke="#fff" stroke-opacity=".08"><rect x="118" y="234" width="162" height="190" rx="30"/><rect x="308" y="234" width="162" height="190" rx="30"/><rect x="498" y="234" width="162" height="190" rx="30"/><rect x="688" y="234" width="154" height="190" rx="30"/></g><g fill="url(#a)"><circle cx="199" cy="306" r="34"/><circle cx="389" cy="306" r="34"/><circle cx="579" cy="306" r="34"/><circle cx="765" cy="306" r="34"/></g><g fill="#07100d" font-family="Arial, sans-serif" font-size="26" font-weight="800" text-anchor="middle"><text x="199" y="316">✓</text><text x="389" y="316">✓</text><text x="579" y="316">✓</text><text x="765" y="316">✓</text></g><g fill="#fff" opacity=".82"><rect x="154" y="364" width="92" height="12" rx="6"/><rect x="344" y="364" width="92" height="12" rx="6"/><rect x="534" y="364" width="92" height="12" rx="6"/><rect x="724" y="364" width="78" height="12" rx="6"/></g><g fill="#9fb3c8" opacity=".45"><rect x="150" y="392" width="100" height="10" rx="5"/><rect x="340" y="392" width="100" height="10" rx="5"/><rect x="530" y="392" width="100" height="10" rx="5"/><rect x="720" y="392" width="88" height="10" rx="5"/></g><rect x="118" y="466" width="724" height="54" rx="24" fill="#13243a"/><path d="M158 493h636" stroke="url(#a)" stroke-width="9" stroke-linecap="round"/></svg>
