<svg xmlns="http://www.w3.org/2000/svg" width="960" height="640" viewBox="0 0 960 640" role="img" aria-labelledby="title desc"><title id="title">Process handoff sequence</title><desc id="desc">A handoff sequence showing source files, build output, reports, Appwrite notes, and final ZIP packaging.</desc><defs><linearGradient id="bg" x1="0" y1="0" x2="1" y2="1"><stop stop-color="#0a1220"/><stop offset="1" stop-color="#1c2844"/></linearGradient><linearGradient id="a" x1="0" y1="0" x2="1" y2="1"><stop stop-color="#78f7d4"/><stop offset="1" stop-color="#8db7ff"/></linearGradient></defs><rect width="960" height="640" rx="44" fill="url(#bg)"/><rect x="82" y="82" width="796" height="476" rx="42" fill="#101b2d" stroke="#fff" stroke-opacity=".12"/><rect x="130" y="132" width="206" height="148" rx="32" fill="#14243a"/><rect x="378" y="132" width="206" height="148" rx="32" fill="#14243a"/><rect x="626" y="132" width="206" height="148" rx="32" fill="#14243a"/><rect x="130" y="360" width="702" height="112" rx="34" fill="#14243a"/><path d="M336 206h42M584 206h42M480 280v80" stroke="#78f7d4" stroke-width="8" stroke-linecap="round"/><g fill="url(#a)"><rect x="166" y="164" width="88" height="12" rx="6"/><rect x="414" y="164" width="88" height="12" rx="6"/><rect x="662" y="164" width="88" height="12" rx="6"/></g><g fill="#fff" opacity=".82"><rect x="166" y="204" width="124" height="10" rx="5"/><rect x="166" y="232" width="92" height="10" rx="5"/><rect x="414" y="204" width="122" height="10" rx="5"/><rect x="414" y="232" width="104" height="10" rx="5"/><rect x="662" y="204" width="122" height="10" rx="5"/><rect x="662" y="232" width="88" height="10" rx="5"/><rect x="176" y="402" width="144" height="12" rx="6"/><rect x="376" y="402" width="144" height="12" rx="6"/><rect x="576" y="402" width="144" height="12" rx="6"/></g><rect x="738" y="388" width="52" height="40" rx="14" fill="url(#a)"/><path d="M752 407l10 10 18-22" fill="none" stroke="#07100d" stroke-width="5" stroke-linecap="round" stroke-linejoin="round"/></svg>
