<svg xmlns="http://www.w3.org/2000/svg" width="960" height="640" viewBox="0 0 960 640" role="img" aria-labelledby="title desc"><title id="title">Process checkpoint lane</title><desc id="desc">A premium delivery timeline showing brief, structure, visual system, static build, QA checks, and handoff package checkpoints.</desc><defs><linearGradient id="bg" x1="0" y1="0" x2="1" y2="1"><stop stop-color="#07111f"/><stop offset="1" stop-color="#1b2544"/></linearGradient><linearGradient id="a" x1="0" y1="0" x2="1" y2="1"><stop stop-color="#78f7d4"/><stop offset="1" stop-color="#8db7ff"/></linearGradient><filter id="s"><feDropShadow dx="0" dy="18" stdDeviation="24" flood-opacity=".3"/></filter></defs><rect width="960" height="640" rx="44" fill="url(#bg)"/><rect x="78" y="86" width="804" height="468" rx="42" fill="#0d1729" stroke="#fff" stroke-opacity=".12" filter="url(#s)"/><rect x="128" y="132" width="704" height="66" rx="26" fill="#13243a"/><rect x="166" y="158" width="224" height="14" rx="7" fill="#fff" opacity=".86"/><rect x="660" y="148" width="126" height="32" rx="16" fill="url(#a)"/><path d="M176 342h608" stroke="#78f7d4" stroke-width="8" stroke-linecap="round" opacity=".7"/><g><circle cx="176" cy="342" r="28" fill="url(#a)"/><circle cx="298" cy="342" r="28" fill="#13243a" stroke="#78f7d4" stroke-width="5"/><circle cx="420" cy="342" r="28" fill="#13243a" stroke="#78f7d4" stroke-width="5"/><circle cx="542" cy="342" r="28" fill="#13243a" stroke="#8db7ff" stroke-width="5"/><circle cx="664" cy="342" r="28" fill="#13243a" stroke="#8db7ff" stroke-width="5"/><circle cx="786" cy="342" r="28" fill="url(#a)"/></g><g fill="#fff" opacity=".86"><rect x="136" y="252" width="82" height="12" rx="6"/><rect x="258" y="404" width="82" height="12" rx="6"/><rect x="380" y="252" width="82" height="12" rx="6"/><rect x="502" y="404" width="82" height="12" rx="6"/><rect x="624" y="252" width="82" height="12" rx="6"/><rect x="746" y="404" width="82" height="12" rx="6"/></g><g fill="#9fb3c8" opacity=".42"><rect x="128" y="280" width="110" height="10" rx="5"/><rect x="250" y="432" width="110" height="10" rx="5"/><rect x="372" y="280" width="110" height="10" rx="5"/><rect x="494" y="432" width="110" height="10" rx="5"/><rect x="616" y="280" width="110" height="10" rx="5"/><rect x="738" y="432" width="110" height="10" rx="5"/></g></svg>
