<svg xmlns="http://www.w3.org/2000/svg" viewBox="0 0 1200 760" role="img" aria-labelledby="title desc">
<title id="title">Premium Build Roadmap</title><desc id="desc">Research, strategy, design, development, QA, launch visual for Hamzah homepage.</desc>
<defs><linearGradient id="g" x1="0" x2="1" y1="0" y2="1"><stop offset="0" stop-color="#101014"/><stop offset=".62" stop-color="#8B5CF6"/><stop offset="1" stop-color="#38BDF8"/></linearGradient><radialGradient id="r" cx="72%" cy="20%" r="65%"><stop offset="0" stop-color="#fff" stop-opacity=".34"/><stop offset="1" stop-color="#fff" stop-opacity="0"/></radialGradient><filter id="shadow" x="-20%" y="-20%" width="140%" height="150%"><feDropShadow dx="0" dy="28" stdDeviation="30" flood-color="#000" flood-opacity=".34"/></filter></defs>
<rect width="1200" height="760" rx="56" fill="url(#g)"/><rect width="1200" height="760" rx="56" fill="url(#r)"/>
<g opacity=".18" stroke="#fff"><path d="M100 150h1000M100 280h1000M100 410h1000M100 540h1000"/><path d="M220 90v580M420 90v580M620 90v580M820 90v580M1020 90v580"/></g>
<g filter="url(#shadow)"><rect x="104" y="100" width="992" height="512" rx="42" fill="#071016" opacity=".84" stroke="#fff" stroke-opacity=".2"/><rect x="144" y="140" width="912" height="70" rx="24" fill="#fff" opacity=".11"/><circle cx="180" cy="175" r="10" fill="#F87171"/><circle cx="212" cy="175" r="10" fill="#FBBF24"/><circle cx="244" cy="175" r="10" fill="#34D399"/>
<rect x="150" y="254" width="332" height="66" rx="24" fill="#fff" opacity=".9"/><rect x="150" y="348" width="420" height="24" rx="12" fill="#fff" opacity=".28"/><rect x="150" y="390" width="330" height="24" rx="12" fill="#fff" opacity=".21"/><rect x="150" y="456" width="156" height="50" rx="25" fill="#38BDF8"/>
<g transform="translate(650 254)"><rect width="330" height="244" rx="30" fill="#fff" opacity=".12" stroke="#fff" stroke-opacity=".24"/><circle cx="84" cy="92" r="46" fill="#8B5CF6"/><rect x="152" y="54" width="136" height="24" rx="12" fill="#fff" opacity=".68"/><rect x="152" y="98" width="108" height="20" rx="10" fill="#fff" opacity=".32"/><rect x="40" y="168" width="248" height="26" rx="13" fill="#fff" opacity=".22"/></g></g>
<text x="104" y="686" fill="#fff" font-family="Inter,Arial,sans-serif" font-size="44" font-weight="900">Premium Build Roadmap</text><text x="104" y="724" fill="#fff" opacity=".72" font-family="Inter,Arial,sans-serif" font-size="22">Research, strategy, design, development, QA, launch</text>
</svg>