<svg xmlns="http://www.w3.org/2000/svg" width="960" height="640" viewBox="0 0 960 640" role="img" aria-labelledby="title desc"><title id="title">QA proof ledger mockup</title><desc id="desc">A premium QA ledger with source, build, Appwrite, HTTP, and ZIP integrity rows.</desc><defs><linearGradient id="bg" x1="0" y1="0" x2="1" y2="1"><stop stop-color="#07150f"/><stop offset="1" stop-color="#132f2d"/></linearGradient><linearGradient id="a" x1="0" y1="0" x2="1" y2="1"><stop stop-color="#7df7aa"/><stop offset="1" stop-color="#8db7ff"/></linearGradient><filter id="s"><feDropShadow dx="0" dy="18" stdDeviation="22" flood-opacity=".34"/></filter></defs><rect width="960" height="640" rx="42" fill="url(#bg)"/><rect x="110" y="76" width="740" height="488" rx="40" fill="#0d1e21" stroke="#fff" stroke-opacity=".12" filter="url(#s)"/><rect x="154" y="122" width="652" height="68" rx="24" fill="#132a2f"/><text x="188" y="164" fill="#fff" font-family="Inter,Arial" font-size="27" font-weight="850">QA proof ledger</text><rect x="668" y="140" width="100" height="28" rx="14" fill="url(#a)"/><g font-family="Inter,Arial" font-size="16" fill="#e9fff8"><g transform="translate(154 232)"><rect width="652" height="52" rx="18" fill="#11272b"/><text x="26" y="33">Source scan</text><text x="530" y="33" fill="#7df7aa" font-weight="800">PASS</text></g><g transform="translate(154 304)"><rect width="652" height="52" rx="18" fill="#11272b"/><text x="26" y="33">Build output</text><text x="530" y="33" fill="#7df7aa" font-weight="800">PASS</text></g><g transform="translate(154 376)"><rect width="652" height="52" rx="18" fill="#11272b"/><text x="26" y="33">Appwrite check</text><text x="530" y="33" fill="#7df7aa" font-weight="800">PASS</text></g><g transform="translate(154 448)"><rect width="652" height="52" rx="18" fill="#11272b"/><text x="26" y="33">HTTP + ZIP</text><text x="530" y="33" fill="#7df7aa" font-weight="800">PASS</text></g></g></svg>