<svg xmlns="http://www.w3.org/2000/svg" viewBox="0 0 760 520" role="img" aria-labelledby="title desc">
  <title id="title">Quick action rail mockup</title>
  <desc id="desc">A premium quick-action interface rail showing package, brief, email copy, and project start actions.</desc>
  <defs><linearGradient id="bg" x1="0" y1="0" x2="1" y2="1"><stop offset="0" stop-color="#0E1726"/><stop offset="1" stop-color="#080A10"/></linearGradient><linearGradient id="a" x1="0" y1="0" x2="1" y2="1"><stop offset="0" stop-color="#67E8F9"/><stop offset=".55" stop-color="#A78BFA"/><stop offset="1" stop-color="#F9C784"/></linearGradient><filter id="sh" x="-20%" y="-20%" width="140%" height="140%"><feDropShadow dx="0" dy="24" stdDeviation="24" flood-color="#000" flood-opacity=".38"/></filter></defs>
  <rect width="760" height="520" rx="38" fill="url(#bg)"/><circle cx="610" cy="96" r="98" fill="#67E8F9" opacity=".1"/><circle cx="128" cy="412" r="106" fill="#A78BFA" opacity=".08"/>
  <g filter="url(#sh)"><rect x="92" y="146" width="576" height="228" rx="42" fill="#0F1422" stroke="#fff" stroke-opacity=".12"/>
    <rect x="126" y="188" width="510" height="66" rx="33" fill="#141B2D"/><circle cx="164" cy="221" r="18" fill="url(#a)"/><rect x="196" y="210" width="142" height="18" rx="9" fill="#fff" opacity=".8"/><rect x="516" y="203" width="88" height="36" rx="18" fill="url(#a)" opacity=".95"/>
    <g font-family="Inter,Arial,sans-serif" font-size="13" font-weight="900"><rect x="126" y="292" width="104" height="38" rx="19" fill="#171D2D"/><text x="151" y="316" fill="#DDE3F7">Packages</text><rect x="250" y="292" width="104" height="38" rx="19" fill="#171D2D"/><text x="281" y="316" fill="#DDE3F7">Brief</text><rect x="374" y="292" width="104" height="38" rx="19" fill="#171D2D"/><text x="403" y="316" fill="#DDE3F7">Copy</text><rect x="498" y="292" width="138" height="38" rx="19" fill="url(#a)"/><text x="532" y="316" fill="#07111A">Start project</text></g>
  </g><text x="112" y="440" fill="#DDE7FF" font-family="Inter,Arial" font-size="18" font-weight="900">Quick action rail · fewer clicks to contact</text>
</svg>
