<svg xmlns="http://www.w3.org/2000/svg" width="1040" height="700" viewBox="0 0 1040 700" role="img" aria-label="Luxury real estate visual mockup">
  <defs>
    <linearGradient id="g" x1="0" x2="1" y1="0" y2="1"><stop stop-color="#071722"/><stop offset=".45" stop-color="#0d1b2a"/><stop offset="1" stop-color="#c8a45d"/></linearGradient>
    <linearGradient id="gold" x1="0" x2="1"><stop stop-color="#f5df9d"/><stop offset="1" stop-color="#b98935"/></linearGradient>
    <filter id="s" x="-20%" y="-20%" width="140%" height="140%"><feDropShadow dx="0" dy="18" stdDeviation="18" flood-color="#000" flood-opacity=".35"/></filter>
  </defs>
  <rect width="1040" height="700" rx="28" fill="url(#g)"/>

  <rect x="86" y="82" width="868" height="536" rx="24" fill="#fbf4e3" stroke="#d2ad63" stroke-width="6"/>
  <path d="M160 160 H520 V330 H160 Z" fill="#fffaf0" stroke="#183042" stroke-width="5"/>
  <path d="M520 160 H860 V330 H520 Z" fill="#fffaf0" stroke="#183042" stroke-width="5"/>
  <path d="M160 330 H390 V540 H160 Z" fill="#fffaf0" stroke="#183042" stroke-width="5"/>
  <path d="M390 330 H650 V540 H390 Z" fill="#fffaf0" stroke="#183042" stroke-width="5"/>
  <path d="M650 330 H860 V540 H650 Z" fill="#fffaf0" stroke="#183042" stroke-width="5"/>
  <text x="200" y="250" fill="#142231" font-family="Georgia,serif" font-size="34" font-weight="700">Living</text>
  <text x="595" y="250" fill="#142231" font-family="Georgia,serif" font-size="34" font-weight="700">Suite</text>
  <text x="195" y="446" fill="#142231" font-family="Georgia,serif" font-size="28" font-weight="700">Kitchen</text>
  <text x="455" y="446" fill="#142231" font-family="Georgia,serif" font-size="28" font-weight="700">Terrace</text>
  <text x="700" y="446" fill="#142231" font-family="Georgia,serif" font-size="28" font-weight="700">Bath</text>
  <rect x="720" y="88" width="180" height="58" rx="20" fill="#142231"/>
  <text x="752" y="125" fill="#f8e7b2" font-family="Arial" font-size="20" font-weight="700">3,420 sq.ft</text>

</svg>
