<svg xmlns="http://www.w3.org/2000/svg" width="1100" height="720" viewBox="0 0 1100 720" role="img" aria-label="Luxury real estate visual mockup">
  <defs>
    <linearGradient id="g" x1="0" x2="1" y1="0" y2="1"><stop stop-color="#071722"/><stop offset=".45" stop-color="#0d1b2a"/><stop offset="1" stop-color="#c8a45d"/></linearGradient>
    <linearGradient id="gold" x1="0" x2="1"><stop stop-color="#f5df9d"/><stop offset="1" stop-color="#b98935"/></linearGradient>
    <filter id="s" x="-20%" y="-20%" width="140%" height="140%"><feDropShadow dx="0" dy="18" stdDeviation="18" flood-color="#000" flood-opacity=".35"/></filter>
  </defs>
  <rect width="1100" height="720" rx="28" fill="url(#g)"/>

  <text x="70" y="88" fill="#f8e7b2" font-family="Georgia,serif" font-size="52" font-weight="700">Curated listings</text>
  <g filter="url(#s)">
    <rect x="70" y="130" width="300" height="460" rx="28" fill="#fffaf0"/>
    <rect x="95" y="155" width="250" height="160" rx="20" fill="#133144"/>
    <path d="M120 280 L210 210 L320 285" fill="none" stroke="#d7ae61" stroke-width="8"/>
    <text x="95" y="360" fill="#142231" font-family="Georgia,serif" font-size="28" font-weight="700">Skyline Penthouse</text>
    <text x="95" y="398" fill="#69717a" font-family="Arial" font-size="20">4 beds · Private lift · Terrace</text>
    <text x="95" y="456" fill="#9a6c25" font-family="Arial" font-size="26" font-weight="700">₹8.4 Cr guide</text>
    <rect x="95" y="505" width="160" height="48" rx="16" fill="#152f3e"/>
    <text x="123" y="536" fill="#fff" font-family="Arial" font-size="18" font-weight="700">View details</text>
  </g>
  <g filter="url(#s)">
    <rect x="405" y="130" width="300" height="460" rx="28" fill="#fffaf0"/>
    <rect x="430" y="155" width="250" height="160" rx="20" fill="#203e35"/>
    <circle cx="555" cy="235" r="54" fill="#d7ae61" opacity=".75"/>
    <path d="M465 285 C540 210 608 212 675 285" fill="none" stroke="#f8e7b2" stroke-width="8"/>
    <text x="430" y="360" fill="#142231" font-family="Georgia,serif" font-size="28" font-weight="700">Garden Villa</text>
    <text x="430" y="398" fill="#69717a" font-family="Arial" font-size="20">Pool · Courtyard · Staff wing</text>
    <text x="430" y="456" fill="#9a6c25" font-family="Arial" font-size="26" font-weight="700">Private quote</text>
    <rect x="430" y="505" width="160" height="48" rx="16" fill="#152f3e"/>
    <text x="458" y="536" fill="#fff" font-family="Arial" font-size="18" font-weight="700">Book tour</text>
  </g>
  <g filter="url(#s)">
    <rect x="740" y="130" width="300" height="460" rx="28" fill="#fffaf0"/>
    <rect x="765" y="155" width="250" height="160" rx="20" fill="#3a2a22"/>
    <rect x="810" y="198" width="160" height="84" rx="12" fill="#d7ae61" opacity=".8"/>
    <path d="M790 285 H995" stroke="#f8e7b2" stroke-width="8"/>
    <text x="765" y="360" fill="#142231" font-family="Georgia,serif" font-size="28" font-weight="700">Lake Residence</text>
    <text x="765" y="398" fill="#69717a" font-family="Arial" font-size="20">Water view · Clubhouse · Dock</text>
    <text x="765" y="456" fill="#9a6c25" font-family="Arial" font-size="26" font-weight="700">₹5.9 Cr guide</text>
    <rect x="765" y="505" width="160" height="48" rx="16" fill="#152f3e"/>
    <text x="791" y="536" fill="#fff" font-family="Arial" font-size="18" font-weight="700">Enquire</text>
  </g>

</svg>
