<svg xmlns="http://www.w3.org/2000/svg" width="1160" height="720" viewBox="0 0 1160 720" role="img" aria-label="Luxury real estate visual mockup">
  <defs>
    <linearGradient id="g" x1="0" x2="1" y1="0" y2="1"><stop stop-color="#071722"/><stop offset=".45" stop-color="#0d1b2a"/><stop offset="1" stop-color="#c8a45d"/></linearGradient>
    <linearGradient id="gold" x1="0" x2="1"><stop stop-color="#f5df9d"/><stop offset="1" stop-color="#b98935"/></linearGradient>
    <filter id="s" x="-20%" y="-20%" width="140%" height="140%"><feDropShadow dx="0" dy="18" stdDeviation="18" flood-color="#000" flood-opacity=".35"/></filter>
  </defs>
  <rect width="1160" height="720" rx="28" fill="url(#g)"/>

  <rect x="86" y="90" width="988" height="520" rx="34" fill="#f8efd9"/>
  <rect x="146" y="150" width="300" height="170" rx="22" fill="#173449"/>
  <rect x="486" y="150" width="300" height="170" rx="22" fill="#3b2e25"/>
  <rect x="826" y="150" width="190" height="170" rx="22" fill="#203e35"/>
  <rect x="146" y="360" width="230" height="170" rx="22" fill="#27354a"/>
  <rect x="416" y="360" width="300" height="170" rx="22" fill="#173449"/>
  <rect x="756" y="360" width="260" height="170" rx="22" fill="#382b2a"/>
  <g fill="#f9e5ad" font-family="Georgia,serif" font-size="26" font-weight="700">
    <text x="176" y="240">Marina</text><text x="522" y="240">Dining mile</text><text x="855" y="240">Parks</text>
    <text x="180" y="450">Gallery</text><text x="450" y="450">International school</text><text x="788" y="450">Wellness club</text>
  </g>
  <path d="M120 338 H1038" stroke="#c59a49" stroke-width="5" opacity=".55"/>
  <path d="M450 120 V565" stroke="#c59a49" stroke-width="5" opacity=".55"/>
  <path d="M750 120 V565" stroke="#c59a49" stroke-width="5" opacity=".55"/>

</svg>
