<svg xmlns="http://www.w3.org/2000/svg" width="1200" height="760" viewBox="0 0 1200 760" role="img" aria-label="Luxury real estate visual mockup">
  <defs>
    <linearGradient id="g" x1="0" x2="1" y1="0" y2="1"><stop stop-color="#071722"/><stop offset=".45" stop-color="#0d1b2a"/><stop offset="1" stop-color="#c8a45d"/></linearGradient>
    <linearGradient id="gold" x1="0" x2="1"><stop stop-color="#f5df9d"/><stop offset="1" stop-color="#b98935"/></linearGradient>
    <filter id="s" x="-20%" y="-20%" width="140%" height="140%"><feDropShadow dx="0" dy="18" stdDeviation="18" flood-color="#000" flood-opacity=".35"/></filter>
  </defs>
  <rect width="1200" height="760" rx="28" fill="url(#g)"/>

  <circle cx="1020" cy="110" r="180" fill="#f5df9d" opacity=".11"/>
  <path d="M120 575 L120 310 L260 230 L405 315 L405 575 Z" fill="#152f3e" stroke="#e7c97c" stroke-width="5"/>
  <path d="M405 575 L405 260 L650 165 L910 270 L910 575 Z" fill="#102635" stroke="#d6ad5a" stroke-width="5"/>
  <path d="M650 165 L650 575" stroke="#d6ad5a" stroke-width="4" opacity=".55"/>
  <rect x="470" y="322" width="110" height="88" rx="8" fill="#e8f6ff" opacity=".86"/>
  <rect x="710" y="322" width="116" height="88" rx="8" fill="#e8f6ff" opacity=".86"/>
  <rect x="570" y="462" width="170" height="113" rx="12" fill="#06131c" stroke="#e7c97c" stroke-width="4"/>
  <rect x="155" y="355" width="70" height="72" rx="8" fill="#e8f6ff" opacity=".78"/>
  <rect x="288" y="355" width="70" height="72" rx="8" fill="#e8f6ff" opacity=".78"/>
  <rect x="120" y="595" width="790" height="20" rx="10" fill="#e7c97c" opacity=".82"/>
  <g filter="url(#s)">
    <rect x="180" y="70" width="640" height="116" rx="28" fill="#fff9ec"/>
    <text x="222" y="118" fill="#172532" font-family="Georgia,serif" font-size="34" font-weight="700">Find a private-viewing property</text>
    <text x="222" y="153" fill="#53606a" font-family="Arial" font-size="22">Penthouse · Waterfront · Villas · Investment</text>
    <rect x="655" y="98" width="130" height="58" rx="18" fill="url(#gold)"/>
    <text x="685" y="136" fill="#172532" font-family="Arial" font-size="20" font-weight="700">Search</text>
  </g>

</svg>
