<svg xmlns="http://www.w3.org/2000/svg" width="1080" height="720" viewBox="0 0 1080 720" role="img" aria-label="Luxury real estate visual mockup">
  <defs>
    <linearGradient id="g" x1="0" x2="1" y1="0" y2="1"><stop stop-color="#071722"/><stop offset=".45" stop-color="#0d1b2a"/><stop offset="1" stop-color="#c8a45d"/></linearGradient>
    <linearGradient id="gold" x1="0" x2="1"><stop stop-color="#f5df9d"/><stop offset="1" stop-color="#b98935"/></linearGradient>
    <filter id="s" x="-20%" y="-20%" width="140%" height="140%"><feDropShadow dx="0" dy="18" stdDeviation="18" flood-color="#000" flood-opacity=".35"/></filter>
  </defs>
  <rect width="1080" height="720" rx="28" fill="url(#g)"/>

  <rect x="100" y="88" width="880" height="520" rx="34" fill="#0f2a38" stroke="#d7ae61" stroke-width="4"/>
  <path d="M170 210 C310 90 410 340 540 220 C660 110 735 420 910 260" fill="none" stroke="#d7ae61" stroke-width="8" stroke-linecap="round"/>
  <g fill="#fffaf0" font-family="Arial" font-size="22" font-weight="700">
    <circle cx="220" cy="190" r="38" fill="#d7ae61"/><text x="201" y="198" fill="#102635">01</text>
    <circle cx="490" cy="245" r="38" fill="#d7ae61"/><text x="471" y="253" fill="#102635">02</text>
    <circle cx="720" cy="355" r="38" fill="#d7ae61"/><text x="701" y="363" fill="#102635">03</text>
    <circle cx="870" cy="265" r="38" fill="#d7ae61"/><text x="851" y="273" fill="#102635">04</text>
  </g>
  <g fill="#fffaf0" font-family="Georgia,serif" font-size="31" font-weight="700">
    <text x="155" y="520">Spa</text><text x="400" y="520">Club</text><text x="610" y="520">Concierge</text><text x="805" y="520">School</text>
  </g>

</svg>
