<svg xmlns="http://www.w3.org/2000/svg" viewBox="0 0 760 520" role="img" aria-labelledby="title desc">
  <title id="title">Responsive grid system mockup</title>
  <desc id="desc">A responsive grid system preview showing desktop, tablet, and mobile layouts.</desc>
  <defs><linearGradient id="bg" x1="0" y1="0" x2="1" y2="1"><stop offset="0" stop-color="#0B1324"/><stop offset="1" stop-color="#070B10"/></linearGradient><linearGradient id="a" x1="0" y1="0" x2="1" y2="1"><stop offset="0" stop-color="#67E8F9"/><stop offset="1" stop-color="#A78BFA"/></linearGradient><filter id="sh" x="-20%" y="-20%" width="140%" height="140%"><feDropShadow dx="0" dy="24" stdDeviation="24" flood-color="#000" flood-opacity=".36"/></filter></defs>
  <rect width="760" height="520" rx="38" fill="url(#bg)"/><circle cx="620" cy="110" r="92" fill="#67E8F9" opacity=".1"/><circle cx="130" cy="414" r="110" fill="#A78BFA" opacity=".08"/>
  <g filter="url(#sh)"><rect x="78" y="92" width="604" height="316" rx="32" fill="#0E1320" stroke="#fff" stroke-opacity=".12"/>
    <rect x="116" y="132" width="310" height="210" rx="24" fill="#141B2D"/><rect x="450" y="132" width="94" height="210" rx="24" fill="#141B2D"/><rect x="566" y="132" width="64" height="210" rx="22" fill="#141B2D"/>
    <g fill="url(#a)" opacity=".72"><rect x="142" y="164" width="112" height="50" rx="16"/><rect x="282" y="164" width="112" height="50" rx="16"/><rect x="142" y="240" width="252" height="62" rx="18"/><rect x="470" y="164" width="54" height="56" rx="16"/><rect x="470" y="244" width="54" height="56" rx="16"/><rect x="584" y="164" width="28" height="136" rx="14"/></g>
  </g><text x="104" y="466" fill="#DDE7FF" font-family="Inter,Arial" font-size="18" font-weight="900">Responsive system · desktop, tablet, mobile</text>
</svg>
