<svg xmlns="http://www.w3.org/2000/svg" viewBox="0 0 900 620" role="img" aria-label="Fine dining tasting menu preview">
  <defs><linearGradient id="paper" x1="0" x2="1"><stop stop-color="#fff6df"/><stop offset="1" stop-color="#f2d59b"/></linearGradient><linearGradient id="wine" x1="0" x2="1" y1="0" y2="1"><stop stop-color="#61243a"/><stop offset="1" stop-color="#15070d"/></linearGradient></defs>
  <rect width="900" height="620" fill="#130d0b"/>
  <rect x="66" y="50" width="480" height="520" rx="34" fill="url(#paper)"/>
  <text x="108" y="118" fill="#3d2317" font-family="Georgia,serif" font-size="42">Chef's tasting menu</text>
  <path d="M110 145h345" stroke="#a97339" stroke-width="3"/>
  <g font-family="Arial,sans-serif" fill="#3d2317">
    <text x="108" y="205" font-size="22" font-weight="700">01  Charred corn velouté</text><text x="108" y="236" font-size="16">smoked cream · herb oil · sourdough crisp</text>
    <text x="108" y="298" font-size="22" font-weight="700">02  Truffle mushroom ravioli</text><text x="108" y="329" font-size="16">brown butter · black pepper · aged parmesan</text>
    <text x="108" y="391" font-size="22" font-weight="700">03  Seared sea bass</text><text x="108" y="422" font-size="16">citrus beurre blanc · fennel · micro greens</text>
    <text x="108" y="484" font-size="22" font-weight="700">04  Saffron panna cotta</text><text x="108" y="515" font-size="16">pistachio crumb · orange blossom</text>
  </g>
  <g transform="translate(596 98)">
    <rect x="0" y="0" width="226" height="422" rx="32" fill="url(#wine)" stroke="#d9ad68"/>
    <ellipse cx="113" cy="112" rx="64" ry="28" fill="#f7d58b" opacity=".24"/>
    <path d="M84 91c-10 56 8 108 29 108s39-52 29-108" fill="#7d2646" stroke="#f0c984" stroke-width="4"/>
    <path d="M113 199v97M76 300h74" stroke="#f0c984" stroke-width="7" stroke-linecap="round"/>
    <text x="42" y="365" fill="#f7d58b" font-family="Georgia,serif" font-size="24">Pairing</text>
    <text x="42" y="398" fill="#fff2c3" font-family="Arial" font-size="16">Seasonal wines</text>
  </g>
</svg>
