<svg xmlns="http://www.w3.org/2000/svg" viewBox="0 0 1200 760" role="img" aria-label="Luxury restaurant interior with warm tables and city view">
  <defs>
    <linearGradient id="bg" x1="0" x2="1" y1="0" y2="1"><stop stop-color="#170d0b"/><stop offset=".48" stop-color="#352018"/><stop offset="1" stop-color="#070807"/></linearGradient>
    <linearGradient id="gold" x1="0" x2="1"><stop stop-color="#f5d78c"/><stop offset="1" stop-color="#b46f31"/></linearGradient>
    <radialGradient id="glow" cx="50%" cy="35%" r="60%"><stop stop-color="#ffd58a" stop-opacity=".55"/><stop offset="1" stop-color="#000" stop-opacity="0"/></radialGradient>
    <filter id="blur"><feGaussianBlur stdDeviation="18"/></filter>
  </defs>
  <rect width="1200" height="760" fill="url(#bg)"/>
  <circle cx="780" cy="190" r="260" fill="url(#glow)" filter="url(#blur)"/>
  <g opacity=".32" stroke="#f6d992" stroke-width="2">
    <path d="M110 110h980M110 190h980M110 270h980"/>
    <path d="M210 80v360M420 80v360M640 80v360M860 80v360M1040 80v360"/>
  </g>
  <g>
    <rect x="86" y="86" width="1028" height="360" rx="36" fill="#0f1110" opacity=".88" stroke="#c99455" stroke-opacity=".45"/>
    <rect x="125" y="126" width="208" height="250" rx="26" fill="#1d2b31"/>
    <rect x="366" y="126" width="208" height="250" rx="26" fill="#1d2b31"/>
    <rect x="607" y="126" width="208" height="250" rx="26" fill="#1d2b31"/>
    <rect x="848" y="126" width="208" height="250" rx="26" fill="#1d2b31"/>
    <g fill="#f7c46f" opacity=".8">
      <circle cx="226" cy="190" r="8"/><circle cx="270" cy="250" r="5"/><circle cx="425" cy="178" r="6"/><circle cx="520" cy="310" r="7"/><circle cx="672" cy="224" r="5"/><circle cx="765" cy="175" r="8"/><circle cx="930" cy="284" r="5"/><circle cx="1015" cy="204" r="7"/>
    </g>
  </g>
  <g transform="translate(105 455)">
    <ellipse cx="228" cy="164" rx="220" ry="68" fill="#050505" opacity=".52"/>
    <rect x="74" y="48" width="310" height="104" rx="50" fill="url(#gold)"/>
    <ellipse cx="228" cy="50" rx="158" ry="42" fill="#fff0bc" opacity=".95"/>
    <g fill="#21140f"><circle cx="178" cy="42" r="18"/><circle cx="228" cy="50" r="23"/><circle cx="280" cy="40" r="16"/></g>
    <g stroke="#f1d18b" stroke-width="9" stroke-linecap="round"><path d="M97 147v92M360 147v92"/></g>
  </g>
  <g transform="translate(602 484)">
    <ellipse cx="270" cy="130" rx="250" ry="78" fill="#060606" opacity=".5"/>
    <rect x="68" y="0" width="404" height="118" rx="56" fill="#16100f" stroke="#dfb86b" stroke-width="3"/>
    <ellipse cx="270" cy="4" rx="205" ry="54" fill="#3b241a"/>
    <g fill="#f5d78c"><circle cx="193" cy="-4" r="18"/><circle cx="258" cy="8" r="25"/><circle cx="330" cy="-6" r="16"/></g>
    <path d="M146 64h250" stroke="#f6d992" stroke-opacity=".5" stroke-width="4" stroke-linecap="round"/>
  </g>
  <g transform="translate(765 80)">
    <rect x="0" y="0" width="250" height="84" rx="42" fill="#050505" opacity=".55" stroke="#ffd58a" stroke-opacity=".35"/>
    <text x="32" y="36" fill="#f7d68f" font-size="20" font-family="Georgia,serif" letter-spacing="3">MAISON</text>
    <text x="32" y="62" fill="#fff7dc" font-size="24" font-family="Georgia,serif">Lumière</text>
  </g>
</svg>
