<svg xmlns="http://www.w3.org/2000/svg" viewBox="0 0 880 620" role="img" aria-label="Restaurant location and opening hours card">
  <rect width="880" height="620" fill="#0b0807"/>
  <rect x="55" y="55" width="770" height="510" rx="38" fill="#17100d" stroke="#d5aa61"/>
  <g stroke="#57402b" stroke-width="4" opacity=".7"><path d="M105 156h670M105 236h670M105 316h670M105 396h670M105 476h670"/><path d="M205 105v410M345 105v410M485 105v410M625 105v410"/></g>
  <path d="M180 460c64-116 138-164 242-136s130-146 272-196" stroke="#f2c271" stroke-width="18" fill="none" stroke-linecap="round"/>
  <circle cx="514" cy="255" r="42" fill="#f2c271"/><circle cx="514" cy="255" r="16" fill="#1a0f0b"/>
  <rect x="108" y="94" width="272" height="104" rx="28" fill="#0c0a08" stroke="#d5aa61"/>
  <text x="134" y="138" fill="#f6d58e" font-family="Georgia,serif" font-size="26">Tonight</text>
  <text x="134" y="171" fill="#e8dbc1" font-family="Arial" font-size="18">6:00 PM – 11:30 PM</text>
  <rect x="506" y="397" width="260" height="96" rx="26" fill="#f2c271"/>
  <text x="538" y="436" fill="#1a0f0b" font-family="Arial" font-size="20" font-weight="800">Book by call</text>
  <text x="538" y="466" fill="#1a0f0b" font-family="Arial" font-size="17">Location + parking notes</text>
</svg>
