<svg xmlns="http://www.w3.org/2000/svg" width="960" height="640" viewBox="0 0 960 640" role="img" aria-labelledby="title desc"><title id="title">Section directory panel mockup</title><desc id="desc">A command-menu style section directory for all premium homepage sections.</desc><defs><linearGradient id="bg" x1="0" y1="0" x2="1" y2="1"><stop stop-color="#130c21"/><stop offset="1" stop-color="#2a1c3a"/></linearGradient><linearGradient id="a" x1="0" y1="0" x2="1" y2="1"><stop stop-color="#ff8bd1"/><stop offset="1" stop-color="#8db7ff"/></linearGradient><filter id="s"><feDropShadow dx="0" dy="18" stdDeviation="22" flood-opacity=".34"/></filter></defs><rect width="960" height="640" rx="42" fill="url(#bg)"/><rect x="174" y="80" width="612" height="480" rx="40" fill="#170f29" stroke="#fff" stroke-opacity=".12" filter="url(#s)"/><rect x="218" y="124" width="524" height="64" rx="24" fill="#24183d"/><rect x="252" y="148" width="220" height="16" rx="8" fill="#fff" opacity=".88"/><rect x="642" y="144" width="62" height="24" rx="12" fill="url(#a)"/><g font-family="Inter,Arial" fill="#fff" font-size="16" font-weight="800"><rect x="218" y="232" width="236" height="54" rx="20" fill="#24183d"/><text x="248" y="266">Audience Fit</text><rect x="506" y="232" width="236" height="54" rx="20" fill="#24183d"/><text x="536" y="266">Case Study</text><rect x="218" y="310" width="236" height="54" rx="20" fill="#24183d"/><text x="248" y="344">Project Fit</text><rect x="506" y="310" width="236" height="54" rx="20" fill="#24183d"/><text x="536" y="344">Trust Matrix</text><rect x="218" y="388" width="236" height="54" rx="20" fill="#24183d"/><text x="248" y="422">SEO Preview</text><rect x="506" y="388" width="236" height="54" rx="20" fill="#24183d"/><text x="536" y="422">Performance</text></g><text x="480" y="504" text-anchor="middle" fill="#b7accb" font-family="Inter,Arial" font-size="16">Deep sections stay easy to reach without crowding the header.</text></svg>