<svg xmlns="http://www.w3.org/2000/svg" width="960" height="560" viewBox="0 0 960 560" role="img" aria-labelledby="title desc">
  <title id="title">Selected work proof board</title>
  <desc id="desc">Local premium illustration for Hamzah selected work proof presentation.</desc>
  <defs>
    <linearGradient id="bg" x1="0" y1="0" x2="1" y2="1"><stop offset="0" stop-color="#05120f"/><stop offset=".55" stop-color="#11231d"/><stop offset="1" stop-color="#221f16"/></linearGradient>
    <linearGradient id="accent" x1="0" y1="0" x2="1" y2="1"><stop offset="0" stop-color="#73f4c6"/><stop offset="1" stop-color="#d7b56b"/></linearGradient>
    <filter id="shadow" x="-20%" y="-20%" width="140%" height="140%"><feDropShadow dx="0" dy="24" stdDeviation="22" flood-color="#000" flood-opacity=".35"/></filter>
  </defs>
  <rect width="960" height="560" rx="42" fill="url(#bg)"/>
  <circle cx="820" cy="92" r="172" fill="#73f4c6" opacity=".10"/>
  <circle cx="108" cy="456" r="188" fill="#d7b56b" opacity=".10"/>
  <rect x="54" y="50" width="852" height="460" rx="34" fill="#fff" opacity=".045" stroke="#fff" stroke-opacity=".16"/>
  <text x="86" y="100" fill="#f4fff9" font-family="Inter, Arial, sans-serif" font-size="28" font-weight="800">Hamzah</text>
  <text x="86" y="130" fill="#a8b8b1" font-family="Inter, Arial, sans-serif" font-size="15" letter-spacing="2">Selected work proof board</text>
  
  <g filter="url(#shadow)">
    <rect x="88" y="174" width="254" height="250" rx="28" fill="#0e1c17" stroke="#fff" stroke-opacity=".14"/>
    <rect x="118" y="210" width="148" height="12" rx="6" fill="url(#accent)"/>
    <text x="118" y="260" fill="#f4fff9" font-family="Inter, Arial, sans-serif" font-size="24" font-weight="800">Problem</text>
    <rect x="118" y="290" width="174" height="12" rx="6" fill="#fff" opacity=".18"/>
    <rect x="118" y="322" width="120" height="12" rx="6" fill="#fff" opacity=".18"/>
    <rect x="118" y="354" width="156" height="12" rx="6" fill="#fff" opacity=".18"/>
    <text x="118" y="398" fill="#a8b8b1" font-family="Inter, Arial, sans-serif" font-size="14">Audience, goal, constraints</text>

    <rect x="354" y="174" width="254" height="250" rx="28" fill="#0e1c17" stroke="#fff" stroke-opacity=".14"/>
    <rect x="384" y="210" width="148" height="12" rx="6" fill="url(#accent)"/>
    <text x="384" y="260" fill="#f4fff9" font-family="Inter, Arial, sans-serif" font-size="24" font-weight="800">Interface</text>
    <rect x="384" y="290" width="174" height="12" rx="6" fill="#fff" opacity=".18"/>
    <rect x="384" y="322" width="120" height="12" rx="6" fill="#fff" opacity=".18"/>
    <rect x="384" y="354" width="156" height="12" rx="6" fill="#fff" opacity=".18"/>
    <text x="384" y="398" fill="#a8b8b1" font-family="Inter, Arial, sans-serif" font-size="14">Screens, sections, states</text>

    <rect x="620" y="174" width="254" height="250" rx="28" fill="#0e1c17" stroke="#fff" stroke-opacity=".14"/>
    <rect x="650" y="210" width="148" height="12" rx="6" fill="url(#accent)"/>
    <text x="650" y="260" fill="#f4fff9" font-family="Inter, Arial, sans-serif" font-size="24" font-weight="800">Handoff</text>
    <rect x="650" y="290" width="174" height="12" rx="6" fill="#fff" opacity=".18"/>
    <rect x="650" y="322" width="120" height="12" rx="6" fill="#fff" opacity=".18"/>
    <rect x="650" y="354" width="156" height="12" rx="6" fill="#fff" opacity=".18"/>
    <text x="650" y="398" fill="#a8b8b1" font-family="Inter, Arial, sans-serif" font-size="14">Build, QA, launch notes</text>
  </g>
  <path d="M342 300 H354 M608 300 H620" stroke="url(#accent)" stroke-width="8" stroke-linecap="round"/>
  <rect x="238" y="454" width="484" height="46" rx="18" fill="#fff" opacity=".07" stroke="#fff" stroke-opacity=".14"/>
  <text x="276" y="484" fill="#f4fff9" font-family="Inter, Arial, sans-serif" font-size="18" font-weight="800">Proof comes from structure, visuals, checks, and handoff clarity</text>

</svg>