<svg xmlns="http://www.w3.org/2000/svg" viewBox="0 0 760 520" role="img" aria-labelledby="title desc">
  <title id="title">Search preview mockup</title>
  <desc id="desc">A premium search result preview showing title, description, site links, and metadata clarity.</desc>
  <defs><linearGradient id="bg" x1="0" y1="0" x2="1" y2="1"><stop offset="0" stop-color="#101827"/><stop offset="1" stop-color="#070A10"/></linearGradient><linearGradient id="a" x1="0" y1="0" x2="1" y2="1"><stop offset="0" stop-color="#67E8F9"/><stop offset=".55" stop-color="#A78BFA"/><stop offset="1" stop-color="#F9C784"/></linearGradient><filter id="sh" x="-20%" y="-20%" width="140%" height="140%"><feDropShadow dx="0" dy="24" stdDeviation="24" flood-color="#000" flood-opacity=".36"/></filter></defs>
  <rect width="760" height="520" rx="38" fill="url(#bg)"/><circle cx="620" cy="98" r="96" fill="#67E8F9" opacity=".1"/><circle cx="116" cy="420" r="110" fill="#A78BFA" opacity=".08"/>
  <g filter="url(#sh)"><rect x="86" y="78" width="588" height="364" rx="34" fill="#0E1320" stroke="#fff" stroke-opacity=".12"/>
    <rect x="126" y="120" width="508" height="50" rx="25" fill="#151B2B"/><circle cx="158" cy="145" r="12" fill="url(#a)"/><rect x="184" y="137" width="236" height="16" rx="8" fill="#fff" opacity=".78"/>
    <rect x="126" y="220" width="350" height="24" rx="12" fill="#8CEBFF" opacity=".82"/><rect x="126" y="264" width="438" height="12" rx="6" fill="#fff" opacity=".22"/><rect x="126" y="286" width="380" height="12" rx="6" fill="#fff" opacity=".14"/>
    <rect x="126" y="342" width="120" height="38" rx="19" fill="#151B2B"/><rect x="270" y="342" width="120" height="38" rx="19" fill="#151B2B"/><rect x="414" y="342" width="120" height="38" rx="19" fill="#151B2B"/>
  </g><text x="104" y="484" fill="#DDE7FF" font-family="Inter,Arial" font-size="18" font-weight="900">Search preview · title, description, site context</text>
</svg>
