<svg xmlns="http://www.w3.org/2000/svg" viewBox="0 0 760 520" role="img" aria-labelledby="title desc">
  <title id="title">Metadata stack mockup</title>
  <desc id="desc">A visual metadata stack showing title, description, JSON-LD, manifest, sitemap, and robots files.</desc>
  <defs><linearGradient id="bg" x1="0" y1="0" x2="1" y2="1"><stop offset="0" stop-color="#1A1420"/><stop offset="1" stop-color="#071019"/></linearGradient><linearGradient id="a" x1="0" y1="0" x2="1" y2="1"><stop offset="0" stop-color="#F9C784"/><stop offset=".5" stop-color="#A78BFA"/><stop offset="1" stop-color="#67E8F9"/></linearGradient><filter id="sh" x="-20%" y="-20%" width="140%" height="140%"><feDropShadow dx="0" dy="24" stdDeviation="24" flood-color="#000" flood-opacity=".36"/></filter></defs>
  <rect width="760" height="520" rx="38" fill="url(#bg)"/><path d="M84 150c116-70 226-70 330 0s194 64 266-20" fill="none" stroke="#F9C784" stroke-opacity=".12" stroke-width="26" stroke-linecap="round"/>
  <g filter="url(#sh)"><rect x="96" y="78" width="568" height="366" rx="34" fill="#10121C" stroke="#fff" stroke-opacity=".12"/>
    <rect x="134" y="118" width="210" height="22" rx="11" fill="#fff" opacity=".82"/><rect x="134" y="160" width="300" height="12" rx="6" fill="#fff" opacity=".18"/>
    <g font-family="Inter,Arial,sans-serif" font-size="14" font-weight="850"><rect x="134" y="214" width="492" height="38" rx="19" fill="#171A28"/><text x="178" y="238" fill="#F6F7FB">title + description</text><circle cx="156" cy="233" r="12" fill="url(#a)"/>
    <rect x="134" y="272" width="492" height="38" rx="19" fill="#171A28"/><text x="178" y="296" fill="#F6F7FB">Open Graph + social card</text><circle cx="156" cy="291" r="12" fill="url(#a)" opacity=".88"/>
    <rect x="134" y="330" width="492" height="38" rx="19" fill="#171A28"/><text x="178" y="354" fill="#F6F7FB">JSON-LD + manifest + sitemap</text><circle cx="156" cy="349" r="12" fill="url(#a)" opacity=".75"/></g>
  </g><text x="112" y="484" fill="#DDE7FF" font-family="Inter,Arial" font-size="18" font-weight="900">Metadata stack · crawl, share, launch</text>
</svg>
