<svg xmlns="http://www.w3.org/2000/svg" width="960" height="640" viewBox="0 0 960 640" role="img" aria-labelledby="title desc"><title id="title">Service delivery matrix</title><desc id="desc">A premium matrix showing service types mapped to outputs, planning, interface design, launch checks, and handoff documentation.</desc><defs><linearGradient id="bg" x1="0" y1="0" x2="1" y2="1"><stop stop-color="#07111f"/><stop offset="1" stop-color="#1b2544"/></linearGradient><linearGradient id="a" x1="0" y1="0" x2="1" y2="1"><stop stop-color="#78f7d4"/><stop offset="1" stop-color="#8db7ff"/></linearGradient><filter id="s"><feDropShadow dx="0" dy="18" stdDeviation="24" flood-opacity=".3"/></filter></defs><rect width="960" height="640" rx="44" fill="url(#bg)"/><rect x="72" y="72" width="816" height="496" rx="40" fill="#0d1729" stroke="#fff" stroke-opacity=".12" filter="url(#s)"/><rect x="112" y="112" width="736" height="64" rx="24" fill="#13243a"/><rect x="146" y="138" width="220" height="14" rx="7" fill="#fff" opacity=".86"/><rect x="650" y="128" width="144" height="32" rx="16" fill="url(#a)"/><g fill="#13243a" stroke="#fff" stroke-opacity=".08"><rect x="112" y="222" width="178" height="104" rx="26"/><rect x="312" y="222" width="178" height="104" rx="26"/><rect x="512" y="222" width="178" height="104" rx="26"/><rect x="112" y="350" width="178" height="104" rx="26"/><rect x="312" y="350" width="178" height="104" rx="26"/><rect x="512" y="350" width="178" height="104" rx="26"/><rect x="712" y="222" width="136" height="232" rx="30"/></g><g fill="url(#a)"><rect x="142" y="248" width="74" height="10" rx="5"/><rect x="342" y="248" width="74" height="10" rx="5"/><rect x="542" y="248" width="74" height="10" rx="5"/><rect x="142" y="376" width="74" height="10" rx="5"/><rect x="342" y="376" width="74" height="10" rx="5"/><rect x="542" y="376" width="74" height="10" rx="5"/></g><g fill="#fff" opacity=".8"><rect x="142" y="276" width="104" height="11" rx="6"/><rect x="342" y="276" width="112" height="11" rx="6"/><rect x="542" y="276" width="98" height="11" rx="6"/><rect x="142" y="404" width="92" height="11" rx="6"/><rect x="342" y="404" width="96" height="11" rx="6"/><rect x="542" y="404" width="110" height="11" rx="6"/><rect x="744" y="276" width="74" height="12" rx="6"/><rect x="744" y="326" width="82" height="12" rx="6"/><rect x="744" y="376" width="62" height="12" rx="6"/></g><path d="M734 430l34 34 66-82" fill="none" stroke="#78f7d4" stroke-width="9" stroke-linecap="round" stroke-linejoin="round"/></svg>
