<svg xmlns="http://www.w3.org/2000/svg" width="960" height="640" viewBox="0 0 960 640" role="img" aria-labelledby="title desc"><title id="title">Service output preview</title><desc id="desc">A premium output preview showing homepage sections, dashboard screens, storefront blocks, and launch documentation.</desc><defs><linearGradient id="bg" x1="0" y1="0" x2="1" y2="1"><stop stop-color="#0a1220"/><stop offset="1" stop-color="#1c2844"/></linearGradient><linearGradient id="a" x1="0" y1="0" x2="1" y2="1"><stop stop-color="#78f7d4"/><stop offset="1" stop-color="#8db7ff"/></linearGradient></defs><rect width="960" height="640" rx="44" fill="url(#bg)"/><rect x="86" y="82" width="788" height="476" rx="42" fill="#101b2d" stroke="#fff" stroke-opacity=".12"/><rect x="126" y="122" width="312" height="178" rx="32" fill="#14243a"/><rect x="162" y="160" width="158" height="18" rx="9" fill="#fff" opacity=".86"/><rect x="162" y="196" width="220" height="12" rx="6" fill="#9fb3c8" opacity=".45"/><rect x="162" y="232" width="118" height="36" rx="18" fill="url(#a)"/><rect x="474" y="122" width="360" height="178" rx="32" fill="#14243a"/><path d="M522 246c34-48 76-8 114-58 42 44 76 4 118-28" fill="none" stroke="#78f7d4" stroke-width="8" stroke-linecap="round"/><rect x="522" y="160" width="122" height="14" rx="7" fill="#fff" opacity=".78"/><rect x="126" y="334" width="220" height="150" rx="30" fill="#14243a"/><rect x="386" y="334" width="220" height="150" rx="30" fill="#14243a"/><rect x="646" y="334" width="188" height="150" rx="30" fill="#14243a"/><g fill="#fff" opacity=".82"><rect x="164" y="370" width="104" height="12" rx="6"/><rect x="424" y="370" width="120" height="12" rx="6"/><rect x="684" y="370" width="92" height="12" rx="6"/></g><g fill="#9fb3c8" opacity=".45"><rect x="164" y="402" width="142" height="10" rx="5"/><rect x="164" y="430" width="118" height="10" rx="5"/><rect x="424" y="402" width="134" height="10" rx="5"/><rect x="424" y="430" width="94" height="10" rx="5"/><rect x="684" y="402" width="110" height="10" rx="5"/><rect x="684" y="430" width="78" height="10" rx="5"/></g></svg>
