<svg xmlns="http://www.w3.org/2000/svg" viewBox="0 0 1100 720" role="img" aria-labelledby="title desc">
<title id="title">Admin panel UI</title><desc id="desc">Stats, tables, workflows visual for Hamzah service card.</desc>
<defs><linearGradient id="g" x1="0" x2="1" y1="0" y2="1"><stop offset="0" stop-color="#0B1020"/><stop offset=".65" stop-color="#F59E0B"/><stop offset="1" stop-color="#22C55E"/></linearGradient><radialGradient id="r" cx="72%" cy="18%" r="70%"><stop offset="0" stop-color="#fff" stop-opacity=".36"/><stop offset="1" stop-color="#fff" stop-opacity="0"/></radialGradient><filter id="s" x="-20%" y="-20%" width="140%" height="150%"><feDropShadow dx="0" dy="26" stdDeviation="28" flood-color="#000" flood-opacity=".32"/></filter></defs>
<rect width="1100" height="720" rx="52" fill="url(#g)"/><rect width="1100" height="720" rx="52" fill="url(#r)"/>
<g opacity=".18" stroke="#fff"><path d="M80 120h940M80 220h940M80 320h940M80 420h940M80 520h940M80 620h940"/><path d="M180 80v560M340 80v560M500 80v560M660 80v560M820 80v560M980 80v560"/></g>
<g filter="url(#s)"><rect x="96" y="92" width="908" height="474" rx="36" fill="#071016" opacity=".82" stroke="#fff" stroke-opacity=".20"/><rect x="130" y="130" width="840" height="62" rx="24" fill="#fff" opacity=".12"/><circle cx="164" cy="161" r="9" fill="#F87171"/><circle cx="194" cy="161" r="9" fill="#FBBF24"/><circle cx="224" cy="161" r="9" fill="#34D399"/><rect x="138" y="236" width="290" height="54" rx="20" fill="#fff" opacity=".88"/><rect x="138" y="318" width="394" height="22" rx="11" fill="#fff" opacity=".27"/><rect x="138" y="358" width="322" height="22" rx="11" fill="#fff" opacity=".20"/><rect x="138" y="418" width="148" height="50" rx="25" fill="#22C55E"/><g transform="translate(620 236)"><rect width="292" height="216" rx="26" fill="#fff" opacity=".12" stroke="#fff" stroke-opacity=".24"/><rect x="26" y="28" width="240" height="34" rx="17" fill="#F59E0B"/><rect x="26" y="86" width="104" height="82" rx="18" fill="#fff" opacity=".76"/><rect x="150" y="86" width="116" height="82" rx="18" fill="#fff" opacity=".20"/></g></g>
<text x="96" y="644" fill="#fff" font-family="Inter,Arial,sans-serif" font-size="40" font-weight="900">Admin panel UI</text><text x="96" y="682" fill="#fff" opacity=".72" font-family="Inter,Arial,sans-serif" font-size="22">Stats, tables, workflows</text>
</svg>