<svg xmlns="http://www.w3.org/2000/svg" width="960" height="640" viewBox="0 0 960 640" role="img" aria-labelledby="title desc"><title id="title">Static quality gate</title><desc id="desc">A launch quality gate showing source scan, build output, HTTP asset checks, Appwrite check, reports, and ZIP integrity.</desc><defs><linearGradient id="bg" x1="0" y1="0" x2="1" y2="1"><stop stop-color="#0a1220"/><stop offset="1" stop-color="#1c2844"/></linearGradient><linearGradient id="a" x1="0" y1="0" x2="1" y2="1"><stop stop-color="#78f7d4"/><stop offset="1" stop-color="#8db7ff"/></linearGradient></defs><rect width="960" height="640" rx="44" fill="url(#bg)"/><rect x="86" y="84" width="788" height="472" rx="42" fill="#101b2d" stroke="#fff" stroke-opacity=".12"/><rect x="128" y="132" width="704" height="70" rx="28" fill="#14243a"/><rect x="168" y="160" width="218" height="14" rx="7" fill="#fff" opacity=".86"/><rect x="674" y="148" width="104" height="32" rx="16" fill="url(#a)"/><g fill="#14243a" stroke="#fff" stroke-opacity=".08"><rect x="128" y="250" width="216" height="92" rx="26"/><rect x="372" y="250" width="216" height="92" rx="26"/><rect x="616" y="250" width="216" height="92" rx="26"/><rect x="128" y="382" width="216" height="92" rx="26"/><rect x="372" y="382" width="216" height="92" rx="26"/><rect x="616" y="382" width="216" height="92" rx="26"/></g><g fill="url(#a)"><rect x="164" y="278" width="70" height="10" rx="5"/><rect x="408" y="278" width="70" height="10" rx="5"/><rect x="652" y="278" width="70" height="10" rx="5"/><rect x="164" y="410" width="70" height="10" rx="5"/><rect x="408" y="410" width="70" height="10" rx="5"/><rect x="652" y="410" width="70" height="10" rx="5"/></g><g fill="#fff" opacity=".82"><rect x="164" y="308" width="122" height="10" rx="5"/><rect x="408" y="308" width="122" height="10" rx="5"/><rect x="652" y="308" width="122" height="10" rx="5"/><rect x="164" y="440" width="122" height="10" rx="5"/><rect x="408" y="440" width="122" height="10" rx="5"/><rect x="652" y="440" width="122" height="10" rx="5"/></g><path d="M344 296h28M588 296h28M344 428h28M588 428h28" stroke="#78f7d4" stroke-width="6" stroke-linecap="round"/></svg>
