<svg xmlns="http://www.w3.org/2000/svg" viewBox="0 0 760 520" role="img" aria-labelledby="title desc">
  <title id="title">Theme and accessibility board mockup</title>
  <desc id="desc">A visual board showing dark theme, light theme, keyboard focus, reduced motion, and alt text checks.</desc>
  <defs><linearGradient id="bg" x1="0" y1="0" x2="1" y2="1"><stop offset="0" stop-color="#101827"/><stop offset="1" stop-color="#080A10"/></linearGradient><linearGradient id="a" x1="0" y1="0" x2="1" y2="1"><stop offset="0" stop-color="#67E8F9"/><stop offset=".55" stop-color="#A78BFA"/><stop offset="1" stop-color="#F9C784"/></linearGradient><filter id="sh" x="-20%" y="-20%" width="140%" height="140%"><feDropShadow dx="0" dy="24" stdDeviation="24" flood-color="#000" flood-opacity=".36"/></filter></defs>
  <rect width="760" height="520" rx="38" fill="url(#bg)"/><circle cx="620" cy="100" r="96" fill="#67E8F9" opacity=".09"/><circle cx="132" cy="416" r="110" fill="#A78BFA" opacity=".08"/>
  <g filter="url(#sh)"><rect x="86" y="74" width="588" height="372" rx="34" fill="#0E1320" stroke="#fff" stroke-opacity=".12"/>
    <rect x="124" y="112" width="206" height="22" rx="11" fill="#fff" opacity=".84"/><rect x="124" y="154" width="360" height="12" rx="6" fill="#fff" opacity=".18"/>
    <rect x="124" y="214" width="210" height="142" rx="24" fill="#151B2B"/><rect x="374" y="214" width="226" height="142" rx="24" fill="#F6F7FB" opacity=".94"/>
    <rect x="148" y="246" width="118" height="16" rx="8" fill="#fff" opacity=".76"/><rect x="148" y="284" width="78" height="34" rx="17" fill="url(#a)"/>
    <rect x="400" y="246" width="120" height="16" rx="8" fill="#111827" opacity=".78"/><rect x="400" y="284" width="80" height="34" rx="17" fill="url(#a)"/>
    <rect x="124" y="384" width="476" height="34" rx="17" fill="url(#a)" opacity=".86"/>
    <text x="246" y="407" fill="#07111A" font-family="Inter,Arial" font-size="13" font-weight="900">Theme, focus, reduced motion, and alt text</text>
  </g>
</svg>
