<svg xmlns="http://www.w3.org/2000/svg" viewBox="0 0 760 520" role="img" aria-labelledby="title desc">
  <title id="title">Plain website before layout mockup</title>
  <desc id="desc">A simple plain website layout mockup showing weak hierarchy, low trust, and unclear calls to action.</desc>
  <defs><linearGradient id="bg" x1="0" y1="0" x2="1" y2="1"><stop offset="0" stop-color="#1a1d24"/><stop offset="1" stop-color="#0a0c11"/></linearGradient><filter id="sh" x="-20%" y="-20%" width="140%" height="140%"><feDropShadow dx="0" dy="20" stdDeviation="22" flood-color="#000" flood-opacity=".34"/></filter></defs>
  <rect width="760" height="520" rx="38" fill="url(#bg)"/>
  <g filter="url(#sh)"><rect x="90" y="74" width="580" height="372" rx="30" fill="#10131A" stroke="#fff" stroke-opacity=".09"/>
    <rect x="124" y="110" width="512" height="42" rx="12" fill="#1b2029"/><rect x="124" y="190" width="310" height="20" rx="10" fill="#fff" opacity=".35"/><rect x="124" y="226" width="420" height="12" rx="6" fill="#fff" opacity=".16"/><rect x="124" y="250" width="360" height="12" rx="6" fill="#fff" opacity=".12"/>
    <rect x="124" y="304" width="140" height="42" rx="10" fill="#2a303b"/><rect x="290" y="304" width="140" height="42" rx="10" fill="#191e26"/>
    <rect x="124" y="382" width="154" height="34" rx="12" fill="#1b2029"/><rect x="304" y="382" width="154" height="34" rx="12" fill="#1b2029"/><rect x="484" y="382" width="154" height="34" rx="12" fill="#1b2029"/>
  </g>
  <text x="102" y="484" fill="#AAB2C5" font-family="Inter,Arial" font-size="18" font-weight="800">Before · unclear sections, flat visual hierarchy</text>
</svg>
