<svg xmlns="http://www.w3.org/2000/svg" width="760" height="520" viewBox="0 0 760 520" role="img" aria-labelledby="title desc"><title id="title">Travel enquiry package cards</title><desc id="desc">Three travel package cards for quick escape, signature trip, and custom journey.</desc><defs><linearGradient id="g" x1="0" y1="0" x2="1" y2="1"><stop stop-color="#0ea5e9"/><stop offset="1" stop-color="#14b8a6"/></linearGradient></defs><rect width="760" height="520" rx="36" fill="#f0fdfa"/><text x="48" y="82" fill="#0f172a" font-family="Arial" font-size="30" font-weight="900">Enquiry Packages</text><text x="48" y="112" fill="#64748b" font-family="Arial" font-size="15">Clear options for travel planning conversations.</text><g transform="translate(48 160)"><g><rect width="196" height="276" rx="28" fill="#fff"/><text x="26" y="54" fill="#0ea5e9" font-family="Arial" font-size="13" font-weight="900">ESCAPE</text><text x="26" y="100" fill="#0f172a" font-family="Arial" font-size="27" font-weight="900">Weekend</text><path d="M26 142h132M26 172h110" stroke="#94a3b8" stroke-width="7"/><rect x="26" y="218" width="126" height="34" rx="17" fill="#0ea5e9"/></g><g transform="translate(222)"><rect width="196" height="276" rx="28" fill="url(#g)"/><text x="26" y="54" fill="#fff" font-family="Arial" font-size="13" font-weight="900">POPULAR</text><text x="26" y="100" fill="#fff" font-family="Arial" font-size="27" font-weight="900">Signature</text><path d="M26 142h132M26 172h110" stroke="#fff" stroke-width="7" opacity=".7"/><rect x="26" y="218" width="126" height="34" rx="17" fill="#fff"/></g><g transform="translate(444)"><rect width="196" height="276" rx="28" fill="#fff"/><text x="26" y="54" fill="#f97316" font-family="Arial" font-size="13" font-weight="900">CUSTOM</text><text x="26" y="100" fill="#0f172a" font-family="Arial" font-size="27" font-weight="900">Journey</text><path d="M26 142h132M26 172h110" stroke="#94a3b8" stroke-width="7"/><rect x="26" y="218" width="126" height="34" rx="17" fill="#f97316"/></g></g></svg>
