<svg xmlns="http://www.w3.org/2000/svg" width="920" height="680" viewBox="0 0 920 680" role="img" aria-labelledby="title desc"><title id="title">Travel agency destination map hero mockup</title><desc id="desc">A vibrant travel agency hero with destination cards, map routes, ticket, and passport-style panels.</desc><defs><linearGradient id="sky" x1="0" y1="0" x2="1" y2="1"><stop stop-color="#0ea5e9"/><stop offset=".48" stop-color="#14b8a6"/><stop offset="1" stop-color="#f97316"/></linearGradient><linearGradient id="sun" x1="0" y1="0" x2="1" y2="1"><stop stop-color="#fef3c7"/><stop offset="1" stop-color="#fb923c"/></linearGradient></defs><rect width="920" height="680" rx="48" fill="#06121f"/><circle cx="742" cy="106" r="178" fill="url(#sun)" opacity=".42"/><path d="M0 456c124-80 225-70 330-14s226 78 333 18 178-82 257-34v254H0z" fill="#0f766e" opacity=".7"/><rect x="70" y="70" width="780" height="538" rx="38" fill="url(#sky)" opacity=".96"/><g opacity=".22" stroke="#fff" stroke-width="2"><path d="M130 170c140 100 282 60 410 132s190 32 258 84" fill="none"/><path d="M155 440c104-92 216-100 326-44s224 40 314-78" fill="none"/></g><g transform="translate(118 116)"><rect width="360" height="390" rx="34" fill="#fff7ed"/><text x="34" y="64" fill="#0f172a" font-family="Arial" font-size="28" font-weight="900">VistaTrail Co.</text><text x="34" y="94" fill="#64748b" font-family="Arial" font-size="15">Custom trips and destination planning</text><rect x="34" y="130" width="292" height="120" rx="24" fill="#0f766e"/><path d="M70 220l72-72 44 44 48-54 58 82" fill="none" stroke="#ecfeff" stroke-width="10" stroke-linecap="round"/><rect x="34" y="282" width="128" height="46" rx="23" fill="#f97316"/><rect x="178" y="282" width="148" height="46" rx="23" fill="#0ea5e9"/><text x="60" y="312" fill="#fff" font-family="Arial" font-size="13" font-weight="900">EXPLORE</text><text x="213" y="312" fill="#fff" font-family="Arial" font-size="13" font-weight="900">PLAN TRIP</text></g><g transform="translate(540 150)"><rect width="250" height="142" rx="28" fill="#fff7ed"/><text x="26" y="52" fill="#0f172a" font-family="Arial" font-size="22" font-weight="900">Passport Ready</text><text x="26" y="82" fill="#64748b" font-family="Arial" font-size="14">Documents · dates · routes</text><circle cx="196" cy="72" r="34" fill="#14b8a6"/><rect x="28" y="104" width="160" height="12" rx="6" fill="#fed7aa"/></g><g transform="translate(562 342)"><rect width="230" height="126" rx="28" fill="#fff7ed" transform="rotate(-5)"/><text x="30" y="46" fill="#0f172a" font-family="Arial" font-size="20" font-weight="900">Boarding pass</text><path d="M32 76h154" stroke="#94a3b8" stroke-width="7" stroke-linecap="round"/><path d="M32 100h96" stroke="#14b8a6" stroke-width="7" stroke-linecap="round"/></g><g fill="#fff"><circle cx="252" cy="220" r="9"/><circle cx="546" cy="304" r="9"/><circle cx="726" cy="382" r="9"/></g></svg>
