<svg xmlns="http://www.w3.org/2000/svg" width="760" height="520" viewBox="0 0 760 520" role="img" aria-labelledby="title desc"><title id="title">Travel itinerary preview</title><desc id="desc">A five-day travel itinerary timeline with accommodation, transfer, activity, and free time cards.</desc><rect width="760" height="520" rx="36" fill="#f0fdfa"/><text x="48" y="78" fill="#0f172a" font-family="Arial" font-size="30" font-weight="900">Itinerary Preview</text><text x="48" y="108" fill="#64748b" font-family="Arial" font-size="15">A clean trip timeline for showing what travelers get.</text><g transform="translate(72 158)"><path d="M42 0v286" stroke="#14b8a6" stroke-width="6" stroke-linecap="round"/><g font-family="Arial"><g><circle cx="42" cy="24" r="18" fill="#f97316"/><rect x="82" y="0" width="500" height="54" rx="20" fill="#fff"/><text x="108" y="34" fill="#0f172a" font-size="16" font-weight="900">Day 1 · Arrival and local welcome</text></g><g transform="translate(0 72)"><circle cx="42" cy="24" r="18" fill="#0ea5e9"/><rect x="82" y="0" width="500" height="54" rx="20" fill="#fff"/><text x="108" y="34" fill="#0f172a" font-size="16" font-weight="900">Day 2 · Guided city or coast experience</text></g><g transform="translate(0 144)"><circle cx="42" cy="24" r="18" fill="#14b8a6"/><rect x="82" y="0" width="500" height="54" rx="20" fill="#fff"/><text x="108" y="34" fill="#0f172a" font-size="16" font-weight="900">Day 3 · Signature activity and free evening</text></g><g transform="translate(0 216)"><circle cx="42" cy="24" r="18" fill="#f97316"/><rect x="82" y="0" width="500" height="54" rx="20" fill="#fff"/><text x="108" y="34" fill="#0f172a" font-size="16" font-weight="900">Day 4 · Scenic route and flexible add-ons</text></g></g></g></svg>
