<svg xmlns="http://www.w3.org/2000/svg" width="760" height="520" viewBox="0 0 760 520" role="img" aria-labelledby="title desc"><title id="title">Travel destination trip cards</title><desc id="desc">Three travel trip cards for island, mountain, and city journeys.</desc><defs><linearGradient id="a" x1="0" y1="0" x2="1" y2="1"><stop stop-color="#0ea5e9"/><stop offset="1" stop-color="#14b8a6"/></linearGradient><linearGradient id="b" x1="0" y1="0" x2="1" y2="1"><stop stop-color="#fb923c"/><stop offset="1" stop-color="#fef3c7"/></linearGradient></defs><rect width="760" height="520" rx="36" fill="#06121f"/><text x="48" y="78" fill="#fff" font-family="Arial" font-size="30" font-weight="900">Featured Trips</text><text x="48" y="108" fill="#bcd7e5" font-family="Arial" font-size="15">Destination cards designed for fast browsing and enquiry clicks.</text><g transform="translate(48 150)"><g><rect width="196" height="300" rx="28" fill="#fff7ed"/><rect x="18" y="18" width="160" height="130" rx="22" fill="url(#a)"/><path d="M40 128l52-56 40 36 28-34" fill="none" stroke="#fff" stroke-width="8" stroke-linecap="round"/><text x="22" y="196" fill="#0f172a" font-family="Arial" font-size="24" font-weight="900">Azure Coast</text><text x="22" y="226" fill="#64748b" font-family="Arial" font-size="13">7 days · beaches</text></g><g transform="translate(222)"><rect width="196" height="300" rx="28" fill="#fff7ed"/><rect x="18" y="18" width="160" height="130" rx="22" fill="url(#b)"/><path d="M42 126l48-74 42 58 28-36" fill="none" stroke="#0f172a" stroke-width="8" stroke-linecap="round"/><text x="22" y="196" fill="#0f172a" font-family="Arial" font-size="24" font-weight="900">Alpine Loop</text><text x="22" y="226" fill="#64748b" font-family="Arial" font-size="13">6 days · trails</text></g><g transform="translate(444)"><rect width="196" height="300" rx="28" fill="#fff7ed"/><rect x="18" y="18" width="160" height="130" rx="22" fill="#0f766e"/><path d="M52 128V70h24v58M92 128V52h24v76M132 128V88h24v40" stroke="#fff" stroke-width="10"/><text x="22" y="196" fill="#0f172a" font-family="Arial" font-size="24" font-weight="900">City Lights</text><text x="22" y="226" fill="#64748b" font-family="Arial" font-size="13">5 days · culture</text></g></g></svg>
