<svg xmlns="http://www.w3.org/2000/svg" viewBox="0 0 760 520" role="img" aria-labelledby="title desc">
  <title id="title">Premium UI kit board mockup</title>
  <desc id="desc">A premium interface board showing buttons, cards, navigation, badges, and form components.</desc>
  <defs><linearGradient id="bg" x1="0" y1="0" x2="1" y2="1"><stop offset="0" stop-color="#101827"/><stop offset="1" stop-color="#070A10"/></linearGradient><linearGradient id="a" x1="0" y1="0" x2="1" y2="1"><stop offset="0" stop-color="#67E8F9"/><stop offset=".5" stop-color="#A78BFA"/><stop offset="1" stop-color="#F9C784"/></linearGradient><filter id="sh" x="-20%" y="-20%" width="140%" height="140%"><feDropShadow dx="0" dy="24" stdDeviation="24" flood-color="#000" flood-opacity=".36"/></filter></defs>
  <rect width="760" height="520" rx="38" fill="url(#bg)"/><circle cx="626" cy="100" r="96" fill="#67E8F9" opacity=".09"/><circle cx="116" cy="420" r="112" fill="#A78BFA" opacity=".08"/>
  <g filter="url(#sh)"><rect x="82" y="70" width="596" height="378" rx="34" fill="#0E1320" stroke="#fff" stroke-opacity=".12"/>
    <rect x="120" y="108" width="192" height="22" rx="11" fill="#fff" opacity=".85"/><rect x="120" y="152" width="320" height="12" rx="6" fill="#fff" opacity=".18"/>
    <rect x="120" y="206" width="140" height="54" rx="22" fill="url(#a)"/><rect x="286" y="206" width="140" height="54" rx="22" fill="#151B2B" stroke="#fff" stroke-opacity=".14"/><rect x="452" y="206" width="150" height="54" rx="22" fill="#151B2B" stroke="#67E8F9" stroke-opacity=".24"/>
    <rect x="120" y="304" width="150" height="96" rx="24" fill="#151B2B"/><rect x="304" y="304" width="150" height="96" rx="24" fill="#151B2B"/><rect x="488" y="304" width="114" height="96" rx="24" fill="#151B2B"/>
    <g fill="url(#a)" opacity=".85"><circle cx="160" cy="352" r="20"/><circle cx="344" cy="352" r="20"/><circle cx="526" cy="352" r="20"/></g>
  </g><text x="104" y="484" fill="#DDE7FF" font-family="Inter,Arial" font-size="18" font-weight="900">UI kit · reusable premium interface parts</text>
</svg>
