<svg xmlns="http://www.w3.org/2000/svg" width="960" height="640" viewBox="0 0 960 640" role="img" aria-labelledby="title desc">
<title id="title">Visitor journey map mockup</title><desc id="desc">A premium visitor journey map from first impression to services, packages, brief, and contact.</desc>
<defs><linearGradient id="bg" x1="0" y1="0" x2="1" y2="1"><stop stop-color="#090f1d"/><stop offset="1" stop-color="#1b2544"/></linearGradient><linearGradient id="a" x1="0" y1="0" x2="1" y2="1"><stop stop-color="#8db7ff"/><stop offset="1" stop-color="#78f7d4"/></linearGradient><filter id="sh" x="-20%" y="-20%" width="140%" height="140%"><feDropShadow dx="0" dy="18" stdDeviation="20" flood-opacity=".34"/></filter></defs>
<rect width="960" height="640" rx="42" fill="url(#bg)"/><circle cx="820" cy="120" r="190" fill="#8db7ff" opacity=".10"/><circle cx="120" cy="520" r="210" fill="#78f7d4" opacity=".08"/>
<rect x="76" y="90" width="808" height="460" rx="40" fill="#0d1729" stroke="#fff" stroke-opacity=".12" filter="url(#sh)"/>
<text x="130" y="154" fill="#f8fbff" font-family="Inter,Arial" font-size="30" font-weight="800">Visitor journey</text><text x="130" y="186" fill="#9fb3c8" font-family="Inter,Arial" font-size="17">Turn curiosity into a clean project brief.</text>
<g font-family="Inter,Arial">
<g transform="translate(126 252)"><rect width="160" height="112" rx="28" fill="#14223a" stroke="#fff" stroke-opacity=".10"/><circle cx="44" cy="42" r="18" fill="url(#a)"/><text x="78" y="48" fill="#f8fbff" font-size="18" font-weight="800">Trust</text><text x="30" y="84" fill="#9fb3c8" font-size="14">Hero + proof</text></g>
<g transform="translate(320 252)"><rect width="160" height="112" rx="28" fill="#14223a" stroke="#fff" stroke-opacity=".10"/><circle cx="44" cy="42" r="18" fill="#ffd166"/><text x="78" y="48" fill="#f8fbff" font-size="18" font-weight="800">Fit</text><text x="30" y="84" fill="#9fb3c8" font-size="14">Types + services</text></g>
<g transform="translate(514 252)"><rect width="160" height="112" rx="28" fill="#14223a" stroke="#fff" stroke-opacity=".10"/><circle cx="44" cy="42" r="18" fill="#ff8bd1"/><text x="78" y="48" fill="#f8fbff" font-size="18" font-weight="800">Scope</text><text x="30" y="84" fill="#9fb3c8" font-size="14">Packages + FAQ</text></g>
<g transform="translate(708 252)"><rect width="130" height="112" rx="28" fill="#14223a" stroke="#fff" stroke-opacity=".10"/><circle cx="42" cy="42" r="18" fill="#78f7d4"/><text x="70" y="48" fill="#f8fbff" font-size="18" font-weight="800">Act</text><text x="28" y="84" fill="#9fb3c8" font-size="14">Contact</text></g>
</g>
<path d="M286 309h34M480 309h34M674 309h34" stroke="#8db7ff" stroke-width="5" stroke-linecap="round" stroke-dasharray="10 10"/>
<rect x="130" y="420" width="700" height="70" rx="24" fill="#101f35" stroke="#fff" stroke-opacity=".10"/><rect x="162" y="444" width="190" height="16" rx="8" fill="#f8fbff" opacity=".88"/><rect x="162" y="468" width="330" height="10" rx="5" fill="#9fb3c8" opacity=".52"/><rect x="650" y="436" width="132" height="38" rx="19" fill="url(#a)"/><text x="716" y="461" text-anchor="middle" fill="#07111f" font-family="Inter,Arial" font-size="15" font-weight="900">Start brief</text>
</svg>