<svg xmlns="http://www.w3.org/2000/svg" viewBox="0 0 1200 760" role="img" aria-labelledby="title desc">
<title id="title">Creator Admin Console</title><desc id="desc">Dashboard patterns, tables, settings, workflow states case-study style preview for the Hamzah portfolio.</desc>
<defs><linearGradient id="g" x1="0" x2="1" y1="0" y2="1"><stop offset="0" stop-color="#0B1020"/><stop offset=".62" stop-color="#60A5FA"/><stop offset="1" stop-color="#A78BFA"/></linearGradient><radialGradient id="r" cx="70%" cy="20%" r="65%"><stop offset="0" stop-color="#fff" stop-opacity=".38"/><stop offset="1" stop-color="#fff" stop-opacity="0"/></radialGradient><filter id="shadow" x="-20%" y="-20%" width="140%" height="150%"><feDropShadow dx="0" dy="30" stdDeviation="30" flood-color="#000" flood-opacity=".34"/></filter></defs>
<rect width="1200" height="760" rx="56" fill="url(#g)"/><rect width="1200" height="760" rx="56" fill="url(#r)"/>
<path d="M0 560 C180 500 280 650 470 520 C670 382 800 586 1000 432 C1088 364 1148 380 1200 394 L1200 760 L0 760Z" fill="#000" opacity=".20"/>
<g filter="url(#shadow)"><rect x="86" y="84" width="1028" height="536" rx="42" fill="#071016" opacity=".84" stroke="#fff" stroke-opacity=".20"/><rect x="128" y="124" width="944" height="72" rx="26" fill="#fff" opacity=".11"/><circle cx="166" cy="160" r="10" fill="#FB7185"/><circle cx="198" cy="160" r="10" fill="#FBBF24"/><circle cx="230" cy="160" r="10" fill="#34D399"/><rect x="836" y="144" width="190" height="30" rx="15" fill="#fff" opacity=".22"/>
<rect x="132" y="236" width="408" height="70" rx="24" fill="#fff" opacity=".92"/><rect x="132" y="334" width="460" height="24" rx="12" fill="#fff" opacity=".28"/><rect x="132" y="374" width="360" height="24" rx="12" fill="#fff" opacity=".20"/><rect x="132" y="438" width="168" height="52" rx="26" fill="#A78BFA"/><rect x="318" y="438" width="168" height="52" rx="26" fill="#fff" opacity=".12" stroke="#fff" stroke-opacity=".25"/>
<g transform="translate(660 236)"><rect width="344" height="272" rx="30" fill="#fff" opacity=".12" stroke="#fff" stroke-opacity=".25"/><rect x="28" y="30" width="288" height="34" rx="17" fill="#60A5FA"/><rect x="28" y="90" width="120" height="86" rx="20" fill="#fff" opacity=".76"/><rect x="168" y="90" width="148" height="86" rx="20" fill="#fff" opacity=".18"/><rect x="28" y="206" width="288" height="28" rx="14" fill="#fff" opacity=".26"/></g>
<g transform="translate(132 542)"><rect width="872" height="54" rx="20" fill="#fff" opacity=".08"/><rect x="22" y="16" width="116" height="22" rx="11" fill="#A78BFA" opacity=".85"/><rect x="166" y="16" width="116" height="22" rx="11" fill="#fff" opacity=".22"/><rect x="310" y="16" width="116" height="22" rx="11" fill="#fff" opacity=".18"/><rect x="454" y="16" width="116" height="22" rx="11" fill="#fff" opacity=".15"/></g></g>
<text x="86" y="690" fill="#fff" font-family="Inter,Arial,sans-serif" font-size="44" font-weight="900">Creator Admin Console</text><text x="86" y="728" fill="#fff" opacity=".72" font-family="Inter,Arial,sans-serif" font-size="22">Dashboard patterns, tables, settings, workflow states</text>
</svg>