<svg xmlns="http://www.w3.org/2000/svg" width="960" height="560" viewBox="0 0 960 560" role="img" aria-labelledby="title desc">
  <title id="title">Work screen quality system</title>
  <desc id="desc">Local premium illustration for Hamzah selected work proof presentation.</desc>
  <defs>
    <linearGradient id="bg" x1="0" y1="0" x2="1" y2="1"><stop offset="0" stop-color="#05120f"/><stop offset=".55" stop-color="#11231d"/><stop offset="1" stop-color="#221f16"/></linearGradient>
    <linearGradient id="accent" x1="0" y1="0" x2="1" y2="1"><stop offset="0" stop-color="#73f4c6"/><stop offset="1" stop-color="#d7b56b"/></linearGradient>
    <filter id="shadow" x="-20%" y="-20%" width="140%" height="140%"><feDropShadow dx="0" dy="24" stdDeviation="22" flood-color="#000" flood-opacity=".35"/></filter>
  </defs>
  <rect width="960" height="560" rx="42" fill="url(#bg)"/>
  <circle cx="820" cy="92" r="172" fill="#73f4c6" opacity=".10"/>
  <circle cx="108" cy="456" r="188" fill="#d7b56b" opacity=".10"/>
  <rect x="54" y="50" width="852" height="460" rx="34" fill="#fff" opacity=".045" stroke="#fff" stroke-opacity=".16"/>
  <text x="86" y="100" fill="#f4fff9" font-family="Inter, Arial, sans-serif" font-size="28" font-weight="800">Hamzah</text>
  <text x="86" y="130" fill="#a8b8b1" font-family="Inter, Arial, sans-serif" font-size="15" letter-spacing="2">Work screen quality system</text>
  
  <g filter="url(#shadow)">
    <rect x="92" y="176" width="360" height="244" rx="28" fill="#0e1c17" stroke="#fff" stroke-opacity=".14"/>
    <rect x="122" y="210" width="300" height="156" rx="22" fill="#fff" opacity=".07"/>
    <rect x="148" y="238" width="132" height="14" rx="7" fill="url(#accent)"/>
    <rect x="148" y="274" width="212" height="12" rx="6" fill="#fff" opacity=".18"/>
    <rect x="148" y="304" width="168" height="12" rx="6" fill="#fff" opacity=".18"/>
    <rect x="148" y="334" width="236" height="12" rx="6" fill="#fff" opacity=".18"/>
    <text x="122" y="400" fill="#a8b8b1" font-family="Inter, Arial, sans-serif" font-size="14">Desktop inspection frame</text>

    <rect x="498" y="150" width="146" height="294" rx="34" fill="#0e1c17" stroke="#fff" stroke-opacity=".16"/>
    <rect x="516" y="186" width="110" height="206" rx="24" fill="#fff" opacity=".075"/>
    <rect x="536" y="216" width="62" height="10" rx="5" fill="#73f4c6" opacity=".9"/>
    <rect x="536" y="252" width="76" height="9" rx="5" fill="#fff" opacity=".18"/>
    <rect x="536" y="280" width="58" height="9" rx="5" fill="#fff" opacity=".18"/>
    <rect x="536" y="336" width="68" height="24" rx="12" fill="url(#accent)" opacity=".9"/>

    <rect x="684" y="196" width="186" height="200" rx="26" fill="#0e1c17" stroke="#fff" stroke-opacity=".14"/>
    <text x="716" y="244" fill="#f4fff9" font-family="Inter, Arial, sans-serif" font-size="21" font-weight="800">Quality</text>
    <circle cx="724" cy="284" r="8" fill="#73f4c6"/><text x="744" y="290" fill="#a8b8b1" font-family="Inter, Arial, sans-serif" font-size="14">Responsive</text>
    <circle cx="724" cy="324" r="8" fill="#d7b56b"/><text x="744" y="330" fill="#a8b8b1" font-family="Inter, Arial, sans-serif" font-size="14">Assets</text>
    <circle cx="724" cy="364" r="8" fill="#73f4c6"/><text x="744" y="370" fill="#a8b8b1" font-family="Inter, Arial, sans-serif" font-size="14">Reports</text>
  </g>
  <path d="M452 292 C474 254 486 224 512 214" stroke="url(#accent)" stroke-width="6" fill="none" stroke-linecap="round" opacity=".8"/>
  <path d="M644 292 C666 276 674 260 690 250" stroke="url(#accent)" stroke-width="6" fill="none" stroke-linecap="round" opacity=".8"/>

</svg>