<svg xmlns="http://www.w3.org/2000/svg" width="960" height="640" viewBox="0 0 960 640" role="img" aria-labelledby="title desc"><title id="title">Work proof snapshot mockup</title><desc id="desc">A proof snapshot card with local visual, feature notes, responsive views, and launch checks.</desc><defs><linearGradient id="bg" x1="0" y1="0" x2="1" y2="1"><stop stop-color="#130c21"/><stop offset="1" stop-color="#301a38"/></linearGradient><linearGradient id="a" x1="0" y1="0" x2="1" y2="1"><stop stop-color="#ff8bd1"/><stop offset="1" stop-color="#8db7ff"/></linearGradient><filter id="s"><feDropShadow dx="0" dy="18" stdDeviation="22" flood-opacity=".34"/></filter></defs><rect width="960" height="640" rx="42" fill="url(#bg)"/><rect x="120" y="92" width="720" height="456" rx="40" fill="#170f29" stroke="#fff" stroke-opacity=".12" filter="url(#s)"/><rect x="168" y="140" width="300" height="232" rx="30" fill="#24183d"/><rect x="200" y="176" width="236" height="102" rx="24" fill="#382552"/><circle cx="318" cy="227" r="38" fill="url(#a)"/><rect x="200" y="314" width="150" height="16" rx="8" fill="#fff" opacity=".9"/><rect x="200" y="342" width="206" height="10" rx="5" fill="#b9a9d0" opacity=".52"/><g font-family="Inter,Arial" fill="#fff"><rect x="520" y="150" width="270" height="56" rx="20" fill="#24183d"/><text x="548" y="185" font-size="17" font-weight="800">Responsive layout</text><rect x="520" y="230" width="270" height="56" rx="20" fill="#24183d"/><text x="548" y="265" font-size="17" font-weight="800">Original local visuals</text><rect x="520" y="310" width="270" height="56" rx="20" fill="#24183d"/><text x="548" y="345" font-size="17" font-weight="800">Contact path</text><rect x="520" y="390" width="270" height="56" rx="20" fill="#24183d"/><text x="548" y="425" font-size="17" font-weight="800">QA + handoff notes</text></g></svg>