<svg xmlns="http://www.w3.org/2000/svg" width="1400" height="900" viewBox="0 0 1400 900" role="img" aria-labelledby="title desc"><title id="title">Restaurant menu and dining atmosphere</title><desc id="desc">A premium menu board with plated dishes and candlelit dining room details.</desc><defs><linearGradient id="cream" x1="0" y1="0" x2="1" y2="1"><stop stop-color="#fff6e6"/><stop offset="1" stop-color="#eadabb"/></linearGradient><linearGradient id="dark" x1="0" y1="0" x2="1" y2="1"><stop stop-color="#10120d"/><stop offset="1" stop-color="#24180d"/></linearGradient><linearGradient id="gold" x1="0" y1="0" x2="1" y2="1"><stop stop-color="#b88b4e"/><stop offset="1" stop-color="#f1cf90"/></linearGradient></defs><rect width="1400" height="900" fill="url(#dark)"/><rect x="90" y="90" width="1220" height="320" rx="42" fill="url(#cream)"/><g><circle cx="265" cy="245" r="92" fill="#723819"/><circle cx="530" cy="245" r="92" fill="#c48a42"/><circle cx="795" cy="245" r="92" fill="#e7cc91"/><circle cx="1060" cy="245" r="92" fill="#4a2014"/></g><g font-family="Georgia" font-size="35" fill="#27190f"><text x="170" y="385">Wood-fired plate</text><text x="455" y="385">Handmade pasta</text><text x="730" y="385">Seared scallops</text><text x="1000" y="385">Chocolate tart</text></g><rect x="110" y="485" width="560" height="300" rx="36" fill="#0f0f0b" stroke="#b88b4e" stroke-opacity=".25"/><rect x="730" y="485" width="560" height="300" rx="36" fill="#1e160f" stroke="#b88b4e" stroke-opacity=".25"/><path d="M170 675h420" stroke="url(#gold)" stroke-width="16" stroke-linecap="round" opacity=".75"/><path d="M795 610h390M795 675h300M795 740h360" stroke="#f7e1bc" stroke-opacity=".35" stroke-width="22" stroke-linecap="round"/><text x="790" y="560" fill="#f7e1bc" font-family="Georgia" font-size="52">A table awaits</text></svg>
