<svg xmlns="http://www.w3.org/2000/svg" width="1800" height="1050" viewBox="0 0 1800 1050" role="img" aria-labelledby="title desc"><title id="title">Restaurant atmosphere visual</title><desc id="desc">A premium local vector visual created for the Hamzah showcase.</desc><defs><linearGradient id="b" x1="0" y1="0" x2="1" y2="1"><stop stop-color="#0c0906"/><stop offset=".5" stop-color="#25170e"/><stop offset="1" stop-color="#080604"/></linearGradient><radialGradient id="l" cx="50%" cy="50%" r="50%"><stop stop-color="#ffe0a4"/><stop offset=".35" stop-color="#c4792f" stop-opacity=".45"/><stop offset="1" stop-color="#000" stop-opacity="0"/></radialGradient><filter id="soft"><feGaussianBlur stdDeviation="14"/></filter></defs><rect width="1800" height="1050" fill="url(#b)"/><circle cx="1180" cy="235" r="290" fill="url(#l)" opacity=".45"/><circle cx="1550" cy="330" r="220" fill="url(#l)" opacity=".28"/><rect x="170" y="640" width="1240" height="105" rx="52" fill="#312217" stroke="#e2aa68" stroke-opacity=".22"/><g fill="#f5e0bb" opacity=".86"><circle cx="310" cy="610" r="52"/><circle cx="465" cy="610" r="52"/><circle cx="620" cy="610" r="52"/><circle cx="775" cy="610" r="52"/><circle cx="930" cy="610" r="52"/></g><rect x="980" y="360" width="540" height="210" rx="34" fill="#21130a" stroke="#d09252" stroke-opacity=".22"/><path d="M1150 540 C1118 482 1180 450 1155 390 C1225 445 1260 505 1208 575 C1285 528 1350 548 1398 615 C1290 600 1200 615 1100 650 C1110 605 1125 575 1150 540Z" fill="#d88a3b" opacity=".9"/><g stroke="#d8a25f" stroke-width="5" opacity=".38"><path d="M1040 120v230"/><path d="M1220 90v260"/><path d="M1430 140v230"/></g><ellipse cx="1040" cy="350" rx="120" ry="24" fill="#ffd89a" opacity=".45"/><ellipse cx="1220" cy="348" rx="155" ry="28" fill="#ffd89a" opacity=".55"/><ellipse cx="1430" cy="352" rx="120" ry="24" fill="#ffd89a" opacity=".4"/><circle cx="220" cy="400" r="160" fill="#b66b2d" opacity=".14" filter="url(#soft)"/><circle cx="1550" cy="780" r="180" fill="#d39a50" opacity=".12" filter="url(#soft)"/></svg>