<svg xmlns="http://www.w3.org/2000/svg" width="1400" height="900" viewBox="0 0 1400 900" role="img" aria-labelledby="title desc"><title id="title">Luxury interior gallery</title><desc id="desc">Calm luxury living room, marble kitchen, and terrace views.</desc><defs><linearGradient id="b" x1="0" y1="0" x2="1" y2="1"><stop stop-color="#0b0f12"/><stop offset="1" stop-color="#2c251b"/></linearGradient><linearGradient id="g" x1="0" y1="0" x2="1" y2="0"><stop stop-color="#d5b06d"/><stop offset="1" stop-color="#f5dfad"/></linearGradient></defs><rect width="1400" height="900" fill="url(#b)"/><rect x="80" y="90" width="590" height="320" rx="34" fill="#e7ddc6" opacity=".86"/><rect x="730" y="90" width="590" height="320" rx="34" fill="#332b22"/><rect x="80" y="470" width="1240" height="340" rx="40" fill="#1d1a16" stroke="#d5b06d" stroke-opacity=".18"/><path d="M125 325h480" stroke="#8b7451" stroke-width="24" stroke-linecap="round" opacity=".55"/><path d="M150 260h210" stroke="#222" stroke-width="26" stroke-linecap="round" opacity=".5"/><circle cx="420" cy="260" r="72" fill="#c3aa78" opacity=".55"/><rect x="765" y="145" width="510" height="210" rx="28" fill="#151412"/><path d="M810 320h415" stroke="url(#g)" stroke-width="16" stroke-linecap="round"/><path d="M200 690 C400 555 760 555 1200 690" fill="none" stroke="url(#g)" stroke-width="18" opacity=".55"/><rect x="180" y="565" width="260" height="70" rx="35" fill="#efe7d5" opacity=".32"/><rect x="830" y="570" width="330" height="90" rx="45" fill="#efe7d5" opacity=".18"/><text x="150" y="170" fill="#1d1a16" font-family="Georgia" font-size="54">Live beautifully</text><text x="765" y="210" fill="#f7ead0" font-family="Georgia" font-size="54">Designed to feel calm</text></svg>
