<svg xmlns="http://www.w3.org/2000/svg" width="1800" height="1050" viewBox="0 0 1800 1050" role="img" aria-labelledby="title desc"><title id="title">Luxury gallery visual</title><desc id="desc">A premium local vector visual created for the Hamzah showcase.</desc><defs><linearGradient id="b" x1="0" y1="0" x2="1" y2="1"><stop stop-color="#111820"/><stop offset=".55" stop-color="#2a241b"/><stop offset="1" stop-color="#07080a"/></linearGradient><linearGradient id="g" x1="0" y1="0" x2="1" y2="1"><stop stop-color="#f5dfaa"/><stop offset="1" stop-color="#c29b5e"/></linearGradient><filter id="s"><feGaussianBlur stdDeviation="16"/></filter></defs><rect width="1800" height="1050" fill="url(#b)"/><circle cx="1320" cy="220" r="240" fill="#f3c477" opacity=".14" filter="url(#s)"/><rect x="170" y="190" width="620" height="650" rx="38" fill="#111314" stroke="#e2c88c" stroke-opacity=".18"/><rect x="860" y="160" width="760" height="700" rx="38" fill="#0d1114" stroke="#e2c88c" stroke-opacity=".16"/><rect x="235" y="260" width="480" height="260" rx="24" fill="#1d2932"/><rect x="275" y="300" width="190" height="150" rx="12" fill="#d9e4e1" opacity=".34"/><rect x="500" y="300" width="175" height="150" rx="12" fill="#e5c179" opacity=".3"/><path d="M205 760 C480 640 775 640 1010 760" stroke="url(#g)" stroke-width="13" fill="none" opacity=".75"/><rect x="935" y="240" width="580" height="74" rx="20" fill="#f4e3be" opacity=".88"/><rect x="935" y="360" width="330" height="70" rx="18" fill="#2a271f"/><rect x="1300" y="360" width="215" height="70" rx="18" fill="#2a271f"/><rect x="935" y="508" width="580" height="240" rx="28" fill="#151512"/><rect x="990" y="590" width="470" height="22" rx="11" fill="#f4e3be" opacity=".45"/><rect x="1040" y="645" width="360" height="18" rx="9" fill="#f4e3be" opacity=".25"/></svg>