<svg xmlns="http://www.w3.org/2000/svg" width="900" height="620" viewBox="0 0 900 620" role="img" aria-labelledby="title desc"><title id="title">Premium travel agency website preview</title><desc id="desc">Vibrant travel agency website preview with destination map, trip cards, itinerary, tickets, and passport visuals.</desc><defs><linearGradient id="bg" x1="0" y1="0" x2="1" y2="1"><stop stop-color="#0ea5e9"/><stop offset=".58" stop-color="#14b8a6"/><stop offset="1" stop-color="#f97316"/></linearGradient></defs><rect width="900" height="620" rx="48" fill="#06121f"/><rect x="58" y="58" width="784" height="504" rx="38" fill="url(#bg)"/><circle cx="736" cy="120" r="104" fill="#fef3c7" opacity=".55"/><text x="92" y="124" fill="#fff" font-family="Arial" font-size="15" font-weight="900">PREMIUM UPGRADED · TRAVEL</text><text x="92" y="184" fill="#fff" font-family="Arial" font-size="54" font-weight="900">VistaTrail Co.</text><text x="92" y="222" fill="#e0ffff" font-family="Arial" font-size="18">Destinations · itineraries · booking flow</text><g transform="translate(92 270)"><rect width="250" height="190" rx="30" fill="#fff7ed"/><path d="M36 136l72-76 46 40 42-54" fill="none" stroke="#0f766e" stroke-width="10" stroke-linecap="round"/><text x="30" y="164" fill="#0f172a" font-family="Arial" font-size="20" font-weight="900">Azure Coast</text><rect x="286" width="190" height="190" rx="30" fill="#fff7ed"/><text x="318" y="58" fill="#0f172a" font-family="Arial" font-size="22" font-weight="900">Ticket</text><path d="M318 100h112M318 132h82" stroke="#0ea5e9" stroke-width="8"/><rect x="518" width="170" height="220" rx="30" fill="#fff7ed"/><circle cx="603" cy="82" r="42" fill="#14b8a6"/><path d="M560 154h88" stroke="#f97316" stroke-width="8"/></g></svg>
