<svg xmlns="http://www.w3.org/2000/svg" viewBox="0 0 900 620" role="img" aria-label="Premium upgraded editorial fine dining website preview">
  <defs><linearGradient id="bg" x1="0" x2="1" y1="0" y2="1"><stop stop-color="#fff1d1"/><stop offset=".55" stop-color="#c77a42"/><stop offset="1" stop-color="#170b08"/></linearGradient></defs>
  <rect width="900" height="620" rx="36" fill="url(#bg)"/>
  <rect x="62" y="58" width="776" height="70" rx="35" fill="#2a1510"/>
  <text x="96" y="102" fill="#ffd27c" font-size="28" font-family="Georgia,serif">The Saffron Room</text>
  <rect x="62" y="160" width="390" height="348" rx="32" fill="#fff7df" stroke="#2a1510"/>
  <text x="96" y="226" fill="#2a1510" font-size="56" font-family="Georgia,serif">Dinner as an editorial story.</text>
  <path d="M96 334h292M96 368h220M96 402h260" stroke="#7a4027" stroke-width="5" opacity=".5"/>
  <rect x="96" y="436" width="184" height="56" rx="28" fill="#2a1510"/><text x="128" y="472" fill="#fff1d1" font-size="18" font-family="Arial" font-weight="800">Reserve table</text>
  <rect x="498" y="160" width="340" height="348" rx="32" fill="#2a1510"/>
  <circle cx="668" cy="308" r="104" fill="#fff7df"/><circle cx="668" cy="308" r="48" fill="#bd5832"/><path d="M626 285c64-24 102-10 118 42" stroke="#ffd27c" stroke-width="14" fill="none" stroke-linecap="round"/>
  <rect x="560" y="438" width="220" height="42" rx="21" fill="#ffd27c"/><text x="595" y="466" fill="#2a1510" font-size="18" font-family="Arial" font-weight="900">Premium upgraded</text>
</svg>
