<svg xmlns="http://www.w3.org/2000/svg" width="900" height="560" viewBox="0 0 900 560" role="img" aria-label="Online education academy mockup">
  <defs>
    <linearGradient id="bg" x1="0" x2="1" y1="0" y2="1"><stop stop-color="#071527"/><stop offset=".55" stop-color="#12304a"/><stop offset="1" stop-color="#e9d8a6"/></linearGradient>
    <linearGradient id="gold" x1="0" x2="1"><stop stop-color="#fff0b8"/><stop offset="1" stop-color="#c79a38"/></linearGradient>
    <linearGradient id="green" x1="0" x2="1"><stop stop-color="#86efac"/><stop offset="1" stop-color="#0f766e"/></linearGradient>
    <filter id="shadow" x="-20%" y="-20%" width="140%" height="140%"><feDropShadow dx="0" dy="22" stdDeviation="24" flood-color="#000" flood-opacity=".34"/></filter>
  </defs>
  <rect width="900" height="560" rx="30" fill="url(#bg)"/>
  <circle cx="756" cy="84" r="180" fill="#fff0b8" opacity=".13"/>
  <circle cx="108" cy="481" r="220" fill="#86efac" opacity=".13"/>
  
  <g filter="url(#shadow)">
    <rect x="64" y="64" width="772" height="432" rx="36" fill="#f9f1dc"/>
    <rect x="104" y="108" width="230" height="320" rx="30" fill="#071527"/>
    <text x="134" y="170" fill="#fff0b8" font-family="Georgia,serif" font-size="34" font-weight="700">Course</text>
    <rect x="374" y="108" width="390" height="80" rx="24" fill="#071527"/><text x="404" y="158" fill="#f9f1dc" font-family="Arial" font-size="26" font-weight="900">Online Academy</text>
    <rect x="374" y="224" width="170" height="150" rx="26" fill="#fffdf4"/><rect x="584" y="224" width="180" height="150" rx="26" fill="#12304a"/>
    <text x="414" y="300" fill="#071527" font-family="Arial" font-size="42" font-weight="900">92%</text><text x="625" y="300" fill="#86efac" font-family="Arial" font-size="42" font-weight="900">A+</text>
    <rect x="584" y="80" width="180" height="44" rx="22" fill="#c79a38"/><text x="608" y="109" fill="#071527" font-family="Arial" font-size="17" font-weight="900">Premium upgraded</text>
  </g>

</svg>