<svg xmlns="http://www.w3.org/2000/svg" width="1200" height="800" viewBox="0 0 1200 800" role="img" aria-labelledby="title desc"><title id="title">Premium upgraded construction contractor website preview</title><desc id="desc">Industrial construction contractor website preview with crane, blueprint, project cards, safety badges, estimate packages and quote CTA.</desc><defs><linearGradient id="bg" x1="0" y1="0" x2="1" y2="1"><stop stop-color="#111827"/><stop offset=".55" stop-color="#263241"/><stop offset="1" stop-color="#f59e0b"/></linearGradient><linearGradient id="steel" x1="0" y1="0" x2="1" y2="1"><stop stop-color="#e5e7eb"/><stop offset="1" stop-color="#9ca3af"/></linearGradient><linearGradient id="hazard" x1="0" y1="0" x2="1" y2="1"><stop stop-color="#fde68a"/><stop offset="1" stop-color="#f59e0b"/></linearGradient><filter id="s"><feDropShadow dx="0" dy="30" stdDeviation="24" flood-color="#000" flood-opacity=".35"/></filter></defs><rect width="1200" height="800" rx="64" fill="url(#bg)"/><path d="M0 650h1200" stroke="#f59e0b" stroke-width="120" opacity=".16"/><g opacity=".18" stroke="#fff" stroke-width="2"><path d="M120 140h620M120 210h720M120 280h540M120 350h760"/><path d="M176 120v300M300 120v300M424 120v300M548 120v300"/></g><g filter="url(#s)"><rect x="88" y="88" width="1024" height="624" rx="48" fill="#111827" opacity=".96"/><rect x="130" y="132" width="420" height="506" rx="36" fill="#1f2937"/><path d="M190 570h300v44H190z" fill="url(#hazard)"/><path d="M250 520h170v50H250z" fill="url(#steel)"/><path d="M290 250h84v270h-84z" fill="#9ca3af"/><path d="M180 250h360" stroke="#f59e0b" stroke-width="20" stroke-linecap="round"/><path d="M374 250l118 112" stroke="#f59e0b" stroke-width="14"/><path d="M220 250l90 112" stroke="#f59e0b" stroke-width="14"/><rect x="620" y="138" width="382" height="78" rx="24" fill="#1f2937"/><text x="654" y="190" font-family="Inter,Arial" font-size="32" font-weight="900" fill="#f9fafb">IronLine Contractors</text><text x="654" y="260" font-family="Inter,Arial" font-size="18" font-weight="900" fill="#f59e0b">Premium upgraded · Construction contractor</text><text x="654" y="338" font-family="Georgia,serif" font-size="62" font-weight="700" fill="#fff">Build with structure, safety, and proof.</text><g transform="translate(654 416)"><rect width="136" height="138" rx="24" fill="#263241"/><text x="28" y="54" font-family="Inter,Arial" font-size="15" font-weight="900" fill="#fff">Homes</text><rect x="28" y="88" width="80" height="12" rx="6" fill="#f59e0b"/><rect x="158" width="136" height="138" rx="24" fill="#263241"/><text x="186" y="54" font-family="Inter,Arial" font-size="15" font-weight="900" fill="#fff">Fit-outs</text><rect x="186" y="88" width="80" height="12" rx="6" fill="#f59e0b"/><rect x="316" width="136" height="138" rx="24" fill="url(#hazard)"/><text x="344" y="54" font-family="Inter,Arial" font-size="15" font-weight="900" fill="#111827">Quote</text></g><rect x="654" y="596" width="176" height="54" rx="27" fill="url(#hazard)"/><text x="696" y="631" font-family="Inter,Arial" font-size="16" font-weight="900" fill="#111827">Request quote</text></g></svg>
