<svg xmlns="http://www.w3.org/2000/svg" width="900" height="560" viewBox="0 0 900 560" role="img" aria-label="Fashion ecommerce product mockup">
  <defs>
    <linearGradient id="bg" x1="0" x2="1" y1="0" y2="1"><stop stop-color="#24151b"/><stop offset=".55" stop-color="#3a2029"/><stop offset="1" stop-color="#f7dccb"/></linearGradient>
    <linearGradient id="rose" x1="0" x2="1"><stop stop-color="#fff1e7"/><stop offset="1" stop-color="#d98a68"/></linearGradient>
    <filter id="shadow" x="-20%" y="-20%" width="140%" height="140%"><feDropShadow dx="0" dy="22" stdDeviation="24" flood-color="#000" flood-opacity=".34"/></filter>
  </defs>
  <rect width="900" height="560" rx="30" fill="url(#bg)"/>
  <circle cx="792" cy="84" r="170" fill="#fff1e7" opacity=".16"/>
  <circle cx="108" cy="492" r="230" fill="#e0a086" opacity=".18"/>
  
  <g filter="url(#shadow)">
    <rect x="62" y="58" width="776" height="444" rx="36" fill="#fff7f0"/>
    <rect x="100" y="100" width="240" height="318" rx="30" fill="#2a1820"/>
    <path d="M172 180 C192 146 248 146 268 180 L296 386 H148 Z" fill="#e8a98d"/>
    <rect x="380" y="100" width="170" height="150" rx="28" fill="#f3d0bf"/><rect x="585" y="100" width="190" height="150" rx="28" fill="#2a1820"/>
    <rect x="380" y="288" width="395" height="130" rx="28" fill="#2a1820"/>
    <text x="412" y="342" fill="#fff1e7" font-family="Georgia,serif" font-size="38" font-weight="700">Fashion Store</text>
    <text x="414" y="384" fill="#e8a98d" font-family="Arial" font-size="21">Product grid · cart CTA · lookbook</text>
    <rect x="590" y="74" width="185" height="44" rx="22" fill="#e8a98d"/>
    <text x="615" y="103" fill="#2a1820" font-family="Arial" font-size="17" font-weight="900">Premium upgraded</text>
  </g>

</svg>