<svg xmlns="http://www.w3.org/2000/svg" width="900" height="620" viewBox="0 0 900 620" role="img" aria-labelledby="title desc"><title id="title">Premium professional law firm website preview</title><desc id="desc">Authoritative legal website preview with consultation hero, document cards, attorney profiles, and enquiry plan panels.</desc><defs><linearGradient id="bg" x1="0" y1="0" x2="1" y2="1"><stop stop-color="#07111f"/><stop offset=".58" stop-color="#102033"/><stop offset="1" stop-color="#30220f"/></linearGradient><linearGradient id="gold" x1="0" y1="0" x2="1" y2="1"><stop stop-color="#c49a45"/><stop offset="1" stop-color="#f4d58d"/></linearGradient></defs><rect width="900" height="620" rx="48" fill="url(#bg)"/><circle cx="760" cy="110" r="180" fill="#c49a45" opacity=".16"/><rect x="60" y="58" width="780" height="504" rx="38" fill="#0b1726" stroke="#fff" opacity=".98"/><text x="94" y="122" fill="#f4d58d" font-family="Arial" font-size="15" font-weight="900">PREMIUM UPGRADED · LEGAL</text><text x="94" y="184" fill="#fff" font-family="Arial" font-size="52" font-weight="900">Aster &amp; Vale Legal</text><text x="94" y="220" fill="#b9c3d1" font-family="Arial" font-size="18">Practice areas · attorneys · consultation flow</text><g transform="translate(94 270)"><rect width="260" height="184" rx="28" fill="url(#gold)"/><text x="28" y="58" fill="#111827" font-family="Arial" font-size="22" font-weight="900">Consultation</text><text x="28" y="110" fill="#111827" font-family="Arial" font-size="44" font-weight="900">4 steps</text><rect x="300" width="190" height="184" rx="28" fill="#142235" stroke="#fff"/><circle cx="395" cy="66" r="38" fill="#c49a45"/><text x="330" y="132" fill="#fff" font-family="Arial" font-size="22" font-weight="900">Attorney</text><rect x="520" width="170" height="220" rx="30" fill="#09111d" stroke="#fff"/><rect x="544" y="28" width="122" height="164" rx="22" fill="#142235"/><path d="M579 106h52M605 62v84M572 146h66" stroke="#f4d58d" stroke-width="8" stroke-linecap="round"/></g></svg>
