<svg xmlns="http://www.w3.org/2000/svg" viewBox="0 0 900 620" role="img" aria-label="Premium upgraded modern cafe website preview">
  <defs><linearGradient id="bg" x1="0" x2="1" y1="0" y2="1"><stop stop-color="#fff0cc"/><stop offset=".58" stop-color="#d69d65"/><stop offset="1" stop-color="#2d1a10"/></linearGradient><linearGradient id="mint" x1="0" x2="1"><stop stop-color="#b8f3d2"/><stop offset="1" stop-color="#5eb88f"/></linearGradient></defs>
  <rect width="900" height="620" rx="36" fill="url(#bg)"/>
  <circle cx="742" cy="124" r="172" fill="#b8f3d2" opacity=".35"/>
  <rect x="62" y="58" width="776" height="70" rx="35" fill="#2d1a10"/>
  <text x="94" y="102" fill="#b8f3d2" font-size="28" font-family="Georgia,serif">Bloom &amp; Bean</text>
  <rect x="62" y="166" width="408" height="322" rx="34" fill="#fff6df" stroke="#5b351f"/>
  <text x="96" y="230" fill="#2d1a10" font-size="55" font-family="Georgia,serif">Order coffee before the queue.</text>
  <text x="96" y="313" fill="#6d4b32" font-size="22" font-family="Arial">Cafe site with menu, pickup, loyalty, events, and location flow.</text>
  <rect x="96" y="378" width="178" height="58" rx="29" fill="url(#mint)"/><text x="130" y="414" fill="#173126" font-size="18" font-family="Arial" font-weight="800">Order ahead</text>
  <rect x="512" y="166" width="326" height="322" rx="34" fill="#2d1a10"/>
  <circle cx="650" cy="284" r="88" fill="#fff0cc"/><circle cx="650" cy="284" r="42" fill="#6b3e25"/><path d="M720 276h42c30 0 30 42 0 42h-42" fill="none" stroke="#fff0cc" stroke-width="15" stroke-linecap="round"/>
  <rect x="574" y="402" width="204" height="42" rx="21" fill="#b8f3d2"/><text x="609" y="430" fill="#173126" font-size="18" font-family="Arial" font-weight="800">Premium upgraded</text>
</svg>
