<svg xmlns="http://www.w3.org/2000/svg" width="900" height="560" viewBox="0 0 900 560" role="img" aria-label="Luxury real estate visual mockup">
  <defs>
    <linearGradient id="g" x1="0" x2="1" y1="0" y2="1"><stop stop-color="#071722"/><stop offset=".45" stop-color="#0d1b2a"/><stop offset="1" stop-color="#c8a45d"/></linearGradient>
    <linearGradient id="gold" x1="0" x2="1"><stop stop-color="#f5df9d"/><stop offset="1" stop-color="#b98935"/></linearGradient>
    <filter id="s" x="-20%" y="-20%" width="140%" height="140%"><feDropShadow dx="0" dy="18" stdDeviation="18" flood-color="#000" flood-opacity=".35"/></filter>
  </defs>
  <rect width="900" height="560" rx="28" fill="url(#g)"/>
  
  <rect x="58" y="62" width="784" height="408" rx="34" fill="#091823" stroke="#d7ae61" stroke-width="4"/>
  <path d="M118 395 L118 210 L235 142 L355 215 L355 395 Z" fill="#173449" stroke="#e9ca7d" stroke-width="4"/>
  <path d="M355 395 L355 175 L552 102 L760 182 L760 395 Z" fill="#0f2a38" stroke="#d7ae61" stroke-width="4"/>
  <rect x="425" y="235" width="96" height="72" rx="9" fill="#eff7fb" opacity=".9"/>
  <rect x="590" y="235" width="98" height="72" rx="9" fill="#eff7fb" opacity=".9"/>
  <rect x="482" y="340" width="132" height="55" rx="12" fill="#d7ae61"/>
  <rect x="95" y="78" width="380" height="82" rx="25" fill="#fff8e9"/>
  <text x="128" y="127" fill="#142231" font-family="Georgia,serif" font-size="35" font-weight="700">Luxury Estates</text>
  <rect x="610" y="86" width="170" height="44" rx="22" fill="#d7ae61"/>
  <text x="634" y="115" fill="#142231" font-family="Arial" font-size="17" font-weight="700">Premium upgraded</text>
  <text x="116" y="448" fill="#f9e5ad" font-family="Arial" font-size="24" font-weight="700">Search · Properties · Floor plans · Private tours</text>

</svg>