<svg xmlns="http://www.w3.org/2000/svg" width="1200" height="800" viewBox="0 0 1200 800" role="img" aria-labelledby="title desc">
<title id="title">Premium upgraded car detailing website preview</title><desc id="desc">Glossy car detailing landing page preview with polished car hero, service cards, coating section, before and after panels, and booking CTA.</desc>
<defs><linearGradient id="bg" x1="0" y1="0" x2="1" y2="1"><stop stop-color="#07111f"/><stop offset=".55" stop-color="#10253c"/><stop offset="1" stop-color="#d7f6ff"/></linearGradient><linearGradient id="cyan" x1="0" y1="0" x2="1" y2="1"><stop stop-color="#7dd3fc"/><stop offset="1" stop-color="#22d3ee"/></linearGradient><linearGradient id="gold" x1="0" y1="0" x2="1" y2="1"><stop stop-color="#fff3b0"/><stop offset="1" stop-color="#c48a2a"/></linearGradient><filter id="s"><feDropShadow dx="0" dy="30" stdDeviation="24" flood-color="#00101d" flood-opacity=".35"/></filter></defs>
<rect width="1200" height="800" rx="64" fill="url(#bg)"/><circle cx="1020" cy="120" r="220" fill="#7dd3fc" opacity=".18"/><circle cx="144" cy="650" r="260" fill="#ffffff" opacity=".08"/><g filter="url(#s)"><rect x="82" y="82" width="1036" height="636" rx="48" fill="#07111f" opacity=".96"/><rect x="120" y="124" width="960" height="312" rx="38" fill="#0e2033"/><path d="M212 332c54-110 138-160 260-160h210c100 0 181 57 236 160l76 8c32 4 55 30 55 62v22H154v-24c0-34 25-62 58-68z" fill="#d7f6ff"/><path d="M272 314c42-66 102-96 198-96h188c78 0 142 32 190 96H272z" fill="#0f172a"/><circle cx="320" cy="430" r="68" fill="#050b12"/><circle cx="320" cy="430" r="32" fill="url(#cyan)"/><circle cx="838" cy="430" r="68" fill="#050b12"/><circle cx="838" cy="430" r="32" fill="url(#cyan)"/><path d="M154 480h895" stroke="#7dd3fc" stroke-width="7" opacity=".6"/><text x="142" y="552" font-family="Inter,Arial" font-size="18" font-weight="900" fill="#7dd3fc">Premium upgraded · Automotive</text><text x="142" y="616" font-family="Georgia,serif" font-size="62" font-weight="700" fill="#fff">GlossForge Detailing</text><rect x="772" y="536" width="136" height="122" rx="28" fill="#10253c"/><text x="806" y="586" font-family="Inter,Arial" font-size="15" font-weight="900" fill="#fff">Ceramic</text><rect x="804" y="614" width="72" height="12" rx="6" fill="url(#cyan)"/><rect x="930" y="536" width="136" height="122" rx="28" fill="url(#gold)"/><text x="962" y="586" font-family="Inter,Arial" font-size="15" font-weight="900" fill="#07111f">Book now</text></g>
</svg>
