<svg xmlns="http://www.w3.org/2000/svg" width="900" height="620" viewBox="0 0 900 620" role="img" aria-labelledby="title desc">
<title id="title">Premium fitness studio website preview</title><desc id="desc">Dark high-energy fitness landing page preview with class schedule, trainer cards, and mobile booking app.</desc>
<defs><linearGradient id="bg" x1="0" y1="0" x2="1" y2="1"><stop stop-color="#090a0f"/><stop offset=".55" stop-color="#171a24"/><stop offset="1" stop-color="#321105"/></linearGradient><linearGradient id="hot" x1="0" y1="0" x2="1" y2="1"><stop stop-color="#ff4d00"/><stop offset="1" stop-color="#e8ff3d"/></linearGradient></defs>
<rect width="900" height="620" rx="48" fill="url(#bg)"/>
<circle cx="760" cy="94" r="180" fill="#ff4d00" opacity=".18"/><circle cx="114" cy="542" r="210" fill="#e8ff3d" opacity=".11"/>
<rect x="58" y="58" width="784" height="504" rx="36" fill="#0f141d" stroke="#fff" opacity=".98"/>
<text x="92" y="122" fill="#e8ff3d" font-family="Arial" font-size="15" font-weight="900">PREMIUM UPGRADED · FITNESS</text>
<text x="92" y="184" fill="#fff" font-family="Arial" font-size="54" font-weight="900">PulseForge Studio</text>
<text x="92" y="220" fill="#aeb6c7" font-family="Arial" font-size="18">Class schedule · trainer cards · booking app</text>
<g transform="translate(92 270)">
  <rect width="270" height="180" rx="28" fill="url(#hot)"/><text x="28" y="58" fill="#151515" font-family="Arial" font-size="22" font-weight="900">HIIT Ignite</text><text x="28" y="110" fill="#151515" font-family="Arial" font-size="44" font-weight="900">18:30</text><text x="28" y="145" fill="#151515" font-family="Arial" font-size="15">Book trial class</text>
  <rect x="300" width="190" height="180" rx="28" fill="#1a2434" stroke="#fff"/><circle cx="395" cy="66" r="38" fill="#ff4d00"/><text x="330" y="132" fill="#fff" font-family="Arial" font-size="22" font-weight="900">Trainer</text>
  <rect x="520" width="170" height="220" rx="30" fill="#090b10" stroke="#fff"/><rect x="544" y="28" width="122" height="164" rx="22" fill="#151d2a"/><circle cx="605" cy="99" r="42" fill="none" stroke="#e8ff3d" stroke-width="12"/>
</g>
</svg>
