<svg xmlns="http://www.w3.org/2000/svg" width="900" height="620" viewBox="0 0 900 620" role="img" aria-labelledby="title desc"><title id="title">Premium financial advisory website preview</title><desc id="desc">Trust-focused financial advisory website preview with planning dashboard, calculator visual, process timeline, and advisory packages.</desc><defs><linearGradient id="bg" x1="0" y1="0" x2="1" y2="1"><stop stop-color="#06151f"/><stop offset=".55" stop-color="#0b2a2d"/><stop offset="1" stop-color="#263518"/></linearGradient><linearGradient id="g" x1="0" y1="0" x2="1" y2="1"><stop stop-color="#34d399"/><stop offset="1" stop-color="#f4d35e"/></linearGradient></defs><rect width="900" height="620" rx="48" fill="url(#bg)"/><circle cx="760" cy="120" r="170" fill="#34d399" opacity=".18"/><rect x="58" y="58" width="784" height="504" rx="38" fill="#0a1f28" stroke="#fff" opacity=".98"/><text x="92" y="124" fill="#f4d35e" font-family="Arial" font-size="15" font-weight="900">PREMIUM UPGRADED · FINANCE</text><text x="92" y="184" fill="#fff" font-family="Arial" font-size="54" font-weight="900">ClarityLedger</text><text x="92" y="222" fill="#bdd7d6" font-family="Arial" font-size="18">Planning · calculators · advisory packages</text><g transform="translate(92 270)"><rect width="250" height="190" rx="30" fill="url(#g)"/><text x="30" y="60" fill="#06151f" font-family="Arial" font-size="22" font-weight="900">Plan Score</text><text x="30" y="124" fill="#06151f" font-family="Arial" font-size="52" font-weight="900">3</text><rect x="286" width="190" height="190" rx="30" fill="#102f38" stroke="#fff"/><path d="M320 134l46-52 38 24 40-58" fill="none" stroke="#34d399" stroke-width="10" stroke-linecap="round"/><rect x="518" width="170" height="220" rx="30" fill="#102f38" stroke="#fff"/><rect x="546" y="46" width="114" height="36" rx="18" fill="#244a55"/><rect x="546" y="104" width="114" height="36" rx="18" fill="#34d399"/><rect x="546" y="162" width="114" height="36" rx="18" fill="#f4d35e"/></g></svg>
