<svg xmlns="http://www.w3.org/2000/svg" width="1200" height="820" viewBox="0 0 1200 820" role="img" aria-labelledby="t d"><title id="t">Food Truck preview</title><desc id="d">Mobile food brand site with locations, menu, and socials.</desc><defs><linearGradient id="g" x1="0" y1="0" x2="1" y2="1"><stop stop-color="#1a1010"/><stop offset="1" stop-color="#08090d"/></linearGradient><linearGradient id="a" x1="0" y1="0" x2="1" y2="1"><stop stop-color="#ff9f7a"/><stop offset="1" stop-color="#f0d78a"/></linearGradient><radialGradient id="r" cx=".75" cy=".18" r=".72"><stop stop-color="#ff9f7a" stop-opacity=".58"/><stop offset="1" stop-color="#ff9f7a" stop-opacity="0"/></radialGradient></defs><rect width="1200" height="820" rx="58" fill="url(#g)"/><rect width="1200" height="820" rx="58" fill="url(#r)"/><g opacity=".16" stroke="#fff"><path d="M80 0v820"/><path d="M160 0v820"/><path d="M240 0v820"/><path d="M320 0v820"/><path d="M400 0v820"/><path d="M480 0v820"/><path d="M560 0v820"/><path d="M640 0v820"/><path d="M720 0v820"/><path d="M800 0v820"/><path d="M880 0v820"/><path d="M960 0v820"/><path d="M1040 0v820"/><path d="M1120 0v820"/><path d="M0 80h1200"/><path d="M0 160h1200"/><path d="M0 240h1200"/><path d="M0 320h1200"/><path d="M0 400h1200"/><path d="M0 480h1200"/><path d="M0 560h1200"/><path d="M0 640h1200"/><path d="M0 720h1200"/><path d="M0 800h1200"/></g><rect x="74" y="74" width="1052" height="672" rx="52" fill="#fff" opacity=".07" stroke="#fff" stroke-opacity=".18"/><rect x="118" y="124" width="360" height="68" rx="34" fill="url(#a)"/><rect x="118" y="236" width="560" height="42" rx="21" fill="#fff" opacity=".20"/><rect x="118" y="308" width="470" height="26" rx="13" fill="#fff" opacity=".12"/><rect x="118" y="356" width="520" height="26" rx="13" fill="#fff" opacity=".09"/><rect x="760" y="132" width="260" height="260" rx="48" fill="url(#a)" opacity=".9"/><circle cx="890" cy="262" r="84" fill="#08090d" opacity=".20"/><g transform="translate(118 470)"><rect width="260" height="150" rx="28" fill="#fff" opacity=".09"/><rect x="28" y="32" width="100" height="18" rx="9" fill="url(#a)"/><rect x="28" y="72" width="180" height="14" rx="7" fill="#fff" opacity=".16"/><rect x="28" y="104" width="140" height="14" rx="7" fill="#fff" opacity=".10"/></g><g transform="translate(416 470)"><rect width="260" height="150" rx="28" fill="#fff" opacity=".09"/><path d="M36 104c50-56 86-22 130-66s70 16 104-8" fill="none" stroke="url(#a)" stroke-width="12" stroke-linecap="round"/></g><g transform="translate(714 470)"><rect width="260" height="150" rx="28" fill="#fff" opacity=".09"/><circle cx="70" cy="70" r="38" fill="url(#a)"/><rect x="126" y="44" width="94" height="16" rx="8" fill="#fff" opacity=".18"/><rect x="126" y="82" width="72" height="12" rx="6" fill="#fff" opacity=".12"/></g><text x="118" y="690" font-family="Arial, sans-serif" font-size="22" fill="#ff9f7a" letter-spacing="6">DEMO 081 · HOSPITALITY</text><text x="118" y="260" font-family="Arial Black, Arial, sans-serif" font-size="58" fill="#f8f5ec" letter-spacing="-2">Food Truck</text></svg>