<svg xmlns="http://www.w3.org/2000/svg" width="900" height="620" viewBox="0 0 900 620" role="img" aria-labelledby="title desc"><title id="title">Premium mobile app landing page preview</title><desc id="desc">Polished mobile app landing page preview with app screens, feature cards, onboarding flow, and pricing panels.</desc><defs><linearGradient id="bg" x1="0" y1="0" x2="1" y2="1"><stop stop-color="#0f1028"/><stop offset=".55" stop-color="#172554"/><stop offset="1" stop-color="#4c1d95"/></linearGradient><linearGradient id="g" x1="0" y1="0" x2="1" y2="1"><stop stop-color="#7c3aed"/><stop offset="1" stop-color="#06b6d4"/></linearGradient></defs><rect width="900" height="620" rx="48" fill="url(#bg)"/><circle cx="770" cy="108" r="170" fill="#06b6d4" opacity=".2"/><rect x="58" y="58" width="784" height="504" rx="38" fill="#101936" stroke="#fff" opacity=".98"/><text x="92" y="124" fill="#a7f3d0" font-family="Arial" font-size="15" font-weight="900">PREMIUM UPGRADED · MOBILE APP</text><text x="92" y="184" fill="#fff" font-family="Arial" font-size="56" font-weight="900">Flowly App</text><text x="92" y="222" fill="#b9c7e6" font-family="Arial" font-size="18">Screens · onboarding · pricing · download CTA</text><g transform="translate(96 270)"><rect width="170" height="220" rx="32" fill="#050816" stroke="#fff"/><rect x="20" y="28" width="130" height="164" rx="22" fill="#151e3d"/><circle cx="85" cy="100" r="48" fill="url(#g)"/><rect x="300" width="170" height="220" rx="32" fill="#050816" stroke="#fff"/><rect x="320" y="28" width="130" height="164" rx="22" fill="#151e3d"/><path d="M356 108l24 24 48-62" fill="none" stroke="#a7f3d0" stroke-width="12" stroke-linecap="round" stroke-linejoin="round"/><rect x="520" width="170" height="220" rx="32" fill="#050816" stroke="#fff"/><rect x="540" y="28" width="130" height="164" rx="22" fill="#151e3d"/><rect x="566" y="70" width="78" height="16" rx="8" fill="#7c3aed"/><rect x="566" y="112" width="78" height="16" rx="8" fill="#06b6d4"/></g></svg>
