<svg xmlns="http://www.w3.org/2000/svg" width="900" height="560" viewBox="0 0 900 560" role="img" aria-label="Modern healthcare clinic mockup">
  <defs>
    <linearGradient id="bg" x1="0" x2="1" y1="0" y2="1"><stop stop-color="#eaf8f7"/><stop offset=".55" stop-color="#f8fffd"/><stop offset="1" stop-color="#d9efff"/></linearGradient>
    <linearGradient id="teal" x1="0" x2="1"><stop stop-color="#5eead4"/><stop offset="1" stop-color="#0284c7"/></linearGradient>
    <filter id="shadow" x="-20%" y="-20%" width="140%" height="140%"><feDropShadow dx="0" dy="22" stdDeviation="24" flood-color="#0f2f43" flood-opacity=".18"/></filter>
  </defs>
  <rect width="900" height="560" rx="30" fill="url(#bg)"/>
  <circle cx="756" cy="78" r="180" fill="#5eead4" opacity=".16"/>
  <circle cx="135" cy="481" r="220" fill="#bae6fd" opacity=".38"/>
  
  <g filter="url(#shadow)">
    <rect x="66" y="62" width="768" height="436" rx="38" fill="#fff"/>
    <rect x="104" y="102" width="300" height="316" rx="30" fill="#eaf8f7"/>
    <text x="140" y="166" fill="#0f2f43" font-family="Georgia,serif" font-size="36" font-weight="700">Clinic</text>
    <path d="M254 220 V328 M200 274 H308" stroke="#0284c7" stroke-width="24" stroke-linecap="round"/>
    <rect x="444" y="102" width="316" height="84" rx="24" fill="#0f2f43"/><text x="478" y="155" fill="#eaf8f7" font-family="Arial" font-size="26" font-weight="900">Appointment</text>
    <rect x="444" y="224" width="142" height="134" rx="26" fill="#e0f2fe"/><rect x="620" y="224" width="140" height="134" rx="26" fill="#eaf8f7"/>
    <rect x="584" y="78" width="176" height="44" rx="22" fill="#5eead4"/><text x="604" y="107" fill="#0f2f43" font-family="Arial" font-size="17" font-weight="900">Premium upgraded</text>
  </g>

</svg>