<svg xmlns="http://www.w3.org/2000/svg" width="1200" height="800" viewBox="0 0 1200 800" role="img" aria-labelledby="title desc">
<title id="title">Premium upgraded coffee roastery website preview</title><desc id="desc">Craft coffee roastery preview with coffee bag, cup, roast cards, subscription panel, and order CTA.</desc>
<defs><linearGradient id="bg" x1="0" y1="0" x2="1" y2="1"><stop stop-color="#2a160d"/><stop offset=".48" stop-color="#754422"/><stop offset="1" stop-color="#f4dfbd"/></linearGradient><linearGradient id="cream" x1="0" y1="0" x2="1" y2="1"><stop stop-color="#fff7e8"/><stop offset="1" stop-color="#e7c18a"/></linearGradient><linearGradient id="copper" x1="0" y1="0" x2="1" y2="1"><stop stop-color="#f5b36b"/><stop offset="1" stop-color="#9c5528"/></linearGradient><filter id="s"><feDropShadow dx="0" dy="30" stdDeviation="24" flood-color="#160a05" flood-opacity=".32"/></filter></defs>
<rect width="1200" height="800" rx="64" fill="url(#bg)"/><circle cx="1000" cy="150" r="220" fill="#fff7e8" opacity=".15"/><circle cx="120" cy="690" r="260" fill="#000" opacity=".12"/><g filter="url(#s)"><rect x="86" y="86" width="1028" height="628" rx="48" fill="#fff7e8"/><rect x="126" y="130" width="358" height="500" rx="34" fill="#2a160d"/><path d="M210 210h190l34 420H176z" fill="url(#copper)"/><path d="M246 256h120l20 180H226z" fill="#fff7e8"/><text x="258" y="336" font-family="Georgia,serif" font-size="38" font-weight="700" fill="#2a160d">Roast</text><text x="270" y="384" font-family="Inter,Arial" font-size="18" font-weight="900" fill="#754422">single origin</text><ellipse cx="330" cy="530" rx="72" ry="24" fill="#2a160d" opacity=".26"/><rect x="560" y="146" width="436" height="86" rx="26" fill="#f2dfc3"/><text x="596" y="200" font-family="Georgia,serif" font-size="38" font-weight="700" fill="#2a160d">Ember &amp; Origin Roasters</text><text x="596" y="274" font-family="Inter,Arial" font-size="18" font-weight="900" fill="#9c5528">Premium upgraded · Coffee roastery</text><text x="596" y="348" font-family="Georgia,serif" font-size="64" font-weight="700" fill="#2a160d">Fresh roast, clear story.</text><g transform="translate(596 422)"><rect width="132" height="144" rx="26" fill="#2a160d"/><text x="30" y="54" font-family="Inter,Arial" font-size="15" font-weight="900" fill="#fff7e8">Light</text><path d="M38 92c22-34 46 34 70-8" fill="none" stroke="#f5b36b" stroke-width="10" stroke-linecap="round"/><rect x="154" width="132" height="144" rx="26" fill="#754422"/><text x="192" y="54" font-family="Inter,Arial" font-size="15" font-weight="900" fill="#fff7e8">Dark</text><circle cx="220" cy="94" r="30" fill="#2a160d"/><rect x="308" width="132" height="144" rx="26" fill="#f2dfc3"/><text x="344" y="54" font-family="Inter,Arial" font-size="15" font-weight="900" fill="#2a160d">Sub</text><rect x="340" y="88" width="66" height="16" rx="8" fill="#9c5528"/></g><rect x="596" y="606" width="174" height="54" rx="27" fill="#2a160d"/><text x="634" y="641" font-family="Inter,Arial" font-size="16" font-weight="900" fill="#fff7e8">Order beans</text><rect x="790" y="606" width="174" height="54" rx="27" fill="url(#copper)"/><text x="824" y="641" font-family="Inter,Arial" font-size="16" font-weight="900" fill="#2a160d">Subscribe</text></g>
</svg>
