<svg xmlns="http://www.w3.org/2000/svg" width="1200" height="780" viewBox="0 0 1200 780" role="img" aria-labelledby="title desc">
  <title id="title">Startups</title>
  <desc id="desc">Launch faster with proof</desc>
  <defs>
    <linearGradient id="bg" x1="0" y1="0" x2="1" y2="1"><stop stop-color="#08090d"/><stop offset=".55" stop-color="#101521"/><stop offset="1" stop-color="#192132"/></linearGradient>
    <linearGradient id="accent" x1="0" y1="0" x2="1" y2="1"><stop stop-color="#8dffcf"/><stop offset="1" stop-color="#8eb7ff"/></linearGradient>
    <radialGradient id="glow" cx=".72" cy=".28" r=".68"><stop stop-color="#8dffcf" stop-opacity=".48"/><stop offset="1" stop-color="#8dffcf" stop-opacity="0"/></radialGradient>
    <filter id="soft"><feGaussianBlur stdDeviation="18"/></filter>
  </defs>
  <rect width="1200" height="780" rx="56" fill="url(#bg)"/>
  <rect width="1200" height="780" rx="56" fill="url(#glow)"/>
  <g opacity=".18" stroke="#fff" stroke-width="1">
    <path d="M 80 0 V 780"/><path d="M 160 0 V 780"/><path d="M 240 0 V 780"/><path d="M 320 0 V 780"/><path d="M 400 0 V 780"/><path d="M 480 0 V 780"/><path d="M 560 0 V 780"/><path d="M 640 0 V 780"/><path d="M 720 0 V 780"/><path d="M 800 0 V 780"/><path d="M 880 0 V 780"/><path d="M 960 0 V 780"/><path d="M 1040 0 V 780"/><path d="M 1120 0 V 780"/>
    <path d="M 0 80 H 1200"/><path d="M 0 160 H 1200"/><path d="M 0 240 H 1200"/><path d="M 0 320 H 1200"/><path d="M 0 400 H 1200"/><path d="M 0 480 H 1200"/><path d="M 0 560 H 1200"/><path d="M 0 640 H 1200"/><path d="M 0 720 H 1200"/>
  </g>
  <circle cx="920" cy="145" r="180" fill="none" stroke="url(#accent)" stroke-width="3" opacity=".52"/>
  <circle cx="960" cy="190" r="72" fill="url(#accent)" opacity=".82" filter="url(#soft)"/>
  <rect x="80" y="86" width="1040" height="608" rx="44" fill="#ffffff" opacity=".06" stroke="#ffffff" stroke-opacity=".16"/>
  <rect x="122" y="130" width="430" height="270" rx="32" fill="#ffffff" opacity=".08" stroke="#ffffff" stroke-opacity=".14"/>
  <rect x="610" y="130" width="368" height="48" rx="24" fill="url(#accent)" opacity=".85"/>
  <rect x="610" y="210" width="460" height="28" rx="14" fill="#fff" opacity=".18"/>
  <rect x="610" y="260" width="390" height="28" rx="14" fill="#fff" opacity=".12"/>
  <rect x="610" y="310" width="430" height="28" rx="14" fill="#fff" opacity=".09"/>
  <g transform="translate(126 458)">
    <rect width="220" height="142" rx="26" fill="#fff" opacity=".08" stroke="#fff" stroke-opacity=".14"/>
    <rect x="28" y="28" width="92" height="16" rx="8" fill="url(#accent)"/>
    <rect x="28" y="62" width="154" height="12" rx="6" fill="#fff" opacity=".16"/>
    <rect x="28" y="90" width="120" height="12" rx="6" fill="#fff" opacity=".1"/>
  </g>
  <g transform="translate(380 458)">
    <rect width="220" height="142" rx="26" fill="#fff" opacity=".08" stroke="#fff" stroke-opacity=".14"/>
    <circle cx="52" cy="50" r="28" fill="url(#accent)" opacity=".9"/>
    <rect x="94" y="38" width="84" height="14" rx="7" fill="#fff" opacity=".18"/>
    <rect x="34" y="92" width="150" height="12" rx="6" fill="#fff" opacity=".1"/>
  </g>
  <g transform="translate(634 458)">
    <rect width="350" height="142" rx="26" fill="#fff" opacity=".08" stroke="#fff" stroke-opacity=".14"/>
    <path d="M36 104 C 95 48, 134 78, 184 38 S 284 64, 314 28" fill="none" stroke="url(#accent)" stroke-width="10" stroke-linecap="round"/>
    <circle cx="36" cy="104" r="9" fill="#8dffcf"/><circle cx="184" cy="38" r="9" fill="#8eb7ff"/><circle cx="314" cy="28" r="9" fill="#8dffcf"/>
  </g>
  <text x="122" y="250" fill="#f7f3e8" font-family="Arial Black, Arial, sans-serif" font-size="54" letter-spacing="-2">Startups</text>
  <text x="122" y="315" fill="#b7bbc8" font-family="Arial, sans-serif" font-size="28">Launch faster with proof</text>
  <text x="122" y="650" fill="#8dffcf" font-family="Arial, sans-serif" font-size="20" letter-spacing="6">HAMZAH</text>
</svg>