<svg xmlns="http://www.w3.org/2000/svg" viewBox="0 0 1200 760" role="img" aria-labelledby="title desc">
  <title id="title">Portfolio Websites preview</title>
  <desc id="desc">Premium mockup visual for portfolio websites capability card.</desc>
  <defs>
    <linearGradient id="g" x1="0" x2="1" y1="0" y2="1"><stop offset="0" stop-color="#1E1B4B"/><stop offset=".55" stop-color="#A78BFA"/><stop offset="1" stop-color="#F472B6"/></linearGradient>
    <radialGradient id="r" cx="72%" cy="18%" r="70%"><stop offset="0" stop-color="#fff" stop-opacity=".35"/><stop offset="1" stop-color="#fff" stop-opacity="0"/></radialGradient>
    <filter id="shadow" x="-20%" y="-20%" width="140%" height="150%"><feDropShadow dx="0" dy="28" stdDeviation="26" flood-color="#000" flood-opacity=".32"/></filter>
  </defs>
  <rect width="1200" height="760" rx="56" fill="url(#g)"/>
  <rect width="1200" height="760" rx="56" fill="url(#r)"/>
  <path d="M0 590 C190 480 310 650 485 540 C670 426 782 614 985 465 C1078 397 1146 410 1200 430 L1200 760 L0 760 Z" fill="#000" opacity=".18"/>
  <g filter="url(#shadow)">
    <rect x="92" y="86" width="1016" height="548" rx="38" fill="#0B1120" opacity=".78" stroke="#fff" stroke-opacity=".18"/>
    <rect x="126" y="124" width="948" height="70" rx="24" fill="#fff" opacity=".12"/>
    <circle cx="164" cy="159" r="10" fill="#F87171"/><circle cx="194" cy="159" r="10" fill="#FBBF24"/><circle cx="224" cy="159" r="10" fill="#34D399"/>
    <rect x="810" y="145" width="210" height="28" rx="14" fill="#fff" opacity=".26"/>
    <rect x="146" y="230" width="378" height="58" rx="18" fill="#fff" opacity=".92"/>
    <rect x="146" y="306" width="450" height="22" rx="11" fill="#fff" opacity=".42"/>
    <rect x="146" y="344" width="350" height="22" rx="11" fill="#fff" opacity=".28"/>
    <rect x="146" y="402" width="164" height="52" rx="26" fill="#F472B6" opacity=".95"/>
    <rect x="332" y="402" width="164" height="52" rx="26" fill="#fff" opacity=".12" stroke="#fff" stroke-opacity=".26"/>
    <g transform="translate(642 226)">
      <rect width="356" height="286" rx="28" fill="#fff" opacity=".13" stroke="#fff" stroke-opacity=".24"/>
      <rect x="28" y="32" width="300" height="38" rx="19" fill="#A78BFA" opacity=".9"/>
      <rect x="28" y="96" width="126" height="94" rx="22" fill="#fff" opacity=".82"/>
      <rect x="174" y="96" width="154" height="94" rx="22" fill="#fff" opacity=".20"/>
      <rect x="28" y="212" width="300" height="28" rx="14" fill="#fff" opacity=".35"/>
    </g>
    <g transform="translate(146 518)">
      <rect width="884" height="76" rx="24" fill="#fff" opacity=".10"/>
      <rect x="26" y="22" width="142" height="32" rx="16" fill="#fff" opacity=".22"/>
      <rect x="194" y="22" width="142" height="32" rx="16" fill="#fff" opacity=".22"/>
      <rect x="362" y="22" width="142" height="32" rx="16" fill="#fff" opacity=".22"/>
      <rect x="530" y="22" width="142" height="32" rx="16" fill="#fff" opacity=".22"/>
    </g>
  </g>
  <text x="92" y="694" fill="#fff" font-family="Inter, Arial, sans-serif" font-size="42" font-weight="800">Portfolio Websites</text>
  <text x="92" y="730" fill="#fff" opacity=".74" font-family="Inter, Arial, sans-serif" font-size="22">Case-study identity systems</text>
  <g font-family="Inter, Arial, sans-serif" font-size="17" font-weight="800" fill="#071016">
    <rect x="790" y="662" width="318" height="48" rx="24" fill="#fff" opacity=".82"/>
    <text x="814" y="693">Work · About · Proof</text>
  </g>
</svg>